<svg width="64" height="64" viewBox="0 0 64 64" fill="none" xmlns="http://www.w3.org/2000/svg">
<rect width="64" height="64" rx="5" fill="#D9D9D9"/>
<path d="M54.8406 51.3883C54.5055 50.1391 53.9672 48.9813 53.2664 47.9555C53.9266 47.5695 54.5258 47.0922 55.0438 46.5031C56.3336 45.0102 56.9227 43.1109 56.7094 41.1305C56.5367 39.6781 54.7594 39.0687 53.7438 40.125L52.0578 41.6484C51.5094 42.1055 50.6156 42.1562 50.0367 41.618C49.4578 41.1102 49.3156 40.2672 49.6914 39.6477L50.9914 37.7281C51.9055 36.5602 51.0117 34.8844 49.5797 34.9453C47.6297 35.0063 45.7813 35.8797 44.5016 37.3523C43.1813 38.8758 42.6024 40.8664 42.8563 42.8164L40.6524 42.5828C40.6117 42.5828 40.5813 42.5727 40.5406 42.5727C39.2813 42.5727 38.2555 41.5469 38.2555 40.2875V37.4031C40.9672 34.9758 43.5977 32.0305 43.5977 28.7906V22.7883H45.3953C45.9844 22.7883 46.4516 22.3109 46.4516 21.732C46.4516 21.1531 45.9742 20.6758 45.3953 20.6758H44.6742C44.4813 15.6484 41.4242 11.3523 37.0774 9.39219C37.1688 7.55391 35.7164 6 33.8375 6H29.6735C27.7641 6 26.3625 7.60469 26.4539 9.39219C22.1071 11.3523 19.05 15.6484 18.8571 20.6758H18.1258C17.5367 20.6758 17.0696 21.1531 17.0696 21.732C17.0696 22.3109 17.5469 22.7883 18.1258 22.7883H19.9133V28.7906C19.9133 32.0406 22.5641 34.9859 25.2758 37.4133V40.2875C25.2758 41.5469 24.25 42.5727 22.9906 42.5727C22.95 42.5727 22.9196 42.5727 22.8789 42.5828C19.4461 42.9383 19.375 42.9484 17.8719 43.1109C13.4336 43.8016 9.82814 47.0414 8.68049 51.3781L7.27893 56.6594C7.12658 57.2281 7.46174 57.807 8.03049 57.9594C8.59924 58.1117 9.17814 57.7766 9.33049 57.2078L10.7321 51.9266C11.6461 48.4836 14.4696 45.8937 17.9227 45.2641V49.1437C16.318 49.5906 14.9875 50.7992 14.4086 52.4141L12.9258 56.5781C12.7328 57.1266 13.0172 57.7359 13.5656 57.9289C14.1141 58.1219 14.7235 57.8375 14.9164 57.2891L16.3992 53.125C16.836 51.8961 18.0141 51.0633 19.3141 51.0633H36.5899L36.2547 51.4492C34.8328 53.0945 35.0055 55.593 36.6508 57.025C38.3063 58.457 40.8047 58.2641 42.2266 56.6289L46.2992 51.9266C46.6445 52.2516 46.9188 52.6578 47.0813 53.125L48.5641 57.2891C48.757 57.8375 49.3664 58.132 49.9149 57.9289C50.4633 57.7359 50.7578 57.1266 50.5547 56.5781L49.0719 52.4141C48.7774 51.5914 48.2899 50.8906 47.6805 50.3219L48.9602 48.8492C49.7117 48.9406 50.4531 48.8898 51.1844 48.7375C51.8953 49.6719 52.4438 50.7484 52.7586 51.9266L54.1602 57.2078C54.3125 57.7664 54.8914 58.1117 55.4602 57.9594C56.0289 57.807 56.3641 57.2281 56.2117 56.6594L54.8406 51.3883ZM26.8805 11.5453L28.1297 17.1617C28.2617 17.7305 28.8305 18.0961 29.3992 17.9641C29.968 17.832 30.3336 17.2734 30.2016 16.6945L28.5867 9.46328C28.4344 8.7625 28.9625 8.1125 29.6633 8.1125H33.8274C34.5383 8.1125 35.0766 8.79297 34.9039 9.46328L33.3195 16.7047C33.1875 17.2734 33.5531 17.8422 34.1219 17.9742C34.6906 18.1062 35.2594 17.7406 35.3914 17.1719L36.6406 11.5555C40.0125 13.2719 42.3688 16.7047 42.5516 20.6961H20.9797C21.1524 16.6945 23.5086 13.2617 26.8805 11.5453ZM22.0461 28.8008V22.7984H41.4649V28.8008C41.4649 32.2336 36.8438 35.8695 34.0406 38.1953C33.7867 38.4086 33.4617 38.5305 33.1266 38.5305H30.3742C30.0492 38.5305 29.7242 38.4086 29.4602 38.1953C26.7586 35.9508 22.0461 32.2539 22.0461 28.8008ZM28.1094 39.8305C28.7492 40.3586 29.5516 40.6531 30.3844 40.6531H33.1367C33.9594 40.6531 34.7719 40.3586 35.4117 39.8305C35.4828 39.7695 35.1477 40.0539 36.1328 39.2313V40.2977C36.1328 41.8414 36.9352 43.2023 38.1336 43.9844C33.868 46.5336 29.6735 46.5336 25.4078 43.9844C26.6164 43.1922 27.4086 41.8414 27.4086 40.2977V39.2414C27.4797 39.3023 27.1547 39.0281 28.1094 39.8305ZM20.0555 48.9508V45.0203L22.7063 44.7461C25.7125 46.9398 28.7391 48.0469 31.7555 48.0469C34.7821 48.0469 37.8086 46.9398 40.8047 44.7461L41.9727 44.868L38.4383 48.9508H20.0555ZM48.7977 46.6758C48.4219 46.5945 48.0258 46.7266 47.7719 47.0211L40.6422 55.2477C39.0578 57.0758 36.3055 54.6687 37.8797 52.8508L44.9992 44.6242C45.2531 44.3297 45.3242 43.9234 45.1922 43.568C44.593 41.9227 44.9383 40.0844 46.086 38.7539C46.8071 37.9211 47.7414 37.3828 48.7977 37.1695L47.8938 38.5203C46.9594 40.0641 47.2742 42.0445 48.6352 43.2328C49.9758 44.3906 51.9664 44.4719 53.4391 43.2633L54.6071 42.207C54.5461 43.2836 54.1399 44.2891 53.4289 45.1219C52.2813 46.432 50.5039 47.0414 48.7977 46.6758Z" fill="#64748B"/>
</svg>
