<svg width="16" height="17" viewBox="0 0 16 17" fill="none" xmlns="http://www.w3.org/2000/svg">
<path d="M10.6666 9.1V11.9C10.6666 14.2333 9.73325 15.1667 7.39992 15.1667H4.59992C2.26659 15.1667 1.33325 14.2333 1.33325 11.9V9.1C1.33325 6.76667 2.26659 5.83333 4.59992 5.83333H7.39992C9.73325 5.83333 10.6666 6.76667 10.6666 9.1Z" stroke="#0B3B95" stroke-width="1.5" stroke-linecap="round" stroke-linejoin="round"/>
<path d="M14.6666 5.1V7.9C14.6666 10.2333 13.7333 11.1667 11.3999 11.1667H10.6666V9.1C10.6666 6.76667 9.73325 5.83333 7.39992 5.83333H5.33325V5.1C5.33325 2.76667 6.26659 1.83333 8.59992 1.83333H11.3999C13.7333 1.83333 14.6666 2.76667 14.6666 5.1Z" stroke="#0B3B95" stroke-width="1.5" stroke-linecap="round" stroke-linejoin="round"/>
</svg>
