<svg width="34" height="34" viewBox="0 0 34 34" fill="none" xmlns="http://www.w3.org/2000/svg">
<circle cx="17" cy="17" r="17" fill="#EBEBEB"/>
<g clip-path="url(#clip0_44_2525)">
<path d="M14.7749 5.85329L14.7749 5.8533L24.8565 6.97406L24.8566 6.97407L24.84 7.12315C24.9337 7.1335 25.0202 7.17749 25.083 7.2467C25.1459 7.31591 25.1806 7.40549 25.1806 7.49833L14.7749 5.85329ZM14.7749 5.85329C14.7006 5.84504 14.6253 5.85233 14.554 5.87472L14.5989 6.01784L14.554 5.87472C14.4827 5.89711 14.4168 5.93413 14.3607 5.98349C14.3046 6.03285 14.2596 6.09345 14.2287 6.16142C14.1978 6.2294 14.1818 6.30313 14.1818 6.37777V6.97056H9.96691C9.82613 6.97056 9.69067 7.02562 9.59044 7.12434C9.49014 7.22313 9.43336 7.35762 9.43336 7.49833V25.9733H6.59765C6.45688 25.9733 6.32142 26.0283 6.22119 26.127C6.12089 26.2258 6.06411 26.3603 6.06411 26.501C6.06411 26.6417 6.12089 26.7762 6.22119 26.875H6.22119M14.7749 5.85329L6.22119 26.875M6.22119 26.875C6.32142 26.9737 6.45688 27.0288 6.59765 27.0288H14.1818V27.6216C14.1818 27.7623 14.2386 27.8968 14.3389 27.9956C14.439 28.0942 14.5743 28.1492 14.7148 28.1494L6.22119 26.875C6.22119 26.875 6.22119 26.875 6.22119 26.875ZM28.1663 25.9733H25.3306L14.7759 28.146C14.7761 28.146 14.7763 28.146 14.7765 28.146L24.8273 27.0288H28.167C28.3077 27.0288 28.4432 26.9737 28.5434 26.875C28.6437 26.7762 28.7005 26.6417 28.7005 26.501C28.7005 26.3603 28.6437 26.2258 28.5434 26.127C28.4432 26.0283 28.3077 25.9733 28.167 25.9733H28.1663ZM10.5004 8.0261H14.1818V8.69749H11.72C11.5792 8.69749 11.4438 8.75255 11.3436 8.85127C11.2433 8.95006 11.1865 9.08455 11.1865 9.22526V25.9733H10.5002L10.5004 8.0261ZM12.2538 25.9733V9.75302H14.1818V25.9733H12.2538ZM24.2635 26.0294L15.2489 27.0322V6.96805L24.2635 7.97083V26.0294Z" fill="#0B3B95" stroke="#0B3B95" stroke-width="0.3"/>
<path d="M16.7518 15.875C16.526 15.875 16.3053 15.9409 16.1176 16.0645C15.9299 16.188 15.7836 16.3636 15.6972 16.569C15.6108 16.7744 15.5882 17.0005 15.6323 17.2186C15.6763 17.4366 15.785 17.637 15.9447 17.7942C16.1043 17.9514 16.3077 18.0585 16.5291 18.1019C16.7505 18.1452 16.98 18.123 17.1886 18.0379C17.3971 17.9528 17.5754 17.8087 17.7008 17.6238C17.8263 17.4389 17.8932 17.2216 17.8932 16.9992C17.8928 16.7012 17.7725 16.4154 17.5585 16.2047C17.3445 15.9939 17.0544 15.8753 16.7518 15.875ZM16.7518 17.3679C16.6777 17.3679 16.6054 17.3463 16.5438 17.3058C16.4822 17.2653 16.4343 17.2077 16.4059 17.1403C16.3776 17.073 16.3702 16.9988 16.3846 16.9273C16.3991 16.8558 16.4347 16.7901 16.4871 16.7385C16.5394 16.687 16.6061 16.6518 16.6787 16.6376C16.7514 16.6234 16.8266 16.6307 16.895 16.6586C16.9634 16.6865 17.0219 16.7338 17.063 16.7944C17.1042 16.855 17.1261 16.9263 17.1261 16.9992C17.126 17.097 17.0865 17.1907 17.0163 17.2598C16.9462 17.3289 16.851 17.3678 16.7518 17.3679Z" fill="#1E5A87"/>
</g>
<defs>
<clipPath id="clip0_44_2525">
<rect width="22.3364" height="22" fill="white" transform="translate(6.21411 6)"/>
</clipPath>
</defs>
</svg>
