<svg width="718" height="534" viewBox="0 0 718 534" fill="none" xmlns="http://www.w3.org/2000/svg">
<path d="M646.057 493.064H598.494V493.423H646.057V493.064Z" fill="#EBEBEB"/>
<path d="M475.632 496.959H463.148V497.318H475.632V496.959Z" fill="#EBEBEB"/>
<path d="M597.057 479.736H569.497V480.095H597.057V479.736Z" fill="#EBEBEB"/>
<path d="M137.355 482.148H75.3301V482.507H137.355V482.148Z" fill="#EBEBEB"/>
<path d="M159.236 482.149H150.142V482.507H159.236V482.149Z" fill="#EBEBEB"/>
<path d="M323.31 488.209H188.791V488.568H323.31V488.209Z" fill="#EBEBEB"/>
<path d="M342.343 405.954H65.0531C60.534 405.954 56.8564 402.278 56.8564 397.762V8.19234C56.8564 3.67564 60.534 0 65.0531 0H342.343C346.861 0 350.539 3.67564 350.539 8.19234V397.762C350.539 402.278 346.861 405.954 342.343 405.954ZM65.0531 0.360244C60.7308 0.360244 57.2154 3.87371 57.2154 8.19377V397.763C57.2154 402.083 60.7308 405.597 65.0531 405.597H342.343C346.664 405.597 350.18 402.083 350.18 397.763V8.19234C350.18 3.87371 346.664 0.358809 342.343 0.358809L65.0531 0.360244Z" fill="#EBEBEB"/>
<path d="M652.946 405.954H375.656C371.139 405.954 367.461 402.278 367.461 397.762V8.19234C367.461 3.67564 371.139 0 375.656 0H652.946C657.467 0 661.143 3.67564 661.143 8.19234V397.762C661.143 402.278 657.465 405.954 652.946 405.954ZM375.656 0.360244C371.335 0.360244 367.82 3.87371 367.82 8.19377V397.763C367.82 402.083 371.335 405.597 375.656 405.597H652.946C657.269 405.597 660.784 402.083 660.784 397.763V8.19234C660.784 3.87371 657.269 0.358809 652.946 0.358809L375.656 0.360244Z" fill="#EBEBEB"/>
<path d="M717.999 469.963H-0.000976562V470.322H717.999V469.963Z" fill="#EBEBEB"/>
<path d="M171.359 372.872C170.146 359.01 155.988 353.822 139.211 355.289C122.436 356.755 109.394 364.323 110.608 378.185L171.359 372.872Z" fill="white"/>
<path d="M138.656 348.953C146.442 348.273 148.928 341.7 148.246 333.918C147.565 326.136 143.975 320.093 136.189 320.775C128.403 321.455 125.918 328.029 126.6 335.811C127.28 343.593 130.87 349.635 138.656 348.953Z" fill="white"/>
<path d="M488.383 77.5297C488.759 81.8211 485.582 85.6044 481.289 85.979C476.995 86.355 473.21 83.1803 472.835 78.8889C472.459 74.5975 475.635 70.8143 479.929 70.4382C484.222 70.0636 488.008 73.2384 488.383 77.5297Z" fill="white"/>
<path d="M531.568 73.7543C531.944 78.0457 528.767 81.829 524.474 82.2036C520.18 82.5796 516.395 79.4049 516.019 75.1135C515.642 70.8222 518.819 67.0389 523.112 66.6628C527.407 66.2882 531.191 69.463 531.568 73.7543Z" fill="white"/>
<path d="M574.752 69.978C575.128 74.2693 571.952 78.0526 567.658 78.4287C563.365 78.8047 559.579 75.6299 559.203 71.3386C558.827 67.0472 562.003 63.2639 566.297 62.8879C570.591 62.5119 574.376 65.6866 574.752 69.978Z" fill="white"/>
<path d="M492.234 121.525C492.61 125.817 489.433 129.6 485.14 129.976C480.846 130.352 477.061 127.177 476.685 122.886C476.308 118.595 479.485 114.811 483.778 114.437C488.073 114.059 491.859 117.233 492.234 121.525Z" fill="white"/>
<path d="M535.419 117.747C535.795 122.038 532.619 125.822 528.325 126.198C524.032 126.574 520.246 123.399 519.87 119.108C519.494 114.816 522.67 111.033 526.964 110.657C531.258 110.282 535.043 113.457 535.419 117.747Z" fill="white"/>
<path d="M578.604 113.971C578.98 118.262 575.803 122.046 571.51 122.42C567.216 122.796 563.431 119.621 563.055 115.33C562.678 111.039 565.855 107.255 570.149 106.879C574.442 106.506 578.227 109.681 578.604 113.971Z" fill="white"/>
<path d="M496.086 165.517C496.462 169.808 493.285 173.591 488.992 173.967C484.698 174.344 480.913 171.169 480.538 166.877C480.162 162.586 483.338 158.803 487.632 158.427C491.924 158.051 495.709 161.225 496.086 165.517Z" fill="white"/>
<path d="M539.27 161.74C539.646 166.032 536.469 169.815 532.176 170.191C527.882 170.567 524.097 167.392 523.721 163.101C523.344 158.809 526.521 155.026 530.814 154.652C535.108 154.274 538.893 157.449 539.27 161.74Z" fill="white"/>
<path d="M582.453 157.966C582.83 162.257 579.653 166.041 575.359 166.415C571.066 166.79 567.281 163.617 566.904 159.325C566.528 155.034 569.704 151.251 573.998 150.876C578.293 150.5 582.078 153.675 582.453 157.966Z" fill="white"/>
<path d="M573.124 160.499L484.4 168.258L563.067 72.7187L482.464 79.7672C481.522 79.849 480.692 79.1529 480.61 78.2114C480.528 77.2699 481.225 76.4403 482.167 76.3585L570.891 68.5996L492.224 164.139L572.827 157.091C573.769 157.009 574.599 157.705 574.681 158.645C574.763 159.586 574.066 160.418 573.124 160.499Z" fill="#E6E6E6"/>
<path d="M574.483 331.043C574.19 330.197 573.433 329.57 572.54 329.511C568.47 329.239 565.033 327.717 562.311 324.986C558.763 321.425 556.677 316.006 556.339 309.572C556.276 308.373 555.271 307.439 554.07 307.432C552.74 307.423 551.681 308.545 551.752 309.872C552.162 317.418 554.715 323.872 559.055 328.228C562.445 331.631 566.818 333.625 571.8 334.06C571.887 334.067 571.999 334.077 572.128 334.087C573.781 334.218 575.026 332.607 574.483 331.043Z" fill="white"/>
<path d="M569.894 358.591C550.862 356.926 537.138 343.962 532.794 323.731C532.517 322.441 533.34 321.17 534.641 320.945C535.843 320.737 537.017 321.498 537.271 322.69C541.163 340.885 553.38 352.536 570.294 354.016C588.842 355.638 608.764 343.441 612.332 312.692C612.478 311.447 613.565 310.527 614.814 310.636C616.093 310.748 617.053 311.889 616.902 313.163C613.483 342.154 594.411 360.736 569.894 358.591Z" fill="white"/>
<path d="M533.989 303.566C532.71 303.454 531.751 302.313 531.901 301.039C535.322 272.047 554.395 253.466 578.91 255.609C600.391 257.488 614.875 273.561 617.131 297.773C617.25 299.052 616.258 300.166 614.975 300.242H614.971C613.72 300.317 612.665 299.372 612.546 298.127C610.475 276.312 597.585 261.852 578.508 260.185C559.959 258.563 540.038 270.758 536.469 301.508C536.326 302.755 535.239 303.675 533.989 303.566Z" fill="white"/>
<path d="M570.829 346.294C567.291 345.984 563.972 345.159 560.926 343.828C559.687 343.287 559.176 341.796 559.824 340.609C560.388 339.574 561.647 339.126 562.726 339.601C565.589 340.859 568.754 341.598 572.165 341.784C586.233 342.59 601.081 332.63 602.536 308.567C603.432 293.747 598.353 281.776 588.87 276.051C587.853 275.436 587.475 274.152 587.999 273.087C588.595 271.877 590.106 271.43 591.261 272.127C602.234 278.749 608.128 292.26 607.124 308.844C605.721 332.048 591.236 347.479 571.9 346.373C571.543 346.35 571.184 346.324 570.829 346.294Z" fill="white"/>
<path d="M550.368 331.979C549.257 332.738 547.737 332.384 547.063 331.219C542.991 324.18 541.087 315.105 541.678 305.358C543.02 283.162 556.335 268.077 574.415 267.78C575.757 267.758 576.841 268.879 576.765 270.218V270.224C576.696 271.416 575.724 272.355 574.529 272.378C561.121 272.642 547.65 282.772 546.267 305.635C545.73 314.511 547.429 322.702 551.07 328.965C551.668 329.994 551.352 331.308 550.368 331.979Z" fill="white"/>
<path d="M581.764 330.102C581.296 329.038 581.706 327.81 582.702 327.21C588.741 323.576 592.45 315.949 592.513 306.756C592.563 299.392 590.425 293.163 586.492 289.216C583.459 286.171 579.537 284.638 574.837 284.646C567.758 284.665 562.025 288.542 558.849 295.363C558.349 296.437 557.105 296.945 555.993 296.536C554.727 296.071 554.126 294.614 554.697 293.394C558.626 285.014 565.997 280.075 574.824 280.051C580.71 280.042 585.873 282.085 589.749 285.974C594.553 290.796 597.167 298.186 597.108 306.786C597.035 317.635 592.463 326.729 585.016 331.18C583.844 331.88 582.314 331.352 581.764 330.102Z" fill="white"/>
<path d="M565.221 313.227C563.915 313.751 562.455 312.993 562.12 311.627C561.968 311.005 561.842 310.365 561.743 309.706C560.443 301.118 565.063 293.639 572.488 292.313C576.321 291.625 579.739 292.526 582.351 294.857C583.41 295.805 583.329 297.494 582.173 298.322L582.029 298.424C581.159 299.047 580.011 298.906 579.2 298.209C577.642 296.872 575.663 296.41 573.297 296.834C567.637 297.845 565.486 303.73 566.288 309.019C566.365 309.534 566.463 310.034 566.581 310.513C566.853 311.64 566.296 312.793 565.221 313.227Z" fill="white"/>
<path d="M572.814 322.064C572.808 322.064 572.801 322.062 572.796 322.062C571.212 321.922 570.337 320.148 571.181 318.8L571.377 318.488C571.8 317.814 572.557 317.442 573.353 317.498C574.033 317.544 574.754 317.501 575.508 317.366C580.449 316.482 582.717 311.884 582.678 307.21C582.668 306.044 583.476 305.036 584.63 304.862C585.978 304.659 587.252 305.66 587.278 307.024C587.414 314.513 583.003 320.694 576.317 321.889C575.11 322.104 573.937 322.163 572.814 322.064Z" fill="white"/>
<path d="M573.835 313.585C571.388 313.371 569.564 311.723 568.902 309.371C568.519 308.007 569.663 306.687 571.073 306.81L571.6 306.856C572.419 306.928 573.094 307.488 573.367 308.263C573.5 308.642 573.756 308.966 574.234 309.008C575.338 309.104 575.532 307.521 575.561 307.202C575.581 306.975 575.628 306.096 575.252 305.577C574.883 305.069 574.63 304.488 574.685 303.862C574.864 301.82 577.446 300.999 578.749 302.583C579.784 303.844 580.315 305.607 580.14 307.602C579.811 311.358 577.159 313.876 573.835 313.585Z" fill="white"/>
<path d="M530.649 262.218C529.384 262.107 528.449 260.994 528.56 259.729L530.302 239.828L550.213 241.569C551.478 241.68 552.413 242.793 552.302 244.058C552.192 245.322 551.078 246.257 549.812 246.146L534.48 244.806L533.139 260.13C533.028 261.394 531.913 262.328 530.649 262.218Z" fill="white"/>
<path d="M625.321 270.497C624.056 270.386 623.121 269.273 623.232 268.008L624.573 252.684L609.241 251.344C607.976 251.233 607.041 250.119 607.151 248.855C607.262 247.591 608.376 246.656 609.641 246.767L629.553 248.508L627.811 268.409C627.701 269.673 626.586 270.607 625.321 270.497Z" fill="white"/>
<path d="M618.264 377.492L598.352 375.751C597.087 375.641 596.152 374.527 596.263 373.263C596.373 371.998 597.488 371.064 598.753 371.174L614.085 372.515L615.426 357.191C615.537 355.926 616.651 354.992 617.916 355.103C619.181 355.213 620.116 356.327 620.006 357.591L618.264 377.492Z" fill="white"/>
<path d="M538.921 370.554L519.01 368.813L520.752 348.912C520.862 347.647 521.977 346.713 523.242 346.823C524.507 346.934 525.442 348.048 525.331 349.312L523.99 364.636L539.322 365.977C540.587 366.087 541.522 367.201 541.411 368.465C541.301 369.73 540.186 370.664 538.921 370.554Z" fill="white"/>
<path d="M107.312 327.485C106.535 327.552 105.849 326.978 105.781 326.2L104.71 313.965L116.952 312.894C117.73 312.827 118.415 313.401 118.483 314.179C118.55 314.955 117.976 315.641 117.197 315.709L107.77 316.532L108.594 325.955C108.665 326.733 108.089 327.417 107.312 327.485Z" fill="white"/>
<path d="M165.522 322.395C164.745 322.463 164.058 321.889 163.991 321.111L163.167 311.688L153.739 312.512C152.962 312.58 152.276 312.006 152.209 311.228C152.141 310.451 152.715 309.765 153.494 309.698L165.736 308.627L166.807 320.862C166.874 321.642 166.3 322.328 165.522 322.395Z" fill="white"/>
<path d="M171.552 375.084L159.31 376.155C158.533 376.222 157.846 375.648 157.779 374.87C157.711 374.094 158.286 373.408 159.064 373.34L168.491 372.516L167.667 363.094C167.6 362.316 168.174 361.631 168.952 361.564C169.729 361.497 170.416 362.071 170.483 362.849L171.552 375.084Z" fill="#E0E0E0"/>
<path d="M122.769 379.348L110.527 380.419L109.456 368.182C109.388 367.405 109.962 366.719 110.741 366.652C111.518 366.584 112.204 367.159 112.272 367.936L113.096 377.359L122.523 376.535C123.3 376.467 123.986 377.042 124.054 377.819C124.121 378.594 123.546 379.279 122.769 379.348Z" fill="#E0E0E0"/>
<path d="M164.54 123.425L117.682 127.522L116.723 116.563C115.728 105.193 124.173 95.1348 135.547 94.1401C146.923 93.1455 156.987 101.586 157.982 112.955L158.539 119.323L165.3 118.731L164.743 112.363C163.422 97.2675 150.06 86.0626 134.956 87.383C119.852 88.7035 108.641 102.058 109.962 117.154L110.927 128.177C105.475 129.239 101.593 134.265 102.087 139.918L105.435 178.158C105.964 184.204 111.298 188.676 117.348 188.148L169.805 183.561C175.855 183.033 180.329 177.703 179.801 171.656L176.453 133.417C175.924 127.369 170.59 122.895 164.54 123.425ZM144.636 152.89L145.789 166.057C145.979 168.218 144.379 170.123 142.216 170.313C140.054 170.502 138.148 168.903 137.959 166.742L136.805 153.575C135.085 152.516 133.857 150.703 133.668 148.536C133.349 144.897 136.043 141.69 139.683 141.371C143.323 141.052 146.533 143.745 146.852 147.383C147.04 149.549 146.145 151.548 144.636 152.89Z" fill="white"/>
<path d="M244.759 145.592L240.022 137.873C237.455 138.228 235.356 138.228 232.79 137.873L228.052 145.592L227.143 145.351C224.091 144.54 221.145 143.317 218.391 141.719L217.577 141.247L219.586 132.868C219.748 132.189 220.43 131.772 221.109 131.934C221.789 132.096 222.207 132.778 222.043 133.457L220.475 139.993C222.521 141.107 224.672 141.999 226.889 142.657L231.516 135.116L232.353 135.252C235.036 135.69 237.773 135.69 240.455 135.252L241.292 135.116L245.919 142.657C248.136 141.998 250.288 141.107 252.334 139.993L250.275 131.403L250.964 130.909C252.842 129.56 254.517 127.966 255.954 126.161C256.38 125.625 257.14 125.498 257.696 125.899C258.273 126.314 258.408 127.132 257.967 127.689C256.554 129.471 254.932 131.067 253.125 132.451L255.235 141.247L254.422 141.719C251.668 143.317 248.722 144.54 245.669 145.351L244.759 145.592ZM215.723 128.741C215.325 128.286 214.94 127.818 214.571 127.337L205.769 129.444L205.296 128.632C203.698 125.879 202.474 122.935 201.663 119.884L201.422 118.975L209.145 114.24C208.967 112.954 208.88 111.766 208.88 110.626C208.88 109.488 208.968 108.299 209.145 107.013L201.422 102.279L201.663 101.371C202.474 98.3193 203.698 95.3756 205.296 92.6228L205.769 91.8105L214.57 93.9174C216.045 91.9942 217.761 90.2805 219.685 88.8051L218.088 82.1485C217.926 81.471 218.344 80.7907 219.02 80.6285L219.024 80.6271C219.702 80.4649 220.383 80.8826 220.545 81.5586L222.532 89.8514L221.837 90.3509C219.632 91.9382 217.697 93.8715 216.111 96.076L215.615 96.7635L207.021 94.7054C205.908 96.7506 205.016 98.9006 204.357 101.117L211.899 105.739L211.762 106.576C211.521 108.056 211.403 109.381 211.403 110.625C211.403 111.872 211.521 113.196 211.762 114.674L211.899 115.509L204.356 120.135C205.013 122.352 205.906 124.501 207.019 126.546L215.614 124.488L216.109 125.175C216.576 125.824 217.077 126.454 217.606 127.058C218.045 127.561 218.034 128.311 217.552 128.775L217.506 128.82C217.001 129.312 216.188 129.272 215.723 128.741ZM267.041 129.445L263.796 128.669C263.117 128.507 262.699 127.825 262.861 127.146C263.023 126.469 263.705 126.05 264.385 126.212L265.786 126.548C266.899 124.502 267.791 122.352 268.45 120.136L260.907 115.511L261.043 114.675C261.284 113.197 261.402 111.872 261.402 110.626C261.402 109.381 261.284 108.057 261.043 106.578L260.907 105.741L268.449 101.118C267.791 98.9006 266.898 96.752 265.785 94.7068L257.19 96.7649L256.695 96.0774C255.108 93.8729 253.174 91.9397 250.968 90.3523L250.273 89.8528L252.332 81.2629C250.286 80.1506 248.135 79.2579 245.918 78.5991L241.291 86.1384L240.454 86.0035C237.77 85.5686 235.033 85.5686 232.349 86.0035L231.513 86.1384L226.886 78.6006C226.599 78.6852 226.312 78.7757 226.025 78.869C225.384 79.0785 224.695 78.734 224.464 78.1025C224.22 77.438 224.566 76.6888 225.238 76.4692C225.868 76.2626 226.504 76.0745 227.138 75.9066L228.048 75.6641L232.786 83.3842C235.363 83.0268 237.438 83.0268 240.016 83.3842L244.753 75.6641L245.664 75.9052C248.717 76.7175 251.662 77.9404 254.416 79.5363L255.229 80.0085L253.119 88.8065C255.044 90.282 256.76 91.9956 258.234 93.9189L267.036 91.8119L267.508 92.6243C269.106 95.3771 270.33 98.3207 271.141 101.372L271.382 102.281L263.66 107.014C263.838 108.3 263.924 109.49 263.924 110.628C263.924 111.767 263.836 112.956 263.66 114.242L271.382 118.977L271.141 119.885C270.33 122.936 269.106 125.88 267.508 128.633L267.041 129.445ZM236.051 122.925C229.635 122.744 224.284 117.399 224.101 110.987C223.915 104.524 228.748 99.1259 234.984 98.4068C235.738 98.3193 236.406 98.9092 236.406 99.6684C236.406 100.306 235.93 100.841 235.297 100.913C229.797 101.536 225.666 106.734 226.818 112.596C227.566 116.402 230.634 119.469 234.444 120.212C240.695 121.434 246.189 116.66 246.189 110.626C246.189 108.607 245.566 106.652 244.419 105.015C244.057 104.498 244.154 103.792 244.628 103.374C245.195 102.873 246.08 102.978 246.512 103.6C247.941 105.652 248.717 108.099 248.717 110.626C248.714 117.529 243 123.12 236.051 122.925Z" fill="white"/>
<path d="M155.538 250.649L152.478 245.663C150.821 245.893 149.464 245.893 147.807 245.663L144.747 250.649L144.159 250.493C142.186 249.969 140.284 249.179 138.504 248.146L137.979 247.84L139.277 242.427C139.382 241.989 139.823 241.718 140.261 241.824C140.699 241.929 140.969 242.369 140.864 242.807L139.851 247.029C141.174 247.749 142.563 248.325 143.996 248.75L146.984 243.879L147.525 243.968C149.259 244.251 151.026 244.251 152.76 243.968L153.301 243.879L156.291 248.75C157.724 248.325 159.112 247.749 160.435 247.029L159.104 241.481L159.549 241.161C160.762 240.29 161.844 239.259 162.773 238.094C163.049 237.748 163.54 237.666 163.899 237.924C164.271 238.193 164.358 238.721 164.074 239.081C163.161 240.232 162.112 241.264 160.945 242.158L162.308 247.84L161.782 248.146C160.003 249.178 158.1 249.967 156.127 250.493L155.538 250.649ZM136.78 239.764C136.523 239.47 136.274 239.169 136.036 238.857L130.349 240.219L130.045 239.694C129.012 237.916 128.223 236.014 127.699 234.042L127.542 233.455L132.531 230.396C132.416 229.565 132.36 228.798 132.36 228.061C132.36 227.327 132.416 226.557 132.531 225.726L127.542 222.668L127.699 222.081C128.223 220.109 129.012 218.208 130.045 216.429L130.349 215.903L136.036 217.265C136.988 216.023 138.097 214.916 139.34 213.963L138.309 209.663C138.204 209.225 138.474 208.786 138.911 208.681L138.914 208.68C139.352 208.575 139.791 208.845 139.896 209.283L141.18 214.64L140.73 214.963C139.306 215.988 138.056 217.237 137.031 218.662L136.711 219.107L131.158 217.778C130.44 219.1 129.863 220.488 129.438 221.92L134.31 224.907L134.222 225.448C134.066 226.404 133.991 227.259 133.991 228.064C133.991 228.869 134.067 229.725 134.222 230.681L134.311 231.22L129.439 234.208C129.864 235.641 130.441 237.029 131.159 238.351L136.712 237.022L137.033 237.466C137.334 237.886 137.657 238.293 137.999 238.684C138.283 239.008 138.275 239.493 137.964 239.792L137.934 239.82C137.605 240.132 137.081 240.106 136.78 239.764ZM169.933 240.218L167.836 239.717C167.398 239.612 167.127 239.172 167.232 238.734C167.336 238.296 167.777 238.026 168.215 238.131L169.121 238.348C169.839 237.026 170.417 235.638 170.842 234.206L165.969 231.217L166.058 230.678C166.213 229.723 166.29 228.867 166.29 228.061C166.29 227.256 166.213 226.401 166.058 225.445L165.971 224.904L170.843 221.917C170.418 220.485 169.841 219.097 169.123 217.775L163.57 219.104L163.25 218.659C162.224 217.235 160.975 215.985 159.55 214.96L159.101 214.638L160.432 209.088C159.11 208.368 157.721 207.793 156.288 207.367L153.3 212.236L152.76 212.149C151.026 211.868 149.259 211.868 147.524 212.149L146.984 212.236L143.996 207.367C143.81 207.421 143.624 207.48 143.44 207.54C143.026 207.675 142.581 207.453 142.432 207.045C142.274 206.616 142.498 206.132 142.932 205.99C143.339 205.857 143.75 205.735 144.158 205.627L144.747 205.471L147.807 210.458C149.473 210.227 150.812 210.227 152.478 210.458L155.538 205.471L156.126 205.627C158.097 206.152 160 206.942 161.781 207.972L162.306 208.278L160.943 213.962C162.187 214.915 163.294 216.021 164.248 217.264L169.934 215.902L170.239 216.427C171.271 218.206 172.061 220.107 172.585 222.079L172.742 222.666L167.753 225.725C167.868 226.556 167.924 227.324 167.924 228.06C167.924 228.796 167.868 229.564 167.753 230.395L172.742 233.454L172.585 234.041C172.061 236.013 171.271 237.914 170.239 239.693L169.933 240.218ZM149.913 236.005C145.768 235.889 142.313 232.436 142.194 228.292C142.073 224.117 145.195 220.63 149.224 220.165C149.711 220.109 150.142 220.49 150.142 220.98C150.142 221.392 149.834 221.738 149.425 221.784C145.873 222.185 143.203 225.544 143.947 229.332C144.429 231.79 146.412 233.772 148.874 234.253C152.912 235.042 156.462 231.958 156.462 228.06C156.462 226.755 156.06 225.492 155.319 224.434C155.084 224.102 155.148 223.644 155.454 223.374C155.821 223.049 156.391 223.118 156.671 223.52C157.595 224.846 158.096 226.427 158.096 228.06C158.093 232.519 154.401 236.133 149.913 236.005Z" fill="#E6E6E6"/>
<path d="M359 534C512.769 534 637.424 526.725 637.424 517.749C637.424 508.774 512.769 501.498 359 501.498C205.23 501.498 80.5752 508.774 80.5752 517.749C80.5752 526.725 205.23 534 359 534Z" fill="#0B172E" fill-opacity="0.16"/>
<path d="M521.915 130.426H475.157L442.085 508.251H488.843C502.14 508.251 513.904 497.439 515.067 484.149L543.92 154.528C545.083 141.237 535.212 130.426 521.915 130.426Z" fill="#0F2C61"/>
<path d="M512.374 130.426H354.128C340.831 130.426 329.067 141.237 327.904 154.528L299.05 484.149C297.887 497.439 307.758 508.251 321.055 508.251H479.301C492.599 508.251 504.362 497.439 505.525 484.149L534.379 154.528C535.542 141.237 525.671 130.426 512.374 130.426Z" fill="#0F2C61"/>
<path opacity="0.3" d="M512.374 130.426H354.128C340.831 130.426 329.067 141.237 327.904 154.528L299.05 484.149C297.887 497.439 307.758 508.251 321.055 508.251H479.301C492.599 508.251 504.362 497.439 505.525 484.149L534.379 154.528C535.542 141.237 525.671 130.426 512.374 130.426Z" fill="white"/>
<path opacity="0.4" d="M511.698 138.148H469.976C467.515 138.148 465.205 139.763 464.293 142.12C460.92 150.832 452.378 156.798 443.28 156.798H418.608C409.509 156.798 402.01 150.83 400.162 142.12C399.663 139.763 397.635 138.15 395.174 138.15H353.452C344.401 138.15 336.423 145.482 335.63 154.529L306.776 484.15C305.985 493.196 312.68 500.529 321.731 500.529H479.977C489.028 500.529 497.006 493.196 497.799 484.15L526.652 154.529C527.444 145.482 520.749 138.148 511.698 138.148Z" fill="white"/>
<path d="M472.276 317.196H361.526C358.242 317.196 355.814 314.535 356.101 311.254L356.655 304.92C356.943 301.638 359.838 298.979 363.122 298.979H473.872C477.156 298.979 479.584 301.639 479.297 304.92L478.743 311.254C478.456 314.535 475.561 317.196 472.276 317.196Z" fill="white"/>
<path d="M469.884 344.52H359.134C355.85 344.52 353.421 341.859 353.709 338.578L354.263 332.245C354.55 328.962 357.445 326.303 360.729 326.303H471.479C474.763 326.303 477.192 328.964 476.904 332.245L476.35 338.578C476.063 341.859 473.168 344.52 469.884 344.52Z" fill="white"/>
<path opacity="0.1" d="M438.626 144.322C438.307 147.961 435.098 150.911 431.456 150.911C427.814 150.911 425.122 147.961 425.441 144.322C425.759 140.682 428.969 137.732 432.611 137.732C436.251 137.732 438.945 140.682 438.626 144.322Z" fill="black"/>
<path opacity="0.1" d="M435.635 144.322C435.462 146.31 433.708 147.922 431.718 147.922C429.729 147.922 428.257 146.31 428.431 144.322C428.605 142.334 430.358 140.723 432.348 140.723C434.339 140.723 435.809 142.334 435.635 144.322Z" fill="black"/>
<g opacity="0.8">
<path d="M492.216 155.312C491.149 155.312 490.359 154.448 490.453 153.382L490.762 149.852C490.855 148.786 491.795 147.922 492.862 147.922C493.929 147.922 494.719 148.786 494.626 149.852L494.317 153.382C494.224 154.448 493.283 155.312 492.216 155.312Z" fill="white"/>
<path d="M507.67 155.312C506.603 155.312 505.814 154.448 505.907 153.381L506.632 145.098C506.725 144.032 507.666 143.168 508.733 143.168C509.8 143.168 510.59 144.032 510.496 145.098L509.771 153.381C509.678 154.448 508.737 155.312 507.67 155.312Z" fill="white"/>
<path d="M499.944 155.312C498.877 155.312 498.087 154.448 498.18 153.381L498.697 147.475C498.791 146.409 499.731 145.545 500.798 145.545C501.865 145.545 502.655 146.409 502.562 147.475L502.045 153.381C501.951 154.448 501.011 155.312 499.944 155.312Z" fill="white"/>
</g>
<g opacity="0.8">
<path d="M359.911 155.313H350.211C349.607 155.313 349.16 154.823 349.213 154.219L349.668 149.014C349.722 148.409 350.254 147.92 350.858 147.92H360.558C361.162 147.92 361.609 148.409 361.556 149.014L361.1 154.219C361.047 154.823 360.516 155.313 359.911 155.313Z" fill="white"/>
<path d="M364.41 153.9C363.805 153.9 363.358 153.411 363.412 152.807L363.62 150.426C363.673 149.821 364.206 149.332 364.809 149.332C365.413 149.332 365.86 149.821 365.807 150.426L365.599 152.807C365.547 153.411 365.014 153.9 364.41 153.9Z" fill="white"/>
</g>
<path d="M454.046 275.563C473.369 257.076 475.295 227.743 458.347 210.047C441.398 192.351 411.994 192.992 392.671 211.479C373.347 229.966 371.422 259.299 388.37 276.995C405.318 294.691 434.722 294.05 454.046 275.563Z" fill="white"/>
<path d="M423.507 241.73C411.322 241.73 401.038 246.363 400.158 256.432L399.18 267.605H443.307L444.284 256.432C445.165 246.363 435.693 241.73 423.507 241.73Z" fill="#0F2C61"/>
<path d="M423.91 237.129C429.565 237.129 432.173 232.547 432.667 226.895C433.163 221.243 431.356 216.662 425.701 216.662C420.046 216.662 417.438 221.243 416.943 226.895C416.449 232.547 418.255 237.129 423.91 237.129Z" fill="#0F2C61"/>
<path d="M467.221 307.76C464.211 307.76 461.671 308.904 461.454 311.391L461.213 314.151H472.112L472.353 311.391C472.57 308.904 470.231 307.76 467.221 307.76Z" fill="#0F2C61"/>
<path d="M467.32 306.623C468.717 306.623 469.36 305.491 469.482 304.096C469.604 302.699 469.159 301.568 467.762 301.568C466.365 301.568 465.721 302.701 465.599 304.096C465.477 305.492 465.924 306.623 467.32 306.623Z" fill="#0F2C61"/>
<path d="M433.664 371.848H390.571C385.538 371.848 381.814 367.77 382.255 362.738C382.696 357.708 387.133 353.629 392.166 353.629H435.259C440.293 353.629 444.016 357.708 443.575 362.738C443.134 367.77 438.697 371.848 433.664 371.848Z" fill="#0F2C61"/>
<path d="M428.465 473.435H382.345C377.026 473.435 373.092 469.125 373.557 463.809L376.499 430.189C376.965 424.873 381.653 420.562 386.972 420.562H433.092C438.411 420.562 442.346 424.873 441.88 430.189L438.938 463.809C438.473 469.125 433.784 473.435 428.465 473.435Z" fill="#0F2C61"/>
<g opacity="0.6">
<path d="M414.242 438.681C414.522 435.482 412.155 432.889 408.954 432.889C405.753 432.889 402.931 435.482 402.651 438.681C402.484 440.586 403.27 442.262 404.598 443.317L403.584 454.894C403.418 456.794 404.824 458.334 406.725 458.334C408.626 458.334 410.302 456.794 410.469 454.894L411.482 443.317C412.997 442.262 414.076 440.587 414.242 438.681Z" fill="white"/>
</g>
<path d="M433.501 427.559H427.558L429.014 410.924C429.888 400.928 422.464 392.796 412.463 392.796C402.461 392.796 393.612 400.928 392.738 410.924L391.282 427.559H385.338L386.794 410.924C387.956 397.653 399.704 386.855 412.982 386.855C426.261 386.855 436.119 397.653 434.957 410.924L433.501 427.559Z" fill="#0F2C61"/>
<path d="M467.951 333.234L468.09 331.638C468.234 330.006 467.022 328.68 465.389 328.68C463.757 328.68 462.313 330.007 462.171 331.638L462.032 333.234C461.38 333.234 460.806 333.762 460.75 334.413L460.378 338.656C460.32 339.308 460.803 339.836 461.455 339.836H467.371C468.023 339.836 468.597 339.308 468.655 338.656L469.027 334.413C469.084 333.762 468.603 333.234 467.951 333.234ZM465.326 329.409C466.555 329.409 467.467 330.408 467.361 331.636L467.222 333.232H462.763L462.902 331.636C463.01 330.408 464.097 329.409 465.326 329.409Z" fill="#0F2C61"/>
<path d="M378.885 334.935L376.82 334.509C376.576 334.459 376.45 334.202 376.552 333.961L377.412 331.928C377.597 331.492 377.066 331.169 376.731 331.515L375.17 333.122C374.985 333.313 374.688 333.313 374.537 333.122L373.258 331.515C372.983 331.17 372.396 331.492 372.504 331.928L373.008 333.961C373.068 334.202 372.897 334.459 372.643 334.509L370.503 334.935C370.044 335.027 369.988 335.671 370.431 335.763L372.496 336.189C372.741 336.24 372.867 336.497 372.765 336.738L371.905 338.77C371.72 339.206 372.251 339.529 372.585 339.183L374.146 337.576C374.332 337.385 374.629 337.385 374.78 337.576L376.059 339.183C376.333 339.529 376.921 339.206 376.813 338.77L376.309 336.738C376.249 336.497 376.42 336.24 376.674 336.189L378.813 335.763C379.273 335.671 379.329 335.025 378.885 334.935Z" fill="#0B3B95"/>
<path d="M392.474 334.935L390.409 334.509C390.165 334.459 390.039 334.202 390.141 333.961L391.001 331.928C391.186 331.492 390.655 331.169 390.32 331.515L388.759 333.122C388.574 333.313 388.278 333.313 388.126 333.122L386.847 331.515C386.572 331.17 385.985 331.492 386.093 331.928L386.597 333.961C386.657 334.202 386.485 334.459 386.232 334.509L384.092 334.935C383.633 335.027 383.577 335.671 384.019 335.763L386.084 336.189C386.328 336.24 386.455 336.497 386.353 336.738L385.492 338.77C385.307 339.206 385.839 339.529 386.173 339.183L387.734 337.576C387.919 337.385 388.215 337.385 388.367 337.576L389.647 339.183C389.921 339.529 390.508 339.206 390.401 338.77L389.897 336.738C389.836 336.497 390.009 336.24 390.261 336.189L392.401 335.763C392.862 335.671 392.918 335.025 392.474 334.935Z" fill="#0B3B95"/>
<path d="M406.063 334.935L403.998 334.509C403.754 334.459 403.628 334.202 403.73 333.961L404.59 331.928C404.775 331.492 404.244 331.169 403.909 331.515L402.348 333.122C402.163 333.313 401.866 333.313 401.715 333.122L400.435 331.515C400.161 331.17 399.574 331.492 399.682 331.928L400.186 333.961C400.246 334.202 400.075 334.459 399.821 334.509L397.681 334.935C397.222 335.027 397.166 335.671 397.608 335.763L399.673 336.189C399.917 336.24 400.043 336.497 399.941 336.738L399.081 338.77C398.896 339.206 399.427 339.529 399.762 339.183L401.323 337.576C401.508 337.385 401.805 337.385 401.956 337.576L403.236 339.183C403.51 339.529 404.097 339.206 403.99 338.77L403.486 336.738C403.425 336.497 403.596 336.24 403.85 336.189L405.99 335.763C406.451 335.671 406.507 335.025 406.063 334.935Z" fill="#0B3B95"/>
<path d="M419.654 334.935L417.589 334.509C417.345 334.459 417.218 334.202 417.32 333.961L418.18 331.928C418.366 331.492 417.834 331.169 417.5 331.515L415.939 333.122C415.754 333.313 415.456 333.313 415.306 333.122L414.026 331.515C413.752 331.17 413.164 331.492 413.272 331.928L413.776 333.961C413.837 334.202 413.666 334.459 413.411 334.509L411.272 334.935C410.812 335.027 410.756 335.671 411.2 335.763L413.265 336.189C413.509 336.24 413.635 336.497 413.534 336.738L412.673 338.77C412.488 339.206 413.019 339.529 413.354 339.183L414.915 337.576C415.1 337.385 415.397 337.385 415.548 337.576L416.828 339.183C417.102 339.529 417.689 339.206 417.582 338.77L417.078 336.738C417.017 336.497 417.188 336.24 417.442 336.189L419.582 335.763C420.04 335.671 420.097 335.025 419.654 334.935Z" fill="#0B3B95"/>
<path d="M433.243 334.935L431.178 334.509C430.934 334.459 430.807 334.202 430.909 333.961L431.77 331.928C431.955 331.492 431.423 331.169 431.089 331.515L429.528 333.122C429.343 333.313 429.045 333.313 428.895 333.122L427.615 331.515C427.341 331.17 426.754 331.492 426.861 331.928L427.365 333.961C427.426 334.202 427.255 334.459 427.001 334.509L424.861 334.935C424.401 335.027 424.345 335.671 424.788 335.763L426.853 336.189C427.097 336.24 427.223 336.497 427.121 336.738L426.261 338.77C426.077 339.206 426.607 339.529 426.942 339.183L428.503 337.576C428.688 337.385 428.984 337.385 429.136 337.576L430.415 339.183C430.69 339.529 431.277 339.206 431.169 338.77L430.665 336.738C430.605 336.497 430.777 336.24 431.03 336.189L433.17 335.763C433.629 335.671 433.687 335.025 433.243 334.935Z" fill="#0B3B95"/>
<path d="M446.831 334.935L444.766 334.509C444.522 334.459 444.395 334.202 444.497 333.961L445.357 331.928C445.541 331.492 445.011 331.169 444.677 331.515L443.116 333.122C442.931 333.313 442.635 333.313 442.483 333.122L441.203 331.515C440.929 331.17 440.341 331.492 440.449 331.928L440.953 333.961C441.014 334.202 440.841 334.459 440.588 334.509L438.449 334.935C437.989 335.027 437.933 335.671 438.376 335.763L440.441 336.189C440.685 336.24 440.811 336.497 440.709 336.738L439.849 338.77C439.664 339.206 440.195 339.529 440.53 339.183L442.091 337.576C442.276 337.385 442.573 337.385 442.724 337.576L444.003 339.183C444.278 339.529 444.865 339.206 444.757 338.77L444.253 336.738C444.193 336.497 444.364 336.24 444.618 336.189L446.757 335.763C447.217 335.671 447.274 335.025 446.831 334.935Z" fill="#0B3B95"/>
<path d="M414.075 305.215H388.56C386.974 305.215 385.577 306.499 385.438 308.084C385.299 309.668 386.472 310.953 388.057 310.953H413.572C415.157 310.953 416.555 309.668 416.694 308.084C416.833 306.499 415.66 305.215 414.075 305.215Z" fill="#0B3B95"/>
<path d="M439.976 305.215H425.171C423.586 305.215 422.189 306.499 422.049 308.084C421.91 309.668 423.083 310.953 424.669 310.953H439.474C441.059 310.953 442.456 309.668 442.596 308.084C442.735 306.499 441.562 305.215 439.976 305.215Z" fill="#0B3B95"/>
<path d="M459.522 435.324C449.902 439.163 441.469 444.763 435.696 451.131C432.311 448.252 427.499 446.253 421.731 445.339L421.055 445.231L420.759 448.617L421.136 448.759C426.83 450.909 431.464 454.724 434.539 459.789L435.021 460.585L435.555 459.731C441.472 450.264 450.099 442.333 459.847 437.399L460.177 437.231L460.374 434.98L459.522 435.324Z" fill="#0B3B95"/>
<path opacity="0.2" d="M331.207 152.74C329.413 155.893 328.23 159.411 327.902 163.139L306.518 407.446H372.684L385.979 356.505L381.603 305.564L394.898 254.623L390.522 203.683L403.817 152.742H331.207V152.74Z" fill="black"/>
<path d="M384.778 189.329L398.071 138.387H230.742L217.448 189.329L221.825 240.27L208.53 291.211L212.906 342.153L199.611 393.094H366.94L380.234 342.153L375.859 291.211L389.152 240.27L384.778 189.329Z" fill="#0F2C61"/>
<path opacity="0.7" d="M384.778 189.329L398.071 138.387H230.742L217.448 189.329L221.825 240.27L208.53 291.211L212.906 342.153L199.611 393.094H366.94L380.234 342.153L375.859 291.211L389.152 240.27L384.778 189.329Z" fill="white"/>
<path opacity="0.5" d="M384.777 189.329H217.448L230.743 138.387H398.071L384.777 189.329Z" fill="white"/>
<path opacity="0.5" d="M375.859 291.21H208.53L221.825 240.27H389.153L375.859 291.21Z" fill="white"/>
<path opacity="0.5" d="M366.94 393.093H199.611L212.906 342.152H380.234L366.94 393.093Z" fill="white"/>
<path opacity="0.2" d="M362.386 210.616C360.949 211.065 359.108 211.335 357.101 211.335C354.148 211.335 351.551 210.75 350.075 209.871C349.67 209.628 349.225 209.508 348.78 209.508C348.366 209.508 347.954 209.624 347.572 209.832C347.543 209.848 347.512 209.853 347.485 209.871C347.469 209.881 347.449 209.888 347.433 209.898C346.886 210.217 346.196 210.496 345.392 210.722C344.012 211.108 342.306 211.336 340.46 211.336C339.958 211.336 339.466 211.319 338.989 211.287C337.558 211.19 336.252 210.954 335.175 210.618C334.987 210.56 334.798 210.525 334.612 210.512C333.31 210.426 332.139 211.425 332.139 212.806V214.362H267.102C262.068 214.362 257.987 218.439 257.987 223.471V232.651C257.987 237.681 262.068 241.76 267.102 241.76H341.094C341.258 241.76 341.416 241.744 341.578 241.736C342.377 242.396 343.208 243.055 344.088 243.722C345.142 244.52 346.252 245.33 347.416 246.174C348.226 246.761 349.337 246.761 350.147 246.174C359.451 239.429 365.425 234.778 365.425 221.997V212.807C365.423 211.227 363.894 210.145 362.386 210.616Z" fill="black"/>
<path d="M339.68 236.701H265.688C260.654 236.701 256.573 232.624 256.573 227.592V218.412C256.573 213.382 260.653 209.303 265.688 209.303H339.68C344.714 209.303 348.795 213.38 348.795 218.412V227.592C348.795 232.622 344.714 236.701 339.68 236.701Z" fill="#0F2C61"/>
<path d="M355.688 206.276C352.735 206.276 350.14 205.692 348.662 204.812C347.851 204.328 346.883 204.328 346.072 204.812C344.595 205.692 342.001 206.276 339.045 206.276C337.038 206.276 335.198 206.006 333.761 205.558C332.254 205.088 330.724 206.168 330.724 207.747V216.937C330.724 229.718 336.697 234.369 346.001 241.113C346.811 241.7 347.923 241.7 348.733 241.113C358.036 234.369 364.01 229.718 364.01 216.937V207.747C364.01 206.168 362.481 205.088 360.973 205.558C359.536 206.006 357.696 206.276 355.688 206.276Z" fill="#0F2C61"/>
<path opacity="0.3" d="M355.688 206.276C352.735 206.276 350.14 205.692 348.662 204.812C347.851 204.328 346.883 204.328 346.072 204.812C344.595 205.692 342.001 206.276 339.045 206.276C337.038 206.276 335.198 206.006 333.761 205.558C332.254 205.088 330.724 206.168 330.724 207.747V216.937C330.724 229.718 336.697 234.369 346.001 241.113C346.811 241.7 347.923 241.7 348.733 241.113C358.036 234.369 364.01 229.718 364.01 216.937V207.747C364.01 206.168 362.481 205.088 360.973 205.558C359.536 206.006 357.696 206.276 355.688 206.276Z" fill="white"/>
<path opacity="0.2" d="M346.072 204.812C344.595 205.692 342.001 206.276 339.045 206.276C337.038 206.276 335.198 206.006 333.761 205.559C332.254 205.088 330.724 206.169 330.724 207.746V216.937C330.724 229.718 336.697 234.37 346.001 241.114C346.406 241.407 346.886 241.554 347.367 241.554V204.449C346.922 204.449 346.477 204.57 346.072 204.812Z" fill="white"/>
<path d="M360.704 214.428C354.691 216.914 349.546 220.541 346.17 224.666C343.815 222.801 340.585 221.507 336.797 220.914L336.354 220.845V223.038L336.606 223.13C340.416 224.522 343.633 226.994 345.912 230.273L346.269 230.788L346.566 230.236C349.862 224.104 355 218.968 361.033 215.773L361.238 215.664V214.207L360.704 214.428Z" fill="#0B3B95"/>
<path d="M395.116 152.71H388.768C385.247 152.71 382.643 149.858 382.95 146.339L383.506 139.994C383.815 136.475 386.918 133.623 390.439 133.623H396.788C400.309 133.623 402.912 136.476 402.605 139.994L402.049 146.339C401.74 149.858 398.637 152.71 395.116 152.71Z" fill="#0F2C61"/>
<path d="M397.754 139.981L396.377 138.471L392.909 141.657L390 138.471L388.357 139.981L391.266 143.167L387.8 146.353L389.178 147.863L392.645 144.677L395.554 147.863L397.197 146.353L394.288 143.167L397.754 139.981Z" fill="white"/>
<path d="M253.27 207.453C256.95 211.453 260.467 215.597 263.939 219.779C267.416 223.957 270.806 228.21 274.155 232.499C274.302 232.686 274.243 232.61 274.277 232.666C274.293 232.69 274.296 232.731 274.316 232.751C274.353 232.792 274.373 232.861 274.418 232.898C274.484 233.005 274.58 233.081 274.676 233.181C274.88 233.363 275.159 233.503 275.469 233.56C275.623 233.583 275.785 233.606 275.95 233.589C276.039 233.6 276.118 233.573 276.212 233.57C276.26 233.572 276.296 233.546 276.344 233.54C276.417 233.508 276.371 233.573 276.569 233.455L280.166 231.506C284.991 228.953 289.855 226.457 294.885 224.217L299.09 229.421C295.037 233.148 290.817 237.81 286.558 241.226L283.341 243.753C283.259 243.828 282.913 244.055 282.697 244.2C282.448 244.359 282.205 244.531 281.943 244.672C281.421 244.959 280.896 245.246 280.337 245.467C279.234 245.943 278.057 246.246 276.863 246.43C274.47 246.786 271.983 246.545 269.66 245.714C268.503 245.297 267.382 244.742 266.361 244.033C265.838 243.694 265.36 243.297 264.883 242.896C264.643 242.697 264.429 242.474 264.205 242.258L263.634 241.679C259.834 237.784 256.076 233.851 252.403 229.844C248.726 225.84 245.093 221.8 241.624 217.615L253.27 207.453Z" fill="#B55B52"/>
<path d="M292.93 227.386L296.277 216.641L305.088 221.03C305.088 221.03 303.804 228.87 297.39 230.229L292.93 227.386Z" fill="#B55B52"/>
<path d="M299.812 213.658L307.759 215.846L305.09 221.027L296.278 216.638L299.812 213.658Z" fill="#B55B52"/>
<path d="M206.919 210.381C205.96 214.946 204.788 219.46 203.56 223.961C202.338 228.463 201.004 232.938 199.617 237.4L199.1 239.074L198.842 239.911C198.787 240.093 198.751 240.139 198.702 240.261C198.544 240.684 198.45 241.144 198.431 241.626C198.406 242.582 198.633 243.645 199.259 244.569C199.311 244.719 199.807 245.238 200.193 245.657L201.385 246.952L203.735 249.583C205.283 251.358 206.826 253.139 208.29 255.012L203.286 260.802C201.22 259.626 199.232 258.359 197.249 257.086L194.304 255.144L192.848 254.153C192.352 253.808 191.955 253.577 191.162 252.921C188.431 250.606 186.39 247.319 185.642 243.67C185.26 241.848 185.167 239.949 185.379 238.069C185.435 237.619 185.52 237.093 185.589 236.707L185.741 235.845L186.045 234.119C186.851 229.517 187.71 224.927 188.679 220.363C189.644 215.799 190.665 211.248 191.897 206.748L206.919 210.381Z" fill="#B55B52"/>
<path d="M203.374 254.605L209.299 251.576L211.912 261.641C211.912 261.641 207.158 263.463 203.477 261.123L203.374 254.605Z" fill="#B55B52"/>
<path d="M217.486 248.355L217.754 257.588L211.138 261.913L208.844 251.77L217.486 248.355Z" fill="#B55B52"/>
<path d="M236.857 162.924C237.002 163.636 237.496 164.136 237.961 164.041C238.426 163.946 238.686 163.293 238.541 162.581C238.396 161.869 237.902 161.37 237.437 161.465C236.973 161.559 236.713 162.212 236.857 162.924Z" fill="#0B3B95"/>
<path d="M237.431 164.148C237.431 164.148 239.883 167.923 242.068 169.541C241.047 170.972 238.798 170.87 238.798 170.87L237.431 164.148Z" fill="#A02724"/>
<path d="M233.447 159.502C233.344 159.502 233.239 159.465 233.157 159.388C232.985 159.229 232.973 158.959 233.134 158.786C234.735 157.053 236.678 157.362 236.763 157.375C236.996 157.415 237.151 157.635 237.112 157.867C237.072 158.098 236.849 158.253 236.622 158.216C236.558 158.206 235.038 157.983 233.762 159.364C233.677 159.456 233.562 159.502 233.447 159.502Z" fill="#0B3B95"/>
<path d="M216.149 172.929C217.733 179.513 219.314 191.576 213.66 195.968C213.66 195.968 215.869 202.646 230.885 202.646C247.396 202.646 238.776 198.345 238.776 198.345C229.765 196.592 229.996 188.769 231.566 183.654L216.149 172.929Z" fill="#B55B52"/>
<path d="M211.9 197.19C210.917 195.36 209.833 193.267 212.074 192.611C214.54 191.889 230.38 190.552 235.033 191.907C233.603 194.448 236.024 197.573 236.024 197.573L211.9 197.19Z" fill="#0B3B95"/>
<path d="M225.016 505.156H235.376L236.407 484.314H226.048L225.016 505.156Z" fill="#B55B52"/>
<path d="M159.271 502.286L169.764 502.84L176.142 482.309L165.647 481.754L159.271 502.286Z" fill="#B55B52"/>
<path d="M169.444 502.011L159.557 499.871C159.198 499.794 158.832 499.976 158.678 500.31L155.246 507.752C154.89 508.524 155.361 509.43 156.195 509.595C159.659 510.282 161.381 510.443 165.727 511.383C168.403 511.962 174.44 513.433 178.134 514.232C181.747 515.014 183.102 511.485 181.661 510.828C175.202 507.878 172.504 505.281 170.755 502.861C170.44 502.426 169.971 502.126 169.444 502.011Z" fill="#0B3B95"/>
<path d="M234.827 504.115H224.995C224.628 504.115 224.309 504.371 224.228 504.73L222.449 512.728C222.265 513.558 222.894 514.343 223.744 514.328C227.291 514.268 232.416 514.06 236.875 514.06C242.088 514.06 246.59 514.344 252.703 514.344C256.399 514.344 257.424 510.61 255.878 510.271C248.834 508.731 243.083 508.566 236.996 504.816C236.335 504.408 235.604 504.115 234.827 504.115Z" fill="#0B3B95"/>
<path d="M194.901 199.011C187.082 202.727 184.957 225.253 184.957 225.253L204.3 234.186C204.3 234.186 209.101 227.117 209.468 216.003C209.853 204.359 202.896 195.212 194.901 199.011Z" fill="#0B3B95"/>
<path opacity="0.4" d="M205.395 212.902C201.902 218.32 202.233 226.704 203.442 233.788L204.296 234.188C204.296 234.188 209.102 227.111 209.471 216C209.493 215.305 209.49 214.615 209.466 213.943L205.395 212.902Z" fill="black"/>
<path d="M248.876 198.467C248.876 198.467 258.46 209.285 249.409 276.249C234.898 276.249 208.311 276.249 201.25 276.249C200.918 268.861 205.564 232.818 198.433 198.003C198.433 198.003 206.688 196.347 214.555 195.968C220.708 195.672 229.617 195.476 235.026 195.968C242.159 196.62 248.876 198.467 248.876 198.467Z" fill="#0F2C61"/>
<path opacity="0.6" d="M248.876 198.467C248.876 198.467 258.46 209.285 249.409 276.249C234.898 276.249 208.311 276.249 201.25 276.249C200.918 268.861 205.564 232.818 198.433 198.003C198.433 198.003 206.688 196.347 214.555 195.968C220.708 195.672 229.617 195.476 235.026 195.968C242.159 196.62 248.876 198.467 248.876 198.467Z" fill="#FAFAFA"/>
<path opacity="0.2" d="M253.086 218.933L252.903 218.773L243.324 213.658C242.351 228.398 248.943 237.638 252.865 241.68C253.405 232.236 253.392 224.787 253.086 218.933Z" fill="black"/>
<path opacity="0.2" d="M236.406 484.322L235.876 495.065H225.511L226.041 484.322H236.406Z" fill="black"/>
<path opacity="0.2" d="M165.644 481.76L176.141 482.315L172.849 492.897L162.352 492.343L165.644 481.76Z" fill="black"/>
<path d="M212.814 166.239C215.128 174.866 216.042 180.033 221.37 183.619C229.381 189.014 239.357 182.823 239.669 173.679C239.95 165.449 236.119 152.724 226.857 150.985C217.731 149.273 210.501 157.611 212.814 166.239Z" fill="#B55B52"/>
<path d="M232.326 276.25C232.326 276.25 222.108 345.022 216.499 370.788C210.355 399.002 177.417 492.349 177.417 492.349L161.299 488.862C161.299 488.862 181.954 412.79 187.109 373.345C189.121 357.952 191.55 333.14 194.623 312.452C197.598 292.418 201.251 276.25 201.251 276.25H232.326Z" fill="#0B3B95"/>
<path d="M181.275 486.968C181.344 486.983 178.271 492.794 178.271 492.794L160.137 488.87L161.666 483.422L181.275 486.968Z" fill="#0F2C61"/>
<path opacity="0.6" d="M181.275 486.968C181.344 486.983 178.271 492.794 178.271 492.794L160.137 488.87L161.666 483.422L181.275 486.968Z" fill="white"/>
<path opacity="0.6" d="M225.868 300.752C214.052 303.067 215.303 347.104 216.725 369.755C220.132 353.745 225.12 322.936 228.527 301.07C227.743 300.678 226.86 300.556 225.868 300.752Z" fill="black"/>
<path d="M249.41 276.25C249.41 276.25 254.216 343.534 253.237 370.977C252.219 399.521 238.677 492.985 238.677 492.985H223.424C223.424 492.985 222.864 401.189 222.186 373.156C221.447 342.594 217.755 276.25 217.755 276.25H249.41Z" fill="#0B3B95"/>
<path d="M241.611 486.912C241.682 486.912 240.751 493.242 240.751 493.242H222.196L221.695 487.592L241.611 486.912Z" fill="#0F2C61"/>
<path opacity="0.6" d="M241.611 486.912C241.682 486.912 240.751 493.242 240.751 493.242H222.196L221.695 487.592L241.611 486.912Z" fill="white"/>
<path d="M243.257 211.07C243.257 229.127 252.871 236.562 252.871 236.562L268.497 221.294C268.497 221.294 263.184 212.144 255.878 203.745C246.85 193.368 243.257 199.459 243.257 211.07Z" fill="#0B3B95"/>
<path opacity="0.2" d="M239.122 176.945C238.725 178.052 237.684 179.928 235.069 180.675C231.255 181.766 231.205 184.997 231.205 184.997L231.252 185.057C234.891 183.856 237.921 180.851 239.122 176.945Z" fill="black"/>
<path d="M235.071 149.092C238.29 145.034 233.337 144.841 233.337 144.841C234.624 139.997 228.831 142.604 228.831 142.604C225.353 137.814 223.392 143.644 223.392 143.644C219.784 139.585 219.121 146.218 219.121 146.218C215.504 141.07 213.661 148.496 213.661 148.496C210.33 143.15 208.291 150.115 208.291 150.115C201.412 147.654 204.682 154.798 204.682 154.798C198.81 154.963 203.52 159.503 203.52 159.503C196.487 159.52 202.689 163.546 202.689 163.546C197.103 167.209 204.115 168.195 204.115 168.195C199.557 175.318 207.383 172.676 207.383 172.676C204.212 179.725 211.243 176.62 211.243 176.62C210.786 183.423 214.718 181.571 216.608 180.311C216.973 181.682 217.653 183.133 218.917 183.298C221.37 183.618 221.846 178.991 221.846 178.991C221.846 178.991 224.123 180.76 226.031 179.802C227.939 178.843 227.22 176.416 227.22 176.416C227.22 176.416 228.68 177.505 230.019 176.466C230.837 175.83 230.842 171.262 229.798 169.656L233.535 168.193C233.535 168.193 236.31 167.803 235.071 164.147C233.833 160.493 234.882 157.607 234.882 157.607C239.101 155.631 235.641 153.254 235.641 153.254C240.519 150.095 235.071 149.092 235.071 149.092Z" fill="#0B3B95"/>
<path d="M227.498 166.599C228.085 168.864 229.575 170.81 231.131 171.968C233.475 173.711 235.224 171.996 235.057 169.346C234.908 166.961 233.508 163.18 230.923 162.473C228.378 161.775 226.828 164.01 227.498 166.599Z" fill="#B55B52"/>
</svg>
