<svg width="600" height="800" viewBox="0 0 600 800" fill="none" xmlns="http://www.w3.org/2000/svg">
<g filter="url(#filter0_b_18_16)">
<rect width="600" height="800" rx="16" fill="#3F5D96" fill-opacity="0.1"/>
<rect x="0.5" y="0.5" width="599" height="799" rx="15.5" stroke="url(#paint0_radial_18_16)"/>
</g>
<g clip-path="url(#clip0_18_16)">
<path d="M571 496.914H29V497.186H571V496.914Z" fill="#0F2C61"/>
<path d="M371.187 504.316H343.588V504.588H371.187V504.316Z" fill="#0F2C61"/>
<path d="M522.697 510.196H457.299V510.468H522.697V510.196Z" fill="#0F2C61"/>
<path d="M337.712 504.447H270.146V504.719H337.712V504.447Z" fill="#0F2C61"/>
<path d="M226.331 512.577H212.195V512.849H226.331V512.577Z" fill="#0F2C61"/>
<path d="M304.434 512.577H240.066V512.849H304.434V512.577Z" fill="#0F2C61"/>
<path d="M127.547 507.99H85.8672V508.262H127.547V507.99Z" fill="#0F2C61"/>
<path d="M285.918 448.437H76.5978C73.1832 448.437 70.4082 445.655 70.4082 442.231V147.206C70.4082 143.783 73.1832 141 76.5978 141H285.918C289.333 141 292.108 143.783 292.108 147.206V442.231C292.108 445.655 289.333 448.437 285.918 448.437ZM76.5978 141.272C73.335 141.272 70.6792 143.935 70.6792 147.206V442.231C70.6792 445.503 73.335 448.166 76.5978 448.166H285.918C289.181 448.166 291.837 445.503 291.837 442.231V147.206C291.837 143.935 289.181 141.272 285.918 141.272H76.5978Z" fill="white"/>
<path d="M520.389 448.437H311.069C307.654 448.437 304.879 445.655 304.879 442.231V147.206C304.879 143.783 307.654 141 311.069 141H520.389C523.804 141 526.579 143.783 526.579 147.206V442.231C526.579 445.655 523.804 448.437 520.389 448.437ZM311.069 141.272C307.806 141.272 305.15 143.935 305.15 147.206V442.231C305.15 445.503 307.806 448.166 311.069 448.166H520.389C523.652 448.166 526.308 445.503 526.308 442.231V147.206C526.308 143.935 523.652 141.272 520.389 141.272H311.069Z" fill="white"/>
<path d="M241.422 402.634H169.445L165.076 352.092H237.054L241.422 402.634Z" fill="#E6E6E6"/>
<path d="M245.151 402.634H173.173L168.805 352.092H240.782L245.151 402.634Z" fill="#F0F0F0"/>
<path d="M183.016 391.786L180.609 362.95H230.939L233.346 391.786H183.016Z" fill="#E1EBFF"/>
<path d="M257.606 402.634H249.162V496.903H257.606V402.634Z" fill="#E6E6E6"/>
<path d="M260.273 402.634H254.408V496.903H260.273V402.634Z" fill="#F0F0F0"/>
<path d="M178.529 413.047H260.273V402.645H178.529V413.047Z" fill="#F0F0F0"/>
<path d="M181.411 413.047H172.967V496.914H181.411V413.047Z" fill="#E6E6E6"/>
<path d="M184.077 413.047H178.213V496.914H184.077V413.047Z" fill="#F0F0F0"/>
<path d="M121.304 413.047H112.859V496.914H121.304V413.047Z" fill="#E6E6E6"/>
<path d="M123.97 413.047H118.105V496.914H123.97V413.047Z" fill="#F0F0F0"/>
<path d="M204.165 413.047H195.721V496.914H204.165V413.047Z" fill="#E6E6E6"/>
<path d="M206.821 413.047H200.957V496.914H206.821V413.047Z" fill="#F0F0F0"/>
<path d="M178.528 402.634H112.859V413.036H178.528V402.634Z" fill="#E6E6E6"/>
<path d="M423.402 167.586H169.389V309.386H423.402V167.586Z" fill="#E0E0E0"/>
<path d="M437.353 167.586H170.668V309.386H437.353V167.586Z" fill="#F5F5F5"/>
<path d="M432.996 305.017V171.955L175.026 171.955V305.017H432.996Z" fill="#E1EBFF"/>
<path d="M279.48 305.017L328.184 171.955H247.806L199.102 305.017H279.48Z" fill="#F5F5F5"/>
<path d="M356.844 305.017L405.548 171.955H344.909L296.205 305.017H356.844Z" fill="#F5F5F5"/>
<path d="M160.144 379.396V382.026H158.464L157.087 402.634H136.664L135.288 382.026H133.607V379.396H160.144Z" fill="#E6E6E6"/>
<path d="M153.422 328.234C151.742 315.952 135.222 312.452 114.247 311.995C94.2901 311.571 87.8945 304.484 87.8945 304.484C87.8945 304.484 87.9596 333.158 116.718 343.538C144.024 353.396 155.103 340.527 153.422 328.234Z" fill="#E6E6E6"/>
<path d="M143.233 356.07C143.58 351.016 151.623 341.733 170.973 345.962C184.956 349.016 190.16 341.744 190.16 341.744C190.16 341.744 188.87 362.265 167.829 368.439C147.851 374.298 142.615 364.961 143.233 356.081V356.07Z" fill="#E6E6E6"/>
<path d="M147.645 387.134C147.861 387.134 148.067 387.047 148.219 386.874C149.618 385.211 148.479 381.232 146.886 375.722C144.848 368.657 142.311 359.853 144.458 353.472C145.672 349.864 147.168 346.69 148.62 343.614C151.655 337.179 154.279 331.614 152.089 325.81C151.948 325.419 151.515 325.223 151.124 325.375C150.734 325.516 150.55 325.951 150.691 326.343C152.653 331.56 150.279 336.592 147.265 342.983C145.867 345.951 144.273 349.32 143.038 353.005C140.74 359.842 143.352 368.885 145.444 376.156C146.68 380.439 147.959 384.874 147.07 385.928C146.799 386.243 146.842 386.711 147.157 386.982C147.298 387.102 147.471 387.156 147.634 387.156L147.645 387.134Z" fill="#E6E6E6"/>
<path d="M300.001 546C416.078 546 510.178 540.491 510.178 533.696C510.178 526.9 416.078 521.392 300.001 521.392C183.924 521.392 89.8242 526.9 89.8242 533.696C89.8242 540.491 183.924 546 300.001 546Z" fill="#174890"/>
<path d="M299.956 473.708H146.028L137.605 225.486H291.533L299.956 473.708Z" fill="#0B3B95"/>
<path d="M307.641 466.002H153.713L145.279 217.78H299.207L307.641 466.002Z" fill="#0B3B95"/>
<path opacity="0.3" d="M307.641 466.002H153.713L145.279 217.78H299.207L307.641 466.002Z" fill="#E1EBFF"/>
<path d="M256.073 319.921C272.554 303.11 271.853 275.622 254.506 258.523C237.16 241.425 209.737 241.192 193.256 258.003C176.775 274.814 177.476 302.303 194.822 319.401C212.169 336.499 239.591 336.732 256.073 319.921Z" fill="#0B3B95"/>
<path d="M260.401 288.974C260.607 295.158 259.241 300.973 256.662 306.038C251.014 317.201 239.469 324.799 225.887 324.799C212.304 324.799 200.239 317.201 193.833 306.038C190.906 300.973 189.15 295.158 188.933 288.974C188.261 269.181 203.708 253.138 223.448 253.138C243.187 253.138 259.729 269.181 260.401 288.974Z" fill="#E1EBFF"/>
<path opacity="0.6" d="M256.663 306.039C251.015 317.202 239.47 324.8 225.888 324.8C212.305 324.8 200.24 317.202 193.834 306.039C202.625 300.018 213.303 296.496 224.923 296.496C236.544 296.496 247.459 300.018 256.663 306.039Z" fill="#0B3B95"/>
<path opacity="0.6" d="M235.802 288.078C241.862 281.896 241.604 271.789 235.226 265.501C228.848 259.214 218.764 259.129 212.704 265.31C206.643 271.492 206.901 281.6 213.28 287.887C219.658 294.174 229.742 294.26 235.802 288.078Z" fill="#0B3B95"/>
<path d="M276.715 376.113H178.526L177.865 356.548H276.054L276.715 376.113Z" fill="#E1EBFF"/>
<path d="M277.908 411.079H179.708L179.047 391.515H277.246L277.908 411.079Z" fill="#E1EBFF"/>
<path d="M240.011 394.21L216.347 397.438C215.372 397.569 214.732 398.46 214.916 399.406L218.027 415.308C218.212 416.253 219.155 416.927 220.13 416.786L243.794 413.558C244.77 413.427 245.409 412.547 245.225 411.59L242.114 395.689C241.93 394.743 240.987 394.069 240.011 394.21ZM233.214 410.319L228.933 410.906L228.499 405.775C227.588 405.373 226.927 404.558 226.743 403.601C226.439 402.047 227.491 400.601 229.073 400.395C230.656 400.178 232.195 401.264 232.499 402.819C232.683 403.775 232.369 404.721 231.653 405.34L233.203 410.319H233.214Z" fill="#0B3B95"/>
<path d="M237.669 393.351C236.802 393.471 235.967 392.884 235.805 392.036L235.501 390.482C234.666 386.199 230.58 382.96 226.157 383.352C221.431 383.765 218.266 387.949 219.144 392.471L219.49 394.253C219.653 395.101 219.089 395.873 218.222 395.993C217.355 396.112 216.52 395.525 216.358 394.677L216.065 393.156C214.894 387.188 218.645 381.449 224.705 380.384C231.078 379.276 237.366 383.58 238.58 389.797L238.927 391.58C239.089 392.427 238.526 393.199 237.658 393.319L237.669 393.351Z" fill="#0B3B95"/>
<path d="M261.701 438.481H197.777L197.344 425.742H261.267L261.701 438.481Z" fill="#0B3B95"/>
<path d="M230.861 366.331C230.926 368.309 229.387 369.907 227.414 369.907C225.441 369.907 223.794 368.309 223.729 366.331C223.664 364.353 225.203 362.755 227.176 362.755C229.149 362.755 230.796 364.353 230.861 366.331Z" fill="#263238"/>
<path d="M215.49 366.331C215.555 368.309 214.016 369.907 212.043 369.907C210.07 369.907 208.422 368.309 208.357 366.331C208.292 364.353 209.832 362.755 211.805 362.755C213.777 362.755 215.425 364.353 215.49 366.331Z" fill="#263238"/>
<path d="M200.131 366.331C200.196 368.309 198.656 369.907 196.683 369.907C194.711 369.907 193.063 368.309 192.998 366.331C192.933 364.352 194.472 362.755 196.445 362.755C198.418 362.755 200.066 364.352 200.131 366.331Z" fill="#263238"/>
<path d="M246.223 366.331C246.288 368.309 244.748 369.907 242.775 369.907C240.803 369.907 239.155 368.309 239.09 366.331C239.025 364.353 240.564 362.755 242.537 362.755C244.51 362.755 246.158 364.353 246.223 366.331Z" fill="#263238"/>
<path d="M261.582 366.331C261.647 368.309 260.108 369.907 258.135 369.907C256.162 369.907 254.514 368.309 254.449 366.331C254.384 364.353 255.924 362.755 257.896 362.755C259.869 362.755 261.517 364.353 261.582 366.331Z" fill="#263238"/>
<path d="M390.958 270.703C392.4 273.018 393.603 275.247 394.839 277.562C396.075 279.855 397.191 282.203 398.286 284.583C400.443 289.344 402.373 294.257 403.814 299.507C404.009 300.148 404.15 300.833 404.313 301.507L404.551 302.518L404.671 303.018L404.812 303.844C405.126 306.05 404.844 307.854 404.476 309.441C403.695 312.604 402.448 315.137 401.104 317.55C398.362 322.321 395.164 326.387 391.468 330.234L386.904 326.767C389.159 322.484 391.381 317.995 393.018 313.68C393.809 311.539 394.481 309.354 394.676 307.561C394.774 306.681 394.709 305.92 394.59 305.637L394.156 304.311C393.982 303.768 393.82 303.224 393.603 302.67C392.042 298.279 390.058 293.877 387.89 289.54C385.755 285.214 383.392 280.812 381.072 276.692L390.969 270.703H390.958Z" fill="#FF8B7B"/>
<path d="M388.063 325.202L383.088 327.854L388.811 334.571C388.811 334.571 392.389 332.148 392.54 328.452L388.063 325.213V325.202Z" fill="#FF8B7B"/>
<path d="M376.389 331.995L382.513 336.875L388.8 334.571L383.077 327.854L376.389 331.995Z" fill="#FF8B7B"/>
<path d="M355.447 235.139C355.328 235.748 354.905 236.172 354.515 236.085C354.125 236.009 353.897 235.454 354.027 234.846C354.146 234.237 354.569 233.813 354.959 233.9C355.349 233.976 355.577 234.53 355.447 235.139Z" fill="#263238"/>
<path d="M354.959 236.183C354.959 236.183 352.878 239.389 351.035 240.769C351.902 241.987 353.799 241.9 353.799 241.9L354.959 236.193V236.183Z" fill="#FF5652"/>
<path d="M353.007 257.508L353.05 250.389L362.459 251.53C362.459 251.53 362.297 257.66 357.039 259.454L352.996 257.508H353.007Z" fill="#FF8B7B"/>
<path d="M355.717 245.247L362.341 247.16L362.46 251.519L353.051 250.377L355.717 245.247Z" fill="#FF8B7B"/>
<path opacity="0.2" d="M362.341 247.16L355.718 245.247L354.428 247.725C354.59 251.932 357.149 255.388 360.542 256.942C362.384 254.519 362.46 251.519 362.46 251.519L362.341 247.16Z" fill="black"/>
<path d="M358.331 232.237C358.417 232.237 358.504 232.204 358.58 232.139C358.732 232.009 358.732 231.77 358.602 231.628C357.247 230.161 355.599 230.422 355.534 230.433C355.339 230.465 355.209 230.65 355.241 230.846C355.274 231.041 355.469 231.172 355.653 231.139C355.707 231.139 356.997 230.944 358.081 232.117C358.157 232.194 358.244 232.237 358.342 232.237H358.331Z" fill="#263238"/>
<path d="M372.183 246.139C371.088 251.736 370.427 259.486 374.33 263.214C374.33 263.214 372.801 268.888 362.438 268.888C351.045 268.888 356.953 263.91 356.953 263.91C361.69 262.432 361.647 257.03 360.563 252.682L372.172 246.139H372.183Z" fill="#FF8B7B"/>
<path d="M376.466 266.953C377.485 265.508 377.441 260.953 376.357 260.16C374.612 258.867 367.122 258.562 357.04 260.888C358.124 265.301 355.805 267.605 355.805 267.605L376.466 266.953Z" fill="#0B3B95"/>
<path d="M410.351 524.99C409.581 525.153 408.822 525.196 408.454 524.881C408.302 524.751 408.14 524.501 408.281 524.044C408.356 523.805 408.508 523.62 408.747 523.512C409.776 523.023 412.14 523.99 412.248 524.023C412.313 524.044 412.356 524.11 412.356 524.186C412.356 524.262 412.324 524.327 412.259 524.349C411.901 524.523 411.131 524.816 410.362 524.979L410.351 524.99ZM409.115 523.773C409.039 523.794 408.963 523.816 408.898 523.838C408.757 523.903 408.671 524.012 408.627 524.142C408.53 524.468 408.649 524.566 408.692 524.609C409.104 524.957 410.622 524.642 411.695 524.207C410.969 523.946 409.787 523.62 409.115 523.773Z" fill="#0B3B95"/>
<path d="M412.205 524.381C412.205 524.381 412.151 524.381 412.118 524.381C411.251 524.131 409.408 522.816 409.387 521.947C409.387 521.795 409.441 521.501 409.853 521.36C410.124 521.262 410.384 521.284 410.655 521.425C411.674 521.947 412.314 524.066 412.346 524.153C412.368 524.218 412.346 524.284 412.303 524.338C412.281 524.36 412.248 524.382 412.216 524.392L412.205 524.381ZM410.048 521.675C410.048 521.675 409.994 521.686 409.972 521.697C409.744 521.773 409.755 521.882 409.755 521.936C409.766 522.447 410.98 523.479 411.88 523.892C411.652 523.284 411.143 522.077 410.492 521.74C410.341 521.664 410.2 521.642 410.059 521.675H410.048Z" fill="#0B3B95"/>
<path d="M354.047 526.273C353.072 526.273 352.129 526.142 351.804 525.697C351.695 525.545 351.608 525.284 351.814 524.903C351.934 524.697 352.129 524.555 352.389 524.479C353.657 524.132 356.324 525.653 356.432 525.718C356.497 525.751 356.53 525.827 356.519 525.903C356.508 525.979 356.454 526.034 356.378 526.055C355.89 526.153 354.947 526.273 354.037 526.273H354.047ZM352.833 524.795C352.703 524.795 352.584 524.805 352.487 524.838C352.324 524.882 352.205 524.968 352.129 525.088C351.999 525.316 352.053 525.425 352.096 525.49C352.454 525.979 354.384 526.001 355.793 525.795C355.088 525.436 353.722 524.795 352.833 524.795Z" fill="#0B3B95"/>
<path d="M356.357 526.066C356.357 526.066 356.303 526.066 356.281 526.055C355.36 525.642 353.538 523.99 353.679 523.12C353.712 522.914 353.853 522.664 354.351 522.61C354.72 522.577 355.056 522.675 355.349 522.925C356.313 523.718 356.519 525.783 356.53 525.87C356.53 525.936 356.509 526.001 356.454 526.033C356.422 526.055 356.389 526.066 356.346 526.066H356.357ZM354.492 522.968C354.492 522.968 354.417 522.968 354.384 522.968C354.059 523.001 354.037 523.131 354.037 523.175C353.95 523.696 355.197 524.99 356.129 525.555C356.032 524.957 355.761 523.718 355.121 523.196C354.926 523.033 354.72 522.957 354.492 522.957V522.968Z" fill="#0B3B95"/>
<path d="M364.737 525.881H357.116L356.357 508.175H363.978L364.737 525.881Z" fill="#FF8B7B"/>
<path d="M420.703 522.349L413.245 523.969L405.766 507.469L413.224 505.86L420.703 522.349Z" fill="#FF8B7B"/>
<path d="M412.531 523.218L420.899 521.403C421.203 521.337 421.517 521.49 421.647 521.772L424.552 528.098C424.856 528.75 424.455 529.522 423.75 529.663C420.813 530.25 419.36 530.381 415.674 531.185C413.409 531.674 408.292 532.924 405.17 533.609C402.114 534.272 400.964 531.272 402.189 530.718C407.664 528.207 409.94 526 411.425 523.946C411.696 523.577 412.086 523.316 412.531 523.229V523.218Z" fill="#263238"/>
<path d="M357.171 525.001H365.496C365.81 525.001 366.081 525.218 366.146 525.523L367.653 532.316C367.805 533.022 367.273 533.686 366.558 533.675C363.555 533.62 359.219 533.446 355.436 533.446C351.024 533.446 347.209 533.686 342.038 533.686C338.905 533.686 338.038 530.512 339.35 530.229C345.312 528.925 350.19 528.783 355.339 525.599C355.902 525.251 356.52 525.001 357.171 525.001Z" fill="#263238"/>
<path d="M387.988 264.942C395.131 266.584 401.028 284.877 401.028 284.877L386.676 295.844C386.676 295.844 381.408 290.866 379.066 281.714C376.606 272.127 380.681 263.258 387.988 264.942Z" fill="#0B3B95"/>
<path opacity="0.4" d="M387.988 264.942C395.131 266.584 401.028 284.877 401.028 284.877L386.676 295.844C386.676 295.844 381.408 290.866 379.066 281.714C376.606 272.127 380.681 263.258 387.988 264.942Z" fill="black"/>
<path d="M350.406 286.768C348.617 288.703 346.839 290.41 345.007 292.181C344.097 293.062 343.154 293.92 342.2 294.768L340.758 296.029L340.4 296.344C340.227 296.496 340.01 296.67 339.783 296.855C339.306 297.214 338.785 297.616 337.69 298.094C337.116 298.322 336.368 298.616 335.056 298.638C334.438 298.638 333.593 298.54 332.78 298.236C331.956 297.931 331.154 297.399 330.612 296.855C329.474 295.714 329.138 294.714 328.91 294.04C328.704 293.344 328.639 292.855 328.596 292.42C328.531 291.573 328.574 291.007 328.617 290.475C328.672 289.953 328.737 289.497 328.823 289.073C329.138 287.399 329.593 286.04 330.081 284.692C330.579 283.355 331.121 282.062 331.761 280.769C332.444 279.388 333.116 278.377 333.777 277.225C336.455 272.736 339.598 268.638 342.937 264.769C346.352 260.932 349.929 257.421 354.048 254.204L358.037 258.324C355.23 262.084 352.476 266.117 349.929 270.084C347.381 274.084 345.029 278.16 342.991 282.312C342.525 283.334 341.951 284.453 341.625 285.312C341.246 286.247 340.899 287.258 340.606 288.247C340.325 289.225 340.097 290.247 339.989 290.997C339.967 291.181 339.956 291.334 339.956 291.431C339.956 291.518 339.978 291.562 339.956 291.334C339.945 291.203 339.934 291.018 339.815 290.627C339.685 290.247 339.479 289.529 338.568 288.605C338.124 288.171 337.463 287.714 336.78 287.475C336.119 287.214 335.425 287.138 334.959 287.138C333.951 287.16 333.506 287.366 333.214 287.475C332.682 287.703 332.672 287.768 332.672 287.747L333.083 287.366L334.384 286.171L336.975 283.736C338.688 282.116 340.411 280.388 342.048 278.78L350.395 286.801L350.406 286.768Z" fill="#FF8B7B"/>
<path opacity="0.2" d="M381.863 278.398C385.743 282.246 387.012 289.268 387.315 295.365L386.686 295.854C386.686 295.854 381.418 290.865 379.066 281.724C378.925 281.148 378.795 280.583 378.697 280.018L381.873 278.409L381.863 278.398Z" fill="black"/>
<path d="M342.829 272.605C341.268 280.866 340.292 297.822 344.824 331.419H385.604C385.885 325.136 381.951 294.518 387.988 264.942C387.988 264.942 380.997 263.54 374.341 263.214C369.127 262.964 361.582 262.801 357.008 263.214C355.1 263.388 353.214 263.671 351.544 263.964C347.132 264.747 343.664 268.192 342.84 272.605H342.829Z" fill="#0B3B95"/>
<path opacity="0.4" d="M342.829 272.605C341.268 280.866 340.292 297.822 344.824 331.419H385.604C385.885 325.136 381.951 294.518 387.988 264.942C387.988 264.942 380.997 263.54 374.341 263.214C369.127 262.964 361.582 262.801 357.008 263.214C355.1 263.388 353.214 263.671 351.544 263.964C347.132 264.747 343.664 268.192 342.84 272.605H342.829Z" fill="black"/>
<path opacity="0.2" d="M349.073 284.812L341.702 283.04C341.474 287.518 341.453 293.062 341.789 299.92C345.182 296.051 349.507 290.018 349.073 284.812Z" fill="black"/>
<path opacity="0.2" d="M356.357 508.186L356.748 517.317H364.379L363.989 508.186H356.357Z" fill="black"/>
<path opacity="0.2" d="M413.224 505.86L405.766 507.48L409.625 515.98L417.083 514.36L413.224 505.86Z" fill="black"/>
<path d="M375.803 237.954C373.841 245.28 373.072 249.671 368.562 252.714C361.776 257.301 353.332 252.04 353.061 244.269C352.823 237.28 356.064 226.465 363.912 224.987C371.641 223.53 377.765 230.617 375.803 237.943V237.954Z" fill="#FF8B7B"/>
<path d="M358.698 238.237C358.34 237.258 356.649 229.683 358.232 227.715C359.814 225.748 377.863 227.161 380.53 229.791C384.952 234.161 381.885 238.063 377.039 243.084C373.397 246.867 373.256 251.128 371.413 251.758C368.194 252.856 363.196 251.823 362.188 248.378C361.191 244.932 358.687 238.237 358.687 238.237H358.698Z" fill="#263238"/>
<path d="M378.341 221.183C371.957 218.455 360 221.476 353.55 219.911C353.323 223.27 355.339 228.639 361.8 230.085C361.8 230.085 370.97 231.878 378.06 231.585C385.149 231.291 383.772 223.487 378.352 221.183H378.341Z" fill="#263238"/>
<path d="M379.338 230.031C379.338 230.031 383.284 230.476 386.08 228.737C387.273 231.629 380.725 232.422 379.338 230.031Z" fill="#263238"/>
<path d="M362.167 238.542C362.048 240.531 361.126 242.389 360.021 243.617C358.362 245.454 356.628 244.313 356.324 242.074C356.064 240.063 356.606 236.683 358.633 235.672C360.639 234.672 362.286 236.281 362.156 238.552L362.167 238.542Z" fill="#FF8B7B"/>
<path d="M359.284 331.419C359.284 331.419 367.935 389.841 372.683 411.732C377.886 435.699 405.777 515.001 405.777 515.001L419.425 512.034C419.425 512.034 399.923 447.405 395.555 413.895C392.205 388.157 385.593 331.408 385.593 331.408H359.273L359.284 331.419Z" fill="#0B3B95"/>
<path d="M402.515 510.436C402.46 510.447 405.062 515.381 405.062 515.381L420.422 512.044L419.132 507.414L402.525 510.425L402.515 510.436Z" fill="#263238"/>
<path opacity="0.3" d="M364.759 352.233C374.764 354.201 373.702 391.613 372.498 410.851C369.615 397.254 365.387 371.081 362.504 352.505C363.165 352.168 363.913 352.07 364.759 352.233Z" fill="black"/>
<path d="M344.812 331.419C344.812 331.419 343.761 388.581 344.595 411.895C345.463 436.144 353.907 515.545 353.907 515.545H366.828C366.828 515.545 367.305 437.557 367.88 413.743C368.509 387.776 371.63 331.419 371.63 331.419H344.823H344.812Z" fill="#0B3B95"/>
<path d="M351.425 510.382C351.371 510.382 352.151 515.762 352.151 515.762H367.858L368.281 510.969L351.414 510.393L351.425 510.382Z" fill="#263238"/>
<path d="M358.807 275.116C362.46 284.996 340.986 296.637 340.986 296.637L331.686 284.648C331.686 284.648 337.886 272.268 345.507 266.692C354.916 259.801 356.032 267.605 358.807 275.127V275.116Z" fill="#0B3B95"/>
<path opacity="0.4" d="M358.807 275.116C362.46 284.996 340.986 296.637 340.986 296.637L331.686 284.648C331.686 284.648 337.886 272.268 345.507 266.692C354.916 259.801 356.032 267.605 358.807 275.127V275.116Z" fill="black"/>
<path d="M442.946 200.107C464.552 200.107 482.067 188.914 482.067 175.108C482.067 161.301 464.552 150.108 442.946 150.108C421.34 150.108 403.824 161.301 403.824 175.108C403.824 188.914 421.34 200.107 442.946 200.107Z" fill="#0B3B95"/>
<path d="M428.833 187.695C426.665 187.695 424.54 187.043 422.697 185.782C420.226 184.097 418.589 181.532 418.068 178.575C417.093 172.913 420.843 167.282 426.426 166C431.022 164.956 435.694 166.924 438.155 170.913L463.271 165.717C465.309 165.293 467.369 166.511 467.878 168.434C468.149 169.456 467.987 170.51 467.434 171.402C466.881 172.293 466.014 172.902 464.984 173.119L464.323 173.26C464.128 173.304 463.965 173.423 463.867 173.597C463.77 173.771 463.759 173.978 463.824 174.162L464.269 175.315C464.572 176.097 464.29 176.978 463.596 177.402C463.065 177.738 462.697 178.315 462.621 178.934C462.534 179.706 462.025 180.293 461.32 180.445L460.8 180.554C460.095 180.695 459.391 180.358 459.011 179.684C458.556 178.901 457.656 178.499 456.767 178.684C455.878 178.869 455.206 179.597 455.098 180.499C455 181.271 454.491 181.858 453.786 182.01L453.277 182.119C452.583 182.26 451.868 181.923 451.488 181.249C451.174 180.706 450.61 180.314 449.981 180.228C449.179 180.108 448.572 179.412 448.54 178.575L448.485 177.336C448.485 177.141 448.388 176.956 448.225 176.836C448.074 176.717 447.878 176.662 447.672 176.706L439.673 178.358C438.99 182.901 435.575 186.543 431.055 187.477C430.307 187.63 429.559 187.706 428.811 187.706L428.833 187.695ZM426.665 167.065C421.635 168.206 418.264 173.293 419.142 178.391C419.597 181.054 421.082 183.369 423.304 184.89C425.526 186.412 428.215 186.956 430.849 186.401C435.044 185.532 438.177 182.086 438.664 177.825L438.708 177.434L447.477 175.619C447.987 175.51 448.507 175.641 448.919 175.956C449.331 176.271 449.569 176.749 449.591 177.271L449.645 178.51C449.656 178.825 449.884 179.086 450.166 179.13C451.13 179.271 451.965 179.836 452.453 180.684C452.572 180.891 452.8 181.086 453.092 181.032L453.602 180.923C453.884 180.869 454.025 180.586 454.046 180.347C454.209 178.978 455.228 177.88 456.572 177.597C457.916 177.315 459.282 177.934 459.965 179.119C460.084 179.325 460.312 179.532 460.605 179.467L461.125 179.358C461.407 179.304 461.548 179.021 461.569 178.793C461.678 177.825 462.22 176.978 463.044 176.456C463.282 176.304 463.38 175.967 463.271 175.684L462.827 174.532C462.642 174.054 462.675 173.51 462.924 173.054C463.174 172.597 463.607 172.282 464.106 172.173L464.767 172.032C465.504 171.88 466.122 171.445 466.512 170.815C466.903 170.173 467.022 169.423 466.827 168.695C466.469 167.326 464.973 166.467 463.488 166.771L437.613 172.13L437.418 171.793C435.25 168 430.936 166.087 426.665 167.065ZM428.843 183.684C427.499 183.684 426.188 183.293 425.039 182.532C423.488 181.51 422.426 179.945 422.058 178.119C421.678 176.293 422.036 174.434 423.055 172.88C424.074 171.326 425.635 170.271 427.456 169.891C429.277 169.51 431.131 169.869 432.681 170.891C434.231 171.913 435.282 173.478 435.662 175.304C436.041 177.13 435.683 178.978 434.664 180.532C433.646 182.086 432.085 183.151 430.263 183.521C429.797 183.619 429.32 183.662 428.843 183.662V183.684ZM428.876 170.847C428.475 170.847 428.074 170.891 427.673 170.967C426.144 171.282 424.822 172.184 423.965 173.489C423.109 174.804 422.805 176.369 423.12 177.902C423.434 179.434 424.334 180.76 425.635 181.619C426.946 182.477 428.507 182.782 430.036 182.467C431.575 182.151 432.887 181.249 433.743 179.945C434.599 178.63 434.903 177.065 434.589 175.532C434.274 173.989 433.375 172.673 432.074 171.804C431.109 171.163 430.003 170.836 428.876 170.836V170.847Z" fill="#E1EBFF"/>
<path opacity="0.6" d="M411.108 214.769C418.208 214.769 423.964 211.09 423.964 206.552C423.964 202.014 418.208 198.335 411.108 198.335C404.008 198.335 398.252 202.014 398.252 206.552C398.252 211.09 404.008 214.769 411.108 214.769Z" fill="#0B3B95"/>
<path opacity="0.3" d="M390.654 218.129C393.57 218.129 395.933 216.62 395.933 214.759C395.933 212.898 393.57 211.39 390.654 211.39C387.739 211.39 385.375 212.898 385.375 214.759C385.375 216.62 387.739 218.129 390.654 218.129Z" fill="#0B3B95"/>
</g>
<path d="M101.943 639.188C101.995 639.969 102.172 640.688 102.474 641.344C102.776 641.99 103.177 642.552 103.677 643.031C104.177 643.51 104.765 643.885 105.443 644.156C106.13 644.417 106.88 644.547 107.693 644.547C108.422 644.547 109.12 644.469 109.786 644.312C110.453 644.146 111.041 643.891 111.552 643.547C112.062 643.193 112.469 642.74 112.771 642.188C113.073 641.625 113.224 640.948 113.224 640.156C113.224 639.51 113.057 638.964 112.724 638.516C112.401 638.057 111.969 637.667 111.427 637.344C110.896 637.01 110.286 636.724 109.599 636.484C108.922 636.245 108.234 636.021 107.536 635.812C106.953 635.646 106.364 635.464 105.771 635.266C105.187 635.068 104.62 634.844 104.068 634.594C103.526 634.344 103.015 634.057 102.536 633.734C102.068 633.411 101.656 633.031 101.302 632.594C100.958 632.156 100.682 631.661 100.474 631.109C100.276 630.547 100.177 629.901 100.177 629.172C100.177 628.266 100.354 627.469 100.708 626.781C101.062 626.083 101.557 625.5 102.193 625.031C102.838 624.562 103.604 624.208 104.489 623.969C105.385 623.719 106.364 623.594 107.427 623.594C108.375 623.594 109.213 623.688 109.943 623.875C110.672 624.062 111.307 624.318 111.849 624.641C112.39 624.964 112.849 625.344 113.224 625.781C113.599 626.208 113.906 626.661 114.146 627.141C114.385 627.62 114.562 628.115 114.677 628.625C114.791 629.135 114.864 629.625 114.896 630.094H112.521C112.458 629.365 112.281 628.724 111.989 628.172C111.708 627.62 111.338 627.156 110.88 626.781C110.432 626.406 109.911 626.125 109.318 625.938C108.724 625.75 108.094 625.656 107.427 625.656C106.812 625.656 106.208 625.719 105.614 625.844C105.031 625.969 104.505 626.172 104.036 626.453C103.578 626.724 103.203 627.083 102.911 627.531C102.63 627.979 102.489 628.526 102.489 629.172C102.489 629.839 102.651 630.406 102.974 630.875C103.297 631.333 103.729 631.729 104.271 632.062C104.812 632.396 105.427 632.682 106.114 632.922C106.812 633.161 107.531 633.396 108.271 633.625C108.854 633.802 109.437 633.99 110.021 634.188C110.614 634.385 111.182 634.609 111.724 634.859C112.265 635.109 112.765 635.396 113.224 635.719C113.693 636.031 114.099 636.401 114.443 636.828C114.786 637.245 115.052 637.729 115.239 638.281C115.437 638.823 115.536 639.448 115.536 640.156C115.536 641.219 115.338 642.156 114.943 642.969C114.557 643.771 114.015 644.443 113.318 644.984C112.62 645.526 111.791 645.932 110.833 646.203C109.875 646.484 108.828 646.625 107.693 646.625C106.672 646.625 105.677 646.448 104.708 646.094C103.739 645.75 102.875 645.26 102.114 644.625C101.364 643.979 100.755 643.198 100.286 642.281C99.8279 641.365 99.5831 640.333 99.5519 639.188H101.943ZM123.138 625.688V630.094H125.95V632.062H123.138V642.484C123.138 642.828 123.179 643.12 123.263 643.359C123.356 643.589 123.476 643.776 123.622 643.922C123.778 644.057 123.96 644.156 124.169 644.219C124.377 644.271 124.601 644.297 124.841 644.297C125.132 644.297 125.434 644.271 125.747 644.219C126.059 644.156 126.33 644.099 126.559 644.047V645.938C126.289 646.021 125.934 646.104 125.497 646.188C125.07 646.271 124.627 646.312 124.169 646.312C123.773 646.312 123.372 646.255 122.966 646.141C122.57 646.036 122.21 645.865 121.888 645.625C121.575 645.385 121.32 645.078 121.122 644.703C120.924 644.318 120.825 643.849 120.825 643.297V632.062H118.388V630.094H120.825V625.688H123.138ZM142.926 646.125C142.78 646.177 142.588 646.219 142.348 646.25C142.119 646.292 141.926 646.312 141.77 646.312C141.124 646.312 140.577 646.068 140.129 645.578C139.692 645.078 139.447 644.318 139.395 643.297C138.895 643.943 138.4 644.464 137.911 644.859C137.431 645.255 136.952 645.562 136.473 645.781C135.994 645.99 135.51 646.13 135.02 646.203C134.541 646.276 134.051 646.312 133.551 646.312C132.905 646.312 132.301 646.208 131.739 646C131.176 645.792 130.681 645.495 130.254 645.109C129.838 644.724 129.51 644.26 129.27 643.719C129.03 643.177 128.911 642.573 128.911 641.906C128.911 641.24 129.056 640.672 129.348 640.203C129.64 639.724 130.025 639.312 130.504 638.969C130.994 638.625 131.541 638.339 132.145 638.109C132.76 637.87 133.385 637.661 134.02 637.484C134.666 637.297 135.296 637.12 135.911 636.953C136.525 636.786 137.072 636.604 137.551 636.406C138.041 636.198 138.431 635.964 138.723 635.703C139.015 635.432 139.161 635.099 139.161 634.703C139.161 634.245 139.072 633.839 138.895 633.484C138.718 633.13 138.468 632.833 138.145 632.594C137.822 632.344 137.431 632.156 136.973 632.031C136.515 631.906 136.01 631.844 135.458 631.844C134.989 631.844 134.546 631.906 134.129 632.031C133.713 632.146 133.338 632.318 133.004 632.547C132.671 632.776 132.395 633.057 132.176 633.391C131.958 633.724 131.817 634.109 131.754 634.547H129.333C129.385 633.776 129.593 633.094 129.958 632.5C130.322 631.906 130.786 631.411 131.348 631.016C131.911 630.609 132.546 630.302 133.254 630.094C133.973 629.885 134.708 629.781 135.458 629.781C136.27 629.781 137.036 629.88 137.754 630.078C138.484 630.276 139.124 630.578 139.676 630.984C140.228 631.391 140.666 631.906 140.989 632.531C141.312 633.146 141.473 633.87 141.473 634.703V642.938C141.473 643.344 141.572 643.672 141.77 643.922C141.978 644.161 142.234 644.281 142.536 644.281C142.671 644.281 142.801 644.26 142.926 644.219V646.125ZM139.161 637.156C138.838 637.5 138.416 637.786 137.895 638.016C137.385 638.234 136.833 638.432 136.239 638.609C135.655 638.786 135.067 638.958 134.473 639.125C133.879 639.292 133.338 639.49 132.848 639.719C132.369 639.948 131.978 640.229 131.676 640.562C131.374 640.885 131.223 641.297 131.223 641.797C131.223 642.245 131.301 642.625 131.458 642.938C131.614 643.25 131.817 643.51 132.067 643.719C132.317 643.917 132.603 644.062 132.926 644.156C133.249 644.25 133.577 644.297 133.911 644.297C134.869 644.297 135.806 644.005 136.723 643.422C137.65 642.839 138.463 641.943 139.161 640.734V637.156ZM146.481 630.094H148.793L148.699 632.734C149.189 631.87 149.762 631.208 150.418 630.75C151.085 630.292 151.861 630.062 152.746 630.062C152.819 630.062 152.918 630.068 153.043 630.078C153.179 630.089 153.314 630.104 153.449 630.125C153.595 630.135 153.731 630.156 153.856 630.188C153.991 630.208 154.095 630.234 154.168 630.266V632.625C153.929 632.542 153.658 632.479 153.356 632.438C153.054 632.385 152.83 632.359 152.684 632.359C152.069 632.359 151.522 632.474 151.043 632.703C150.564 632.932 150.158 633.245 149.824 633.641C149.491 634.026 149.236 634.474 149.059 634.984C148.882 635.484 148.793 636.01 148.793 636.562V646H146.481V630.094ZM160.223 625.688V630.094H163.035V632.062H160.223V642.484C160.223 642.828 160.264 643.12 160.348 643.359C160.441 643.589 160.561 643.776 160.707 643.922C160.863 644.057 161.045 644.156 161.254 644.219C161.462 644.271 161.686 644.297 161.926 644.297C162.217 644.297 162.519 644.271 162.832 644.219C163.144 644.156 163.415 644.099 163.644 644.047V645.938C163.374 646.021 163.019 646.104 162.582 646.188C162.155 646.271 161.712 646.312 161.254 646.312C160.858 646.312 160.457 646.255 160.051 646.141C159.655 646.036 159.295 645.865 158.973 645.625C158.66 645.385 158.405 645.078 158.207 644.703C158.009 644.318 157.91 643.849 157.91 643.297V632.062H155.473V630.094H157.91V625.688H160.223ZM179.894 643.125L184.3 630.094H186.722L179.988 649.453C179.769 650.068 179.514 650.589 179.222 651.016C178.941 651.453 178.639 651.802 178.316 652.062C178.003 652.333 177.68 652.526 177.347 652.641C177.014 652.766 176.691 652.828 176.378 652.828C176.097 652.828 175.821 652.807 175.55 652.766C175.279 652.734 174.993 652.661 174.691 652.547V650.531C174.836 650.594 175.04 650.661 175.3 650.734C175.56 650.807 175.816 650.844 176.066 650.844C176.336 650.844 176.581 650.745 176.8 650.547C177.029 650.359 177.248 650.073 177.456 649.688C177.665 649.302 177.873 648.818 178.081 648.234C178.3 647.651 178.534 646.969 178.784 646.188L172.925 630.094H175.456L179.894 643.125ZM188.229 638.094C188.229 636.969 188.38 635.906 188.682 634.906C188.995 633.896 189.448 633.016 190.042 632.266C190.646 631.505 191.386 630.901 192.261 630.453C193.146 630.005 194.156 629.781 195.292 629.781C196.438 629.781 197.453 630.005 198.339 630.453C199.224 630.901 199.969 631.505 200.573 632.266C201.188 633.016 201.651 633.896 201.964 634.906C202.287 635.906 202.448 636.969 202.448 638.094C202.448 639.208 202.287 640.266 201.964 641.266C201.651 642.255 201.188 643.125 200.573 643.875C199.969 644.625 199.224 645.219 198.339 645.656C197.453 646.094 196.438 646.312 195.292 646.312C194.156 646.312 193.146 646.094 192.261 645.656C191.386 645.219 190.646 644.625 190.042 643.875C189.448 643.125 188.995 642.255 188.682 641.266C188.38 640.266 188.229 639.208 188.229 638.094ZM190.542 638.094C190.542 638.927 190.651 639.719 190.87 640.469C191.089 641.208 191.401 641.865 191.807 642.438C192.214 643 192.709 643.448 193.292 643.781C193.886 644.115 194.552 644.281 195.292 644.281C196.031 644.281 196.698 644.115 197.292 643.781C197.896 643.448 198.406 643 198.823 642.438C199.25 641.865 199.573 641.208 199.792 640.469C200.021 639.719 200.136 638.927 200.136 638.094C200.136 637.26 200.021 636.469 199.792 635.719C199.573 634.958 199.25 634.292 198.823 633.719C198.406 633.146 197.896 632.693 197.292 632.359C196.698 632.016 196.031 631.844 195.292 631.844C194.552 631.844 193.886 632.016 193.292 632.359C192.709 632.693 192.214 633.146 191.807 633.719C191.401 634.292 191.089 634.958 190.87 635.719C190.651 636.469 190.542 637.26 190.542 638.094ZM218.94 646H216.628V643.156C216.221 643.688 215.794 644.135 215.346 644.5C214.909 644.865 214.456 645.161 213.987 645.391C213.518 645.609 213.039 645.766 212.549 645.859C212.07 645.953 211.581 646 211.081 646C210.351 646 209.695 645.891 209.112 645.672C208.539 645.453 208.049 645.141 207.643 644.734C207.237 644.328 206.924 643.839 206.706 643.266C206.497 642.682 206.393 642.031 206.393 641.312V630.094H208.706V641.016C208.706 641.557 208.768 642.016 208.893 642.391C209.029 642.766 209.216 643.073 209.456 643.312C209.706 643.542 210.008 643.708 210.362 643.812C210.716 643.917 211.117 643.969 211.565 643.969C212.263 643.969 212.919 643.833 213.534 643.562C214.148 643.281 214.685 642.927 215.143 642.5C215.601 642.062 215.961 641.578 216.221 641.047C216.492 640.516 216.628 639.995 216.628 639.484V630.094H218.94V646ZM223.963 630.094H226.276L226.182 632.734C226.671 631.87 227.244 631.208 227.901 630.75C228.567 630.292 229.343 630.062 230.229 630.062C230.302 630.062 230.401 630.068 230.526 630.078C230.661 630.089 230.796 630.104 230.932 630.125C231.078 630.135 231.213 630.156 231.338 630.188C231.474 630.208 231.578 630.234 231.651 630.266V632.625C231.411 632.542 231.14 632.479 230.838 632.438C230.536 632.385 230.312 632.359 230.166 632.359C229.552 632.359 229.005 632.474 228.526 632.703C228.046 632.932 227.64 633.245 227.307 633.641C226.974 634.026 226.718 634.474 226.541 634.984C226.364 635.484 226.276 636.01 226.276 636.562V646H223.963V630.094ZM244.759 624.094V626.797H242.447V624.094H244.759ZM244.759 630.094V648.328C244.759 649.151 244.65 649.844 244.431 650.406C244.223 650.979 243.936 651.443 243.572 651.797C243.218 652.161 242.806 652.422 242.338 652.578C241.869 652.745 241.379 652.828 240.869 652.828C240.66 652.828 240.426 652.807 240.166 652.766C239.905 652.734 239.671 652.661 239.463 652.547V650.531C239.692 650.646 239.89 650.714 240.056 650.734C240.233 650.766 240.369 650.781 240.463 650.781C241.056 650.781 241.535 650.557 241.9 650.109C242.265 649.672 242.447 649.052 242.447 648.25V630.094H244.759ZM248.892 638.094C248.892 636.969 249.043 635.906 249.345 634.906C249.658 633.896 250.111 633.016 250.704 632.266C251.309 631.505 252.048 630.901 252.923 630.453C253.809 630.005 254.819 629.781 255.954 629.781C257.1 629.781 258.116 630.005 259.001 630.453C259.887 630.901 260.631 631.505 261.236 632.266C261.85 633.016 262.314 633.896 262.626 634.906C262.949 635.906 263.111 636.969 263.111 638.094C263.111 639.208 262.949 640.266 262.626 641.266C262.314 642.255 261.85 643.125 261.236 643.875C260.631 644.625 259.887 645.219 259.001 645.656C258.116 646.094 257.1 646.312 255.954 646.312C254.819 646.312 253.809 646.094 252.923 645.656C252.048 645.219 251.309 644.625 250.704 643.875C250.111 643.125 249.658 642.255 249.345 641.266C249.043 640.266 248.892 639.208 248.892 638.094ZM251.204 638.094C251.204 638.927 251.314 639.719 251.533 640.469C251.751 641.208 252.064 641.865 252.47 642.438C252.876 643 253.371 643.448 253.954 643.781C254.548 644.115 255.215 644.281 255.954 644.281C256.694 644.281 257.361 644.115 257.954 643.781C258.559 643.448 259.069 643 259.486 642.438C259.913 641.865 260.236 641.208 260.454 640.469C260.684 639.719 260.798 638.927 260.798 638.094C260.798 637.26 260.684 636.469 260.454 635.719C260.236 634.958 259.913 634.292 259.486 633.719C259.069 633.146 258.559 632.693 257.954 632.359C257.361 632.016 256.694 631.844 255.954 631.844C255.215 631.844 254.548 632.016 253.954 632.359C253.371 632.693 252.876 633.146 252.47 633.719C252.064 634.292 251.751 634.958 251.533 635.719C251.314 636.469 251.204 637.26 251.204 638.094ZM279.603 646H277.29V643.156C276.884 643.688 276.457 644.135 276.009 644.5C275.571 644.865 275.118 645.161 274.649 645.391C274.181 645.609 273.701 645.766 273.212 645.859C272.733 645.953 272.243 646 271.743 646C271.014 646 270.358 645.891 269.774 645.672C269.201 645.453 268.712 645.141 268.306 644.734C267.899 644.328 267.587 643.839 267.368 643.266C267.16 642.682 267.056 642.031 267.056 641.312V630.094H269.368V641.016C269.368 641.557 269.431 642.016 269.556 642.391C269.691 642.766 269.879 643.073 270.118 643.312C270.368 643.542 270.67 643.708 271.024 643.812C271.379 643.917 271.78 643.969 272.228 643.969C272.925 643.969 273.582 643.833 274.196 643.562C274.811 643.281 275.347 642.927 275.806 642.5C276.264 642.062 276.623 641.578 276.884 641.047C277.155 640.516 277.29 639.995 277.29 639.484V630.094H279.603V646ZM284.626 630.094H286.938L286.844 632.734C287.334 631.87 287.907 631.208 288.563 630.75C289.23 630.292 290.006 630.062 290.891 630.062C290.964 630.062 291.063 630.068 291.188 630.078C291.324 630.089 291.459 630.104 291.594 630.125C291.74 630.135 291.876 630.156 292.001 630.188C292.136 630.208 292.24 630.234 292.313 630.266V632.625C292.074 632.542 291.803 632.479 291.501 632.438C291.199 632.385 290.975 632.359 290.829 632.359C290.214 632.359 289.667 632.474 289.188 632.703C288.709 632.932 288.303 633.245 287.969 633.641C287.636 634.026 287.381 634.474 287.204 634.984C287.027 635.484 286.938 636.01 286.938 636.562V646H284.626V630.094ZM295.321 630.094H297.633V632.438C298.446 631.5 299.321 630.823 300.258 630.406C301.196 629.99 302.159 629.781 303.149 629.781C303.888 629.781 304.55 629.891 305.133 630.109C305.716 630.328 306.211 630.641 306.618 631.047C307.024 631.453 307.331 631.948 307.539 632.531C307.758 633.104 307.868 633.75 307.868 634.469V646H305.555V634.766C305.555 634.224 305.487 633.771 305.352 633.406C305.227 633.031 305.039 632.729 304.789 632.5C304.55 632.271 304.253 632.104 303.899 632C303.545 631.896 303.149 631.844 302.711 631.844C302.003 631.844 301.341 631.969 300.727 632.219C300.112 632.469 299.576 632.802 299.118 633.219C298.659 633.625 298.295 634.099 298.024 634.641C297.763 635.172 297.633 635.724 297.633 636.297V646H295.321V630.094ZM314.25 638.438C314.26 639.167 314.385 639.885 314.625 640.594C314.875 641.292 315.208 641.917 315.625 642.469C316.052 643.01 316.552 643.453 317.125 643.797C317.698 644.13 318.318 644.297 318.984 644.297C321.234 644.297 322.729 643.25 323.469 641.156H325.578C325.401 641.969 325.104 642.698 324.688 643.344C324.271 643.979 323.766 644.521 323.172 644.969C322.578 645.406 321.922 645.74 321.203 645.969C320.484 646.198 319.745 646.312 318.984 646.312C317.891 646.312 316.901 646.078 316.016 645.609C315.141 645.141 314.391 644.516 313.766 643.734C313.141 642.953 312.661 642.052 312.328 641.031C311.995 640 311.828 638.922 311.828 637.797C311.828 636.745 311.995 635.734 312.328 634.766C312.661 633.797 313.135 632.943 313.75 632.203C314.375 631.464 315.125 630.875 316 630.438C316.885 630 317.875 629.781 318.969 629.781C320.031 629.781 320.984 629.979 321.828 630.375C322.682 630.771 323.411 631.318 324.016 632.016C324.62 632.714 325.083 633.531 325.406 634.469C325.729 635.406 325.891 636.422 325.891 637.516V638.438H314.25ZM323.5 636.656C323.479 635.99 323.354 635.365 323.125 634.781C322.906 634.198 322.594 633.688 322.188 633.25C321.792 632.812 321.307 632.469 320.734 632.219C320.161 631.969 319.521 631.844 318.812 631.844C318.167 631.844 317.568 631.979 317.016 632.25C316.464 632.521 315.984 632.88 315.578 633.328C315.172 633.776 314.849 634.292 314.609 634.875C314.38 635.448 314.26 636.042 314.25 636.656H323.5ZM334.539 643.125L338.945 630.094H341.367L334.633 649.453C334.414 650.068 334.159 650.589 333.867 651.016C333.586 651.453 333.284 651.802 332.961 652.062C332.648 652.333 332.325 652.526 331.992 652.641C331.659 652.766 331.336 652.828 331.023 652.828C330.742 652.828 330.466 652.807 330.195 652.766C329.924 652.734 329.638 652.661 329.336 652.547V650.531C329.481 650.594 329.685 650.661 329.945 650.734C330.205 650.807 330.461 650.844 330.711 650.844C330.981 650.844 331.226 650.745 331.445 650.547C331.674 650.359 331.893 650.073 332.101 649.688C332.31 649.302 332.518 648.818 332.726 648.234C332.945 647.651 333.179 646.969 333.429 646.188L327.57 630.094H330.101L334.539 643.125ZM352.101 624.094H354.413V632.344C354.684 631.969 354.991 631.625 355.335 631.312C355.689 631 356.059 630.729 356.444 630.5C356.84 630.271 357.241 630.094 357.648 629.969C358.054 629.844 358.444 629.781 358.819 629.781C359.892 629.781 360.83 630.01 361.632 630.469C362.444 630.917 363.116 631.526 363.648 632.297C364.189 633.068 364.595 633.964 364.866 634.984C365.137 635.995 365.273 637.062 365.273 638.188C365.273 639.312 365.132 640.37 364.851 641.359C364.58 642.349 364.168 643.214 363.616 643.953C363.075 644.682 362.398 645.26 361.585 645.688C360.773 646.104 359.83 646.312 358.757 646.312C357.934 646.312 357.132 646.089 356.351 645.641C355.58 645.182 354.934 644.505 354.413 643.609V646H352.101V624.094ZM354.413 638.188C354.413 639.031 354.507 639.823 354.694 640.562C354.882 641.292 355.158 641.932 355.523 642.484C355.887 643.036 356.33 643.474 356.851 643.797C357.382 644.109 357.986 644.266 358.663 644.266C359.351 644.266 359.96 644.109 360.491 643.797C361.023 643.474 361.47 643.042 361.835 642.5C362.21 641.948 362.491 641.307 362.679 640.578C362.866 639.839 362.96 639.047 362.96 638.203C362.96 637.359 362.866 636.557 362.679 635.797C362.491 635.026 362.21 634.349 361.835 633.766C361.47 633.182 361.023 632.719 360.491 632.375C359.96 632.021 359.351 631.844 358.663 631.844C358.007 631.844 357.413 632.01 356.882 632.344C356.361 632.667 355.913 633.104 355.538 633.656C355.174 634.198 354.892 634.818 354.694 635.516C354.507 636.214 354.413 636.938 354.413 637.688V638.188ZM374.311 643.125L378.717 630.094H381.139L374.405 649.453C374.186 650.068 373.931 650.589 373.639 651.016C373.358 651.453 373.056 651.802 372.733 652.062C372.421 652.333 372.098 652.526 371.764 652.641C371.431 652.766 371.108 652.828 370.796 652.828C370.514 652.828 370.238 652.807 369.967 652.766C369.697 652.734 369.41 652.661 369.108 652.547V650.531C369.254 650.594 369.457 650.661 369.717 650.734C369.978 650.807 370.233 650.844 370.483 650.844C370.754 650.844 370.999 650.745 371.217 650.547C371.447 650.359 371.665 650.073 371.874 649.688C372.082 649.302 372.29 648.818 372.499 648.234C372.717 647.651 372.952 646.969 373.202 646.188L367.342 630.094H369.874L374.311 643.125ZM390.811 638.094C390.811 636.969 390.962 635.906 391.264 634.906C391.576 633.896 392.029 633.016 392.623 632.266C393.227 631.505 393.967 630.901 394.842 630.453C395.727 630.005 396.738 629.781 397.873 629.781C399.019 629.781 400.035 630.005 400.92 630.453C401.805 630.901 402.55 631.505 403.154 632.266C403.769 633.016 404.233 633.896 404.545 634.906C404.868 635.906 405.029 636.969 405.029 638.094C405.029 639.208 404.868 640.266 404.545 641.266C404.233 642.255 403.769 643.125 403.154 643.875C402.55 644.625 401.805 645.219 400.92 645.656C400.035 646.094 399.019 646.312 397.873 646.312C396.738 646.312 395.727 646.094 394.842 645.656C393.967 645.219 393.227 644.625 392.623 643.875C392.029 643.125 391.576 642.255 391.264 641.266C390.962 640.266 390.811 639.208 390.811 638.094ZM393.123 638.094C393.123 638.927 393.233 639.719 393.451 640.469C393.67 641.208 393.983 641.865 394.389 642.438C394.795 643 395.29 643.448 395.873 643.781C396.467 644.115 397.134 644.281 397.873 644.281C398.613 644.281 399.279 644.115 399.873 643.781C400.477 643.448 400.988 643 401.404 642.438C401.831 641.865 402.154 641.208 402.373 640.469C402.602 639.719 402.717 638.927 402.717 638.094C402.717 637.26 402.602 636.469 402.373 635.719C402.154 634.958 401.831 634.292 401.404 633.719C400.988 633.146 400.477 632.693 399.873 632.359C399.279 632.016 398.613 631.844 397.873 631.844C397.134 631.844 396.467 632.016 395.873 632.359C395.29 632.693 394.795 633.146 394.389 633.719C393.983 634.292 393.67 634.958 393.451 635.719C393.233 636.469 393.123 637.26 393.123 638.094ZM408.974 630.094H411.287V632.438C412.099 631.5 412.974 630.823 413.912 630.406C414.849 629.99 415.813 629.781 416.802 629.781C417.542 629.781 418.204 629.891 418.787 630.109C419.37 630.328 419.865 630.641 420.271 631.047C420.677 631.453 420.985 631.948 421.193 632.531C421.412 633.104 421.521 633.75 421.521 634.469V646H419.209V634.766C419.209 634.224 419.141 633.771 419.006 633.406C418.881 633.031 418.693 632.729 418.443 632.5C418.204 632.271 417.907 632.104 417.552 632C417.198 631.896 416.802 631.844 416.365 631.844C415.657 631.844 414.995 631.969 414.381 632.219C413.766 632.469 413.23 632.802 412.771 633.219C412.313 633.625 411.948 634.099 411.677 634.641C411.417 635.172 411.287 635.724 411.287 636.297V646H408.974V630.094ZM427.904 638.438C427.914 639.167 428.039 639.885 428.279 640.594C428.529 641.292 428.862 641.917 429.279 642.469C429.706 643.01 430.206 643.453 430.779 643.797C431.352 644.13 431.971 644.297 432.638 644.297C434.888 644.297 436.383 643.25 437.122 641.156H439.232C439.055 641.969 438.758 642.698 438.341 643.344C437.925 643.979 437.419 644.521 436.826 644.969C436.232 645.406 435.576 645.74 434.857 645.969C434.138 646.198 433.399 646.312 432.638 646.312C431.544 646.312 430.555 646.078 429.669 645.609C428.794 645.141 428.044 644.516 427.419 643.734C426.794 642.953 426.315 642.052 425.982 641.031C425.649 640 425.482 638.922 425.482 637.797C425.482 636.745 425.649 635.734 425.982 634.766C426.315 633.797 426.789 632.943 427.404 632.203C428.029 631.464 428.779 630.875 429.654 630.438C430.539 630 431.529 629.781 432.622 629.781C433.685 629.781 434.638 629.979 435.482 630.375C436.336 630.771 437.065 631.318 437.669 632.016C438.274 632.714 438.737 633.531 439.06 634.469C439.383 635.406 439.544 636.422 439.544 637.516V638.438H427.904ZM437.154 636.656C437.133 635.99 437.008 635.365 436.779 634.781C436.56 634.198 436.247 633.688 435.841 633.25C435.445 632.812 434.961 632.469 434.388 632.219C433.815 631.969 433.175 631.844 432.466 631.844C431.82 631.844 431.221 631.979 430.669 632.25C430.117 632.521 429.638 632.88 429.232 633.328C428.826 633.776 428.503 634.292 428.263 634.875C428.034 635.448 427.914 636.042 427.904 636.656H437.154ZM460.747 634.875C460.424 633.771 459.95 632.99 459.325 632.531C458.7 632.073 457.877 631.844 456.856 631.844C456.138 631.844 455.497 632.005 454.934 632.328C454.372 632.651 453.898 633.083 453.513 633.625C453.138 634.167 452.846 634.792 452.638 635.5C452.44 636.208 452.341 636.948 452.341 637.719C452.341 638.521 452.44 639.318 452.638 640.109C452.846 640.891 453.143 641.589 453.528 642.203C453.914 642.818 454.382 643.318 454.934 643.703C455.486 644.078 456.111 644.266 456.809 644.266C457.372 644.266 457.872 644.167 458.309 643.969C458.757 643.76 459.138 643.484 459.45 643.141C459.773 642.797 460.039 642.396 460.247 641.938C460.455 641.479 460.606 640.99 460.7 640.469H463.247C463.132 641.375 462.898 642.193 462.544 642.922C462.2 643.641 461.747 644.255 461.184 644.766C460.632 645.266 459.976 645.651 459.216 645.922C458.466 646.182 457.632 646.312 456.716 646.312C455.945 646.312 455.242 646.193 454.606 645.953C453.971 645.714 453.403 645.391 452.903 644.984C452.414 644.568 451.986 644.083 451.622 643.531C451.257 642.969 450.955 642.37 450.716 641.734C450.486 641.099 450.315 640.443 450.2 639.766C450.085 639.078 450.028 638.396 450.028 637.719C450.028 636.625 450.19 635.599 450.513 634.641C450.835 633.672 451.294 632.828 451.888 632.109C452.492 631.391 453.216 630.823 454.059 630.406C454.903 629.99 455.851 629.781 456.903 629.781C457.82 629.781 458.632 629.911 459.341 630.172C460.059 630.422 460.679 630.776 461.2 631.234C461.721 631.682 462.148 632.219 462.481 632.844C462.815 633.469 463.054 634.146 463.2 634.875H460.747ZM469.442 624.094V646H467.129V624.094H469.442ZM476.793 624.094V626.797H474.481V624.094H476.793ZM476.793 630.094V646H474.481V630.094H476.793ZM491.488 634.875C491.165 633.771 490.691 632.99 490.066 632.531C489.441 632.073 488.618 631.844 487.598 631.844C486.879 631.844 486.238 632.005 485.676 632.328C485.113 632.651 484.639 633.083 484.254 633.625C483.879 634.167 483.587 634.792 483.379 635.5C483.181 636.208 483.082 636.948 483.082 637.719C483.082 638.521 483.181 639.318 483.379 640.109C483.587 640.891 483.884 641.589 484.269 642.203C484.655 642.818 485.124 643.318 485.676 643.703C486.228 644.078 486.853 644.266 487.551 644.266C488.113 644.266 488.613 644.167 489.051 643.969C489.499 643.76 489.879 643.484 490.191 643.141C490.514 642.797 490.78 642.396 490.988 641.938C491.196 641.479 491.348 640.99 491.441 640.469H493.988C493.874 641.375 493.639 642.193 493.285 642.922C492.941 643.641 492.488 644.255 491.926 644.766C491.374 645.266 490.717 645.651 489.957 645.922C489.207 646.182 488.374 646.312 487.457 646.312C486.686 646.312 485.983 646.193 485.348 645.953C484.712 645.714 484.144 645.391 483.644 644.984C483.155 644.568 482.728 644.083 482.363 643.531C481.999 642.969 481.696 642.37 481.457 641.734C481.228 641.099 481.056 640.443 480.941 639.766C480.827 639.078 480.769 638.396 480.769 637.719C480.769 636.625 480.931 635.599 481.254 634.641C481.577 633.672 482.035 632.828 482.629 632.109C483.233 631.391 483.957 630.823 484.801 630.406C485.644 629.99 486.592 629.781 487.644 629.781C488.561 629.781 489.374 629.911 490.082 630.172C490.801 630.422 491.42 630.776 491.941 631.234C492.462 631.682 492.889 632.219 493.223 632.844C493.556 633.469 493.795 634.146 493.941 634.875H491.488ZM504.683 635.859L510.543 646H507.839L503.043 637.516L500.183 640.391V646H497.871V624.094H500.183V637.312L507.589 630.094H510.433L504.683 635.859ZM516.566 642.969V646.781C516.566 647.729 516.326 648.516 515.847 649.141C515.368 649.766 514.743 650.229 513.972 650.531L513.206 649.453C513.54 649.318 513.805 649.167 514.003 649C514.211 648.833 514.368 648.641 514.472 648.422C514.586 648.203 514.659 647.958 514.691 647.688C514.722 647.417 514.738 647.115 514.738 646.781V646H513.581V642.969H516.566ZM188.663 669.203V671.312H176.444V678.688H187.944V680.797H176.444V688.891H189.21V691H174.132V669.203H188.663ZM200.546 683.047L205.967 691H203.155L199.155 685.047L195.139 691H192.327L197.78 683.047L192.358 675.094H195.139L199.155 680.984L203.155 675.094H205.967L200.546 683.047ZM209.069 675.094H211.381V677.562C211.642 677.125 211.954 676.734 212.319 676.391C212.683 676.047 213.074 675.755 213.491 675.516C213.907 675.276 214.334 675.094 214.772 674.969C215.209 674.844 215.631 674.781 216.038 674.781C217.1 674.781 218.043 675 218.866 675.438C219.699 675.875 220.402 676.469 220.975 677.219C221.548 677.958 221.98 678.828 222.272 679.828C222.574 680.828 222.725 681.891 222.725 683.016C222.725 684.141 222.579 685.208 222.288 686.219C221.996 687.219 221.569 688.099 221.006 688.859C220.444 689.609 219.751 690.208 218.928 690.656C218.105 691.094 217.163 691.312 216.1 691.312C215.694 691.312 215.272 691.255 214.834 691.141C214.407 691.026 213.98 690.859 213.553 690.641C213.136 690.422 212.741 690.151 212.366 689.828C211.991 689.495 211.663 689.115 211.381 688.688V697.422H209.069V675.094ZM211.381 683.422C211.392 684.234 211.511 685 211.741 685.719C211.98 686.427 212.298 687.047 212.694 687.578C213.09 688.099 213.564 688.516 214.116 688.828C214.668 689.13 215.272 689.281 215.928 689.281C216.616 689.281 217.235 689.115 217.788 688.781C218.34 688.438 218.808 687.984 219.194 687.422C219.59 686.849 219.892 686.182 220.1 685.422C220.308 684.661 220.413 683.859 220.413 683.016C220.413 682.172 220.308 681.375 220.1 680.625C219.892 679.875 219.59 679.219 219.194 678.656C218.808 678.083 218.34 677.635 217.788 677.312C217.235 676.979 216.616 676.812 215.928 676.812C215.251 676.812 214.631 676.974 214.069 677.297C213.517 677.62 213.043 678.062 212.647 678.625C212.251 679.188 211.939 679.844 211.709 680.594C211.491 681.333 211.381 682.125 211.381 682.969V683.422ZM228.983 669.094V691H226.67V669.094H228.983ZM232.959 683.094C232.959 681.969 233.11 680.906 233.412 679.906C233.724 678.896 234.178 678.016 234.771 677.266C235.375 676.505 236.115 675.901 236.99 675.453C237.875 675.005 238.886 674.781 240.021 674.781C241.167 674.781 242.183 675.005 243.068 675.453C243.954 675.901 244.698 676.505 245.303 677.266C245.917 678.016 246.381 678.896 246.693 679.906C247.016 680.906 247.178 681.969 247.178 683.094C247.178 684.208 247.016 685.266 246.693 686.266C246.381 687.255 245.917 688.125 245.303 688.875C244.698 689.625 243.954 690.219 243.068 690.656C242.183 691.094 241.167 691.312 240.021 691.312C238.886 691.312 237.875 691.094 236.99 690.656C236.115 690.219 235.375 689.625 234.771 688.875C234.178 688.125 233.724 687.255 233.412 686.266C233.11 685.266 232.959 684.208 232.959 683.094ZM235.271 683.094C235.271 683.927 235.381 684.719 235.599 685.469C235.818 686.208 236.131 686.865 236.537 687.438C236.943 688 237.438 688.448 238.021 688.781C238.615 689.115 239.282 689.281 240.021 689.281C240.761 689.281 241.428 689.115 242.021 688.781C242.625 688.448 243.136 688 243.553 687.438C243.98 686.865 244.303 686.208 244.521 685.469C244.75 684.719 244.865 683.927 244.865 683.094C244.865 682.26 244.75 681.469 244.521 680.719C244.303 679.958 243.98 679.292 243.553 678.719C243.136 678.146 242.625 677.693 242.021 677.359C241.428 677.016 240.761 676.844 240.021 676.844C239.282 676.844 238.615 677.016 238.021 677.359C237.438 677.693 236.943 678.146 236.537 678.719C236.131 679.292 235.818 679.958 235.599 680.719C235.381 681.469 235.271 682.26 235.271 683.094ZM251.122 675.094H253.435L253.341 677.734C253.831 676.87 254.404 676.208 255.06 675.75C255.727 675.292 256.503 675.062 257.388 675.062C257.461 675.062 257.56 675.068 257.685 675.078C257.82 675.089 257.956 675.104 258.091 675.125C258.237 675.135 258.372 675.156 258.497 675.188C258.633 675.208 258.737 675.234 258.81 675.266V677.625C258.57 677.542 258.3 677.479 257.997 677.438C257.695 677.385 257.471 677.359 257.326 677.359C256.711 677.359 256.164 677.474 255.685 677.703C255.206 677.932 254.8 678.245 254.466 678.641C254.133 679.026 253.878 679.474 253.701 679.984C253.524 680.484 253.435 681.01 253.435 681.562V691H251.122V675.094ZM263.177 683.438C263.187 684.167 263.312 684.885 263.552 685.594C263.802 686.292 264.135 686.917 264.552 687.469C264.979 688.01 265.479 688.453 266.052 688.797C266.625 689.13 267.245 689.297 267.911 689.297C270.161 689.297 271.656 688.25 272.396 686.156H274.505C274.328 686.969 274.031 687.698 273.614 688.344C273.198 688.979 272.693 689.521 272.099 689.969C271.505 690.406 270.849 690.74 270.13 690.969C269.411 691.198 268.672 691.312 267.911 691.312C266.818 691.312 265.828 691.078 264.943 690.609C264.068 690.141 263.318 689.516 262.693 688.734C262.068 687.953 261.588 687.052 261.255 686.031C260.922 685 260.755 683.922 260.755 682.797C260.755 681.745 260.922 680.734 261.255 679.766C261.588 678.797 262.062 677.943 262.677 677.203C263.302 676.464 264.052 675.875 264.927 675.438C265.812 675 266.802 674.781 267.896 674.781C268.958 674.781 269.911 674.979 270.755 675.375C271.609 675.771 272.338 676.318 272.943 677.016C273.547 677.714 274.01 678.531 274.333 679.469C274.656 680.406 274.818 681.422 274.818 682.516V683.438H263.177ZM272.427 681.656C272.406 680.99 272.281 680.365 272.052 679.781C271.833 679.198 271.521 678.688 271.114 678.25C270.719 677.812 270.234 677.469 269.661 677.219C269.088 676.969 268.448 676.844 267.739 676.844C267.094 676.844 266.495 676.979 265.943 677.25C265.39 677.521 264.911 677.88 264.505 678.328C264.099 678.776 263.776 679.292 263.536 679.875C263.307 680.448 263.187 681.042 263.177 681.656H272.427ZM291.473 688.125L295.879 675.094H298.301L291.567 694.453C291.348 695.068 291.093 695.589 290.801 696.016C290.52 696.453 290.218 696.802 289.895 697.062C289.583 697.333 289.26 697.526 288.926 697.641C288.593 697.766 288.27 697.828 287.958 697.828C287.676 697.828 287.4 697.807 287.129 697.766C286.859 697.734 286.572 697.661 286.27 697.547V695.531C286.416 695.594 286.619 695.661 286.879 695.734C287.14 695.807 287.395 695.844 287.645 695.844C287.916 695.844 288.161 695.745 288.379 695.547C288.609 695.359 288.827 695.073 289.036 694.688C289.244 694.302 289.452 693.818 289.661 693.234C289.879 692.651 290.114 691.969 290.364 691.188L284.504 675.094H287.036L291.473 688.125ZM299.809 683.094C299.809 681.969 299.96 680.906 300.262 679.906C300.574 678.896 301.027 678.016 301.621 677.266C302.225 676.505 302.965 675.901 303.84 675.453C304.725 675.005 305.736 674.781 306.871 674.781C308.017 674.781 309.033 675.005 309.918 675.453C310.804 675.901 311.548 676.505 312.152 677.266C312.767 678.016 313.231 678.896 313.543 679.906C313.866 680.906 314.027 681.969 314.027 683.094C314.027 684.208 313.866 685.266 313.543 686.266C313.231 687.255 312.767 688.125 312.152 688.875C311.548 689.625 310.804 690.219 309.918 690.656C309.033 691.094 308.017 691.312 306.871 691.312C305.736 691.312 304.725 691.094 303.84 690.656C302.965 690.219 302.225 689.625 301.621 688.875C301.027 688.125 300.574 687.255 300.262 686.266C299.96 685.266 299.809 684.208 299.809 683.094ZM302.121 683.094C302.121 683.927 302.231 684.719 302.449 685.469C302.668 686.208 302.981 686.865 303.387 687.438C303.793 688 304.288 688.448 304.871 688.781C305.465 689.115 306.132 689.281 306.871 689.281C307.611 689.281 308.277 689.115 308.871 688.781C309.475 688.448 309.986 688 310.402 687.438C310.83 686.865 311.152 686.208 311.371 685.469C311.6 684.719 311.715 683.927 311.715 683.094C311.715 682.26 311.6 681.469 311.371 680.719C311.152 679.958 310.83 679.292 310.402 678.719C309.986 678.146 309.475 677.693 308.871 677.359C308.277 677.016 307.611 676.844 306.871 676.844C306.132 676.844 305.465 677.016 304.871 677.359C304.288 677.693 303.793 678.146 303.387 678.719C302.981 679.292 302.668 679.958 302.449 680.719C302.231 681.469 302.121 682.26 302.121 683.094ZM330.519 691H328.207V688.156C327.801 688.688 327.374 689.135 326.926 689.5C326.488 689.865 326.035 690.161 325.566 690.391C325.098 690.609 324.618 690.766 324.129 690.859C323.65 690.953 323.16 691 322.66 691C321.931 691 321.275 690.891 320.691 690.672C320.118 690.453 319.629 690.141 319.223 689.734C318.816 689.328 318.504 688.839 318.285 688.266C318.077 687.682 317.973 687.031 317.973 686.312V675.094H320.285V686.016C320.285 686.557 320.348 687.016 320.473 687.391C320.608 687.766 320.795 688.073 321.035 688.312C321.285 688.542 321.587 688.708 321.941 688.812C322.295 688.917 322.696 688.969 323.144 688.969C323.842 688.969 324.499 688.833 325.113 688.562C325.728 688.281 326.264 687.927 326.723 687.5C327.181 687.062 327.54 686.578 327.801 686.047C328.071 685.516 328.207 684.995 328.207 684.484V675.094H330.519V691ZM335.543 675.094H337.855L337.761 677.734C338.251 676.87 338.824 676.208 339.48 675.75C340.147 675.292 340.923 675.062 341.808 675.062C341.881 675.062 341.98 675.068 342.105 675.078C342.24 675.089 342.376 675.104 342.511 675.125C342.657 675.135 342.793 675.156 342.918 675.188C343.053 675.208 343.157 675.234 343.23 675.266V677.625C342.99 677.542 342.72 677.479 342.418 677.438C342.115 677.385 341.891 677.359 341.746 677.359C341.131 677.359 340.584 677.474 340.105 677.703C339.626 677.932 339.22 678.245 338.886 678.641C338.553 679.026 338.298 679.474 338.121 679.984C337.944 680.484 337.855 681.01 337.855 681.562V691H335.543V675.094ZM363.526 679.875C363.203 678.771 362.729 677.99 362.104 677.531C361.479 677.073 360.656 676.844 359.636 676.844C358.917 676.844 358.276 677.005 357.714 677.328C357.151 677.651 356.677 678.083 356.292 678.625C355.917 679.167 355.625 679.792 355.417 680.5C355.219 681.208 355.12 681.948 355.12 682.719C355.12 683.521 355.219 684.318 355.417 685.109C355.625 685.891 355.922 686.589 356.307 687.203C356.693 687.818 357.162 688.318 357.714 688.703C358.266 689.078 358.891 689.266 359.589 689.266C360.151 689.266 360.651 689.167 361.089 688.969C361.537 688.76 361.917 688.484 362.229 688.141C362.552 687.797 362.818 687.396 363.026 686.938C363.235 686.479 363.386 685.99 363.479 685.469H366.026C365.912 686.375 365.677 687.193 365.323 687.922C364.979 688.641 364.526 689.255 363.964 689.766C363.412 690.266 362.755 690.651 361.995 690.922C361.245 691.182 360.412 691.312 359.495 691.312C358.724 691.312 358.021 691.193 357.386 690.953C356.75 690.714 356.182 690.391 355.682 689.984C355.193 689.568 354.766 689.083 354.401 688.531C354.037 687.969 353.735 687.37 353.495 686.734C353.266 686.099 353.094 685.443 352.979 684.766C352.865 684.078 352.807 683.396 352.807 682.719C352.807 681.625 352.969 680.599 353.292 679.641C353.615 678.672 354.073 677.828 354.667 677.109C355.271 676.391 355.995 675.823 356.839 675.406C357.682 674.99 358.63 674.781 359.682 674.781C360.599 674.781 361.412 674.911 362.12 675.172C362.839 675.422 363.459 675.776 363.979 676.234C364.5 676.682 364.927 677.219 365.261 677.844C365.594 678.469 365.834 679.146 365.979 679.875H363.526ZM382.768 691.125C382.622 691.177 382.43 691.219 382.19 691.25C381.961 691.292 381.768 691.312 381.612 691.312C380.966 691.312 380.419 691.068 379.971 690.578C379.534 690.078 379.289 689.318 379.237 688.297C378.737 688.943 378.242 689.464 377.753 689.859C377.273 690.255 376.794 690.562 376.315 690.781C375.836 690.99 375.351 691.13 374.862 691.203C374.383 691.276 373.893 691.312 373.393 691.312C372.747 691.312 372.143 691.208 371.581 691C371.018 690.792 370.523 690.495 370.096 690.109C369.68 689.724 369.351 689.26 369.112 688.719C368.872 688.177 368.753 687.573 368.753 686.906C368.753 686.24 368.898 685.672 369.19 685.203C369.482 684.724 369.867 684.312 370.346 683.969C370.836 683.625 371.383 683.339 371.987 683.109C372.601 682.87 373.226 682.661 373.862 682.484C374.508 682.297 375.138 682.12 375.753 681.953C376.367 681.786 376.914 681.604 377.393 681.406C377.883 681.198 378.273 680.964 378.565 680.703C378.857 680.432 379.003 680.099 379.003 679.703C379.003 679.245 378.914 678.839 378.737 678.484C378.56 678.13 378.31 677.833 377.987 677.594C377.664 677.344 377.273 677.156 376.815 677.031C376.357 676.906 375.851 676.844 375.299 676.844C374.831 676.844 374.388 676.906 373.971 677.031C373.555 677.146 373.18 677.318 372.846 677.547C372.513 677.776 372.237 678.057 372.018 678.391C371.799 678.724 371.659 679.109 371.596 679.547H369.174C369.226 678.776 369.435 678.094 369.799 677.5C370.164 676.906 370.628 676.411 371.19 676.016C371.753 675.609 372.388 675.302 373.096 675.094C373.815 674.885 374.549 674.781 375.299 674.781C376.112 674.781 376.878 674.88 377.596 675.078C378.325 675.276 378.966 675.578 379.518 675.984C380.07 676.391 380.508 676.906 380.831 677.531C381.154 678.146 381.315 678.87 381.315 679.703V687.938C381.315 688.344 381.414 688.672 381.612 688.922C381.82 689.161 382.075 689.281 382.378 689.281C382.513 689.281 382.643 689.26 382.768 689.219V691.125ZM379.003 682.156C378.68 682.5 378.258 682.786 377.737 683.016C377.226 683.234 376.674 683.432 376.081 683.609C375.497 683.786 374.909 683.958 374.315 684.125C373.721 684.292 373.18 684.49 372.69 684.719C372.211 684.948 371.82 685.229 371.518 685.562C371.216 685.885 371.065 686.297 371.065 686.797C371.065 687.245 371.143 687.625 371.299 687.938C371.456 688.25 371.659 688.51 371.909 688.719C372.159 688.917 372.445 689.062 372.768 689.156C373.091 689.25 373.419 689.297 373.753 689.297C374.711 689.297 375.648 689.005 376.565 688.422C377.492 687.839 378.305 686.943 379.003 685.734V682.156ZM386.323 675.094H388.635L388.541 677.734C389.031 676.87 389.604 676.208 390.26 675.75C390.927 675.292 391.703 675.062 392.588 675.062C392.661 675.062 392.76 675.068 392.885 675.078C393.02 675.089 393.156 675.104 393.291 675.125C393.437 675.135 393.573 675.156 393.698 675.188C393.833 675.208 393.937 675.234 394.01 675.266V677.625C393.77 677.542 393.5 677.479 393.198 677.438C392.895 677.385 392.671 677.359 392.526 677.359C391.911 677.359 391.364 677.474 390.885 677.703C390.406 677.932 390 678.245 389.666 678.641C389.333 679.026 389.078 679.474 388.901 679.984C388.724 680.484 388.635 681.01 388.635 681.562V691H386.323V675.094ZM398.377 683.438C398.387 684.167 398.512 684.885 398.752 685.594C399.002 686.292 399.335 686.917 399.752 687.469C400.179 688.01 400.679 688.453 401.252 688.797C401.825 689.13 402.445 689.297 403.111 689.297C405.361 689.297 406.856 688.25 407.596 686.156H409.705C409.528 686.969 409.231 687.698 408.814 688.344C408.398 688.979 407.893 689.521 407.299 689.969C406.705 690.406 406.049 690.74 405.33 690.969C404.611 691.198 403.872 691.312 403.111 691.312C402.018 691.312 401.028 691.078 400.143 690.609C399.268 690.141 398.518 689.516 397.893 688.734C397.268 687.953 396.788 687.052 396.455 686.031C396.122 685 395.955 683.922 395.955 682.797C395.955 681.745 396.122 680.734 396.455 679.766C396.788 678.797 397.262 677.943 397.877 677.203C398.502 676.464 399.252 675.875 400.127 675.438C401.012 675 402.002 674.781 403.096 674.781C404.158 674.781 405.111 674.979 405.955 675.375C406.809 675.771 407.538 676.318 408.143 677.016C408.747 677.714 409.21 678.531 409.533 679.469C409.856 680.406 410.018 681.422 410.018 682.516V683.438H398.377ZM407.627 681.656C407.606 680.99 407.481 680.365 407.252 679.781C407.033 679.198 406.721 678.688 406.314 678.25C405.919 677.812 405.434 677.469 404.861 677.219C404.288 676.969 403.648 676.844 402.939 676.844C402.294 676.844 401.695 676.979 401.143 677.25C400.59 677.521 400.111 677.88 399.705 678.328C399.299 678.776 398.976 679.292 398.736 679.875C398.507 680.448 398.387 681.042 398.377 681.656H407.627ZM415.291 683.438C415.301 684.167 415.426 684.885 415.666 685.594C415.916 686.292 416.249 686.917 416.666 687.469C417.093 688.01 417.593 688.453 418.166 688.797C418.739 689.13 419.358 689.297 420.025 689.297C422.275 689.297 423.77 688.25 424.509 686.156H426.619C426.442 686.969 426.145 687.698 425.728 688.344C425.311 688.979 424.806 689.521 424.213 689.969C423.619 690.406 422.963 690.74 422.244 690.969C421.525 691.198 420.785 691.312 420.025 691.312C418.931 691.312 417.942 691.078 417.056 690.609C416.181 690.141 415.431 689.516 414.806 688.734C414.181 687.953 413.702 687.052 413.369 686.031C413.035 685 412.869 683.922 412.869 682.797C412.869 681.745 413.035 680.734 413.369 679.766C413.702 678.797 414.176 677.943 414.791 677.203C415.416 676.464 416.166 675.875 417.041 675.438C417.926 675 418.916 674.781 420.009 674.781C421.072 674.781 422.025 674.979 422.869 675.375C423.723 675.771 424.452 676.318 425.056 677.016C425.66 677.714 426.124 678.531 426.447 679.469C426.77 680.406 426.931 681.422 426.931 682.516V683.438H415.291ZM424.541 681.656C424.52 680.99 424.395 680.365 424.166 679.781C423.947 679.198 423.634 678.688 423.228 678.25C422.832 677.812 422.348 677.469 421.775 677.219C421.202 676.969 420.561 676.844 419.853 676.844C419.207 676.844 418.608 676.979 418.056 677.25C417.504 677.521 417.025 677.88 416.619 678.328C416.213 678.776 415.89 679.292 415.65 679.875C415.421 680.448 415.301 681.042 415.291 681.656H424.541ZM430.845 675.094H433.158L433.064 677.734C433.553 676.87 434.126 676.208 434.783 675.75C435.449 675.292 436.225 675.062 437.111 675.062C437.184 675.062 437.283 675.068 437.408 675.078C437.543 675.089 437.678 675.104 437.814 675.125C437.96 675.135 438.095 675.156 438.22 675.188C438.355 675.208 438.46 675.234 438.533 675.266V677.625C438.293 677.542 438.022 677.479 437.72 677.438C437.418 677.385 437.194 677.359 437.048 677.359C436.434 677.359 435.887 677.474 435.408 677.703C434.928 677.932 434.522 678.245 434.189 678.641C433.855 679.026 433.6 679.474 433.423 679.984C433.246 680.484 433.158 681.01 433.158 681.562V691H430.845V675.094ZM443.774 669.094V678.078L443.149 685.469H441.696L441.087 678.125V669.094H443.774ZM443.774 687.969V691H441.087V687.969H443.774Z" fill="white"/>
<defs>
<filter id="filter0_b_18_16" x="-26" y="-26" width="652" height="852" filterUnits="userSpaceOnUse" color-interpolation-filters="sRGB">
<feFlood flood-opacity="0" result="BackgroundImageFix"/>
<feGaussianBlur in="BackgroundImageFix" stdDeviation="13"/>
<feComposite in2="SourceAlpha" operator="in" result="effect1_backgroundBlur_18_16"/>
<feBlend mode="normal" in="SourceGraphic" in2="effect1_backgroundBlur_18_16" result="shape"/>
</filter>
<radialGradient id="paint0_radial_18_16" cx="0" cy="0" r="1" gradientUnits="userSpaceOnUse" gradientTransform="translate(104 4.1576e-05) rotate(62.2626) scale(922.821 717.888)">
<stop stop-color="white"/>
<stop offset="0.638542" stop-color="#E4E4E4" stop-opacity="0.750969"/>
<stop offset="1" stop-color="white" stop-opacity="0.61"/>
</radialGradient>
<clipPath id="clip0_18_16">
<rect width="542" height="405" fill="white" transform="translate(29 141)"/>
</clipPath>
</defs>
</svg>
