<svg width="75" height="75" viewBox="0 0 75 75" fill="none" xmlns="http://www.w3.org/2000/svg">
<rect width="75" height="75" rx="37.5" fill="#0B3B95"/>
<path d="M28.5 30.4998V26.9998C28.5 26.0715 28.8687 25.1813 29.5251 24.5249C30.1815 23.8685 31.0717 23.4998 32 23.4998H44.25C45.1783 23.4998 46.0685 23.8685 46.7249 24.5249C47.3813 25.1813 47.75 26.0715 47.75 26.9998V47.9998C47.75 48.928 47.3813 49.8183 46.7249 50.4746C46.0685 51.131 45.1783 51.4998 44.25 51.4998H32C31.0717 51.4998 30.1815 51.131 29.5251 50.4746C28.8687 49.8183 28.5 48.928 28.5 47.9998V44.4998" stroke="white" stroke-width="3" stroke-linecap="round" stroke-linejoin="round"/>
<path d="M40.7505 37.4993H16.2505M16.2505 37.4993L21.5005 32.2493M16.2505 37.4993L21.5005 42.7493" stroke="white" stroke-width="3" stroke-linecap="round" stroke-linejoin="round"/>
</svg>
