<svg width="320" height="222" viewBox="0 0 320 222" fill="none" xmlns="http://www.w3.org/2000/svg">
<g clip-path="url(#clip0_1_16575)">
<path d="M126.18 180.412C195.867 180.412 252.359 140.025 252.359 90.206C252.359 40.3866 195.867 0 126.18 0C56.4925 0 0 40.3866 0 90.206C0 140.025 56.4925 180.412 126.18 180.412Z" fill="#F5F5FF"/>
<path d="M262.399 217.259C294.211 217.259 320 213.671 320 209.245C320 204.819 294.211 201.23 262.399 201.23C230.587 201.23 204.798 204.819 204.798 209.245C204.798 213.671 230.587 217.259 262.399 217.259Z" fill="#D6D6D6"/>
<path d="M141.662 222C199.134 222 245.723 218.02 245.723 213.111C245.723 208.201 199.134 204.221 141.662 204.221C84.1912 204.221 37.6016 208.201 37.6016 213.111C37.6016 218.02 84.1912 222 141.662 222Z" fill="#DFDFEB"/>
<path d="M105.904 96.4913C102.884 96.4913 99.9622 95.4311 97.6419 93.49L91.2069 88.1074C88.892 86.1718 86.1434 85.1333 83.3244 85.1333H51.3986C48.5037 85.1333 46.1509 87.4875 46.1509 90.3964V206.309C46.1509 211.322 50.206 215.389 55.2044 215.389H214.351C218.238 215.389 221.393 212.23 221.393 208.326V103.554C221.393 99.6557 218.243 96.4913 214.351 96.4913H105.904Z" fill="#6695FF"/>
<path d="M221.387 208.908C221.387 208.908 210.556 188.535 209.471 186.192L179.871 125.715C179.129 124.106 177.519 123.078 175.757 123.078H65.7649C61.764 123.078 55.985 120.974 52.9111 118.408L48.4711 114.695C46.1563 112.759 43.4077 111.72 40.5886 111.72H10.2134C6.97691 111.72 4.7813 115.015 6.01735 118.011L42.7571 207.124C44.8172 212.121 49.6747 215.378 55.0634 215.378H219.403C220.477 215.378 221.463 214.459 221.463 213.382L221.387 208.908Z" fill="#2D56B3"/>
<path d="M176.651 128.836L220.081 213.513" stroke="#263238" stroke-linejoin="round"/>
<path d="M158.75 143.424H121.338C120.319 143.424 119.37 142.907 118.823 142.059C117.559 140.096 118.985 137.53 121.338 137.53H158.75C159.769 137.53 160.718 138.047 161.266 138.895C162.529 140.858 161.103 143.424 158.75 143.424Z" stroke="#263238" stroke-linejoin="round"/>
<path d="M88.7676 172.528L117.896 189.932" stroke="#263238" stroke-linecap="round" stroke-linejoin="round"/>
<path d="M112.583 171.691L94.2808 190.041" stroke="#263238" stroke-linecap="round" stroke-linejoin="round"/>
<path d="M124.075 186.929C126.511 178.096 119.035 168.314 107.376 165.081C95.7178 161.847 84.2922 166.386 81.8563 175.219C79.4204 184.052 86.8968 193.834 98.5552 197.067C110.214 200.301 121.639 195.762 124.075 186.929Z" stroke="#263238" stroke-linecap="round" stroke-linejoin="round"/>
<path d="M253.774 96.5458C254.473 93.5174 251.258 89.7441 248.217 90.3367C245.74 90.8206 244.509 91.4187 244.108 91.5492C243.333 91.8047 237.526 91.4295 236.86 92.3973C236.377 93.0987 239.408 93.9088 241.343 94.1046C241.744 94.1426 241.858 94.6646 241.516 94.8766C239.614 96.0619 235.824 98.4651 235.499 99.0577C235.065 99.857 233.097 102.951 233.656 103.293C234.209 103.636 235.889 102.092 236.979 100.993C238.068 99.895 241.256 98.9598 241.256 98.9598C241.256 98.9598 235.716 104.533 234.989 106.082C233.9 108.382 237.055 107.376 237.055 107.376C236.561 108.676 239.147 108.393 239.76 107.904C240.969 106.936 244.699 102.418 244.715 102.875C244.731 103.331 240.855 108.257 241.251 109.41C241.641 110.557 243.208 109.116 244.113 107.904C245.019 106.691 247.675 103.299 247.675 103.299C247.675 103.299 250.695 101.086 253.215 97.2689C253.237 97.2363 253.768 96.5784 253.774 96.5458Z" fill="#DB9C7F"/>
<path d="M237.196 107.257L242.482 100.939" stroke="#263238" stroke-miterlimit="10" stroke-linecap="round"/>
<path d="M214.053 78.6307L233.059 66.7399C233.179 66.6638 233.287 66.5768 233.396 66.4844L239.663 60.0143C241.029 58.8127 243.132 59.0954 244.14 60.6069L247.214 65.2284C247.865 66.2071 247.887 67.4739 247.274 68.4798L242.861 75.6567C242.536 76.1841 242.059 76.5973 241.49 76.8419C237.939 78.3643 224.38 84.1113 216.292 86.4003C214.28 86.9712 212.329 85.3292 212.508 83.2413L212.708 80.8925C212.784 79.9682 213.283 79.1364 214.058 78.6253L214.053 78.6307Z" fill="#79A3FF"/>
<path d="M257.829 197.474L256.826 204.324C256.826 204.324 237.993 211.583 239.738 211.686C241.484 211.789 268.552 210.213 268.552 210.213L266.958 197.778L257.829 197.474Z" fill="#263238"/>
<path d="M263.077 86.6448C263.077 86.6448 264.578 101.135 265.706 101.885C266.834 102.635 268.33 103.016 268.33 103.016L265.89 86.46L263.077 86.6503V86.6448Z" stroke="#424242" stroke-miterlimit="10"/>
<path d="M292.818 76.6897C292.818 76.6897 300.451 92.2831 298.234 100.966L255.916 95.1267L256.799 78.9298L292.818 76.6897Z" fill="#263238"/>
<path d="M293.978 79.8486C293.978 79.8486 287.999 90.9565 276.549 91.8482" stroke="#424242" stroke-miterlimit="10" stroke-linecap="round"/>
<path d="M284.404 89.4722C284.404 89.4722 286.724 96.6708 293.452 96.8231" stroke="#424242" stroke-miterlimit="10" stroke-linecap="round"/>
<path d="M255.915 95.1267C255.915 95.1267 244.579 135.611 244.281 148.644L252.565 198.849C252.565 198.849 260.469 202.791 268.699 199.605C269.035 199.474 264.524 173.567 264.21 146.887L287.868 97.2363L255.91 95.1267H255.915Z" fill="#263238"/>
<path d="M298.423 99.2697L296.759 148.122L315.397 199.192C315.397 199.192 307.601 205.798 297.746 199.784L277.513 151.155L279.59 115.771L270.769 110.416L269.458 95.0886L298.429 99.2643L298.423 99.2697Z" fill="#263238"/>
<path d="M265.674 90.3367L274.657 97.1275L287.537 82.7085L256.251 87.1886L263.906 97.3722L265.674 90.3367Z" fill="white"/>
<path d="M302.223 196.647L300.597 202.557C300.597 202.557 288.714 215.481 290.465 215.481C292.216 215.481 311.727 207.478 311.727 207.478L309.228 195.168L302.223 196.647Z" fill="#263238"/>
<path d="M291.294 83.6001C291.294 83.6001 296.434 96.2684 292.731 149.416C292.731 149.416 305.71 178.063 312.443 200.725" stroke="#424242" stroke-miterlimit="10" stroke-linecap="round"/>
<path d="M272.407 111.682L259.456 147.871L265.012 200.73" stroke="#424242" stroke-miterlimit="10" stroke-linecap="round"/>
<path d="M215.912 85.7802C215.912 85.7802 216.162 87.047 213.364 88.0148C210.567 88.9826 208.919 88.6727 208.919 88.6727C208.919 88.6727 202.641 81.2457 202.365 80.9847C202.088 80.7237 202.56 77.8693 204.419 76.7221C205.547 76.0261 209.922 77.157 213.18 78.1575C215.451 78.8534 216.856 81.137 216.476 83.4912C216.324 84.4155 216.14 85.2746 215.912 85.7802Z" fill="#DB9C7F"/>
<path d="M210.762 83.8066C210.762 83.8066 205.628 83.0617 203.46 81.2675C203.46 81.2675 200.218 80.615 199.529 81.0228C198.841 81.4306 198.277 82.0178 196.786 82.2679C195.295 82.518 195.745 81.523 197.312 80.1148C197.762 79.7125 198.954 78.2608 199.995 78.0651C201.394 77.7986 204.414 76.7275 204.414 76.7275L210.48 84.0023" fill="#DB9C7F"/>
<path d="M208.924 88.6727C208.924 88.6727 206.842 89.983 206.111 89.9449C205.379 89.9069 204.69 89.4719 204.511 88.2649C204.511 88.2649 200.635 88.9771 201.866 86.0357C201.866 86.0357 199.524 85.6551 199.464 84.1219C199.464 84.1219 197.388 83.0834 197.838 81.4196C198.293 79.7559 204.815 79.9027 204.815 79.9027L211.738 83.4259L208.93 88.6672L208.924 88.6727Z" fill="#DB9C7F"/>
<path d="M207.45 88.9501C207.45 88.9501 209.428 87.1939 209.315 86.4871C209.206 85.7803 208.832 85.3943 208.382 85.5302C207.78 85.7096 205.487 87.4658 204.5 88.265" stroke="#1A1C30" stroke-width="0.78" stroke-linecap="round" stroke-linejoin="round"/>
<path d="M201.86 86.0413C201.86 86.0413 207.124 85.2149 207.173 84.4374C207.222 83.6544 206.853 82.6214 205.753 82.8443C204.446 83.1053 200.7 84.0078 199.453 83.9806" stroke="#1A1C30" stroke-width="0.78" stroke-linecap="round" stroke-linejoin="round"/>
<path d="M208.387 85.5301C208.387 85.5301 209.352 84.9266 208.973 84.2524C208.588 83.5782 208.068 83.3444 206.945 83.6326" stroke="#1A1C30" stroke-width="0.78" stroke-linecap="round" stroke-linejoin="round"/>
<path d="M199.35 81.7731C199.35 81.7731 199.637 81.398 200.044 81.012" stroke="#1A1C30" stroke-width="0.78" stroke-linecap="round" stroke-linejoin="round"/>
<path d="M194.993 66.6528L197.653 65.1529L211.336 89.5667C211.735 90.2777 211.482 91.1809 210.773 91.5805L210.684 91.6312C209.975 92.0308 209.074 91.7776 208.676 91.0666L194.993 66.6528Z" fill="#333969"/>
<path d="M201.752 70.562L202.901 72.6118C203.21 73.1664 203.069 73.8405 202.586 74.1124L200.104 75.5097C199.616 75.7816 198.97 75.5532 198.661 74.9986L197.463 72.8619" fill="#333969"/>
<path d="M196.439 50.5155C191.69 41.6803 185.737 35.6017 181.959 35.319L182.084 34.4817L180.105 35.7757C176.706 38.0973 178.511 48.4603 184.138 58.9212C189.76 69.3875 197.073 75.9881 200.472 73.6665L202.332 72.4268L201.795 71.7091C203.102 67.6585 201.063 59.1278 196.439 50.521V50.5155Z" fill="#333969"/>
<path d="M202.191 72.5409C205.812 70.6484 204.305 60.561 198.824 50.01C193.343 39.4591 185.963 32.4401 182.342 34.3326C178.72 36.2251 180.227 46.3125 185.708 56.8634C191.189 67.4143 198.569 74.4334 202.191 72.5409Z" fill="#2D56B3"/>
<path d="M196.542 50.5047C201.117 59.0191 202.917 67.2291 200.553 68.8439C198.195 70.4587 192.568 64.8585 187.992 56.3441C183.417 47.8297 181.617 39.6197 183.981 38.0049C186.339 36.3956 191.966 41.9903 196.542 50.5047Z" fill="#D3DDF7"/>
<path d="M210.762 83.8066C210.762 83.8066 205.628 83.0617 203.46 81.2675C203.46 81.2675 200.218 80.615 199.529 81.0228C198.841 81.4306 198.277 82.0178 196.786 82.2679C195.295 82.518 195.745 81.523 197.312 80.1148C197.762 79.7125 198.954 78.2608 199.995 78.0651C201.394 77.7986 204.414 76.7275 204.414 76.7275L210.48 84.0023" fill="#DB9C7F"/>
<path d="M210.762 83.8065C210.762 83.8065 205.628 83.0616 203.459 81.2674C203.459 81.2674 200.217 80.615 199.529 81.0227C198.84 81.4305 198.276 82.0177 196.786 82.2678" stroke="#1A1C30" stroke-width="0.78" stroke-linecap="round" stroke-linejoin="round"/>
<path d="M196.542 50.5047C191.966 41.9903 186.339 36.3901 183.981 38.005C183.797 38.13 183.639 38.304 183.504 38.5106C186.231 38.6791 191.007 43.8715 194.986 51.2822C199.204 59.1279 201.058 66.7071 199.48 69.1157C199.887 69.1429 200.25 69.0559 200.559 68.8439C202.917 67.2345 201.123 59.0191 196.547 50.5047H196.542Z" fill="#333969"/>
<path d="M193.354 47.1662C195.788 51.6953 196.742 56.0612 195.49 56.9203C194.232 57.7793 191.245 54.7998 188.806 50.2708C186.366 45.7417 185.417 41.3758 186.67 40.5167C187.922 39.6577 190.915 42.6372 193.354 47.1662Z" fill="white"/>
<path d="M284.393 61.7485L280.62 48.2375C279.232 43.2789 276.804 38.69 273.594 34.6666C267.907 27.5441 252.972 28.1911 252.972 28.1911L241.479 36.4826C241.446 36.5043 241.408 36.5206 241.376 36.5424C234.61 40.2885 233.368 46.0626 233.542 54.9685L233.959 66.9898L241.739 59.5411L243.701 62.2433C243.691 62.1672 243.685 62.0911 243.68 62.0204L244.612 63.4884L243.707 62.2433C243.983 64.7226 245.274 71.0404 251.269 73.9927L254.685 79.3863L253.779 86.835C285.841 98.5247 293.821 75.5695 293.821 75.5695L284.399 61.7594L284.393 61.7485Z" fill="#79A3FF"/>
<path d="M240.096 58.2961L244.292 63.445C244.292 63.445 243.718 71.3777 251.692 73.9222" stroke="#263238" stroke-miterlimit="10" stroke-linecap="round"/>
<path d="M271.951 68.7732L247.55 90.0918C247.55 90.0918 252.381 96.8773 254.555 97.1165L283.786 78.462" fill="#79A3FF"/>
<path d="M254.798 83.5566C254.798 83.5566 268.086 68.534 272.678 66.3538" stroke="#263238" stroke-miterlimit="10" stroke-linecap="round"/>
<path d="M265.641 52.5708C265.641 52.5708 266.275 55.9309 270.531 67.7456" stroke="#263238" stroke-miterlimit="10" stroke-linecap="round"/>
<path d="M257.943 95.1865C257.943 95.1865 285.244 77.7445 285.483 72.6554C285.721 67.5663 278.598 43.9424 278.598 43.9424" stroke="#263238" stroke-miterlimit="10" stroke-linecap="round"/>
<path d="M260.93 70.4696C260.93 70.4696 267.501 71.0894 269.539 65.1086" stroke="#263238" stroke-miterlimit="10" stroke-linecap="round"/>
<path d="M234.322 66.0166C234.322 66.0166 236.133 64.2006 237.944 66.2612" stroke="#263238" stroke-miterlimit="10" stroke-linecap="round"/>
<path d="M212.827 78.0108L216.693 76.1948C216.693 76.1948 221.404 81.3437 219.712 85.764L215.001 87.1559C215.001 87.1559 217.175 82.3115 212.827 78.0108Z" fill="white"/>
<path d="M249.095 87.3734C249.095 87.3734 254.17 89.5536 257.791 95.8225L253.893 98.8183C253.893 98.8183 249.09 91.9133 245.74 90.8204L249.09 87.3679L249.095 87.3734Z" fill="white"/>
<path d="M244.835 27.4028L260.838 28.5827C260.838 28.5827 261.445 37.4124 251.779 45.1983L247.437 40.9683L245.073 46.1171C245.073 46.1171 241.403 44.0456 240.904 38.0975L241.685 30.8771L244.829 27.4028H244.835Z" fill="white"/>
<path d="M252.972 28.1911C253.557 28.6913 253.834 29.4579 253.698 30.2191C253.183 33.0899 251.633 40.0493 248.516 40.9192C244.574 42.0229 242.119 34.2208 242.119 34.2208L244.081 20.5901L252.972 28.1911Z" fill="#DB9C7F"/>
<path d="M240.492 31.4207L240.443 33.4052C240.405 33.4269 239.733 39.2826 241.695 39.511C249.898 38.0213 250.418 30.2245 251.118 22.4822C251.118 22.4822 239.695 29.8766 240.492 31.4261V31.4207Z" fill="#263238"/>
<path d="M226.831 16.806C226.831 16.806 224.83 35.9172 236.67 39.2066C248.51 42.496 251.346 23.1347 250.934 16.4363C250.527 9.73784 247.551 7.24767 239.251 6.94863C226.977 6.5028 226.831 16.806 226.831 16.806Z" fill="#DB9C7F"/>
<path d="M237.467 26.0436C237.5 26.7341 237.174 27.305 236.741 27.3267C236.307 27.3485 235.922 26.8102 235.889 26.1197C235.857 25.4292 236.182 24.8583 236.616 24.8366C237.05 24.8148 237.435 25.3531 237.467 26.0436Z" fill="#263238"/>
<path d="M238.768 22.5204C238.768 22.5204 234.86 24.2276 234.475 21.2644" stroke="#263238" stroke-miterlimit="10" stroke-linecap="round"/>
<path d="M229.725 22.5312C229.725 22.5312 228.435 24.7822 226.95 23.7818" stroke="#263238" stroke-miterlimit="10" stroke-linecap="round"/>
<path d="M227.649 26.5219C227.649 26.5219 228.386 26.2827 229.47 26.859" stroke="#263238" stroke-miterlimit="10" stroke-linecap="round"/>
<path d="M239.24 33.6554C239.24 33.6554 240.308 32.6332 241.186 32.3994" stroke="#263238" stroke-miterlimit="10" stroke-linecap="round"/>
<path d="M231.238 28.7239C231.238 28.7239 230.561 30.2734 232.29 31.0183" stroke="#263238" stroke-miterlimit="10" stroke-linecap="round"/>
<path d="M226.695 20.9164C226.695 20.9164 226.896 15.3217 229.368 12.1573C229.368 12.1573 232.767 19.9051 247.415 21.4873L251.682 20.5902C251.682 20.5902 253.427 11.6191 247.307 8.08498C241.186 4.5509 231.824 6.5028 228.809 9.68347C223.702 15.0716 226.695 20.9218 226.695 20.9218V20.9164Z" fill="#263238"/>
<path d="M244.569 20.465L247.106 25.4889L248.895 19.8452L244.569 20.465Z" fill="#263238"/>
<path d="M253.427 24.967C252.695 27.6366 250.603 29.4036 248.749 28.9089C246.895 28.4141 245.984 25.8533 246.71 23.1782C247.442 20.5086 249.535 18.7416 251.389 19.2364C253.243 19.7311 254.154 22.292 253.427 24.967Z" fill="#DB9C7F"/>
<path d="M251.568 22.64C251.568 22.64 249.481 20.8403 248.342 24.1297C248.342 24.1297 249.562 25.4238 248.792 26.4459C248.792 26.4459 249.996 26.7178 250.587 25.6575" stroke="#263238" stroke-linecap="round" stroke-linejoin="round"/>
<path d="M250.662 23.8959C250.662 23.8959 250.549 23.1619 249.735 22.3301" stroke="#263238" stroke-linecap="round" stroke-linejoin="round"/>
<path d="M251.676 28.8164C251.676 29.8168 250.868 30.6269 249.871 30.6269C248.873 30.6269 248.065 29.8168 248.065 28.8164C248.065 27.816 248.873 27.0059 249.871 27.0059C250.868 27.0059 251.676 27.816 251.676 28.8164Z" fill="white"/>
<path d="M246.607 10.4229C246.607 10.4229 248.83 -1.2287 254.024 1.00048C259.217 3.22967 261.565 14.3865 256.62 15.2564C251.676 16.1263 247.843 13.7667 247.843 13.7667L246.607 10.4174V10.4229Z" fill="#263238"/>
<path d="M246.672 13.7722C246.672 13.7722 255.265 20.96 258.046 14.3322" stroke="#263238" stroke-miterlimit="10" stroke-linecap="round"/>
<path d="M279.134 115.494L269.192 109.866" stroke="#424242" stroke-miterlimit="10" stroke-linecap="round"/>
<path d="M53.41 41.5772C64.1549 41.8708 73.0458 50.5049 73.6638 61.2648C74.0271 67.5935 71.5821 73.3513 67.4673 77.4182C66.8602 78.0163 66.5783 78.8754 66.7192 79.7181L68.2643 88.8904L58.7554 83.3338C58.2133 83.0184 57.5736 82.8988 56.961 83.0238C54.6352 83.4914 52.174 83.5784 49.6369 83.1924C40.2418 81.7624 32.9123 73.9657 32.0449 64.4726C30.8902 51.8261 40.9629 41.2293 53.41 41.5718V41.5772Z" fill="#D3DDF7"/>
<path d="M51.876 69.752L51.8164 64.7445C52.5428 64.5651 53.2096 64.3367 53.8114 64.0486C54.4131 63.7604 54.939 63.4342 55.389 63.059C55.8389 62.6839 56.2184 62.2652 56.5274 61.8031C56.831 61.3409 57.0641 60.8407 57.2214 60.3079C57.3786 59.7751 57.4599 59.2096 57.4599 58.6224C57.4599 57.7742 57.2539 56.975 56.8419 56.2247C56.4299 55.4744 55.8389 54.8654 55.0691 54.4033C54.2993 53.9411 53.3885 53.7073 52.3205 53.7073C51.1767 53.7073 50.1195 54.0227 49.1437 54.6534C48.1679 55.2841 47.4252 56.3606 46.9156 57.883L46.3843 57.5296C46.8342 56.0887 47.5932 54.985 48.6558 54.213C49.7183 53.4409 50.9273 53.0603 52.288 53.0603C53.4482 53.0603 54.4674 53.305 55.3456 53.7997C56.2238 54.2945 56.9069 54.9578 57.4003 55.8006C57.8936 56.6379 58.1375 57.5839 58.1375 58.6278C58.1375 59.4162 58.002 60.1556 57.7364 60.8516C57.4707 61.5421 57.0967 62.1728 56.6142 62.7491C56.1317 63.32 55.5462 63.8202 54.8577 64.2443C54.1692 64.6684 53.3885 64.9892 52.5266 65.2067L52.4669 69.7684H51.876V69.752ZM51.5236 73.4818C51.5236 73.2263 51.5941 73.0143 51.7296 72.8457C51.8652 72.6772 52.0549 72.5956 52.2934 72.5956C52.5699 72.5956 52.7651 72.6772 52.8844 72.8348C53.0036 72.9925 53.0633 73.21 53.0633 73.4873C53.0633 73.7265 52.9982 73.9331 52.8735 74.1071C52.7434 74.2865 52.5537 74.3735 52.2989 74.3735C52.0441 74.3735 51.8489 74.292 51.7242 74.1343C51.5941 73.9766 51.5345 73.7591 51.5345 73.4818H51.5236Z" fill="#263238"/>
</g>
<defs>
<clipPath id="clip0_1_16575">
<rect width="320" height="222" fill="white"/>
</clipPath>
</defs>
</svg>
