<svg width="334" height="290" viewBox="0 0 334 290" fill="none" xmlns="http://www.w3.org/2000/svg">
<g clip-path="url(#clip0_59_6338)">
<path d="M167.001 264.893C258.851 264.893 333.311 256.734 333.311 246.669C333.311 236.604 258.851 228.445 167.001 228.445C75.1501 228.445 0.69043 236.604 0.69043 246.669C0.69043 256.734 75.1501 264.893 167.001 264.893Z" fill="#EBEBEB"/>
<path d="M128.284 243.65C126.932 244.108 88.1799 244.244 86.6986 243.316C86.1349 242.966 85.7863 237.324 85.5578 230.494C85.5085 229.019 85.4661 227.495 85.4325 225.948L82.29 205.279L108.196 205.113L110.641 225.787L110.542 230.334C110.542 230.334 125.402 236.918 126.917 238.111C128.425 239.304 129.637 243.193 128.284 243.65Z" fill="#EB9481"/>
<path d="M128.284 243.649C126.932 244.107 88.1798 244.243 86.6985 243.315C86.0141 242.886 85.6406 234.645 85.4324 225.947L110.641 225.785L110.542 230.332C110.542 230.332 125.402 236.917 126.917 238.11C128.425 239.303 129.636 243.192 128.284 243.649Z" fill="white"/>
<path d="M128.284 243.651C126.932 244.108 88.1798 244.245 86.6985 243.316C86.1347 242.967 85.7861 237.324 85.5576 230.494L110.542 230.334C110.542 230.334 125.402 236.918 126.917 238.111C128.425 239.304 129.636 243.193 128.284 243.651Z" fill="#A6A6A6"/>
<path d="M127.723 242.102C121.227 241.965 95.0114 242.027 88.5792 242.386C88.527 242.389 88.527 242.424 88.5792 242.426C95.0154 242.703 121.23 242.429 127.724 242.208C127.861 242.204 127.86 242.105 127.723 242.102Z" fill="#263238"/>
<path d="M124.42 236.726C122.879 236.668 121.376 237.406 120.539 238.326C119.735 239.211 119.049 240.452 119.099 241.8C119.101 241.838 119.172 241.839 119.178 241.799C119.54 239.256 121.844 237.015 124.42 236.808C124.472 236.803 124.472 236.728 124.42 236.726Z" fill="#263238"/>
<path d="M113.064 230.971C110.464 230.945 107.453 231.873 105.845 234.005C105.783 234.087 105.9 234.175 105.977 234.135C108.323 232.915 110.555 232.004 113.11 231.291C113.291 231.241 113.251 230.973 113.064 230.971Z" fill="#263238"/>
<path d="M115.074 231.747C112.474 231.719 109.463 232.648 107.855 234.78C107.792 234.863 107.911 234.95 107.987 234.91C110.333 233.69 112.565 232.78 115.12 232.067C115.3 232.016 115.261 231.748 115.074 231.747Z" fill="#263238"/>
<path d="M117.084 232.522C114.484 232.495 111.473 233.423 109.864 235.555C109.802 235.638 109.921 235.725 109.997 235.685C112.343 234.466 114.574 233.555 117.13 232.842C117.31 232.792 117.27 232.524 117.084 232.522Z" fill="#263238"/>
<path d="M119.093 233.297C116.493 233.27 113.482 234.199 111.874 236.331C111.811 236.413 111.93 236.501 112.007 236.461C114.353 235.241 116.584 234.33 119.139 233.618C119.32 233.567 119.28 233.299 119.093 233.297Z" fill="#263238"/>
<path d="M90.2112 236.211C87.2944 236.23 87.3182 240.763 90.2403 240.744C93.1571 240.726 93.1333 236.192 90.2112 236.211Z" fill="#263238"/>
<path d="M115.85 224.024C114.53 222.937 112.876 224.01 112.069 225.146C110.761 226.986 109.867 229.562 109.73 231.803C109.727 231.858 109.768 231.88 109.811 231.877C109.867 232.064 110.087 232.219 110.279 232.086C112.126 230.799 114.259 229.652 115.656 227.837C116.472 226.776 117.099 225.052 115.85 224.024ZM112.68 229.562C111.787 230.216 110.867 230.824 109.999 231.511C110.459 230.214 110.86 228.904 111.45 227.654C111.732 227.058 112.033 226.45 112.394 225.896C112.956 225.036 115.501 222.854 115.769 225.681C115.917 227.241 113.744 228.78 112.68 229.562Z" fill="#263238"/>
<path d="M103.273 232.789C105.538 233.129 107.871 232.476 110.094 232.123C110.325 232.087 110.376 231.822 110.287 231.648C110.32 231.621 110.335 231.576 110.294 231.539C108.641 230.019 106.211 228.782 103.993 228.363C102.624 228.105 100.689 228.479 100.49 230.177C100.303 231.784 101.951 232.591 103.273 232.789ZM101.698 231.315C99.9304 229.091 103.277 228.899 104.279 229.13C104.923 229.279 105.561 229.508 106.177 229.742C107.469 230.234 108.667 230.9 109.898 231.516C108.795 231.622 107.711 231.822 106.614 231.969C105.306 232.144 102.672 232.542 101.698 231.315Z" fill="#263238"/>
<path d="M44.2236 109.738C44.2236 109.738 74.3082 160.917 75.1139 164.511C76.3516 170.032 82.9131 224.561 82.9131 224.561L114.216 223.997C114.216 223.997 108.821 175.92 103.711 160.081C100.031 148.672 73.4806 110.834 73.4806 110.834L44.2236 109.738Z" fill="#37474F"/>
<path d="M111.37 219.198C106.875 219.165 90.9444 218.986 84.9606 219.544C84.9148 219.548 84.9165 219.624 84.9617 219.63C87.0213 219.926 106.878 219.466 111.372 219.321C111.457 219.319 111.455 219.198 111.37 219.198Z" fill="#263238"/>
<path d="M49.3594 114.434C51.3308 117.526 53.4107 120.554 55.4262 123.619C57.4428 126.685 59.452 129.756 61.435 132.844C65.3981 139.016 69.258 145.252 73.0471 151.527C74.8243 154.47 76.5167 157.44 77.737 160.651C78.9457 163.83 79.7688 167.139 80.3778 170.474C80.9914 173.834 81.3951 177.225 81.7767 180.616C82.1827 184.227 82.5829 187.838 82.986 191.449C83.8108 198.837 84.6355 206.226 85.4603 213.614C85.5612 214.521 85.6604 215.426 85.7515 216.334C85.7648 216.467 85.527 216.494 85.5102 216.36C84.5892 209.019 83.8241 201.655 82.9872 194.303C82.5707 190.644 82.1543 186.984 81.7379 183.324C81.3504 179.921 80.9821 176.514 80.4543 173.129C79.9352 169.804 79.2619 166.492 78.2498 163.273C77.1924 159.911 75.6948 156.754 73.9218 153.696C70.2939 147.439 66.4554 141.29 62.6153 135.156C58.742 128.97 54.8363 122.8 50.7856 116.723C50.2856 115.972 49.781 115.226 49.2625 114.487C49.2219 114.429 49.3211 114.374 49.3594 114.434Z" fill="#263238"/>
<path d="M54.0867 246.671C52.6593 246.584 15.809 231.653 14.7818 230.238C14.7476 230.191 14.7273 230.098 14.7256 229.965C14.7325 228.698 17.2845 224.263 19.4172 218.443C19.5506 218.071 20.5018 216.344 21.8219 214.015C25.4504 207.618 31.871 196.66 31.871 196.66L55.9578 206.23L44.4285 223.489L42.634 227.665C42.634 227.665 53.9388 239.348 54.8935 241.02C55.8424 242.692 55.5089 246.752 54.0867 246.671Z" fill="#EB9481"/>
<path d="M54.0867 246.672C52.6593 246.584 15.809 231.653 14.7818 230.239C14.7476 230.191 14.7273 230.098 14.7256 229.966C14.7325 228.699 17.2845 224.264 19.4172 218.444C19.5506 218.072 20.5018 216.345 21.8219 214.016L44.4291 223.489L42.6346 227.666C42.6346 227.666 53.9394 239.349 54.8941 241.02C55.8424 242.693 55.5089 246.753 54.0867 246.672Z" fill="white"/>
<path d="M54.0839 246.667C52.6588 246.584 15.8073 231.652 14.7825 230.235C14.391 229.7 16.0388 224.667 19.4144 218.443L42.6341 227.668C42.6341 227.668 53.9389 239.345 54.8959 241.02C55.8447 242.691 55.5089 246.75 54.0839 246.667Z" fill="#A6A6A6"/>
<path d="M54.143 245.022C48.1725 242.458 23.8479 232.681 17.7509 230.6C17.7016 230.583 17.6883 230.617 17.7359 230.638C23.5985 233.308 48.0014 242.888 54.1036 245.121C54.2324 245.168 54.2689 245.076 54.143 245.022Z" fill="#263238"/>
<path d="M53.0994 238.8C51.6929 238.169 50.0231 238.288 48.902 238.827C47.8249 239.345 46.7229 240.24 46.2647 241.507C46.2514 241.543 46.3175 241.571 46.3378 241.536C47.6277 239.314 50.6043 238.101 53.0698 238.875C53.1191 238.891 53.1481 238.821 53.0994 238.8Z" fill="#263238"/>
<path d="M44.7306 229.205C42.3305 228.204 39.191 227.935 36.9 229.308C36.8112 229.361 36.8884 229.487 36.9748 229.478C39.6074 229.228 42.0167 229.221 44.6528 229.518C44.839 229.539 44.9022 229.277 44.7306 229.205Z" fill="#263238"/>
<path d="M46.3028 230.677C43.9028 229.677 40.7632 229.408 38.4722 230.781C38.3835 230.834 38.4606 230.959 38.5471 230.951C41.1791 230.7 43.589 230.693 46.2251 230.991C46.4113 231.012 46.4745 230.749 46.3028 230.677Z" fill="#263238"/>
<path d="M47.8751 232.152C45.475 231.151 42.3355 230.882 40.0445 232.255C39.9558 232.309 40.0329 232.434 40.1193 232.426C42.7514 232.175 45.1613 232.168 47.7974 232.466C47.983 232.487 48.0468 232.223 47.8751 232.152Z" fill="#263238"/>
<path d="M49.4469 233.625C47.0468 232.624 43.9073 232.355 41.6169 233.728C41.5281 233.781 41.6047 233.907 41.6917 233.898C44.3243 233.648 46.7336 233.641 49.3697 233.938C49.5553 233.959 49.6191 233.697 49.4469 233.625Z" fill="#263238"/>
<path d="M21.5818 225.489C18.8708 224.412 17.1923 228.623 19.9079 229.702C22.6194 230.779 24.2979 226.568 21.5818 225.489Z" fill="#263238"/>
<path d="M49.9194 223.81C49.1034 222.307 47.1679 222.68 45.9934 223.431C44.091 224.645 42.2959 226.698 41.3279 228.724C41.3041 228.774 41.3349 228.81 41.3755 228.823C41.3575 229.017 41.5036 229.244 41.7316 229.192C43.9263 228.691 46.3345 228.429 48.3099 227.27C49.463 226.594 50.6908 225.231 49.9194 223.81ZM44.903 227.754C43.8294 228.026 42.7495 228.244 41.6863 228.556C42.5993 227.526 43.4629 226.461 44.479 225.524C44.9639 225.077 45.4708 224.627 46.0131 224.249C46.857 223.662 50.0343 222.594 49.2223 225.316C48.7745 226.817 46.1825 227.429 44.903 227.754Z" fill="#263238"/>
<path d="M34.9728 227.217C36.9448 228.381 39.3524 228.652 41.5454 229.159C41.7727 229.211 41.9194 228.985 41.9026 228.791C41.9432 228.778 41.9745 228.742 41.9508 228.692C40.9885 226.662 39.1998 224.605 37.3015 223.384C36.1287 222.631 34.1944 222.251 33.3743 223.751C32.5977 225.17 33.8215 226.537 34.9728 227.217ZM34.0662 225.259C33.2629 222.534 36.4367 223.613 37.2783 224.202C37.8194 224.581 38.3246 225.033 38.8083 225.482C39.8216 226.422 40.6823 227.489 41.5923 228.522C40.5303 228.207 39.451 227.985 38.378 227.71C37.0997 227.381 34.5088 226.761 34.0662 225.259Z" fill="#263238"/>
<path d="M46.2865 222.523L19.3252 211.636C19.3252 211.636 52.7541 162.484 53.0017 158.826C53.2204 155.585 38.5377 127.385 37.9589 119.166C37.3342 110.297 41.6053 103.432 46.2981 99.1719L74.112 110.995C74.112 110.995 71.1766 115.691 66.5523 118.305C66.5523 118.305 80.8156 150.902 80.0065 160.924C79.1934 171.001 46.2865 222.523 46.2865 222.523Z" fill="#37474F"/>
<path d="M47.4837 217.394C43.5849 215.718 44.7275 216.144 40.8096 214.511C38.8927 213.712 26.2899 208.473 24.3713 208.042C24.3289 208.033 24.3017 208.099 24.3388 208.122C26.0161 209.149 38.7077 214.167 40.6397 214.929C44.5877 216.487 43.4712 215.997 47.4367 217.509C47.5115 217.537 47.5568 217.426 47.4837 217.394Z" fill="#263238"/>
<path d="M71.1304 117.708C68.2327 118.331 65.3901 119.355 62.6595 120.455C62.5522 120.499 62.6026 120.658 62.7174 120.624C65.5606 119.794 68.4525 119.019 71.2435 118.038C71.4627 117.961 71.3525 117.66 71.1304 117.708Z" fill="#263238"/>
<path d="M67.8301 116.562C67.5558 117.04 67.3232 117.544 67.1156 118.052C66.9549 118.447 66.7484 118.871 66.7508 119.302C66.7513 119.385 66.8639 119.406 66.9155 119.355C67.2385 119.037 67.4102 118.573 67.6144 118.177C67.851 117.718 68.0981 117.263 68.3214 116.797C68.4693 116.489 67.9989 116.268 67.8301 116.562Z" fill="#263238"/>
<path d="M68.1679 113.949C68.3384 113.521 68.5101 113.093 68.6899 112.669C68.8761 112.23 69.0924 111.797 69.2444 111.346C69.2682 111.274 69.3813 111.322 69.3528 111.394C69.1829 111.823 69.0721 112.28 68.9358 112.721C68.7989 113.163 68.6545 113.603 68.5083 114.043C68.2357 114.861 67.9022 115.673 67.5508 116.463C68.0055 116.457 68.4735 116.437 68.8871 116.231C69.336 116.007 69.608 115.53 69.829 115.099C70.0744 114.621 70.3 114.131 70.5523 113.656C70.8312 113.131 71.1398 112.611 71.3237 112.042C71.3469 111.97 71.4576 112.018 71.4321 112.09C71.0134 113.265 70.6016 114.438 69.9502 115.52C69.6944 115.945 69.4868 116.388 69.0153 116.554C68.5089 116.733 67.955 116.698 67.4278 116.66C67.3629 116.678 67.2787 116.636 67.3014 116.557C67.5502 115.682 67.8303 114.794 68.1679 113.949Z" fill="#263238"/>
<path d="M66.9854 119.365C67.9737 121.461 68.8431 123.549 69.767 125.637C70.6701 127.677 71.5157 129.741 72.3364 131.815C73.9952 136.007 75.4812 140.275 76.7845 144.591C77.4294 146.726 78.0233 148.877 78.5604 151.042C79.0987 153.213 79.6247 155.406 79.848 157.635C80.0719 159.872 79.9124 162.083 79.2895 164.246C78.6573 166.44 77.8244 168.357 76.8349 170.409C76.2306 171.664 76.0223 171.494 76.3152 170.861C77.1452 169.065 79.3191 163.62 79.1613 159.042C79.0853 156.833 78.6318 154.658 78.133 152.512C77.6237 150.322 77.049 148.147 76.422 145.987C75.1866 141.731 73.7192 137.56 72.2094 133.395C71.3638 131.062 70.4561 128.752 69.5977 126.424C68.7329 124.079 67.8414 121.968 66.8821 119.407C66.8566 119.34 66.9546 119.3 66.9854 119.365Z" fill="#263238"/>
<path d="M46.516 112.443C46.9991 112.265 47.669 112.561 48.1614 112.643C48.7931 112.749 49.4316 112.814 50.072 112.836C50.703 112.857 51.3393 112.832 51.9674 112.77C52.5955 112.709 53.2364 112.631 53.7822 112.29C54.7021 111.716 55.4723 110.705 56.0958 109.833C56.7808 108.876 57.4919 107.775 57.9002 106.666C57.9252 106.598 58.0232 106.645 58.0017 106.711C57.7987 107.358 57.6479 108.01 57.3898 108.642C57.1468 109.236 56.833 109.804 56.5001 110.352C55.8783 111.375 55.1649 112.467 54.0989 113.076C52.9801 113.714 51.5388 113.676 50.2912 113.604C49.5697 113.562 48.8511 113.467 48.1435 113.318C47.6331 113.21 46.7741 113.128 46.4487 112.68C46.3901 112.601 46.4209 112.479 46.516 112.443Z" fill="#263238"/>
<path d="M27.0203 206.497C31.4521 199.79 35.8015 193.028 40.0727 186.218C44.3548 179.39 48.5581 172.512 52.7027 165.599C53.694 163.946 54.8395 162.294 55.478 160.463C56.1723 158.472 55.7779 156.544 55.1492 154.596C53.9961 151.024 52.5601 147.548 51.0097 144.131C49.4547 140.704 47.7809 137.334 46.1337 133.951C44.5004 130.596 42.7621 127.23 41.5232 123.704C40.34 120.336 39.8894 116.843 40.7977 113.35C41.699 109.884 43.6484 106.771 45.6842 103.867C46.2212 103.101 46.7682 102.341 47.307 101.576C47.3482 101.518 47.4363 101.589 47.3934 101.647C45.15 104.675 42.9622 107.88 41.6468 111.435C40.9966 113.192 40.5755 115.042 40.5343 116.919C40.492 118.823 40.8498 120.712 41.4107 122.525C42.5017 126.052 44.2237 129.391 45.828 132.704C47.4682 136.09 49.1526 139.457 50.7342 142.872C52.3257 146.308 53.814 149.796 55.0372 153.381C55.5819 154.978 56.1891 156.648 56.1532 158.358C56.1137 160.232 55.2194 161.918 54.2937 163.498C50.2615 170.374 46.0756 177.164 41.8382 183.916C37.5844 190.693 33.2466 197.417 28.8415 204.096C28.2859 204.938 27.7291 205.78 27.1717 206.621C27.1027 206.723 26.9519 206.6 27.0203 206.497Z" fill="#263238"/>
<path d="M75.6574 79.7342C78.1677 85.2448 90.8494 92.8381 96.7891 93.6542C101.063 94.2412 114.038 94.443 118.488 93.7638C123.699 92.9681 119.717 78.8984 116.636 79.2586C108.169 80.2487 100.978 81.3507 98.7182 81.3507C95.9586 81.3507 81.0213 76.5564 79.2215 75.8818C74.8164 74.2306 74.2335 76.6086 75.6574 79.7342Z" fill="#EB9481"/>
<path d="M75.735 81.1923C78.9128 85.8955 89.4787 93.584 89.4787 93.584L90.9449 90.3354L95.7972 79.5967C95.7972 79.5967 86.0944 76.5349 79.7092 75.1707C78.8467 74.9857 78.0863 74.8749 77.4246 74.8453C73.3483 74.6255 72.9945 77.1462 75.735 81.1923Z" fill="#79A3FF"/>
<path d="M75.735 81.1923C78.9128 85.8955 89.4787 93.584 89.4787 93.584L90.9449 90.3354C87.005 85.7621 80.9231 78.8305 77.4246 74.8453C73.3483 74.6255 72.9945 77.1462 75.735 81.1923Z" fill="#263238"/>
<path d="M87.5747 91.412C88.3797 89.4382 91.967 81.4748 92.8573 79.8039C92.9194 79.6879 93.007 79.6971 92.9577 79.8253C90.687 85.7941 88.541 89.5415 87.653 91.4387C87.6309 91.4862 87.5544 91.4619 87.5747 91.412Z" fill="#263238"/>
<path d="M115.081 79.4116C120.235 78.7353 126.61 77.5793 132.008 79.8709C133.067 80.3204 133.45 81.1098 133.45 81.1098C135.888 82.0941 136.155 83.5406 136.155 83.5406C138.145 85.1524 138.216 86.6697 138.216 86.6697C138.216 86.6697 141.065 87.8564 140.634 89.6979C140.156 91.7644 136.248 89.6932 133.402 89.869C126.882 90.2709 117.726 92.6663 115.858 92.9691L115.081 79.4116Z" fill="#EB9481"/>
<path d="M126.273 85.4875C128.194 85.4075 130.079 85.2787 132.002 85.4591C134.11 85.6569 136.106 86.2015 138.152 86.705C138.216 86.7206 138.245 86.6336 138.184 86.6081C134.625 85.1105 130.061 84.7173 126.269 85.4005C126.177 85.4168 126.177 85.4916 126.273 85.4875Z" fill="#263238"/>
<path d="M125.458 81.588C127.332 81.6136 130.625 81.6803 136.135 83.6001C136.153 83.6064 136.169 83.578 136.151 83.5682C132.739 81.8461 129.24 81.2337 125.46 81.4987C125.342 81.5068 125.334 81.5863 125.458 81.588Z" fill="#263238"/>
<path d="M125.059 79.4847C128.244 79.65 130.231 80.1569 133.433 81.1197C133.451 81.125 133.466 81.0954 133.447 81.0873C129.921 79.6112 128.475 79.4749 125.049 79.3751C124.932 79.3711 124.935 79.4783 125.059 79.4847Z" fill="#263238"/>
<path d="M125.577 90.8516C124.749 91.2402 124.947 91.6775 126.532 92.0446C128.134 92.4193 134.7 92.5196 134.468 94.813C134.24 97.115 124.95 96.8203 122.358 96.0072C119.764 95.1998 115.858 92.9703 115.858 92.9703C117.677 92.6629 122.017 91.4988 125.577 90.8516Z" fill="#EB9481"/>
<path d="M82.5529 88.5183C82.5129 89.5089 82.4155 90.5175 82.2763 91.5174C82.2896 91.4815 82.3053 91.4461 82.3186 91.4101C82.5118 90.8881 82.6997 90.3528 82.934 89.8482C82.9462 89.8215 82.9932 89.8291 82.9874 89.8615C82.8853 90.4091 82.6933 90.9589 82.4845 91.4757C82.3847 91.7222 82.2832 91.9687 82.1765 92.2129C82.1046 92.6583 82.0246 93.1008 81.9347 93.5364C81.7636 94.3658 80.98 97.894 80.8019 98.4902C80.7642 98.6155 80.6152 98.5871 80.6244 98.4467C80.6674 97.7971 81.3245 94.1228 81.4573 93.2911C81.7125 91.6938 82.0634 90.064 82.4909 88.5032C82.5007 88.4661 82.5541 88.4835 82.5529 88.5183Z" fill="#263238"/>
<path d="M76.5064 114.884C74.9595 115.681 72.9643 116.917 63.9749 115.147C63.4129 115.033 62.848 114.895 62.2819 114.727C53.8516 112.194 43.741 102.281 43.1709 101.582C43.1709 101.582 56.559 79.8722 73.6876 73.0479C75.8046 72.2046 79.3095 73.8309 81.2496 75.8551C81.9427 76.5784 83.4461 81.9051 82.869 86.222C82.2861 90.5326 78.0643 114.094 76.5064 114.884Z" fill="#79A3FF"/>
<path d="M75.3112 86.0254C75.3605 86.4917 75.3233 86.9459 75.2665 87.3971C75.1986 87.8472 75.1099 88.2944 74.9347 88.7294C74.8849 88.263 74.922 87.8089 74.9794 87.3576C75.0478 86.9076 75.1366 86.4604 75.3112 86.0254Z" fill="white"/>
<path d="M69.4716 100.809C69.5209 101.275 69.4837 101.729 69.4269 102.181C69.359 102.631 69.2703 103.078 69.0951 103.513C69.0453 103.047 69.0824 102.593 69.1398 102.141C69.2088 101.691 69.297 101.244 69.4716 100.809Z" fill="white"/>
<path d="M59.5455 89.6367C59.5948 90.103 59.5577 90.5572 59.5009 91.0084C59.433 91.4585 59.3443 91.9057 59.1691 92.3407C59.1192 91.8744 59.1563 91.4202 59.2138 90.9684C59.2828 90.5189 59.3715 90.0717 59.5455 89.6367Z" fill="white"/>
<path d="M79.1354 100.059C79.1847 100.525 79.1476 100.979 79.0907 101.43C79.0229 101.88 78.9341 102.328 78.759 102.763C78.7091 102.296 78.7462 101.842 78.8036 101.39C78.8721 100.941 78.9608 100.494 79.1354 100.059Z" fill="white"/>
<path d="M66.3899 87.7183C66.8562 87.669 67.3104 87.7061 67.7622 87.763C68.2123 87.8308 68.6594 87.9195 69.0944 88.0947C68.6281 88.1446 68.174 88.1075 67.7222 88.05C67.2721 87.9816 66.8255 87.8929 66.3899 87.7183Z" fill="white"/>
<path d="M55.1282 98.3999C55.5945 98.3506 56.0486 98.3877 56.4999 98.4446C56.95 98.5124 57.3971 98.6012 57.8321 98.7763C57.3658 98.8262 56.9117 98.7891 56.4604 98.7317C56.0098 98.6633 55.5632 98.5745 55.1282 98.3999Z" fill="white"/>
<path d="M68.3782 109.96C68.8445 109.911 69.2986 109.948 69.7499 110.005C70.2 110.073 70.6471 110.162 71.0821 110.337C70.6158 110.387 70.1617 110.35 69.7104 110.292C69.2604 110.224 68.8132 110.135 68.3782 109.96Z" fill="white"/>
<path d="M51.6536 105.761C52.1199 105.712 52.574 105.749 53.0258 105.806C53.4759 105.874 53.9231 105.963 54.3581 106.138C53.8918 106.188 53.4376 106.15 52.9858 106.093C52.5357 106.024 52.0886 105.935 51.6536 105.761Z" fill="white"/>
<path d="M75.2258 75.6343C75.6922 75.585 76.1463 75.6221 76.5981 75.679C77.0482 75.7468 77.4948 75.8356 77.9298 76.0107C77.4635 76.0606 77.0093 76.0235 76.5581 75.9661C76.108 75.897 75.6608 75.8083 75.2258 75.6343Z" fill="white"/>
<path d="M71.9526 79.334C71.6573 79.6982 71.3105 79.9934 70.9509 80.2724C70.5849 80.5427 70.2062 80.7962 69.7747 80.9794C70.0693 80.6146 70.4167 80.3194 70.7763 80.041C71.1423 79.7713 71.5216 79.5178 71.9526 79.334Z" fill="white"/>
<path d="M54.0912 89.8477C53.796 90.2119 53.4492 90.5071 53.0896 90.7861C52.7236 91.0564 52.3449 91.3098 51.9133 91.4937C52.208 91.1289 52.5554 90.8337 52.915 90.5553C53.2815 90.285 53.6603 90.0321 54.0912 89.8477Z" fill="white"/>
<path d="M76.3881 94.5957C76.0929 94.9599 75.746 95.2552 75.3864 95.5341C75.0205 95.8044 74.6417 96.0579 74.2102 96.2412C74.5048 95.8763 74.8523 95.5811 75.2119 95.3027C75.5784 95.0336 75.9572 94.7801 76.3881 94.5957Z" fill="white"/>
<path d="M61.9487 103.689C61.6534 104.054 61.3066 104.349 60.947 104.628C60.581 104.898 60.2023 105.152 59.7708 105.335C60.0654 104.97 60.4128 104.675 60.7724 104.396C61.1384 104.127 61.5171 103.874 61.9487 103.689Z" fill="white"/>
<path d="M81.9219 82.1699C81.6267 82.5342 81.2798 82.8294 80.9202 83.1084C80.5543 83.3786 80.1755 83.6321 79.7434 83.8154C80.038 83.4506 80.3855 83.1553 80.7451 82.8769C81.1122 82.6072 81.4909 82.3538 81.9219 82.1699Z" fill="white"/>
<path d="M81.6193 92.7091C81.2551 92.4139 80.9599 92.0671 80.6809 91.7075C80.4106 91.3415 80.1572 90.9628 79.9739 90.5312C80.3387 90.8259 80.6339 91.1733 80.9123 91.5329C81.1814 91.8995 81.4349 92.2782 81.6193 92.7091Z" fill="white"/>
<path d="M49.4338 99.9689C49.0695 99.6737 48.7743 99.3269 48.4953 98.9673C48.2251 98.6013 47.9716 98.2225 47.7883 97.791C48.1532 98.0857 48.4484 98.4331 48.7268 98.7927C48.9965 99.1586 49.2499 99.5374 49.4338 99.9689Z" fill="white"/>
<path d="M77.7078 108.61C77.3436 108.314 77.0483 107.967 76.7694 107.608C76.4991 107.242 76.2456 106.863 76.0618 106.432C76.4266 106.726 76.7218 107.074 77.0002 107.433C77.2705 107.799 77.5234 108.179 77.7078 108.61Z" fill="white"/>
<path d="M63.5393 83.9865C63.175 83.6913 62.8798 83.3444 62.6008 82.9848C62.3305 82.6189 62.0771 82.2401 61.8938 81.8086C62.2586 82.1032 62.5538 82.4506 62.8322 82.8102C63.1019 83.1762 63.3554 83.555 63.5393 83.9865Z" fill="white"/>
<path d="M63.7893 113.526C63.425 113.23 63.1298 112.883 62.8508 112.524C62.5805 112.158 62.3271 111.779 62.1438 111.348C62.5086 111.642 62.8038 111.99 63.0822 112.349C63.3514 112.715 63.6048 113.094 63.7893 113.526Z" fill="white"/>
<path d="M66.1975 96.0998C65.8332 95.8045 65.538 95.4577 65.259 95.0981C64.9887 94.7321 64.7353 94.3534 64.552 93.9219C64.9168 94.2165 65.212 94.5639 65.4904 94.9235C65.7601 95.2895 66.0136 95.6682 66.1975 96.0998Z" fill="white"/>
<path d="M78.1015 81.6339C75.9189 81.2279 73.8617 76.7103 73.603 73.6711C73.5862 73.4629 74.625 71.8082 75.7913 69.7376C76.4943 68.4784 77.2477 67.0597 77.8416 65.7158C77.9623 65.4392 78.6774 66.3614 78.6774 66.3614L80.2312 67.5498L85.3671 71.488C85.3671 71.488 83.2936 73.9397 82.2728 76.2892C82.1899 76.4864 82.1284 76.6773 82.0872 76.8663C82.0791 76.893 82.0727 76.9267 82.0594 76.9632C81.7665 78.0867 80.2109 82.0249 78.1015 81.6339Z" fill="#EB9481"/>
<path d="M82.0863 76.8661C82.0782 76.8928 82.0718 76.9265 82.0585 76.963C81.7777 76.8841 81.4837 76.7722 81.1716 76.626C75.5508 73.9917 78.0303 66.4609 78.0303 66.4609L80.2309 67.5496L85.3668 71.4878C85.3668 71.4878 83.2933 73.9395 82.2725 76.289C82.189 76.4862 82.1281 76.6771 82.0863 76.8661Z" fill="#263238"/>
<path d="M91.261 55.4375C91.261 55.4375 93.8286 57.0685 93.8455 59.9673C93.8623 62.8667 92.7075 65.7029 92.4395 65.8044C92.1716 65.9059 91.261 55.4375 91.261 55.4375Z" fill="#263238"/>
<path d="M78.5176 56.9424C76.9737 59.9903 77.0514 69.5869 78.9799 72.0601C81.7749 75.645 87.1596 76.8804 90.4094 73.3361C93.5599 69.9001 93.2369 57.3953 91.0079 55.0649C87.7251 51.6325 80.7988 52.4404 78.5176 56.9424Z" fill="#EB9481"/>
<path d="M86.7034 64.6312C86.6976 64.6062 86.653 64.6631 86.6547 64.6903C86.6907 65.344 86.6217 66.0986 86.0347 66.3294C86.0167 66.3364 86.019 66.3694 86.0411 66.366C86.7603 66.2471 86.8421 65.2442 86.7034 64.6312Z" fill="#263238"/>
<path d="M86.104 63.962C85.0501 63.9063 85.0171 66.0181 85.9932 66.0697C86.9543 66.1202 86.9873 64.0084 86.104 63.962Z" fill="#263238"/>
<path d="M90.2823 64.6058C90.2876 64.5809 90.3328 64.6377 90.3316 64.6644C90.3003 65.318 90.3751 66.072 90.9633 66.2988C90.9818 66.3058 90.9789 66.3388 90.9575 66.3354C90.2371 66.2217 90.1478 65.22 90.2823 64.6058Z" fill="#263238"/>
<path d="M90.8771 63.933C91.9304 63.8698 91.9791 65.981 91.0035 66.0396C90.0431 66.0976 89.9938 63.9858 90.8771 63.933Z" fill="#263238"/>
<path d="M85.4428 62.3542C85.7316 62.2864 85.9868 62.1756 86.2652 62.0793C86.5796 61.9703 86.8412 61.9157 87.0505 61.6391C87.1625 61.4906 87.1213 61.2203 86.9873 61.0974C86.6747 60.812 86.2571 60.8497 85.8731 60.9657C85.4567 61.0916 85.1679 61.2946 84.9248 61.6542C84.6882 62.0027 85.0617 62.4435 85.4428 62.3542Z" fill="#263238"/>
<path d="M91.61 63.2904C91.3183 63.2382 91.0573 63.1413 90.7742 63.0595C90.4546 62.9673 90.1902 62.9267 89.9669 62.6611C89.8468 62.5184 89.8741 62.2464 90.0011 62.117C90.2975 61.8154 90.7174 61.8311 91.1066 61.9262C91.5294 62.0294 91.8287 62.2174 92.0902 62.5636C92.3443 62.8989 91.9951 63.3594 91.61 63.2904Z" fill="#263238"/>
<path d="M85.214 70.8294C85.3683 70.9848 85.5214 71.1983 85.7581 71.2221C85.9854 71.2447 86.254 71.1461 86.4639 71.0684C86.4848 71.0608 86.5051 71.0829 86.4918 71.1026C86.3178 71.3508 85.9582 71.5022 85.656 71.4448C85.3608 71.3885 85.2187 71.1304 85.1508 70.8584C85.1415 70.8201 85.1914 70.8068 85.214 70.8294Z" fill="#263238"/>
<path d="M89.0132 68.033C89.0132 68.033 89.0411 69.0121 88.9918 69.4668C88.9871 69.5091 87.7042 69.258 86.3215 69.5625C86.1144 69.6083 86.1347 69.4395 86.3737 69.3293C86.8522 69.1084 87.46 68.9013 88.6432 69.0283C88.689 68.906 88.5724 67.5221 88.6449 67.5244C88.8961 67.5302 89.3676 67.7529 89.6524 67.8712C89.6536 65.8302 89.3276 63.806 89.3595 61.7737C89.3618 61.7012 89.4674 61.6907 89.4813 61.7574C89.9731 63.8553 90.023 66.2037 90.0764 68.3115C90.0862 68.5742 89.1872 68.1305 89.0132 68.033Z" fill="#263238"/>
<path d="M87.7083 69.1179C87.7083 69.1179 87.2525 70.2651 86.4903 70.5731C85.6134 70.928 85.3129 70.134 86.2079 69.4328C86.6771 69.0651 87.7083 69.1179 87.7083 69.1179Z" fill="#263238"/>
<path d="M86.7957 70.3943C86.6971 70.4697 86.5985 70.5335 86.4883 70.5741C85.6821 70.8989 85.3631 70.2551 86.0127 69.6055C86.4541 69.6403 86.9349 69.8027 86.7957 70.3943Z" fill="#FF99BA"/>
<path d="M78.074 65.1528C79.1342 65.4781 80.3546 62.2887 80.6997 61.0626C81.0036 59.9821 81.3545 56.5537 81.4061 56.3199C81.4577 56.0862 86.0299 59.3533 88.7031 58.5721C91.3763 57.7908 93.1627 55.3919 93.1998 54.272C93.2364 53.1526 89.9176 50.31 87.0454 50.1644C84.1733 50.0188 80.2855 53.6693 80.2855 53.6693C80.2855 53.6693 81.6062 52.0923 81.5615 51.963C81.5169 51.8336 79.6609 52.5749 79.3198 53.8967C79.3198 53.8967 79.687 52.2373 79.5466 52.2066C79.4063 52.1758 77.9644 53.5968 78.2898 54.6739C78.2898 54.6739 76.6217 56.1187 76.4674 57.7027C76.3125 59.2872 76.8282 64.7705 78.074 65.1528Z" fill="#263238"/>
<path d="M90.6028 58.0137C89.7902 58.3878 88.9759 58.799 88.0775 58.9173C87.1065 59.0455 86.0991 58.8019 85.1954 58.4551C84.2709 58.1013 83.4311 57.5874 82.6678 56.9592C81.9991 56.4088 81.4063 55.7447 80.6923 55.2546C80.5137 55.1322 80.3066 55.3892 80.4168 55.5539C81.5008 57.1802 83.4189 58.538 85.2674 59.1244C87.2121 59.7409 89.0403 59.3071 90.6132 58.0351C90.6225 58.027 90.6161 58.0073 90.6028 58.0137Z" fill="#263238"/>
<path d="M79.1818 64.8694C79.1818 64.8694 77.5358 61.5274 76.051 62.0692C74.5662 62.6109 75.4802 67.2288 76.9952 68.0745C78.5107 68.9201 79.3204 67.5328 79.3204 67.5328L79.1818 64.8694Z" fill="#EB9481"/>
<path d="M76.3458 63.3875C76.3203 63.3811 76.3098 63.4165 76.3307 63.4292C77.3875 64.0591 77.8202 65.1953 78.069 66.3432C77.7981 65.8745 77.3765 65.5758 76.7564 65.889C76.724 65.9053 76.7448 65.9557 76.7779 65.954C77.2547 65.9261 77.5754 66.0572 77.8306 66.4748C78.011 66.7706 78.1113 67.125 78.2227 67.4515C78.2598 67.5606 78.45 67.5345 78.4297 67.4127C78.428 67.4034 78.4263 67.3941 78.4245 67.3848C78.6739 65.9517 77.8666 63.7691 76.3458 63.3875Z" fill="#263238"/>
<path d="M68.3055 79.7852C67.1716 86.3554 74.2656 108.495 78.8331 112.631C85.6255 118.78 98.1843 122.824 102.735 124.14C104.718 124.713 110.205 110.757 108.199 109.837C103.901 107.869 90.5497 103.704 89.2928 102.635C88.036 101.565 80.3637 90.5268 76.9528 84.1607C72.3771 75.619 68.8792 76.4618 68.3055 79.7852Z" fill="#EB9481"/>
<path d="M104.82 108.609C104.82 108.609 110.743 110.119 114.569 111.288C116.704 111.94 120.264 113.385 121.613 114.581C123.631 116.371 130.928 125.145 128.839 126.96C126.947 128.603 121.636 120.269 121.636 120.269C121.636 120.269 127.739 128.205 125.098 129.764C122.458 131.324 117.708 121.11 117.708 121.11C117.708 121.11 123.796 129.404 120.818 130.582C118.568 131.471 113.745 122.463 113.745 122.463C113.745 122.463 118.929 129.628 116.654 130.643C114.14 131.765 109.167 123.728 109.167 123.728C102.95 125.334 99.3335 123.557 96.9109 121.985C96.3245 121.604 104.82 108.609 104.82 108.609Z" fill="#EB9481"/>
<path d="M119.699 117.39C120.449 118.296 121.216 119.208 121.883 120.178C122.551 121.148 123.185 122.142 123.76 123.169C125.168 125.69 125.656 127.489 125.614 127.381C124.615 124.831 122.279 121.322 121.611 120.352C120.945 119.384 120.328 118.383 119.662 117.414C119.644 117.389 119.681 117.368 119.699 117.39Z" fill="#263238"/>
<path d="M116.154 119.736C117.44 120.756 120.139 124.553 121.18 127.097C121.224 127.203 121.166 127.195 121.103 127.098C120.288 125.841 116.995 120.967 116.124 119.756C116.11 119.737 116.137 119.722 116.154 119.736Z" fill="#263238"/>
<path d="M112.749 121.205C114.238 122.679 115.488 124.692 116.472 127.018C116.517 127.123 116.433 127.107 116.371 127.008C115.17 125.052 114.241 123.509 112.687 121.256C112.663 121.221 112.714 121.171 112.749 121.205Z" fill="#263238"/>
<path d="M74.7622 80.2676C69.4662 72.7774 66.3017 75.5539 67.3637 83.6838C68.3566 91.287 71.0217 100.345 71.0217 100.345L84.3855 93.872C84.3855 93.872 78.1511 85.0613 74.7622 80.2676Z" fill="#79A3FF"/>
<path d="M77.9992 83.2129C78.1883 83.6421 78.2921 84.0858 78.3751 84.533C78.4476 84.9825 78.4998 85.4349 78.4656 85.9029C78.2759 85.4737 78.1721 85.03 78.0897 84.5829C78.0178 84.1328 77.9662 83.6804 77.9992 83.2129Z" fill="white"/>
<path d="M70.0928 87.7661C70.522 87.577 70.9657 87.4738 71.4129 87.3903C71.8624 87.3178 72.3148 87.2656 72.7828 87.2998C72.3536 87.4895 71.9099 87.5933 71.4627 87.6756C71.0132 87.7476 70.5603 87.7992 70.0928 87.7661Z" fill="white"/>
<path d="M70.4366 76.1191C70.2667 76.5565 70.0266 76.9433 69.7691 77.3186C69.5028 77.6875 69.2192 78.0447 68.8643 78.351C69.0336 77.9137 69.2743 77.5262 69.5318 77.1515C69.7986 76.7827 70.0823 76.426 70.4366 76.1191Z" fill="white"/>
<path d="M81.7134 91.2637C81.5435 91.7004 81.3033 92.0879 81.0458 92.4631C80.7796 92.832 80.4966 93.1893 80.1416 93.4955C80.311 93.0582 80.5511 92.6708 80.8092 92.2961C81.076 91.9278 81.3596 91.5705 81.7134 91.2637Z" fill="white"/>
<path d="M72.4672 95.8081C72.0299 95.6382 71.643 95.3981 71.2678 95.1406C70.8989 94.8743 70.5416 94.5907 70.2354 94.2363C70.6727 94.4057 71.0595 94.6458 71.4348 94.9039C71.8037 95.1701 72.1604 95.4538 72.4672 95.8081Z" fill="white"/>
<path d="M76.5382 82.5214C77.2492 83.4999 77.9864 84.4592 78.7207 85.4203C78.5345 84.9342 78.3733 84.443 78.2294 83.9413C78.2231 83.9181 78.2561 83.9082 78.2648 83.9303C78.4133 84.3148 78.578 84.6941 78.7201 85.081C78.7886 85.2672 78.8582 85.4522 78.9295 85.6372C78.9452 85.6772 78.9608 85.7167 78.9765 85.7561C79.5478 86.506 80.1168 87.2577 80.6666 88.0227C81.3226 88.9362 81.9559 89.8654 82.5922 90.7928C83.2493 91.751 83.8728 92.8744 84.5671 93.8059C84.6274 93.8865 83.3845 94.3888 83.2685 94.4532C83.1496 94.5193 83.069 94.4039 83.1954 94.3656C83.312 94.3303 84.2962 93.7253 84.3084 93.7131C83.6727 92.7782 82.9338 91.9134 82.268 90.9993C81.6056 90.0893 80.9404 89.1816 80.2977 88.2576C78.9927 86.3808 77.7944 84.4308 76.4993 82.5458C76.4825 82.522 76.5208 82.4977 76.5382 82.5214Z" fill="#263238"/>
<path d="M67.6931 89.0624C67.8961 89.458 68.1148 89.8495 68.2946 90.256C68.3688 90.4242 68.4419 90.5924 68.5161 90.7606C68.2116 89.313 67.9129 87.8641 67.6165 86.4141C67.6131 86.3973 67.6386 86.3886 67.6432 86.406C68.2557 88.7533 68.8746 91.0982 69.443 93.4565C69.9853 95.7046 70.6401 97.9805 70.9504 100.274C71.1354 100.213 72.1753 99.7831 72.2055 99.8504C72.2357 99.9183 70.846 100.573 70.8274 100.518C70.0711 98.2763 69.6025 95.7301 69.088 93.4228C68.943 92.7732 68.8079 92.1219 68.6692 91.4706C68.5184 91.0785 68.3357 90.7009 68.1577 90.3198C67.9692 89.9167 67.8172 89.4945 67.6519 89.0815C67.6421 89.0578 67.6809 89.0392 67.6931 89.0624Z" fill="#263238"/>
<path d="M71.2338 98.1104C73.0904 97.0635 80.8473 93.0481 82.5827 92.2912C82.7028 92.2385 82.766 92.3005 82.6477 92.3707C77.1614 95.6396 73.1525 97.2439 71.2779 98.1806C71.2315 98.2038 71.1869 98.1371 71.2338 98.1104Z" fill="#263238"/>
<path d="M283.764 250.589H107.05L132.602 105.676H309.316L283.764 250.589Z" fill="#79A3FF"/>
<path d="M193.083 90.668H135.249L132.603 105.675H194.495L193.083 90.668Z" fill="#79A3FF"/>
<g opacity="0.1">
<path d="M283.764 250.589H107.05L132.602 105.676H309.316L283.764 250.589Z" fill="black"/>
<path d="M193.083 90.668H135.249L132.603 105.675H194.495L193.083 90.668Z" fill="black"/>
</g>
<path d="M129.01 96.7894C128.781 95.9484 128.73 95.1068 128.72 94.2658C128.728 93.4242 128.779 92.5832 129.01 91.7422C129.239 92.5832 129.291 93.4248 129.3 94.2658C129.29 95.1074 129.238 95.9484 129.01 96.7894Z" fill="#263238"/>
<path d="M123.87 98.2752C123.251 97.661 122.786 96.958 122.358 96.2347C121.944 95.5022 121.568 94.7476 121.347 93.9043C121.967 94.5179 122.432 95.2209 122.859 95.9447C123.272 96.6779 123.648 97.4324 123.87 98.2752Z" fill="#263238"/>
<path d="M120.163 102.133C119.32 101.91 118.566 101.534 117.832 101.122C117.108 100.694 116.405 100.229 115.792 99.6094C116.635 99.8309 117.39 100.207 118.122 100.62C118.846 101.05 119.549 101.514 120.163 102.133Z" fill="#263238"/>
<path d="M118.88 107.327C118.039 107.556 117.198 107.607 116.357 107.617C115.516 107.608 114.674 107.557 113.833 107.327C114.674 107.097 115.516 107.046 116.357 107.037C117.198 107.047 118.039 107.099 118.88 107.327Z" fill="#263238"/>
<path d="M120.366 112.467C119.752 113.086 119.049 113.551 118.325 113.979C117.593 114.393 116.838 114.769 115.995 114.99C116.609 114.371 117.311 113.906 118.035 113.478C118.768 113.065 119.523 112.689 120.366 112.467Z" fill="#263238"/>
<path d="M124.224 116.174C124.001 117.017 123.625 117.771 123.213 118.504C122.785 119.229 122.32 119.932 121.7 120.545C121.922 119.701 122.298 118.947 122.711 118.214C123.14 117.491 123.605 116.788 124.224 116.174Z" fill="#263238"/>
<path d="M129.416 117.455C129.644 118.297 129.696 119.138 129.706 119.979C129.697 120.82 129.646 121.661 129.416 122.502C129.186 121.661 129.135 120.82 129.126 119.979C129.136 119.138 129.187 118.297 129.416 117.455Z" fill="#263238"/>
<path d="M134.556 115.969C135.175 116.583 135.639 117.286 136.068 118.009C136.482 118.742 136.858 119.496 137.079 120.34C136.459 119.726 135.995 119.023 135.567 118.299C135.154 117.565 134.778 116.811 134.556 115.969Z" fill="#263238"/>
<path d="M138.263 112.113C139.105 112.336 139.86 112.712 140.593 113.124C141.318 113.552 142.021 114.017 142.634 114.637C141.79 114.415 141.036 114.039 140.303 113.626C139.58 113.197 138.877 112.732 138.263 112.113Z" fill="#263238"/>
<path d="M139.546 106.919C140.387 106.69 141.228 106.639 142.069 106.629C142.91 106.638 143.752 106.689 144.593 106.919C143.751 107.149 142.91 107.2 142.069 107.209C141.228 107.199 140.387 107.148 139.546 106.919Z" fill="#263238"/>
<path d="M138.06 101.779C138.674 101.161 139.377 100.695 140.1 100.267C140.833 99.8538 141.587 99.4774 142.43 99.2559C141.817 99.8753 141.114 100.34 140.39 100.769C139.657 101.181 138.902 101.557 138.06 101.779Z" fill="#263238"/>
<path d="M134.204 98.072C134.427 97.2293 134.803 96.4747 135.215 95.7416C135.643 95.0172 136.108 94.3142 136.728 93.7012C136.506 94.5445 136.13 95.2991 135.717 96.0316C135.288 96.7549 134.822 97.4578 134.204 98.072Z" fill="#263238"/>
<path d="M283.504 250.59H106.41L81.2666 110.938H258.361L283.504 250.59Z" fill="#79A3FF"/>
<path d="M142.633 196.308C146.698 196.308 149.994 193.012 149.994 188.947C149.994 184.881 146.698 181.586 142.633 181.586C138.568 181.586 135.272 184.881 135.272 188.947C135.272 193.012 138.568 196.308 142.633 196.308Z" fill="#263238"/>
<path d="M200.823 196.308C204.888 196.308 208.183 193.012 208.183 188.947C208.183 184.881 204.888 181.586 200.823 181.586C196.757 181.586 193.462 184.881 193.462 188.947C193.462 193.012 196.757 196.308 200.823 196.308Z" fill="#263238"/>
<path d="M182.299 197.482L181.895 196.711C181.858 196.641 178.056 189.613 170.405 189.613C163.427 189.613 161.726 196.231 161.657 196.512L161.45 197.355L159.763 196.948L159.966 196.104C159.985 196.021 162.039 187.873 170.405 187.873C179.127 187.873 183.265 195.575 183.437 195.904L183.841 196.674L182.299 197.482Z" fill="#263238"/>
<path d="M271.753 188.102C272.131 188.02 272.508 187.932 272.882 187.836" stroke="#263238" stroke-width="0.58" stroke-miterlimit="10"/>
<path d="M275.109 187.177C283.98 184.181 291.41 177.202 292.109 169.049C293.65 151.069 271.753 141.137 274.015 120.36C276.172 100.541 296.961 99.1268 305.294 101.866C314.498 104.892 311.345 113.739 303.011 112.597C288.563 110.618 279.482 94.9113 286.344 77.0937C291.47 63.7821 304.25 58.7617 309.442 57.2305" stroke="#263238" stroke-width="0.58" stroke-miterlimit="10" stroke-dasharray="2.32 2.32"/>
<path d="M310.56 56.9204C311.278 56.7353 311.687 56.6582 311.687 56.6582" stroke="#263238" stroke-width="0.58" stroke-miterlimit="10"/>
<path d="M320.886 53.4565C319.406 48.8722 309.5 50.5194 311.434 56.5085C313.368 62.4982 322.366 58.0409 320.886 53.4565Z" fill="#263238"/>
<path d="M306.045 51.6083C306.119 49.5981 308.916 48.0512 312.87 48.7646C316.823 49.4786 320.547 52.1414 320.547 52.1414C320.547 52.1414 316.637 54.5327 312.642 54.9544C308.647 55.3766 305.971 53.6285 306.045 51.6083Z" fill="#EBEBEB"/>
<path d="M320.546 52.1414C318.494 52.1553 316.444 52.0869 314.394 52.0242C312.344 51.9367 310.295 51.8555 308.249 51.6896C310.302 51.6745 312.351 51.7441 314.402 51.8067C316.451 51.8949 318.5 51.9767 320.546 52.1414Z" fill="#263238"/>
<path d="M310.018 49.8281C310.612 50.0938 311.162 50.4307 311.714 50.7613C312.254 51.114 312.797 51.4608 313.295 51.879C312.701 51.6139 312.152 51.277 311.6 50.9452C311.06 50.5931 310.517 50.2463 310.018 49.8281Z" fill="#263238"/>
<path d="M315.393 51.9531C314.874 52.3945 314.309 52.7651 313.747 53.1415C313.172 53.4965 312.601 53.8578 311.983 54.1473C312.503 53.7059 313.068 53.3347 313.629 52.9588C314.204 52.6039 314.776 52.2437 315.393 51.9531Z" fill="#263238"/>
<path d="M315.989 50.8203C316.295 50.952 316.55 51.1486 316.807 51.3406C317.049 51.5517 317.295 51.7576 317.489 52.0296C317.182 51.8985 316.928 51.7013 316.671 51.5094C316.429 51.2977 316.183 51.0912 315.989 50.8203Z" fill="#263238"/>
<path d="M309.812 63.5398C311.048 65.1273 314.221 64.7462 317.011 61.8555C319.8 58.9642 321.263 54.627 321.263 54.627C321.263 54.627 316.694 54.9732 313.207 56.9678C309.719 58.9619 308.57 61.9448 309.812 63.5398Z" fill="#EBEBEB"/>
<path d="M321.262 54.627C319.589 55.816 317.967 57.0705 316.34 58.3204C314.73 59.59 313.114 60.8544 311.552 62.1849C313.226 60.9965 314.848 59.7414 316.474 58.4915C318.084 57.2219 319.699 55.9575 321.262 54.627Z" fill="#263238"/>
<path d="M314.075 62.6604C314.401 62.0972 314.65 61.5033 314.905 60.9111C315.136 60.3097 315.374 59.7105 315.534 59.0801C315.207 59.6427 314.958 60.2372 314.704 60.8294C314.472 61.4308 314.235 62.03 314.075 62.6604Z" fill="#263238"/>
<path d="M317.193 57.7941C316.513 57.7402 315.838 57.7698 315.162 57.7924C314.488 57.8405 313.813 57.8823 313.143 58.0082C313.823 58.0627 314.498 58.0331 315.174 58.0099C315.848 57.9612 316.522 57.9188 317.193 57.7941Z" fill="#263238"/>
<path d="M318.339 58.3636C318.51 58.0777 318.601 57.7697 318.699 57.4634C318.771 57.1502 318.851 56.8394 318.848 56.5059C318.676 56.7918 318.586 57.0998 318.489 57.406C318.416 57.7192 318.337 58.0307 318.339 58.3636Z" fill="#263238"/>
<path d="M320.886 53.4568C319.973 53.7515 318.993 53.2504 318.699 52.3369C318.404 51.4234 318.905 50.4443 319.818 50.1491C320.731 49.8539 321.711 50.3556 322.006 51.2691C322.301 52.1826 321.8 53.1622 320.886 53.4568Z" fill="#455A64"/>
<path d="M321.953 56.7633C321.04 57.0579 320.061 56.5568 319.765 55.6433C319.47 54.7298 319.972 53.7507 320.885 53.4555C321.799 53.1609 322.778 53.662 323.073 54.5755C323.368 55.4884 322.867 56.468 321.953 56.7633Z" fill="#455A64"/>
<path d="M131.802 55.2851C130.971 63.2248 123.858 68.9905 115.919 68.16C112.71 67.8242 109.858 66.4623 107.649 64.4283L100.417 65.4897L104.036 59.2373C103.158 57.1011 102.788 54.7237 103.044 52.2767C103.875 44.3371 110.988 38.5713 118.927 39.4018C126.866 40.2324 132.632 47.3455 131.802 55.2851Z" fill="white"/>
<path d="M131.802 55.2854C131.499 57.9244 130.535 60.5112 128.884 62.6131C128.505 63.1636 128.017 63.6235 127.574 64.1217C127.072 64.559 126.603 65.0393 126.049 65.4134C124.991 66.2277 123.803 66.8663 122.562 67.3552C121.326 67.8755 119.996 68.1237 118.67 68.2832C118.001 68.3192 117.331 68.3801 116.661 68.3215C115.99 68.3064 115.322 68.2345 114.661 68.1133C112.016 67.6342 109.51 66.3959 107.509 64.5822L107.68 64.635L100.455 65.744L99.9307 65.8246L100.196 65.3623L103.793 59.0977L103.777 59.3448C102.024 55.2187 102.419 50.305 104.667 46.4601C105.787 44.5351 107.35 42.8763 109.194 41.6392C111.038 40.3985 113.176 39.6208 115.364 39.3244C117.555 39.0338 119.809 39.2333 121.901 39.9282C123.99 40.6317 125.906 41.8149 127.476 43.3467C130.667 46.3807 132.271 50.9325 131.802 55.2854ZM131.802 55.2854C132.241 50.929 130.605 46.405 127.412 43.4116C125.827 41.9147 123.908 40.7808 121.837 40.1225C119.763 39.4734 117.545 39.3186 115.408 39.6405C113.273 39.9682 111.205 40.7634 109.437 41.9988C107.674 43.2371 106.187 44.8564 105.112 46.7165C104.017 48.5725 103.45 50.6988 103.278 52.8332C103.143 54.9745 103.492 57.142 104.295 59.1308L104.347 59.2602L104.278 59.3785L100.639 65.6181L100.38 65.2365L107.619 64.2226L107.719 64.2087L107.79 64.2754C109.704 66.0717 112.125 67.3256 114.713 67.8412C115.359 67.9718 116.014 68.0535 116.674 68.0796C117.332 68.1492 117.991 68.1005 118.652 68.0767C119.961 67.9422 121.28 67.7206 122.513 67.2264C123.75 66.763 124.946 66.1558 126 65.3472C126.554 64.9789 127.023 64.5051 127.526 64.073C127.97 63.5806 128.46 63.1259 128.841 62.5801C130.5 60.4967 131.481 57.9227 131.802 55.2854Z" fill="#263238"/>
<path d="M110.354 60.5229C110.354 59.6599 110.954 59.0364 111.769 59.0364C112.632 59.0364 113.183 59.6599 113.183 60.5229C113.183 61.3622 112.632 62.0089 111.769 62.0089C110.93 62.0089 110.354 61.3616 110.354 60.5229ZM110.954 57.0945L110.618 45.5879H112.919L112.583 57.0945H110.954Z" fill="#79A3FF"/>
<path d="M115.868 60.5229C115.868 59.6599 116.467 59.0364 117.283 59.0364C118.146 59.0364 118.697 59.6599 118.697 60.5229C118.697 61.3622 118.146 62.0089 117.283 62.0089C116.444 62.0089 115.868 61.3616 115.868 60.5229ZM116.467 57.0945L116.132 45.5879H118.434L118.098 57.0945H116.467Z" fill="#79A3FF"/>
<path d="M121.382 60.5229C121.382 59.6599 121.981 59.0364 122.796 59.0364C123.659 59.0364 124.211 59.6599 124.211 60.5229C124.211 61.3622 123.659 62.0089 122.796 62.0089C121.957 62.0089 121.382 61.3616 121.382 60.5229ZM121.982 57.0945L121.646 45.5879H123.947L123.612 57.0945H121.982Z" fill="#79A3FF"/>
</g>
<defs>
<clipPath id="clip0_59_6338">
<rect width="332.92" height="290" fill="white" transform="translate(0.540039)"/>
</clipPath>
</defs>
</svg>
