<svg width="290" height="290" viewBox="0 0 290 290" fill="none" xmlns="http://www.w3.org/2000/svg">
<path d="M145 268.659C220.036 268.659 280.864 265.108 280.864 260.727C280.864 256.346 220.036 252.795 145 252.795C69.9643 252.795 9.13574 256.346 9.13574 260.727C9.13574 265.108 69.9643 268.659 145 268.659Z" fill="#D6D6D6"/>
<path d="M58.1853 206.386H148.187V252.851C148.187 253.446 148.07 254.036 147.842 254.586C147.614 255.136 147.28 255.636 146.859 256.057C146.438 256.478 145.938 256.812 145.388 257.04C144.838 257.268 144.249 257.385 143.653 257.385H62.719C62.1236 257.385 61.5341 257.268 60.984 257.04C60.434 256.812 59.9342 256.478 59.5132 256.057C59.0922 255.636 58.7583 255.136 58.5304 254.586C58.3026 254.036 58.1853 253.446 58.1853 252.851V206.386Z" fill="#407BFF"/>
<path d="M58.1862 206.386H121.875L114.041 196.358C113.179 195.258 111.049 194.368 109.276 194.368H51.9988C50.2329 194.368 49.4902 195.258 50.3521 196.358L58.1862 206.386Z" fill="#407BFF"/>
<path opacity="0.2" d="M58.1862 206.386H121.875L114.041 196.358C113.179 195.258 111.049 194.368 109.276 194.368H51.9988C50.2329 194.368 49.4902 195.258 50.3521 196.358L58.1862 206.386Z" fill="black"/>
<path d="M148.187 206.386H84.5051L92.3393 199.848C93.2012 199.147 95.3314 198.552 97.1042 198.552H154.375C156.148 198.552 156.883 199.133 156.022 199.848L148.187 206.386Z" fill="#407BFF"/>
<path opacity="0.2" d="M84.5051 206.386H148.187V252.851C148.187 253.446 148.07 254.036 147.842 254.586C147.614 255.136 147.28 255.636 146.859 256.057C146.438 256.478 145.939 256.812 145.389 257.04C144.839 257.268 144.249 257.385 143.654 257.385H89.0388C88.4435 257.385 87.8539 257.268 87.3039 257.04C86.7538 256.812 86.254 256.478 85.833 256.057C85.412 255.636 85.0781 255.136 84.8502 254.586C84.6224 254.036 84.5051 253.446 84.5051 252.851V206.386Z" fill="white"/>
<path opacity="0.5" d="M66.0901 206.386V238.255L68.2904 236.517L69.839 238.255L71.1844 236.321L72.5648 238.255L74.4848 236.804L76.601 238.255V206.386H66.0901Z" fill="white"/>
<path d="M80.3365 136.866L69.0198 127.364" stroke="#407BFF" stroke-width="0.700729" stroke-miterlimit="10"/>
<path d="M86.2008 141.792L82.7532 138.891" stroke="#407BFF" stroke-width="0.700729" stroke-miterlimit="10"/>
<path d="M120.103 161.678L157.438 115.017L107.728 73.2812L74.7938 111.072L69.8887 120.524C69.6452 120.793 69.4596 121.108 69.3436 121.452C69.2277 121.795 69.1838 122.159 69.2147 122.52C69.2456 122.881 69.3506 123.232 69.5233 123.55C69.6959 123.869 69.9324 124.148 70.218 124.371L115.065 162.029C115.794 162.616 116.718 162.907 117.653 162.842C118.587 162.777 119.462 162.361 120.103 161.678Z" fill="#407BFF"/>
<path opacity="0.5" d="M94.4979 127.266L89.1233 135.92L91.2886 136.389L92.0243 138.393L93.4608 138.477L94.1265 140.194L95.8853 140.706L97.2377 142.857L102.612 134.203L94.4979 127.266Z" fill="white"/>
<path opacity="0.1" d="M155.812 113.65L122.331 150.999L74.7727 111.072L107.728 73.2812L155.812 113.65Z" fill="black"/>
<path d="M155.812 113.65L122.331 150.999L136.191 152.022L169.154 114.232L155.812 113.65Z" fill="#407BFF"/>
<path opacity="0.3" d="M155.812 113.65L122.331 150.999L136.191 152.022L169.154 114.232L155.812 113.65Z" fill="black"/>
<path d="M94.3929 72.6934L60.905 110.049L74.7725 111.072L107.728 73.282L94.3929 72.6934Z" fill="#407BFF"/>
<path opacity="0.4" d="M94.3929 72.6934L60.905 110.049L74.7725 111.072L107.728 73.282L94.3929 72.6934Z" fill="black"/>
<path opacity="0.1" d="M145.504 125.15L155.811 113.651L107.727 73.2822L101.575 88.1096L145.504 125.15Z" fill="black"/>
<path opacity="0.2" d="M74.7727 111.072L107.728 73.2812L101.576 88.1087L78.3674 114.092L74.7727 111.072Z" fill="black"/>
<path d="M167.422 43.333C167.556 43.7815 167.422 44.223 167.128 44.3071C166.834 44.3911 166.491 44.0968 166.357 43.6484C166.224 43.1999 166.357 42.7585 166.652 42.6674C166.946 42.5763 167.296 42.8846 167.422 43.333Z" fill="#263238"/>
<path d="M167.472 44.2158C167.339 45.7576 166.995 47.2738 166.448 48.7215C166.823 48.8515 167.222 48.8981 167.616 48.8581C168.011 48.8182 168.392 48.6927 168.733 48.4903L167.472 44.2158Z" fill="#ED847E"/>
<path d="M168.355 40.34C168.414 40.3058 168.459 40.251 168.481 40.1859C168.494 40.1519 168.5 40.1156 168.499 40.0792C168.498 40.0428 168.489 40.0071 168.473 39.9742C168.457 39.9414 168.435 39.9121 168.407 39.8883C168.38 39.8644 168.348 39.8464 168.313 39.8355C167.903 39.6781 167.46 39.622 167.023 39.672C166.587 39.7221 166.169 39.8767 165.804 40.1228C165.757 40.1709 165.728 40.2344 165.724 40.3018C165.72 40.3691 165.74 40.4358 165.781 40.4895C165.822 40.5431 165.881 40.5803 165.947 40.594C166.013 40.6078 166.082 40.5972 166.141 40.5643C166.432 40.3733 166.764 40.2546 167.11 40.2181C167.456 40.1815 167.806 40.2281 168.131 40.354C168.167 40.3673 168.206 40.3729 168.244 40.3705C168.283 40.3681 168.321 40.3577 168.355 40.34Z" fill="#263238"/>
<path d="M183.007 46.3317C183.315 50.0456 184.233 56.8427 186.427 58.4123C186.427 58.4123 185.908 62.8759 178.018 64.0181C169.371 65.2935 173.253 60.3323 173.253 60.3323C177.801 58.5104 177.163 55.0278 175.86 51.8605L179.195 48.0345C180.477 46.619 182.839 44.4328 183.007 46.3317Z" fill="#FFC3BD"/>
<path d="M189.25 60.2274C189.951 59.5897 188.549 57.0391 187.688 56.6817C185.431 55.7357 176.203 56.6817 172.734 59.6598C172.446 60.1525 172.272 60.7034 172.225 61.272C172.178 61.8407 172.258 62.4127 172.461 62.9462L189.25 60.2274Z" fill="white"/>
<path d="M218.639 247.532C218.411 247.636 218.165 247.693 217.914 247.7C217.664 247.707 217.415 247.664 217.181 247.574C217.089 247.501 217.021 247.401 216.987 247.288C216.954 247.175 216.955 247.055 216.992 246.943C217.011 246.851 217.049 246.765 217.105 246.69C217.161 246.615 217.232 246.553 217.314 246.509C218.071 246.067 219.942 246.649 220.019 246.677C220.045 246.684 220.068 246.698 220.085 246.718C220.103 246.738 220.114 246.763 220.117 246.789C220.121 246.817 220.116 246.845 220.104 246.87C220.091 246.895 220.072 246.915 220.047 246.929C219.599 247.177 219.128 247.379 218.639 247.532ZM217.616 246.677L217.455 246.747C217.407 246.773 217.365 246.809 217.332 246.852C217.3 246.896 217.277 246.946 217.265 246.999C217.216 247.251 217.314 247.328 217.342 247.35C217.679 247.588 218.821 247.244 219.613 246.845C218.968 246.642 218.286 246.585 217.616 246.677Z" fill="#407BFF"/>
<path d="M220.02 246.937C219.997 246.944 219.973 246.944 219.95 246.937C219.249 246.796 217.785 245.921 217.708 245.262C217.697 245.158 217.722 245.054 217.78 244.967C217.837 244.88 217.923 244.816 218.023 244.785C218.12 244.742 218.225 244.72 218.331 244.72C218.438 244.72 218.543 244.742 218.64 244.785C219.453 245.122 220.083 246.691 220.104 246.754C220.118 246.775 220.126 246.8 220.126 246.825C220.126 246.849 220.118 246.874 220.104 246.895C220.095 246.908 220.082 246.918 220.067 246.926C220.053 246.933 220.037 246.937 220.02 246.937ZM218.198 245.024C218.178 245.018 218.156 245.018 218.135 245.024C217.974 245.094 217.981 245.178 217.988 245.213C218.03 245.605 219.025 246.313 219.733 246.572C219.523 246.117 219.032 245.234 218.535 245.024C218.426 244.982 218.307 244.982 218.198 245.024Z" fill="#407BFF"/>
<path d="M177.57 255.058C176.82 255.058 176.098 254.952 175.853 254.616C175.79 254.528 175.756 254.423 175.756 254.315C175.756 254.207 175.79 254.101 175.853 254.013C175.9 253.932 175.962 253.861 176.037 253.805C176.111 253.748 176.197 253.707 176.287 253.684C177.261 253.425 179.307 254.588 179.392 254.637C179.418 254.65 179.439 254.67 179.452 254.696C179.465 254.721 179.47 254.751 179.465 254.779C179.461 254.807 179.447 254.834 179.426 254.854C179.405 254.873 179.378 254.886 179.35 254.889C178.763 254.999 178.167 255.055 177.57 255.058ZM176.645 253.922C176.555 253.919 176.465 253.931 176.378 253.957C176.266 253.982 176.168 254.05 176.105 254.147C176.007 254.322 176.042 254.406 176.105 254.455C176.378 254.833 177.857 254.84 178.908 254.686C178.21 254.288 177.441 254.028 176.645 253.922Z" fill="#407BFF"/>
<path d="M179.336 254.897H179.28C178.579 254.581 177.177 253.313 177.282 252.654C177.282 252.5 177.423 252.304 177.801 252.269C177.938 252.254 178.076 252.267 178.208 252.308C178.339 252.349 178.461 252.417 178.565 252.507C179.315 253.117 179.469 254.693 179.476 254.756C179.48 254.781 179.476 254.805 179.466 254.828C179.457 254.85 179.44 254.869 179.42 254.883C179.394 254.896 179.364 254.901 179.336 254.897ZM177.934 252.528H177.85C177.598 252.528 177.584 252.654 177.577 252.682C177.514 253.082 178.467 254.084 179.181 254.511C179.12 253.843 178.851 253.21 178.411 252.703C178.279 252.587 178.109 252.525 177.934 252.528Z" fill="#407BFF"/>
<path d="M185.767 254.756H179.916L179.334 241.218H185.186L185.767 254.756Z" fill="#FFC3BD"/>
<path d="M226.865 245.514L221.477 247.371L215.885 234.611L221.273 232.754L226.865 245.514Z" fill="#FFC3BD"/>
<path d="M220.195 246.032L226.501 244.105C226.613 244.071 226.733 244.076 226.841 244.12C226.949 244.163 227.04 244.242 227.097 244.344L229.724 248.969C229.788 249.082 229.824 249.208 229.832 249.337C229.84 249.466 229.818 249.596 229.769 249.715C229.72 249.835 229.645 249.942 229.548 250.029C229.452 250.116 229.337 250.18 229.213 250.216C227.006 250.853 225.906 251.05 223.145 251.898C221.442 252.416 217.153 254.042 214.736 254.525C212.318 255.009 211.541 252.696 212.48 252.283C216.684 250.426 218.408 248.317 219.41 246.677C219.585 246.374 219.864 246.145 220.195 246.032Z" fill="#263238"/>
<path d="M179.958 254.076H186.342C186.458 254.078 186.569 254.118 186.66 254.19C186.75 254.263 186.813 254.363 186.84 254.476L187.996 259.675C188.025 259.8 188.024 259.931 187.995 260.056C187.966 260.181 187.909 260.298 187.828 260.398C187.747 260.498 187.644 260.578 187.528 260.633C187.411 260.687 187.284 260.714 187.155 260.712C184.85 260.677 181.549 260.537 178.627 260.537C175.243 260.537 173.82 260.726 169.847 260.726C167.45 260.726 166.785 258.302 167.787 258.077C172.363 257.075 174.598 256.97 178.55 254.532C178.969 254.254 179.456 254.097 179.958 254.076Z" fill="#263238"/>
<path d="M196.951 62.1396C198.654 63.7023 200.126 65.2649 201.653 66.8976C203.181 68.5303 204.596 70.2191 205.97 72.0199C207.404 73.8495 208.706 75.779 209.866 77.7939C210.499 78.9045 211.047 80.0617 211.505 81.2555C211.624 81.5849 211.744 81.9002 211.842 82.2576C211.957 82.6191 212.052 82.9863 212.129 83.3577L212.248 83.9393L212.332 84.584C212.411 85.1747 212.411 85.7732 212.332 86.3639C212.171 87.4789 211.759 88.5427 211.127 89.4751C210.666 90.156 210.124 90.7794 209.515 91.332C208.536 92.2207 207.465 93.0029 206.32 93.6655C204.304 94.8189 202.194 95.801 200.013 96.6015C195.877 98.137 191.614 99.3093 187.274 100.105L186.048 95.9008C189.853 94.2541 193.707 92.4742 197.26 90.5752C198.989 89.668 200.654 88.6425 202.242 87.506C202.903 87.0361 203.512 86.4957 204.057 85.8944C204.222 85.7166 204.361 85.516 204.47 85.2987C204.526 85.1796 204.47 85.1936 204.4 85.4459C204.351 85.9154 204.358 85.551 204.246 85.2987C204.211 85.1796 204.148 85.0185 204.085 84.8643C204.022 84.7101 203.944 84.535 203.867 84.3668C203.488 83.6025 203.064 82.8609 202.599 82.1455C201.517 80.5386 200.347 78.9923 199.095 77.5136C197.806 75.9861 196.447 74.4655 195.052 72.9729C193.658 71.4804 192.193 69.9738 190.848 68.5864L196.951 62.1396Z" fill="#FFC3BD"/>
<path d="M187.653 95.2354L182.138 96.9031L185.684 102.733C185.684 102.733 188.942 101.388 189.664 98.6199L187.653 95.2354Z" fill="#FFC3BD"/>
<path d="M179.91 98.9705L182.082 103.777L185.649 102.74L182.103 96.9033L179.91 98.9705Z" fill="#FFC3BD"/>
<path d="M184.03 63.7238C183.504 69.3296 195.36 78.0046 195.36 78.0046L206.775 70.1915C204.793 66.5357 201.896 63.4572 198.367 61.2572C191.822 57.0668 184.688 56.7585 184.03 63.7238Z" fill="#407BFF"/>
<g opacity="0.3">
<path d="M184.029 63.7238C183.504 69.3296 195.36 78.0046 195.36 78.0046L206.775 70.1915C204.793 66.5357 201.895 63.4572 198.366 61.2572C191.821 57.0668 184.688 56.7585 184.029 63.7238Z" fill="white"/>
</g>
<path d="M164.62 63.2753C164.62 63.2753 159.498 71.1375 171.663 113.307L202.593 108.739C202.158 104.464 196.987 85.8178 196.812 65.4336C196.805 64.4492 196.598 63.4764 196.205 62.5741C195.811 61.6717 195.239 60.8584 194.523 60.1833C193.806 59.5081 192.96 58.9851 192.036 58.6458C191.112 58.3065 190.129 58.1579 189.146 58.2091C188.249 58.2581 187.324 58.3212 186.406 58.4123C181.99 58.806 177.601 59.454 173.26 60.3533C170.31 61.1041 167.421 62.081 164.62 63.2753Z" fill="#407BFF"/>
<g opacity="0.3">
<path d="M164.62 63.2753C164.62 63.2753 159.498 71.1375 171.662 113.307L202.592 108.739C202.158 104.464 196.987 85.8178 196.811 65.4336C196.804 64.4492 196.598 63.4764 196.204 62.5741C195.811 61.6717 195.239 60.8584 194.522 60.1833C193.806 59.5081 192.96 58.9851 192.036 58.6458C191.112 58.3065 190.128 58.1579 189.145 58.2091C188.248 58.2581 187.323 58.3212 186.406 58.4123C181.99 58.806 177.601 59.454 173.26 60.3533C170.309 61.1041 167.421 62.081 164.62 63.2753Z" fill="white"/>
</g>
<path opacity="0.2" d="M163.863 76.8271L163.968 76.708L171.242 77.3527C172.349 82.0476 168.299 88.4522 166.162 91.4233C165.133 86.6029 164.366 81.7304 163.863 76.8271Z" fill="black"/>
<path opacity="0.2" d="M179.334 241.226L179.636 248.205H185.487L185.186 241.226H179.334Z" fill="black"/>
<path opacity="0.2" d="M221.273 232.754L215.885 234.611L218.772 241.191L224.16 239.334L221.273 232.754Z" fill="black"/>
<path d="M182.243 37.9509C183.533 43.6058 184.57 46.8501 182.601 50.564C179.644 56.0928 172.034 55.5602 169.084 50.4028C166.428 45.757 164.76 37.2922 169.553 33.4802C170.603 32.6369 171.852 32.0754 173.179 31.849C174.507 31.6226 175.871 31.7386 177.142 32.1862C178.412 32.6338 179.547 33.3981 180.44 34.4069C181.333 35.4156 181.953 36.6354 182.243 37.9509Z" fill="#FFC3BD"/>
<path d="M170.885 43.4933L168.734 44.8107L168.937 37.453C167.55 37.5126 166.181 37.1163 165.041 36.3248C165.819 35.582 177.927 31.3426 181.704 32.0784C182.097 31.9172 182.573 31.1885 182.573 31.1885C182.573 31.1885 182.72 32.1064 182.083 32.4568C182.545 32.3657 183.701 32.5899 184.024 33.2696C183.493 33.1248 182.93 33.1567 182.419 33.3607C182.419 33.3607 186.623 33.9984 185.131 39.8285C183.456 46.2542 184.01 49.947 184.01 49.947C184.01 49.947 180.884 52.3645 178.165 51.916C175.264 48.7207 171.074 44.8807 170.885 43.4933Z" fill="#263238"/>
<path d="M166.765 35.7436C163.352 35.7436 162.126 34.0759 161.25 32.6744C163.703 32.4151 168.811 30.8385 172.602 30.5722C176.393 30.306 180.548 31.0137 179.294 32.6744C178.039 34.3351 166.765 35.7436 166.765 35.7436Z" fill="#263238"/>
<path d="M167.514 34.223C164.711 33.8306 161.979 31.1888 164.081 28.6592C164.859 30.5161 170.107 30.2989 173.835 29.5211C178.74 28.498 182.139 30.1517 180.401 33.4942C179.448 35.3231 167.514 34.223 167.514 34.223Z" fill="#263238"/>
<path d="M173.912 41.8195C174.314 43.2031 174.25 44.6801 173.73 46.0239C173.03 47.7827 171.474 47.4253 170.661 45.9047C169.96 44.5033 169.428 41.9596 170.619 40.6913C171.81 39.423 173.408 40.1588 173.912 41.8195Z" fill="#FFC3BD"/>
<path d="M182.636 111.688C182.636 111.688 187.653 154.398 191.297 171.131C195.284 189.462 214.953 239.438 214.953 239.438L224.764 236.047C224.764 236.047 212.15 198.418 208.801 172.792C206.229 153.115 202.564 108.738 202.564 108.738L182.636 111.688Z" fill="#263238"/>
<path d="M212.445 236.299C212.396 236.299 214.456 240.504 214.456 240.504L225.913 236.783L224.568 233.363L212.445 236.299Z" fill="#407BFF"/>
<path opacity="0.3" d="M185.404 133.601C186.973 145.471 188.984 159.528 190.75 168.504C193.35 154.749 193.959 137.378 185.404 133.601Z" fill="black"/>
<path d="M171.661 113.307C171.661 113.307 167.499 153.431 168.158 171.257C168.817 189.799 177.478 246.852 177.478 246.852H187.379C187.379 246.852 185.557 190.878 185.977 172.673C186.461 152.821 193.903 110.021 193.903 110.021L171.661 113.307Z" fill="#263238"/>
<path d="M175.552 242.907C175.51 242.907 176.112 247.014 176.112 247.014H188.158L188.487 243.349L175.552 242.907Z" fill="#407BFF"/>
<path d="M169.742 73.1276C168.649 74.8654 167.542 76.428 166.393 78.0327C165.244 79.6374 164.038 81.186 162.812 82.7276C160.312 85.8549 157.604 88.8094 154.705 91.5708C153.92 92.2715 153.198 92.9723 152.35 93.6099L151.733 94.1074L151.425 94.3527C151.313 94.4438 151.264 94.4928 151.033 94.661C150.339 95.1562 149.576 95.548 148.769 95.8242C147.52 96.2508 146.214 96.4871 144.894 96.525C143.778 96.5624 142.661 96.5132 141.552 96.3778C137.499 95.8464 133.545 94.7275 129.815 93.0563L131.027 88.852C134.612 89.2773 138.223 89.4506 141.832 89.3705C142.631 89.3287 143.426 89.2421 144.215 89.1112C144.809 89.0244 145.386 88.8447 145.924 88.5787C146.093 88.4876 146.184 88.3965 146.163 88.3755C146.142 88.3544 146.254 88.2844 146.317 88.2213L146.555 88.0041L147.025 87.5626C147.655 87.002 148.251 86.3223 148.868 85.7057C150.08 84.4023 151.285 83.0639 152.427 81.6415C153.569 80.219 154.726 78.7895 155.847 77.318C156.968 75.8464 158.054 74.3539 159.147 72.8613C160.24 71.3688 161.305 69.7991 162.315 68.3486L169.742 73.1276Z" fill="#FFC3BD"/>
<path d="M173.814 71.2704C176.168 78.9784 162.497 87.5203 162.497 87.5203L153.612 76.2035C155.614 72.472 158.087 69.0126 160.969 65.9098C167.017 59.3299 172.02 65.4053 173.814 71.2704Z" fill="#407BFF"/>
<g opacity="0.3">
<path d="M173.814 71.2704C176.168 78.9784 162.497 87.5203 162.497 87.5203L153.612 76.2035C155.615 72.472 158.087 69.0126 160.969 65.9098C167.017 59.3299 172.02 65.4053 173.814 71.2704Z" fill="white"/>
</g>
<path d="M133.087 89.1113L125.89 87.7939L126.647 94.0164C126.647 94.0164 130.389 96.1186 133.101 92.8322L133.087 89.1113Z" fill="#FFC3BD"/>
<path d="M123.116 89.1954L124.672 93.6871L126.634 94.0164L125.877 87.7939L123.116 89.1954Z" fill="#FFC3BD"/>
</svg>
