<svg width="435" height="290" viewBox="0 0 435 290" fill="none" xmlns="http://www.w3.org/2000/svg">
<path d="M127.532 70.9113L62.4558 114.443L126.556 210.267L191.632 166.735L127.532 70.9113Z" fill="#F5F5F5"/>
<path d="M158.004 162.203L157.267 166.774L124.915 162.11L125.651 157.54L158.004 162.203Z" fill="#E0E0E0"/>
<path d="M141.711 145.899L146.351 146.566L141.207 178.42L136.561 177.747L141.711 145.899Z" fill="#E0E0E0"/>
<path d="M111.94 105.415C111.986 105.479 105.467 109.927 97.3763 115.333C89.2853 120.738 82.6907 125.077 82.6443 125.007C82.5979 124.938 89.1171 120.495 97.2081 115.083C105.299 109.672 111.865 105.345 111.94 105.415Z" fill="#E0E0E0"/>
<path d="M135.848 99.4067C135.894 99.4763 125.048 106.808 111.627 115.786C98.2056 124.764 87.2668 131.985 87.232 131.922C87.1972 131.858 98.02 124.515 111.459 115.537C124.897 106.558 135.801 99.3371 135.848 99.4067Z" fill="#E0E0E0"/>
<path d="M140.644 106.576C140.691 106.645 129.845 113.982 116.423 122.961C103.002 131.939 92.0634 139.16 92.0286 139.09C91.9938 139.021 102.828 131.69 116.255 122.705C129.682 113.721 140.598 106.506 140.644 106.576Z" fill="#E0E0E0"/>
<path d="M145.441 113.75C145.487 113.819 134.641 121.156 121.22 130.129C107.799 139.101 96.8601 146.334 96.8601 146.264C96.8601 146.195 107.654 138.858 121.081 129.879C134.508 120.901 145.395 113.68 145.441 113.75Z" fill="#E0E0E0"/>
<path d="M150.22 120.924C150.267 120.994 139.421 128.325 125.999 137.304C112.578 146.282 101.639 153.503 101.61 153.433C101.581 153.364 112.422 146.033 125.86 137.054C139.299 128.076 150.22 120.855 150.22 120.924Z" fill="#E0E0E0"/>
<path d="M345.14 135.12L290.487 171.68L344.319 252.154L398.973 215.594L345.14 135.12Z" fill="#F5F5F5"/>
<path d="M370.736 211.805L370.116 215.644L342.943 211.729L343.569 207.89L370.736 211.805Z" fill="#E0E0E0"/>
<path d="M357.054 198.111L360.951 198.674L356.63 225.424L352.727 224.861L357.054 198.111Z" fill="#E0E0E0"/>
<path d="M332.027 164.141C332.073 164.21 326.604 167.951 319.806 172.493C313.009 177.034 307.464 180.665 307.418 180.613C307.371 180.56 312.846 176.808 319.638 172.261C326.43 167.713 331.981 164.042 332.027 164.141Z" fill="#E0E0E0"/>
<path d="M352.124 159.065C352.17 159.135 343.07 165.306 331.824 172.84C320.578 180.374 311.373 186.441 311.327 186.371C311.28 186.302 320.381 180.131 331.627 172.591C342.873 165.051 352.06 158.995 352.124 159.065Z" fill="#E0E0E0"/>
<path d="M356.155 165.085C356.201 165.155 347.101 171.326 335.855 178.866C324.609 186.406 315.404 192.461 315.358 192.392C315.311 192.322 324.382 186.18 335.658 178.64C346.933 171.1 356.12 165.022 356.155 165.085Z" fill="#E0E0E0"/>
<path d="M360.18 171.1C360.227 171.17 351.121 177.341 339.88 184.881C328.64 192.421 319.429 198.476 319.383 198.406C319.337 198.337 328.437 192.171 339.683 184.626C350.929 177.08 360.14 171.042 360.18 171.1Z" fill="#E0E0E0"/>
<path d="M364.24 177.138C364.286 177.208 355.186 183.373 343.94 190.913C332.694 198.453 323.489 204.508 323.443 204.445C323.396 204.381 332.497 198.204 343.743 190.664C354.989 183.124 364.165 177.069 364.24 177.138Z" fill="#E0E0E0"/>
<path d="M258.675 74.4372L199.041 42.542L152.076 130.352L211.71 162.247L258.675 74.4372Z" fill="#F5F5F5"/>
<path d="M201.504 134.775L197.722 136.068L188.117 109.522L191.905 108.223L201.504 134.775Z" fill="#E0E0E0"/>
<path d="M207.304 115.728L208.684 119.538L182.317 128.569L180.937 124.758L207.304 115.728Z" fill="#E0E0E0"/>
<path d="M226.038 76.5599C225.991 76.6469 219.948 73.5033 212.529 69.5419C205.111 65.5805 199.143 62.2919 199.189 62.2049C199.236 62.1179 205.285 65.2615 212.703 69.2229C220.122 73.1843 226.084 76.4671 226.038 76.5599Z" fill="#E0E0E0"/>
<path d="M240.352 92.3538C240.306 92.4408 230.295 87.1744 217.993 80.5972C205.691 74.02 195.762 68.6144 195.808 68.5274C195.854 68.4404 205.859 73.701 218.161 80.284C230.463 86.867 240.398 92.2668 240.352 92.3538Z" fill="#E0E0E0"/>
<path d="M236.837 98.9251C236.791 99.0121 226.78 93.7515 214.478 87.1685C202.177 80.5855 192.247 75.1857 192.293 75.0987C192.34 75.0117 202.345 80.2781 214.647 86.8553C226.948 93.4325 236.884 98.8381 236.837 98.9251Z" fill="#E0E0E0"/>
<path d="M233.322 105.497C233.276 105.584 223.265 100.323 210.963 93.7461C198.662 87.1689 188.732 81.7807 188.778 81.6763C188.825 81.5719 198.83 86.8499 211.132 93.4271C223.433 100.004 233.369 105.41 233.322 105.497Z" fill="#E0E0E0"/>
<path d="M229.808 112.068C229.761 112.155 219.75 106.894 207.449 100.317C195.147 93.7398 185.211 88.3342 185.264 88.2472C185.316 88.1602 195.315 93.4208 207.617 99.998C219.919 106.575 229.854 111.981 229.808 112.068Z" fill="#E0E0E0"/>
<path d="M384.928 255.101C384.928 255.182 309.964 255.252 217.506 255.252C125.048 255.252 50.0713 255.2 50.0713 255.101C50.0713 255.002 125.025 254.95 217.506 254.95C309.987 254.95 384.928 255.014 384.928 255.101Z" fill="#263238"/>
<path d="M68.6082 218.776C69.5888 218.847 70.5451 219.115 71.42 219.563C72.295 220.011 73.0706 220.632 73.7006 221.386C74.9533 222.905 75.8403 224.691 76.2932 226.606C77.2734 230.272 76.6702 234.605 75.6262 238.253C71.659 236.832 69.2056 232.598 68.0862 230.371C66.3462 226.856 65.308 219.432 68.5908 218.771" fill="#0B3B95"/>
<path d="M81.3392 242.701C80.7435 241.777 80.4028 240.712 80.3519 239.614C80.301 238.516 80.5416 237.424 81.0492 236.449C81.5728 235.483 82.2835 234.631 83.14 233.943C83.9964 233.255 84.9813 232.744 86.0372 232.441C87.0058 232.139 88.131 232.018 88.972 232.58C89.3511 232.867 89.6464 233.25 89.827 233.69C90.0075 234.13 90.0668 234.61 89.9986 235.08C89.8464 236.022 89.446 236.907 88.8386 237.644C86.9072 240.259 84.564 242.434 81.2986 242.701" fill="#0B3B95"/>
<path d="M81.78 254.957C81.694 254.71 81.6337 254.456 81.6002 254.197C81.4958 253.652 81.3566 252.95 81.1884 252.109C80.6678 249.806 80.5229 247.434 80.7592 245.085C81.0327 242.725 81.9317 240.48 83.3634 238.583C83.8008 238.016 84.3052 237.504 84.8656 237.058C85.0179 236.937 85.1767 236.825 85.3412 236.722C85.3936 236.678 85.4522 236.643 85.5152 236.617C84.7816 237.244 84.1113 237.941 83.5142 238.699C82.158 240.598 81.3041 242.809 81.0318 245.126C80.6606 247.829 81.1188 250.305 81.3856 252.086C81.5248 252.973 81.6408 253.692 81.7046 254.191C81.7503 254.444 81.7755 254.7 81.78 254.957Z" fill="#263238"/>
<path d="M69.884 224.361C69.9503 224.453 70.0048 224.552 70.0464 224.657C70.1508 224.889 70.29 225.179 70.4524 225.545C70.8062 226.316 71.2992 227.435 71.8966 228.822C73.0914 231.6 74.6922 235.463 76.3626 239.766C78.033 244.07 79.454 247.996 80.4226 250.856C80.9214 252.283 81.31 253.443 81.5826 254.249C81.7044 254.632 81.7972 254.939 81.8726 255.177C81.914 255.283 81.9432 255.394 81.9596 255.507C81.9008 255.409 81.8541 255.304 81.8204 255.194C81.7334 254.962 81.6232 254.661 81.4782 254.284L80.2544 250.92C79.2162 248.083 77.7662 244.163 76.1016 239.865C74.437 235.567 72.8594 231.693 71.711 228.897C71.131 227.522 70.6844 226.403 70.3538 225.585C70.203 225.214 70.0812 224.918 69.9884 224.68C69.9449 224.577 69.9099 224.47 69.884 224.361Z" fill="#263238"/>
<path d="M77.0645 246.849C75.8711 244.862 74.2219 243.187 72.2532 241.964C70.2845 240.741 68.0529 240.003 65.7429 239.813C64.5829 239.732 63.1561 239.929 62.6341 240.973C62.1121 242.017 62.8081 243.293 63.6085 244.14C65.3091 245.919 67.4983 247.155 69.9002 247.692C72.302 248.228 74.809 248.042 77.1051 247.156" fill="#0B3B95"/>
<path d="M67.5293 242.956C67.7752 242.944 68.0217 242.954 68.2659 242.985C68.5519 243.001 68.8366 243.034 69.1185 243.084C69.4491 243.148 69.8377 243.182 70.2437 243.298C70.6975 243.394 71.145 243.518 71.5835 243.67C72.0916 243.833 72.5894 244.027 73.0741 244.25C74.1891 244.749 75.2438 245.374 76.2177 246.111C77.1804 246.867 78.0524 247.731 78.8161 248.687C79.1459 249.103 79.45 249.539 79.7267 249.992C79.9768 250.383 80.2053 250.788 80.4111 251.204C80.5854 251.543 80.7403 251.891 80.8751 252.248C80.9914 252.512 81.0902 252.783 81.1709 253.06C81.2568 253.291 81.3209 253.53 81.3623 253.773C81.2985 253.773 81.0201 252.776 80.2371 251.291C80.0239 250.892 79.7896 250.505 79.5353 250.131C79.2527 249.691 78.9468 249.267 78.6189 248.861C77.1019 246.986 75.1672 245.492 72.9697 244.499C72.4651 244.279 71.9837 244.07 71.5139 243.919C71.0826 243.762 70.6431 243.628 70.1973 243.519C68.5733 243.072 67.5235 243.02 67.5293 242.956Z" fill="#263238"/>
<path d="M173.42 136.034L152.888 241.478L150.22 255.282L287.1 254.621C293.248 254.592 298.7 249.134 300.666 241.025L324.945 141.48C326.447 135.326 323.153 128.923 318.49 128.929L179.916 129.074C176.9 129.068 174.197 131.922 173.42 136.034Z" fill="#88B9F4"/>
<g opacity="0.5">
<path d="M173.42 136.034L152.888 241.478L150.22 255.282L287.1 254.621C293.248 254.592 298.7 249.134 300.666 241.025L324.945 141.48C326.447 135.326 323.153 128.923 318.49 128.929L179.916 129.074C176.9 129.068 174.197 131.922 173.42 136.034Z" fill="black"/>
</g>
<path d="M273.986 234.32L259.486 117.503C258.906 112.718 255.084 109.145 250.577 109.162L218.793 109.261C217.612 109.274 216.446 109.528 215.366 110.006C214.286 110.485 213.315 111.179 212.512 112.045L197.432 128.093L109.04 128.569C103.64 128.598 99.4874 133.714 100.201 139.456L113.663 247.423C114.243 252.202 118.065 255.769 122.56 255.763L276.637 255.456C293.793 255.809 295.435 250.746 295.435 250.746C275.738 255.102 273.986 234.349 273.986 234.32Z" fill="#88B9F4"/>
<g opacity="0.5">
<path d="M207.547 210.958L202.35 216.537L162.33 180.531L167.527 174.951L207.547 210.958Z" fill="white"/>
<path d="M200.175 173.716L205.917 178.884L169.708 217.773L163.96 212.605L200.175 173.716Z" fill="white"/>
</g>
<path d="M297.393 86.7189C297.115 86.6018 296.876 86.4081 296.705 86.1604C296.533 85.9127 296.435 85.6213 296.423 85.3201L296.08 77.3564C296.068 77.1089 296.113 76.862 296.213 76.6353C296.313 76.4085 296.464 76.2081 296.655 76.0499C296.846 75.8917 297.071 75.7801 297.312 75.7238C297.553 75.6676 297.804 75.6683 298.045 75.7259C298.71 75.8692 299.396 75.8754 300.063 75.7441C300.73 75.6128 301.363 75.3467 301.924 74.9621C302.44 74.6354 302.884 74.2065 303.228 73.7017C303.572 73.1969 303.808 72.627 303.924 72.0272C304.001 71.4198 303.956 70.803 303.791 70.2134C303.626 69.6237 303.344 69.0732 302.962 68.5945C302.56 68.0499 302.055 67.5899 301.474 67.2409C300.894 66.8919 300.251 66.6608 299.581 66.5607C298.231 66.4856 296.895 66.8684 295.789 67.6471C294.683 68.4258 293.873 69.5548 293.488 70.8515C293.36 71.2444 293.085 71.5727 292.721 71.768C292.357 71.9633 291.931 72.0106 291.533 71.9C291.135 71.7893 290.795 71.5294 290.584 71.1742C290.372 70.8191 290.306 70.3961 290.399 69.9933C290.983 67.9539 292.251 66.1776 293.99 64.9633C295.73 63.7489 297.834 63.1706 299.95 63.3254C301.051 63.4721 302.112 63.8387 303.069 64.4033C304.025 64.9679 304.859 65.7191 305.52 66.6122C306.162 67.4399 306.633 68.3882 306.902 69.4008C307.172 70.4135 307.236 71.47 307.09 72.5078C306.895 73.544 306.49 74.5294 305.9 75.4031C305.309 76.2769 304.546 77.0204 303.657 77.5881C302.37 78.4549 300.866 78.9452 299.315 79.004L299.581 85.1485C299.591 85.4184 299.533 85.6865 299.412 85.9279C299.29 86.1693 299.11 86.3762 298.888 86.5294C298.665 86.6826 298.407 86.7771 298.139 86.8043C297.87 86.8314 297.599 86.7902 297.35 86.6846L297.393 86.7189Z" fill="#0B3B95"/>
<path d="M299.744 89.98C299.762 90.2392 299.703 90.4979 299.574 90.7234C299.445 90.9488 299.252 91.131 299.019 91.2468C298.786 91.3626 298.525 91.4067 298.267 91.3737C298.009 91.3407 297.767 91.232 297.571 91.0614C297.376 90.8907 297.235 90.6658 297.167 90.4151C297.099 90.1644 297.107 89.8991 297.189 89.6529C297.272 89.4066 297.426 89.1905 297.632 89.0318C297.837 88.8731 298.086 88.779 298.345 88.7614C298.517 88.7486 298.69 88.77 298.854 88.8245C299.017 88.8789 299.169 88.9653 299.299 89.0787C299.429 89.192 299.535 89.33 299.611 89.4848C299.688 89.6395 299.733 89.8078 299.744 89.98Z" fill="#0B3B95"/>
<path d="M269.82 75.4859C269.857 75.3161 269.883 75.1441 269.897 74.971C269.897 74.5934 269.992 74.1128 270.06 73.4349C270.145 72.6025 270.285 71.7768 270.481 70.9634C270.592 70.4828 270.652 69.9507 270.824 69.4101C270.996 68.8694 271.167 68.2859 271.356 67.6938C272.35 64.7599 273.798 62.0003 275.647 59.5155C278.071 56.2979 281.144 53.6257 284.666 51.6719C286.671 50.5414 288.807 49.6596 291.025 49.0459C293.419 48.4113 295.886 48.0882 298.363 48.0848C299.667 48.0638 300.972 48.1326 302.267 48.2907C302.928 48.3594 303.58 48.531 304.241 48.6426C304.909 48.757 305.569 48.9176 306.215 49.1232C308.92 49.879 311.493 51.0454 313.844 52.5815C319.072 55.9724 323.054 60.9727 325.189 66.827C326.338 69.9629 326.919 73.2787 326.905 76.6186C326.94 80.0594 326.332 83.4764 325.111 86.6935L324.725 87.6718L324.674 87.8005L324.725 87.9292C326.879 92.8808 329.016 97.7466 331.033 102.458L331.393 102.046L318.521 97.1115L318.366 97.0515L318.238 97.1716C314.832 100.471 310.664 102.877 306.103 104.174C302.206 105.247 298.126 105.481 294.132 104.861C290.138 104.242 286.321 102.782 282.933 100.579C280.158 98.7585 277.711 96.4807 275.699 93.8419C272.781 89.9904 270.892 85.4604 270.206 80.6777C270.103 79.8196 270.017 79.0987 269.94 78.4465C269.863 77.7943 269.94 77.2623 269.897 76.8074C269.854 76.3526 269.897 76.0523 269.897 75.8034C269.94 75.7969 269.979 75.7745 270.006 75.7406C270.033 75.7068 270.046 75.664 270.043 75.6208C270.039 75.5776 270.02 75.5373 269.988 75.5079C269.957 75.4784 269.915 75.4621 269.872 75.4621C269.828 75.4621 269.787 75.4784 269.755 75.5079C269.723 75.5373 269.704 75.5776 269.7 75.6208C269.697 75.664 269.71 75.7068 269.737 75.7406C269.764 75.7745 269.803 75.7969 269.846 75.8034C269.846 76.0523 269.846 76.3869 269.846 76.8074C269.846 77.2279 269.846 77.8115 269.846 78.4637C269.846 79.1159 269.992 79.8625 270.078 80.7121C270.36 82.7762 270.852 84.8062 271.545 86.7707C272.527 89.365 273.849 91.8178 275.475 94.0651C277.496 96.7508 279.96 99.0725 282.761 100.93C286.191 103.189 290.063 104.692 294.118 105.34C298.173 105.988 302.32 105.766 306.283 104.689C310.899 103.378 315.12 100.949 318.572 97.6179L318.289 97.6779L331.161 102.638L331.805 102.887L331.522 102.226C329.479 97.5149 327.368 92.6577 325.223 87.6975V87.9464L325.618 86.9423C326.87 83.6551 327.493 80.1618 327.454 76.6444C327.481 73.2335 326.9 69.8451 325.738 66.6382C323.557 60.6673 319.486 55.5718 314.144 52.1267C311.734 50.5548 309.093 49.3677 306.318 48.6083C305.661 48.4005 304.99 48.2427 304.31 48.1363C303.64 48.0161 302.979 47.8445 302.31 47.7844C300.998 47.6215 299.676 47.547 298.354 47.5613C295.837 47.572 293.333 47.9124 290.905 48.5739C288.657 49.2123 286.494 50.1169 284.46 51.2686C280.902 53.2703 277.81 56.0053 275.39 59.2924C273.546 61.8183 272.117 64.6227 271.159 67.5994C270.979 68.2172 270.807 68.8094 270.653 69.3157C270.516 69.833 270.407 70.3572 270.326 70.8861C270.142 71.7052 270.022 72.5372 269.966 73.3748C269.914 74.0356 269.88 74.5419 269.854 74.9195C269.818 75.106 269.807 75.2964 269.82 75.4859Z" fill="#263238"/>
</svg>
