<svg width="288" height="290" viewBox="0 0 288 290" fill="none" xmlns="http://www.w3.org/2000/svg">
<path d="M172.154 78.9748H105.902C104.392 78.9766 102.945 79.5772 101.877 80.6448C100.81 81.7123 100.209 83.1597 100.207 84.6695V231.916L99.448 232.147L83.1953 237.125C82.425 237.359 81.5931 237.279 80.882 236.901C80.171 236.523 79.6389 235.878 79.4027 235.109L31.0583 77.1943C30.823 76.424 30.9032 75.5918 31.2812 74.8806C31.6593 74.1695 32.3042 73.6375 33.0743 73.4016L58.1197 65.7327L130.727 43.5081L155.772 35.8393C156.154 35.722 156.554 35.681 156.951 35.7186C157.348 35.7563 157.734 35.8719 158.086 36.0588C158.438 36.2457 158.75 36.5002 159.004 36.8078C159.258 37.1154 159.449 37.47 159.565 37.8514L171.923 78.2155L172.154 78.9748Z" fill="#F2F2F2"/>
<path d="M186.612 78.2155L171.718 29.5675C171.47 28.7569 171.065 28.0031 170.526 27.3492C169.987 26.6952 169.324 26.1539 168.576 25.7562C167.827 25.3585 167.007 25.1122 166.164 25.0314C165.32 24.9505 164.469 25.0367 163.658 25.2851L128.446 36.0632L55.8423 58.2916L20.63 69.0736C18.9942 69.5759 17.6246 70.7067 16.8217 72.2178C16.0188 73.7289 15.8482 75.4968 16.3475 77.1335L67.2506 243.392C67.6562 244.714 68.4745 245.87 69.5855 246.692C70.6966 247.514 72.0418 247.958 73.4238 247.96C74.0634 247.96 74.6995 247.864 75.3105 247.675L99.4485 240.287L100.208 240.052V239.258L99.4485 239.49L75.0866 246.95C73.6427 247.39 72.0832 247.239 70.7502 246.531C69.4171 245.823 68.4194 244.615 67.9758 243.172L17.0765 76.9095C16.8568 76.1946 16.7802 75.4434 16.8511 74.6988C16.9221 73.9543 17.1392 73.231 17.4901 72.5705C17.841 71.91 18.3187 71.3252 18.8959 70.8495C19.4731 70.3739 20.1385 70.0168 20.8539 69.7987L56.0662 59.0167L128.67 36.7922L163.882 26.0102C164.425 25.8446 164.989 25.7601 165.556 25.7596C166.774 25.7624 167.959 26.1549 168.937 26.8797C169.915 27.6046 170.636 28.6237 170.993 29.7877L185.818 78.2155L186.054 78.9748H186.843L186.612 78.2155Z" fill="#3F3D56"/>
<path d="M62.6391 73.5255C61.9074 73.525 61.1951 73.29 60.6067 72.855C60.0183 72.42 59.5848 71.8079 59.3699 71.1084L54.4799 55.136C54.3484 54.7069 54.3029 54.2562 54.3457 53.8095C54.3885 53.3629 54.5189 52.929 54.7294 52.5327C54.9399 52.1365 55.2264 51.7856 55.5726 51.5C55.9187 51.2145 56.3177 51 56.7468 50.8687L123.542 30.4194C124.408 30.155 125.344 30.2452 126.144 30.6702C126.944 31.0951 127.543 31.8202 127.809 32.6862L132.699 48.6588C132.963 49.5253 132.873 50.4612 132.448 51.2613C132.023 52.0613 131.298 52.6601 130.432 52.9263L63.6374 73.3756C63.3139 73.4748 62.9775 73.5254 62.6391 73.5255Z" fill="#0B3B95"/>
<path d="M88.2551 42.0658C92.4485 42.0658 95.848 38.6663 95.848 34.4728C95.848 30.2794 92.4485 26.8799 88.2551 26.8799C84.0616 26.8799 80.6621 30.2794 80.6621 34.4728C80.6621 38.6663 84.0616 42.0658 88.2551 42.0658Z" fill="#0B3B95"/>
<path d="M88.2554 39.2812C90.9108 39.2812 93.0634 37.1286 93.0634 34.4731C93.0634 31.8177 90.9108 29.665 88.2554 29.665C85.5999 29.665 83.4473 31.8177 83.4473 34.4731C83.4473 37.1286 85.5999 39.2812 88.2554 39.2812Z" fill="white"/>
<path d="M244.852 246.02H116.532C115.676 246.019 114.856 245.678 114.251 245.073C113.646 244.469 113.306 243.648 113.305 242.793V89.0356C113.306 88.18 113.646 87.3598 114.251 86.7548C114.856 86.1498 115.676 85.8095 116.532 85.8086H244.852C245.708 85.8096 246.528 86.1499 247.133 86.7549C247.738 87.3598 248.079 88.18 248.079 89.0356V242.793C248.078 243.648 247.738 244.469 247.133 245.073C246.528 245.678 245.708 246.019 244.852 246.02Z" fill="#E6E6E6"/>
<path d="M185.819 78.2153H105.903C104.192 78.2178 102.552 78.8985 101.342 80.1083C100.132 81.3182 99.4516 82.9584 99.4492 84.6693V239.49L100.209 239.258V84.6693C100.21 83.1596 100.811 81.7122 101.878 80.6446C102.946 79.577 104.393 78.9765 105.903 78.9746H186.054L185.819 78.2153ZM255.484 78.2153H105.903C104.192 78.2178 102.552 78.8985 101.342 80.1083C100.132 81.3182 99.4516 82.9584 99.4492 84.6693V258.548C99.4516 260.259 100.132 261.899 101.342 263.109C102.552 264.319 104.192 264.999 105.903 265.002H255.484C257.195 264.999 258.835 264.319 260.045 263.109C261.255 261.899 261.936 260.259 261.938 258.548V84.6693C261.936 82.9584 261.255 81.3182 260.045 80.1083C258.835 78.8985 257.195 78.2178 255.484 78.2153ZM261.179 258.548C261.177 260.058 260.577 261.505 259.509 262.573C258.441 263.64 256.994 264.241 255.484 264.243H105.903C104.393 264.241 102.946 263.64 101.878 262.573C100.811 261.505 100.21 260.058 100.209 258.548V84.6693C100.21 83.1596 100.811 81.7122 101.878 80.6446C102.946 79.577 104.393 78.9765 105.903 78.9746H255.484C256.994 78.9765 258.441 79.577 259.509 80.6446C260.577 81.7122 261.177 83.1596 261.179 84.6693V258.548Z" fill="#3F3D56"/>
<path d="M215.622 94.92H145.766C144.861 94.9189 143.992 94.5586 143.351 93.9181C142.711 93.2775 142.351 92.409 142.35 91.5031V74.7987C142.351 73.8928 142.711 73.0243 143.352 72.3837C143.992 71.7432 144.861 71.3829 145.766 71.3818H215.622C216.527 71.3829 217.396 71.7432 218.036 72.3837C218.677 73.0243 219.037 73.8928 219.038 74.7987V91.5031C219.037 92.409 218.677 93.2775 218.036 93.9181C217.396 94.5586 216.527 94.9189 215.622 94.92Z" fill="#0B3B95"/>
<path d="M180.695 72.5209C184.888 72.5209 188.287 69.1214 188.287 64.9279C188.287 60.7344 184.888 57.335 180.695 57.335C176.501 57.335 173.102 60.7344 173.102 64.9279C173.102 69.1214 176.501 72.5209 180.695 72.5209Z" fill="#0B3B95"/>
<path d="M180.693 69.5529C183.247 69.5529 185.318 67.4823 185.318 64.928C185.318 62.3738 183.247 60.3032 180.693 60.3032C178.139 60.3032 176.068 62.3738 176.068 64.928C176.068 67.4823 178.139 69.5529 180.693 69.5529Z" fill="white"/>
</svg>
