<svg width="244" height="290" viewBox="0 0 244 290" fill="none" xmlns="http://www.w3.org/2000/svg">
<g clip-path="url(#clip0_1_28615)">
<path d="M187.319 275.544H179.598L175.924 245.766H187.319V275.544Z" fill="#9E616A"/>
<path d="M191.393 288.921H185.856L184.868 283.694L182.337 288.921H167.653C166.949 288.921 166.263 288.696 165.696 288.279C165.129 287.862 164.711 287.274 164.501 286.602C164.292 285.93 164.302 285.209 164.532 284.544C164.762 283.878 165.198 283.304 165.777 282.904L177.503 274.805V269.521L189.837 270.257L191.393 288.921Z" fill="#2F2E41"/>
<path d="M233.186 265.801L226.991 270.408L206.273 248.705L215.417 241.905L233.186 265.801Z" fill="#9E616A"/>
<path d="M244.438 274.104L239.995 277.408L236.083 273.803L237.171 279.508L225.388 288.27C224.823 288.69 224.139 288.918 223.435 288.922C222.731 288.926 222.045 288.704 221.475 288.29C220.906 287.876 220.485 287.29 220.272 286.619C220.059 285.949 220.066 285.227 220.292 284.561L224.87 271.064L221.716 266.824L232.053 260.055L244.438 274.104Z" fill="#2F2E41"/>
<path d="M196.307 121.904C196.307 121.904 210.955 134.56 204.197 170.637L195.946 205.987L222.854 250.628L214.275 261.066L179.292 212.747L166.616 183.011L163.059 130.088L196.307 121.904Z" fill="#263238"/>
<path d="M173.604 191.484L172.723 205.129L175.419 263.275L188.106 261.065L190.531 219.666L173.604 191.484Z" fill="#2F2E41"/>
<path d="M10.788 282.545L17.6923 282.545L20.9765 255.915L10.7871 255.916L10.788 282.545Z" fill="#FFB6B6"/>
<path d="M9.02734 280.292L10.9706 280.292L18.5576 277.206L22.624 280.291H22.6245C24.9225 280.291 27.1264 281.204 28.7513 282.829C30.3763 284.454 31.2892 286.658 31.2894 288.956V289.237L9.02774 289.238L9.02734 280.292Z" fill="#2F2E41"/>
<path d="M37.543 278.195L44.2772 279.715L53.3471 254.463L43.4079 252.219L37.543 278.195Z" fill="#FFB6B6"/>
<path d="M36.3219 275.608L38.2175 276.036L46.2978 274.697L49.5847 278.602L49.5852 278.602C51.8268 279.109 53.7754 280.485 55.0025 282.428C56.2296 284.37 56.6347 286.721 56.1286 288.963L56.0666 289.238L34.3516 284.335L36.3219 275.608Z" fill="#2F2E41"/>
<path d="M2.04337 119.743C-1.1936 129.506 -0.851379 140.103 2.82142 151.477L4.39147 215.513C4.39147 215.513 2.05222 257.507 9.60058 272.284H20.5478L25.9679 211.678L26.6485 170.999L50.1182 205.318L35.1697 271.293L48.6431 272.497L72.9006 200.899L42.9717 131.437L2.04337 119.743Z" fill="#263238"/>
<path d="M161.458 117.201C161.314 117.809 161.324 118.442 161.485 119.046C161.647 119.649 161.956 120.202 162.384 120.656C162.604 120.889 162.216 121.198 161.997 120.968C161.526 120.464 161.186 119.852 161.006 119.186C160.826 118.52 160.812 117.82 160.964 117.148C160.973 117.083 161.007 117.024 161.058 116.983C161.109 116.943 161.173 116.923 161.238 116.927C161.303 116.935 161.363 116.968 161.404 117.019C161.446 117.07 161.465 117.136 161.458 117.201Z" fill="white"/>
<path d="M109.258 77.8676C108.796 78.4748 108.207 78.9733 107.532 79.3282C106.857 79.6831 106.112 79.8856 105.35 79.9215C104.588 79.9574 103.828 79.8258 103.122 79.5361C102.417 79.2463 101.783 78.8054 101.267 78.2443L84.2656 85.6384L85.9217 76.1477L101.812 70.5812C102.812 69.7757 104.073 69.365 105.356 69.427C106.638 69.489 107.854 70.0193 108.771 70.9175C109.689 71.8156 110.245 73.0192 110.335 74.3001C110.425 75.5811 110.041 76.8504 109.258 77.8676Z" fill="#FFB8B8"/>
<path d="M97.9118 80.8311L58.4238 98.4205L58.3391 98.3902L13.3328 82.3522C9.98044 80.6002 7.42463 77.6329 6.18867 74.058C4.95272 70.483 5.13013 66.5708 6.68458 63.1224C7.5462 61.2171 8.80158 59.5159 10.3681 58.1307C11.9346 56.7456 13.7767 55.708 15.7731 55.0861C17.7695 54.4642 19.875 54.2722 21.951 54.5227C24.027 54.7732 26.0264 55.4605 27.8176 56.5394L61.3107 76.7153L93.7885 72.5061L97.9118 80.8311Z" fill="#79A3FF"/>
<path d="M44.9248 133.488L5.1183 127.121C4.0743 126.786 3.11501 126.23 2.3063 125.49C1.49759 124.75 0.858627 123.843 0.433245 122.833C0.00786234 121.823 -0.19386 120.732 -0.158056 119.637C-0.122251 118.541 0.150229 117.466 0.640667 116.486L2.44586 112.875L1.74465 74.9388C1.66013 70.0042 2.87665 65.1344 5.27182 60.8193C7.66699 56.5042 11.1563 52.896 15.3888 50.3576L19.2706 48.0365L21.2324 43.0547L39.3219 43.4959L39.3746 50.0297L45.8529 60.36L45.8527 60.4028L45.4462 116.629L43.6608 122.432L46.3604 129.181L44.9248 133.488Z" fill="#79A3FF"/>
<path d="M31.9322 36.8606C41.0097 36.8606 48.3684 29.5019 48.3684 20.4244C48.3684 11.347 41.0097 3.98828 31.9322 3.98828C22.8548 3.98828 15.4961 11.347 15.4961 20.4244C15.4961 29.5019 22.8548 36.8606 31.9322 36.8606Z" fill="#FFB8B8"/>
<path d="M14.8177 24.0068C14.3274 21.9415 14.5525 19.0354 14.8295 16.9559C15.5558 11.5042 18.5834 6.32138 23.1831 3.25142C24.0553 2.589 25.0916 2.17715 26.1806 2.06025C27.2687 2.01482 28.4482 2.59734 28.7823 3.63396C29.0564 2.94979 29.4678 2.32906 29.9912 1.81008C30.5146 1.2911 31.1387 0.884885 31.8252 0.616512C33.2041 0.0882019 34.6871 -0.111592 36.1567 0.0329662C39.0052 0.26776 41.7369 1.26934 44.0621 2.93142C46.3872 4.5935 48.219 6.85407 49.3631 9.47323C49.8021 10.5161 51.0283 6.66392 51.5845 7.64932C52.0957 8.67358 52.9874 9.4571 54.069 9.8322C55.1589 10.1363 55.6016 14.6268 56.0305 13.5797C56.3632 14.3535 56.4948 15.199 56.4128 16.0374C56.3309 16.8757 56.0381 17.6797 55.5618 18.3745C55.0854 19.0692 54.441 19.6321 53.6885 20.0107C52.9361 20.3893 52.1 20.5714 51.2582 20.5399C50.1489 20.4984 49.0882 20.0904 47.9921 19.9147C44.0723 19.2867 39.9144 22.129 39.0764 26.0093C38.7764 24.8871 38.2971 23.8208 37.6571 22.8515C37.3322 22.3694 36.8969 21.9718 36.3874 21.6918C35.8779 21.4119 35.3089 21.2576 34.7277 21.2419C33.6125 21.2837 32.6322 22.0128 31.9086 22.8624C31.1851 23.712 30.6416 24.7033 29.9127 25.5483C27.7738 28.0278 24.881 33.8103 21.8329 33.3886C19.4275 33.0558 15.487 26.8266 14.8177 24.0068Z" fill="#2F2E41"/>
<path d="M131.288 96.4926C131.403 95.7433 131.249 94.9774 130.853 94.3308C130.457 93.6842 129.845 93.1987 129.126 92.9603L84.8631 78.2184C84.4387 78.0765 83.9894 78.0249 83.5439 78.0669L72.4497 79.1161L66.0839 79.7199L54.3367 80.8301C53.6274 80.8979 52.9607 81.1992 52.4411 81.6868C51.9215 82.1743 51.5784 82.8205 51.4656 83.524L45.5012 120.781C45.3883 121.508 45.5266 122.251 45.8933 122.889C46.26 123.526 46.8332 124.02 47.5181 124.287L92.2426 141.551C92.4525 141.633 92.6706 141.691 92.8931 141.726C93.217 141.778 93.547 141.781 93.8716 141.733L122.771 137.45C123.453 137.351 124.085 137.036 124.573 136.55C125.061 136.064 125.379 135.433 125.48 134.752L131.288 96.4926Z" fill="white"/>
<path d="M48.5321 121.662L93.2565 138.925C93.3217 138.951 93.3926 138.959 93.462 138.949L122.358 134.667C122.444 134.655 122.523 134.615 122.584 134.554C122.646 134.493 122.685 134.414 122.697 134.329L128.508 96.0687C128.521 95.9753 128.502 95.8802 128.453 95.7997C128.403 95.7191 128.328 95.6582 128.239 95.6273L127.941 95.5266L83.9734 80.8887C83.9534 80.8816 83.9327 80.8766 83.9116 80.8738C83.8775 80.8675 83.8427 80.8657 83.8082 80.8684L56.7486 83.429L54.6013 83.6305C54.5132 83.6399 54.4306 83.6778 54.366 83.7385C54.3015 83.7993 54.2586 83.8794 54.2439 83.9668L48.2805 121.223C48.2659 121.314 48.2829 121.407 48.3287 121.487C48.3745 121.567 48.4463 121.629 48.5321 121.662Z" fill="#0B3B95"/>
<path d="M56.748 83.429L83.8076 80.8684C83.8422 80.8657 83.877 80.8675 83.9111 80.8738C83.9321 80.8766 83.9528 80.8816 83.9729 80.8887L127.94 95.5266L116.343 96.7543L112.002 97.2115L99.6516 98.5164C99.6155 98.5182 99.5793 98.5178 99.5433 98.5151C99.5214 98.5085 99.4994 98.5019 99.473 98.4948L56.748 83.429Z" fill="#9FBDFF"/>
<path d="M47.5178 124.29L92.2421 141.553C92.4525 141.634 92.6714 141.691 92.8945 141.724C93.2184 141.777 93.5486 141.781 93.8738 141.736L122.77 137.453C123.452 137.354 124.083 137.038 124.572 136.551C125.06 136.065 125.379 135.435 125.481 134.753L131.287 96.4927C131.373 95.9287 131.308 95.352 131.099 94.8211C131.07 94.7506 131.04 94.68 131.006 94.6135C130.776 94.1288 130.425 93.7111 129.988 93.4002C129.725 93.2111 129.434 93.063 129.126 92.9609L129.074 92.9424L84.866 78.2183C84.6854 78.1607 84.5009 78.1159 84.314 78.0842C84.0585 78.048 83.7995 78.043 83.5428 78.0693L72.4504 79.1148L66.0851 79.722L54.3359 80.8313C53.8552 80.8762 53.391 81.0296 52.9783 81.2799C52.9464 81.2954 52.9159 81.3136 52.8872 81.3345C52.8668 81.3478 52.8473 81.3626 52.8288 81.3786C52.4684 81.6246 52.1618 81.9415 51.9277 82.3098C51.6937 82.6782 51.5371 83.0903 51.4675 83.5211L45.4992 120.781C45.3864 121.508 45.5249 122.252 45.8919 122.89C46.2589 123.528 46.8324 124.022 47.5178 124.29ZM52.2593 83.651C52.3318 83.2044 52.5299 82.7877 52.8304 82.4496C52.9214 82.3407 53.0232 82.2415 53.1343 82.1533C53.4377 81.908 53.7965 81.7406 54.1794 81.6658C54.255 81.6502 54.3315 81.6394 54.4084 81.6334L74.191 79.7646L83.6202 78.8673C83.6841 78.8599 83.7427 78.8609 83.8018 78.8576C83.9446 78.8546 84.0873 78.8652 84.228 78.8892C84.3575 78.906 84.4848 78.9364 84.6079 78.9798L128.868 93.7224C128.903 93.7348 128.934 93.7467 128.969 93.7591C129.371 93.9088 129.725 94.1661 129.991 94.5029C130.201 94.7607 130.355 95.06 130.442 95.3813C130.529 95.7026 130.547 96.0386 130.495 96.3673L124.684 134.632C124.608 135.142 124.369 135.614 124.004 135.979C123.639 136.343 123.166 136.581 122.656 136.656L93.7557 140.939C93.3422 140.998 92.9205 140.95 92.5311 140.799L47.8063 123.541C47.2937 123.339 46.8649 122.968 46.5904 122.491C46.3158 122.013 46.2118 121.456 46.2955 120.911L52.2593 83.651Z" fill="#3F3D56"/>
<path d="M52.7325 81.5814C52.7561 81.5136 52.7978 81.4536 52.853 81.4077C52.8714 81.3931 52.8908 81.3798 52.911 81.3681C52.9298 81.3608 52.949 81.3491 52.9678 81.3418C53.0575 81.3058 53.1574 81.304 53.2484 81.337L54.1793 81.6654L99.6573 97.7082L110.301 96.5836L116.257 95.9554L128.864 94.6208L129.991 94.5026L130.21 94.4783C130.305 94.4697 130.399 94.4944 130.477 94.548C130.555 94.6017 130.612 94.681 130.638 94.7723C130.644 94.7933 130.648 94.8148 130.65 94.8366C130.66 94.9232 130.64 95.0105 130.596 95.0853C130.551 95.1601 130.483 95.2183 130.403 95.2513C130.367 95.2661 130.33 95.2762 130.291 95.2813L128.758 95.442L116.343 96.7543L112.003 97.2116L99.6524 98.5164C99.6163 98.5182 99.5801 98.5178 99.544 98.5151C99.5221 98.5085 99.5001 98.5019 99.4737 98.4948L53.1342 82.1529L52.9769 82.0973C52.9408 82.0854 52.9074 82.0669 52.8782 82.0426C52.8081 81.9912 52.7561 81.9188 52.73 81.8358C52.7038 81.7529 52.7047 81.6638 52.7325 81.5814Z" fill="#3F3D56"/>
<path d="M93.0162 141.84C92.9116 141.823 92.8178 141.766 92.7552 141.68C92.6927 141.595 92.6664 141.488 92.6822 141.383L99.2114 98.0559C99.2273 97.9505 99.2844 97.8557 99.3702 97.7924C99.456 97.7291 99.5633 97.7025 99.6688 97.7183L99.6724 97.7189C99.777 97.7357 99.8708 97.7931 99.9334 97.8786C99.9959 97.9642 100.022 98.071 100.006 98.1758L93.4772 141.503C93.4613 141.609 93.4042 141.703 93.3184 141.767C93.2326 141.83 93.1252 141.857 93.0198 141.841L93.0162 141.84Z" fill="#3F3D56"/>
<path d="M109.565 139.093L105.223 139.551L110.302 96.5831C110.302 96.5831 116.101 95.533 116.257 95.9541C116.352 96.2055 109.606 138.817 109.565 139.093Z" fill="#3F3D56"/>
<path d="M52.9783 82.0967L52.8613 101.691L87.5496 114.909L100.007 98.1761L52.9783 82.0967Z" fill="#4F77CD"/>
<path d="M129.992 94.5034C129.702 94.139 129.312 93.8675 128.869 93.7224L84.6097 78.9803C84.4855 78.9385 84.3579 78.9074 84.2283 78.8873C84.0872 78.8631 83.944 78.8524 83.8008 78.8553L83.8726 78.4068L84.3157 78.086L94.8258 70.4766L129.925 81.2335L129.986 93.4003L129.992 94.5034Z" fill="#4F77CD"/>
<path d="M54.7461 113.553C54.796 113.558 54.8451 113.568 54.8927 113.584L68.4727 118.044C68.6427 118.1 68.7836 118.221 68.8643 118.38C68.9451 118.54 68.9591 118.725 68.9033 118.895C68.8475 119.065 68.7265 119.206 68.5668 119.287C68.4071 119.368 68.2219 119.382 68.0519 119.326L54.4719 114.866C54.3143 114.814 54.1813 114.706 54.0983 114.562C54.0153 114.418 53.9881 114.249 54.0221 114.087C54.056 113.924 54.1486 113.78 54.2821 113.682C54.4157 113.583 54.5809 113.537 54.7461 113.553Z" fill="white"/>
<path d="M109.538 195.753C112.519 195.753 114.935 193.337 114.935 190.356C114.935 187.375 112.519 184.959 109.538 184.959C106.557 184.959 104.141 187.375 104.141 190.356C104.141 193.337 106.557 195.753 109.538 195.753Z" fill="#F2F2F2"/>
<path d="M84.3503 36.9867C87.331 36.9867 89.7474 34.5703 89.7474 31.5895C89.7474 28.6088 87.331 26.1924 84.3503 26.1924C81.3695 26.1924 78.9531 28.6088 78.9531 31.5895C78.9531 34.5703 81.3695 36.9867 84.3503 36.9867Z" fill="#F2F2F2"/>
<path d="M93.2055 121.491C92.506 121.795 91.7484 121.942 90.986 121.921C90.2236 121.901 89.4749 121.713 88.7928 121.372C88.1107 121.031 87.5117 120.544 87.038 119.947C86.5643 119.349 86.2274 118.655 86.0511 117.913L67.6055 116.049L73.6908 108.58L90.2741 111.495C91.5403 111.281 92.8409 111.54 93.9293 112.221C95.0178 112.902 95.8186 113.959 96.1799 115.191C96.5413 116.423 96.4381 117.745 95.8899 118.906C95.3417 120.068 94.3866 120.987 93.2055 121.491Z" fill="#FFB8B8"/>
<path d="M81.8593 118.528L38.8134 114.562L38.7543 114.494L7.33814 78.4968C5.27062 75.3293 4.49218 71.4912 5.16219 67.7684C5.8322 64.0456 7.89999 60.7198 10.9422 58.4719C12.6254 57.2313 14.5523 56.3612 16.5961 55.9189C18.6398 55.4767 20.7541 55.4723 22.7996 55.9061C24.8452 56.3399 26.7757 57.2019 28.4641 58.4356C30.1525 59.6692 31.5604 61.2465 32.5953 63.0635L51.9451 97.0405L82.3335 109.25L81.8593 118.528Z" fill="#79A3FF"/>
<path d="M189.904 49.3018C188.835 41.4607 187.494 33.0421 181.964 27.3818C180.209 25.5858 178.109 24.1637 175.789 23.2014C173.47 22.239 170.98 21.7563 168.469 21.7822C165.958 21.8082 163.479 22.3424 161.18 23.3526C158.881 24.3627 156.811 25.828 155.093 27.6599C151.068 31.9546 149.29 37.985 149.127 43.8693C148.964 49.7535 150.275 55.5724 151.729 61.2766C159.422 61.4303 167.059 59.9271 174.12 56.8692C175.886 56.1028 177.624 55.2363 179.489 54.7615C181.355 54.2867 182.684 55.4815 184.42 56.3147L185.372 54.4907C186.152 55.9419 188.567 55.5117 189.443 54.1164C190.318 52.721 190.126 50.9341 189.904 49.3018Z" fill="#2F2E41"/>
<path d="M159.406 93.0678L127.979 93.7399C127.496 92.9056 126.782 92.2296 125.922 91.7941C125.062 91.3586 124.094 91.1823 123.136 91.2869C122.178 91.3914 121.271 91.7721 120.525 92.3827C119.779 92.9934 119.227 93.8075 118.936 94.7262C118.644 95.645 118.626 96.6285 118.884 97.5573C119.141 98.4861 119.663 99.3201 120.386 99.9577C121.108 100.595 122.001 101.009 122.955 101.149C123.908 101.289 124.882 101.148 125.757 100.744C129.925 100.981 162.535 105.61 164.48 102.627C166.455 99.5995 176.995 88.9154 176.995 88.9154L168.893 77.3818L159.406 93.0678Z" fill="#9E616A"/>
<path d="M167.065 57.0598C175.219 57.0598 181.83 50.4489 181.83 42.294C181.83 34.1392 175.219 27.5283 167.065 27.5283C158.91 27.5283 152.299 34.1392 152.299 42.294C152.299 50.4489 158.91 57.0598 167.065 57.0598Z" fill="#9E616A"/>
<path d="M190.714 70.7047C188.974 67.2416 188.129 62.9634 184.419 61.8407C181.914 61.0825 171.782 62.2187 169.499 63.4985C165.701 65.6272 169.143 69.6163 166.902 73.3492C164.467 77.4073 157.848 85.5511 155.412 89.6092C153.738 92.3989 159.378 100.588 158.472 103.713C157.567 106.838 157.524 110.346 159.066 113.211C160.446 115.775 158.449 118.043 159.837 120.603C161.281 123.266 163.052 133.22 161.709 135.935L160.809 138.633C169.736 139.158 177.241 128.494 186.112 127.37C188.315 127.091 190.603 126.727 192.419 125.448C195.093 123.564 196.151 120.146 196.811 116.942C199.992 101.281 197.845 85.006 190.714 70.7047Z" fill="#79A3FF"/>
<path d="M204.098 107.271C202.855 103.877 200.604 89.0391 200.604 89.0391L186.515 88.626L193.403 105.614L174.607 131.927C174.607 131.927 174.642 131.985 174.706 132.088C173.717 131.929 172.704 132.072 171.799 132.499C170.894 132.926 170.138 133.616 169.631 134.479C169.125 135.342 168.89 136.338 168.959 137.337C169.028 138.335 169.396 139.29 170.016 140.075C170.636 140.861 171.479 141.441 172.434 141.74C173.389 142.038 174.413 142.042 175.37 141.75C176.327 141.457 177.174 140.883 177.799 140.101C178.424 139.32 178.799 138.368 178.875 137.37C178.944 137.41 179.025 137.424 179.103 137.41C179.182 137.397 179.254 137.357 179.306 137.296C181.397 134.672 205.341 110.665 204.098 107.271Z" fill="#9E616A"/>
<path d="M205.53 97.9001C204.237 92.4423 202.934 86.9549 200.754 81.7871C198.574 76.6192 195.453 71.7381 191.063 68.2468C189.66 67.1306 188.091 66.1454 186.331 65.7984C184.572 65.4513 182.589 65.8397 181.354 67.1392C179.377 69.2188 179.972 72.5567 180.697 75.3329C182.835 83.5188 184.973 91.7046 187.112 99.8905C193.286 99.236 199.461 98.5814 205.636 97.9269L205.53 97.9001Z" fill="#79A3FF"/>
<path d="M185.158 44.3422C184.614 40.7702 184.046 37.1683 182.768 33.8049C181.491 30.4415 179.432 27.2912 176.478 25.3859C171.801 22.3693 165.746 22.9511 160.502 24.6863C156.447 26.0283 152.488 28.0679 149.629 31.347C146.769 34.6261 145.163 39.305 146.227 43.5925C151.82 42.271 157.413 40.9494 163.007 39.6279L162.394 40.0606C164.231 40.9764 165.835 42.2985 167.084 43.9267C168.333 45.5549 169.195 47.4463 169.604 49.4573C170.004 51.4928 169.947 53.5917 169.436 55.6023C168.926 57.6129 167.974 59.4848 166.652 61.0826C170.466 59.7294 174.281 58.3761 178.096 57.0229C180.45 56.1877 182.97 55.2253 184.367 53.0828C185.985 50.5988 185.609 47.3065 185.158 44.3422Z" fill="#2F2E41"/>
</g>
<defs>
<clipPath id="clip0_1_28615">
<rect width="244" height="290" fill="white"/>
</clipPath>
</defs>
</svg>
