<svg width="436" height="290" viewBox="0 0 436 290" fill="none" xmlns="http://www.w3.org/2000/svg">
<path d="M128.032 70.9113L62.9556 114.443L127.056 210.267L192.132 166.735L128.032 70.9113Z" fill="#F5F5F5"/>
<path d="M158.504 162.203L157.767 166.774L125.415 162.11L126.151 157.54L158.504 162.203Z" fill="#E0E0E0"/>
<path d="M142.211 145.899L146.851 146.566L141.707 178.42L137.061 177.747L142.211 145.899Z" fill="#E0E0E0"/>
<path d="M112.44 105.415C112.486 105.479 105.967 109.927 97.8763 115.333C89.7853 120.738 83.1907 125.077 83.1443 125.007C83.0979 124.938 89.6171 120.495 97.7081 115.083C105.799 109.672 112.365 105.345 112.44 105.415Z" fill="#E0E0E0"/>
<path d="M136.348 99.4067C136.394 99.4763 125.548 106.808 112.127 115.786C98.7056 124.764 87.7668 131.985 87.732 131.922C87.6972 131.858 98.52 124.515 111.959 115.537C125.397 106.558 136.301 99.3371 136.348 99.4067Z" fill="#E0E0E0"/>
<path d="M141.144 106.576C141.19 106.645 130.344 113.982 116.923 122.961C103.502 131.939 92.5632 139.16 92.5284 139.09C92.4936 139.021 103.328 131.69 116.755 122.705C130.182 113.721 141.098 106.506 141.144 106.576Z" fill="#E0E0E0"/>
<path d="M145.941 113.75C145.987 113.819 135.141 121.156 121.72 130.129C108.299 139.101 97.3599 146.334 97.3599 146.264C97.3599 146.195 108.154 138.858 121.581 129.879C135.008 120.901 145.894 113.68 145.941 113.75Z" fill="#E0E0E0"/>
<path d="M150.72 120.924C150.766 120.994 139.92 128.325 126.499 137.304C113.078 146.282 102.139 153.503 102.11 153.433C102.081 153.364 112.921 146.033 126.36 137.054C139.798 128.076 150.72 120.855 150.72 120.924Z" fill="#E0E0E0"/>
<path d="M345.64 135.12L290.986 171.68L344.818 252.154L399.472 215.594L345.64 135.12Z" fill="#F5F5F5"/>
<path d="M371.236 211.805L370.615 215.644L343.442 211.729L344.069 207.89L371.236 211.805Z" fill="#E0E0E0"/>
<path d="M357.554 198.111L361.451 198.674L357.13 225.424L353.227 224.861L357.554 198.111Z" fill="#E0E0E0"/>
<path d="M332.527 164.141C332.573 164.21 327.104 167.951 320.306 172.493C313.508 177.034 307.964 180.665 307.917 180.613C307.871 180.56 313.346 176.808 320.138 172.261C326.93 167.713 332.48 164.042 332.527 164.141Z" fill="#E0E0E0"/>
<path d="M352.624 159.065C352.67 159.135 343.57 165.306 332.324 172.84C321.077 180.374 311.873 186.441 311.826 186.371C311.78 186.302 320.88 180.131 332.126 172.591C343.373 165.051 352.56 158.995 352.624 159.065Z" fill="#E0E0E0"/>
<path d="M356.655 165.085C356.701 165.155 347.601 171.326 336.355 178.866C325.109 186.406 315.904 192.461 315.858 192.392C315.811 192.322 324.882 186.18 336.158 178.64C347.433 171.1 356.62 165.022 356.655 165.085Z" fill="#E0E0E0"/>
<path d="M360.68 171.1C360.726 171.17 351.62 177.341 340.38 184.881C329.139 192.421 319.929 198.476 319.883 198.406C319.836 198.337 328.936 192.171 340.183 184.626C351.429 177.08 360.639 171.042 360.68 171.1Z" fill="#E0E0E0"/>
<path d="M364.74 177.138C364.786 177.208 355.686 183.373 344.44 190.913C333.194 198.453 323.989 204.508 323.943 204.445C323.896 204.381 332.996 198.204 344.243 190.664C355.489 183.124 364.664 177.069 364.74 177.138Z" fill="#E0E0E0"/>
<path d="M259.175 74.4372L199.541 42.542L152.576 130.352L212.21 162.247L259.175 74.4372Z" fill="#F5F5F5"/>
<path d="M202.004 134.775L198.222 136.068L188.617 109.522L192.405 108.223L202.004 134.775Z" fill="#E0E0E0"/>
<path d="M207.803 115.728L209.184 119.538L182.817 128.569L181.437 124.758L207.803 115.728Z" fill="#E0E0E0"/>
<path d="M226.537 76.5599C226.491 76.6469 220.447 73.5033 213.029 69.5419C205.611 65.5805 199.643 62.2919 199.689 62.2049C199.736 62.1179 205.785 65.2615 213.203 69.2229C220.621 73.1843 226.584 76.4671 226.537 76.5599Z" fill="#E0E0E0"/>
<path d="M240.852 92.3538C240.805 92.4408 230.795 87.1744 218.493 80.5972C206.191 74.02 196.261 68.6144 196.308 68.5274C196.354 68.4404 206.359 73.701 218.661 80.284C230.963 86.867 240.898 92.2668 240.852 92.3538Z" fill="#E0E0E0"/>
<path d="M237.337 98.9251C237.291 99.0121 227.28 93.7515 214.978 87.1685C202.676 80.5855 192.747 75.1857 192.793 75.0987C192.84 75.0117 202.845 80.2781 215.146 86.8553C227.448 93.4325 237.384 98.8381 237.337 98.9251Z" fill="#E0E0E0"/>
<path d="M233.822 105.497C233.776 105.584 223.765 100.323 211.463 93.7461C199.162 87.1689 189.232 81.7807 189.278 81.6763C189.325 81.5719 199.33 86.8499 211.632 93.4271C223.933 100.004 233.869 105.41 233.822 105.497Z" fill="#E0E0E0"/>
<path d="M230.307 112.068C230.261 112.155 220.25 106.894 207.948 100.317C195.647 93.7398 185.711 88.3342 185.763 88.2472C185.816 88.1602 195.815 93.4208 208.117 99.998C220.418 106.575 230.354 111.981 230.307 112.068Z" fill="#E0E0E0"/>
<path d="M385.428 255.101C385.428 255.182 310.464 255.252 218.006 255.252C125.548 255.252 50.5713 255.2 50.5713 255.101C50.5713 255.002 125.525 254.95 218.006 254.95C310.487 254.95 385.428 255.014 385.428 255.101Z" fill="#263238"/>
<path d="M69.1082 218.776C70.0888 218.847 71.0451 219.115 71.92 219.563C72.795 220.011 73.5706 220.632 74.2006 221.386C75.4533 222.905 76.3403 224.691 76.7932 226.606C77.7734 230.272 77.1702 234.605 76.1262 238.253C72.159 236.832 69.7056 232.598 68.5862 230.371C66.8462 226.856 65.808 219.432 69.0908 218.771" fill="#0B3B95"/>
<path d="M81.8392 242.701C81.2435 241.777 80.9028 240.712 80.8519 239.614C80.801 238.516 81.0416 237.424 81.5492 236.449C82.0728 235.483 82.7835 234.631 83.64 233.943C84.4964 233.255 85.4813 232.744 86.5372 232.441C87.5058 232.139 88.631 232.018 89.472 232.58C89.8511 232.867 90.1464 233.25 90.327 233.69C90.5075 234.13 90.5668 234.61 90.4986 235.08C90.3464 236.022 89.946 236.907 89.3386 237.644C87.4072 240.259 85.064 242.434 81.7986 242.701" fill="#0B3B95"/>
<path d="M82.2803 254.957C82.1942 254.71 82.1339 254.456 82.1005 254.197C81.9961 253.652 81.8569 252.95 81.6887 252.109C81.168 249.806 81.0231 247.434 81.2595 245.085C81.5329 242.725 82.432 240.48 83.8637 238.583C84.3011 238.016 84.8055 237.504 85.3659 237.058C85.5181 236.937 85.6769 236.825 85.8415 236.722C85.8938 236.678 85.9525 236.643 86.0155 236.617C85.2818 237.244 84.6116 237.941 84.0145 238.699C82.6583 240.598 81.8043 242.809 81.5321 245.126C81.1609 247.829 81.6191 250.305 81.8859 252.086C82.0251 252.973 82.1411 253.692 82.2049 254.191C82.2506 254.444 82.2758 254.7 82.2803 254.957Z" fill="#263238"/>
<path d="M70.3843 224.361C70.4505 224.453 70.5051 224.552 70.5467 224.657C70.6511 224.889 70.7903 225.179 70.9527 225.545C71.3065 226.316 71.7995 227.435 72.3969 228.822C73.5917 231.6 75.1925 235.463 76.8629 239.766C78.5333 244.07 79.9543 247.996 80.9229 250.856C81.4217 252.283 81.8103 253.443 82.0829 254.249C82.2047 254.632 82.2975 254.939 82.3729 255.177C82.4143 255.283 82.4435 255.394 82.4599 255.507C82.4011 255.409 82.3543 255.304 82.3207 255.194C82.2337 254.962 82.1235 254.661 81.9785 254.284L80.7547 250.92C79.7165 248.083 78.2665 244.163 76.6019 239.865C74.9373 235.567 73.3597 231.693 72.2113 228.897C71.6313 227.522 71.1847 226.403 70.8541 225.585C70.7033 225.214 70.5815 224.918 70.4887 224.68C70.4451 224.577 70.4102 224.47 70.3843 224.361Z" fill="#263238"/>
<path d="M77.5648 246.849C76.3713 244.862 74.7221 243.187 72.7534 241.964C70.7848 240.741 68.5532 240.003 66.2432 239.813C65.0832 239.732 63.6564 239.929 63.1344 240.973C62.6124 242.017 63.3084 243.293 64.1088 244.14C65.8094 245.919 67.9986 247.155 70.4004 247.692C72.8023 248.228 75.3093 248.042 77.6054 247.156" fill="#0B3B95"/>
<path d="M68.0298 242.956C68.2757 242.944 68.5222 242.954 68.7664 242.985C69.0524 243.001 69.3371 243.034 69.619 243.084C69.9496 243.148 70.3382 243.182 70.7442 243.298C71.198 243.394 71.6455 243.518 72.084 243.67C72.5921 243.833 73.0898 244.027 73.5746 244.25C74.6896 244.749 75.7443 245.374 76.7182 246.111C77.6809 246.867 78.5528 247.731 79.3166 248.687C79.6464 249.103 79.9505 249.539 80.2272 249.992C80.4773 250.383 80.7058 250.788 80.9116 251.204C81.0859 251.543 81.2408 251.891 81.3756 252.248C81.4919 252.512 81.5907 252.783 81.6714 253.06C81.7573 253.291 81.8214 253.53 81.8628 253.773C81.799 253.773 81.5206 252.776 80.7376 251.291C80.5244 250.892 80.2901 250.505 80.0358 250.131C79.7532 249.691 79.4473 249.267 79.1194 248.861C77.6024 246.986 75.6677 245.492 73.4702 244.499C72.9656 244.279 72.4842 244.07 72.0144 243.919C71.5831 243.762 71.1436 243.628 70.6978 243.519C69.0738 243.072 68.024 243.02 68.0298 242.956Z" fill="#263238"/>
<path d="M173.92 136.034L153.388 241.478L150.72 255.282L287.6 254.621C293.748 254.592 299.2 249.134 301.166 241.025L325.445 141.48C326.947 135.326 323.653 128.923 318.99 128.929L180.416 129.074C177.4 129.068 174.697 131.922 173.92 136.034Z" fill="#88B9F4"/>
<g opacity="0.5">
<path d="M173.92 136.034L153.388 241.478L150.72 255.282L287.6 254.621C293.748 254.592 299.2 249.134 301.166 241.025L325.445 141.48C326.947 135.326 323.653 128.923 318.99 128.929L180.416 129.074C177.4 129.068 174.697 131.922 173.92 136.034Z" fill="black"/>
</g>
<path d="M274.486 234.32L259.986 117.503C259.406 112.718 255.584 109.145 251.078 109.162L219.294 109.261C218.112 109.274 216.946 109.528 215.866 110.006C214.787 110.485 213.815 111.179 213.012 112.045L197.932 128.093L109.54 128.569C104.14 128.598 99.9876 133.714 100.701 139.456L114.163 247.423C114.743 252.202 118.565 255.769 123.06 255.763L277.137 255.456C294.293 255.809 295.935 250.746 295.935 250.746C276.238 255.102 274.486 234.349 274.486 234.32Z" fill="#88B9F4"/>
<g opacity="0.5">
<path d="M208.047 210.958L202.851 216.537L162.831 180.531L168.027 174.951L208.047 210.958Z" fill="white"/>
<path d="M200.676 173.716L206.418 178.884L170.208 217.773L164.46 212.605L200.676 173.716Z" fill="white"/>
</g>
<path d="M297.893 86.7189C297.615 86.6018 297.376 86.4081 297.205 86.1604C297.033 85.9127 296.935 85.6213 296.923 85.3201L296.58 77.3564C296.568 77.1089 296.613 76.862 296.713 76.6353C296.813 76.4085 296.964 76.2081 297.155 76.0499C297.346 75.8917 297.571 75.7801 297.812 75.7238C298.053 75.6676 298.304 75.6683 298.545 75.7259C299.21 75.8692 299.896 75.8754 300.563 75.7441C301.23 75.6128 301.863 75.3467 302.424 74.9621C302.94 74.6354 303.384 74.2065 303.728 73.7017C304.072 73.1969 304.308 72.627 304.424 72.0272C304.501 71.4198 304.456 70.803 304.291 70.2134C304.126 69.6237 303.844 69.0732 303.462 68.5945C303.06 68.0499 302.555 67.5899 301.974 67.2409C301.394 66.8919 300.751 66.6608 300.081 66.5607C298.731 66.4856 297.395 66.8684 296.289 67.6471C295.183 68.4258 294.373 69.5548 293.988 70.8515C293.86 71.2444 293.585 71.5727 293.221 71.768C292.857 71.9633 292.431 72.0106 292.033 71.9C291.635 71.7893 291.295 71.5294 291.084 71.1742C290.872 70.8191 290.806 70.3961 290.899 69.9933C291.483 67.9539 292.751 66.1776 294.49 64.9633C296.23 63.7489 298.334 63.1706 300.45 63.3254C301.551 63.4721 302.612 63.8387 303.569 64.4033C304.525 64.9679 305.359 65.7191 306.02 66.6122C306.662 67.4399 307.133 68.3882 307.402 69.4008C307.672 70.4135 307.736 71.47 307.59 72.5078C307.395 73.544 306.99 74.5294 306.4 75.4031C305.809 76.2769 305.046 77.0204 304.157 77.5881C302.87 78.4549 301.366 78.9452 299.815 79.004L300.081 85.1485C300.091 85.4184 300.033 85.6865 299.912 85.9279C299.79 86.1693 299.61 86.3762 299.388 86.5294C299.165 86.6826 298.907 86.7771 298.639 86.8043C298.37 86.8314 298.099 86.7902 297.85 86.6846L297.893 86.7189Z" fill="#0B3B95"/>
<path d="M300.244 89.98C300.262 90.2392 300.203 90.4979 300.074 90.7234C299.945 90.9488 299.752 91.131 299.519 91.2468C299.287 91.3626 299.025 91.4067 298.767 91.3737C298.51 91.3407 298.268 91.232 298.072 91.0614C297.876 90.8907 297.735 90.6658 297.667 90.4151C297.599 90.1644 297.607 89.8991 297.69 89.6529C297.772 89.4066 297.926 89.1905 298.132 89.0318C298.338 88.8731 298.586 88.779 298.845 88.7614C299.017 88.7486 299.19 88.77 299.354 88.8245C299.517 88.8789 299.669 88.9653 299.799 89.0787C299.929 89.192 300.035 89.33 300.112 89.4848C300.188 89.6395 300.233 89.8078 300.244 89.98Z" fill="#0B3B95"/>
<path d="M270.32 75.4859C270.357 75.3161 270.383 75.1441 270.398 74.971C270.398 74.5934 270.492 74.1128 270.561 73.4349C270.645 72.6025 270.786 71.7768 270.981 70.9634C271.093 70.4828 271.153 69.9507 271.324 69.4101C271.496 68.8694 271.668 68.2859 271.856 67.6938C272.85 64.7599 274.298 62.0003 276.147 59.5155C278.571 56.2979 281.644 53.6257 285.167 51.6719C287.172 50.5414 289.307 49.6596 291.525 49.0459C293.92 48.4113 296.386 48.0882 298.863 48.0848C300.168 48.0638 301.472 48.1326 302.767 48.2907C303.428 48.3594 304.08 48.531 304.741 48.6426C305.409 48.757 306.069 48.9176 306.715 49.1232C309.42 49.879 311.993 51.0454 314.344 52.5815C319.572 55.9724 323.554 60.9727 325.689 66.827C326.838 69.9629 327.42 73.2787 327.405 76.6186C327.441 80.0594 326.832 83.4764 325.612 86.6935L325.225 87.6718L325.174 87.8005L325.225 87.9292C327.379 92.8808 329.516 97.7466 331.533 102.458L331.893 102.046L319.021 97.1115L318.867 97.0515L318.738 97.1716C315.333 100.471 311.164 102.877 306.603 104.174C302.707 105.247 298.627 105.481 294.633 104.861C290.639 104.242 286.821 102.782 283.433 100.579C280.658 98.7585 278.212 96.4807 276.199 93.8419C273.282 89.9904 271.392 85.4604 270.707 80.6777C270.604 79.8196 270.518 79.0987 270.44 78.4465C270.363 77.7943 270.44 77.2623 270.398 76.8074C270.355 76.3526 270.398 76.0523 270.398 75.8034C270.44 75.7969 270.479 75.7745 270.506 75.7406C270.533 75.7068 270.546 75.664 270.543 75.6208C270.54 75.5776 270.52 75.5373 270.489 75.5079C270.457 75.4784 270.415 75.4621 270.372 75.4621C270.329 75.4621 270.287 75.4784 270.255 75.5079C270.223 75.5373 270.204 75.5776 270.201 75.6208C270.197 75.664 270.211 75.7068 270.238 75.7406C270.265 75.7745 270.303 75.7969 270.346 75.8034C270.346 76.0523 270.346 76.3869 270.346 76.8074C270.346 77.2279 270.346 77.8115 270.346 78.4637C270.346 79.1159 270.492 79.8625 270.578 80.7121C270.86 82.7762 271.352 84.8062 272.045 86.7707C273.028 89.365 274.349 91.8178 275.976 94.0651C277.997 96.7508 280.46 99.0725 283.261 100.93C286.692 103.189 290.563 104.692 294.618 105.34C298.674 105.988 302.82 105.766 306.784 104.689C311.399 103.378 315.62 100.949 319.072 97.6179L318.789 97.6779L331.662 102.638L332.305 102.887L332.022 102.226C329.98 97.5149 327.869 92.6577 325.723 87.6975V87.9464L326.118 86.9423C327.37 83.6551 327.993 80.1618 327.954 76.6444C327.981 73.2335 327.4 69.8451 326.238 66.6382C324.057 60.6673 319.987 55.5718 314.644 52.1267C312.234 50.5548 309.594 49.3677 306.818 48.6083C306.161 48.4005 305.49 48.2427 304.81 48.1363C304.14 48.0161 303.48 47.8445 302.81 47.7844C301.498 47.6215 300.176 47.547 298.854 47.5613C296.338 47.572 293.833 47.9124 291.405 48.5739C289.157 49.2123 286.994 50.1169 284.961 51.2686C281.403 53.2703 278.311 56.0053 275.89 59.2924C274.046 61.8183 272.618 64.6227 271.659 67.5994C271.479 68.2172 271.307 68.8094 271.153 69.3157C271.016 69.833 270.907 70.3572 270.827 70.8861C270.643 71.7052 270.522 72.5372 270.466 73.3748C270.415 74.0356 270.38 74.5419 270.355 74.9195C270.319 75.106 270.307 75.2964 270.32 75.4859Z" fill="#263238"/>
</svg>
