<svg width="246" height="240" viewBox="0 0 246 240" fill="none" xmlns="http://www.w3.org/2000/svg">
<path d="M156.154 53.9747H89.902C88.3923 53.9765 86.9449 54.5771 85.8773 55.6446C84.8097 56.7122 84.2092 58.1596 84.2073 59.6694V206.916L83.448 207.147L67.1953 212.124C66.425 212.359 65.5931 212.279 64.882 211.901C64.171 211.523 63.6389 210.878 63.4027 210.108L15.0583 52.1941C14.823 51.4239 14.9032 50.5917 15.2812 49.8805C15.6593 49.1693 16.3042 48.6373 17.0743 48.4015L42.1197 40.7326L114.727 18.508L139.772 10.8391C140.154 10.7218 140.554 10.6808 140.951 10.7185C141.348 10.7562 141.734 10.8718 142.086 11.0587C142.438 11.2456 142.75 11.5001 143.004 11.8077C143.258 12.1153 143.449 12.4699 143.565 12.8513L155.923 53.2154L156.154 53.9747Z" fill="#F2F2F2"/>
<path d="M170.612 53.2152L155.718 4.56723C155.47 3.75666 155.065 3.00287 154.526 2.34892C153.987 1.69496 153.324 1.15368 152.576 0.755979C151.827 0.358282 151.007 0.111969 150.164 0.0311233C149.32 -0.0497221 148.469 0.0364846 147.658 0.284809L112.446 11.063L39.8423 33.2914L4.63001 44.0733C2.99423 44.5756 1.62457 45.7064 0.821671 47.2175C0.0187694 48.7286 -0.151778 50.4965 0.347471 52.1333L51.2506 218.392C51.6562 219.713 52.4745 220.87 53.5855 221.692C54.6966 222.514 56.0418 222.958 57.4238 222.959C58.0634 222.96 58.6995 222.864 59.3105 222.675L83.4485 215.287L84.2078 215.051V214.258L83.4485 214.489L59.0866 221.95C57.6427 222.39 56.0832 222.239 54.7502 221.531C53.4171 220.823 52.4194 219.615 51.9758 218.172L1.07655 51.9093C0.856767 51.1944 0.780168 50.4431 0.851134 49.6986C0.922099 48.954 1.13923 48.2308 1.49011 47.5702C1.84099 46.9097 2.31872 46.3249 2.89593 45.8493C3.47315 45.3737 4.13851 45.0166 4.85393 44.7985L40.0662 34.0165L112.67 11.7919L147.882 1.00994C148.425 0.84434 148.989 0.759902 149.556 0.759374C150.774 0.762107 151.959 1.15465 152.937 1.87949C153.915 2.60434 154.636 3.62341 154.993 4.78743L169.818 53.2153L170.054 53.9745H170.843L170.612 53.2152Z" fill="#3F3D56"/>
<path d="M46.6391 48.5255C45.9074 48.525 45.1951 48.29 44.6067 47.855C44.0183 47.42 43.5848 46.8079 43.3699 46.1084L38.4799 30.136C38.3484 29.7069 38.3029 29.2562 38.3457 28.8095C38.3885 28.3629 38.5189 27.929 38.7294 27.5327C38.9399 27.1365 39.2264 26.7856 39.5726 26.5C39.9187 26.2145 40.3177 26 40.7468 25.8687L107.542 5.41943C108.408 5.15501 109.344 5.24519 110.144 5.67017C110.944 6.09514 111.543 6.8202 111.809 7.68619L116.699 23.6588C116.963 24.5253 116.873 25.4612 116.448 26.2613C116.023 27.0613 115.298 27.6601 114.432 27.9263L47.6374 48.3756C47.3139 48.4748 46.9775 48.5254 46.6391 48.5255Z" fill="#0B3B95"/>
<path d="M72.2551 17.0658C76.4485 17.0658 79.848 13.6663 79.848 9.47283C79.848 5.27936 76.4485 1.87988 72.2551 1.87988C68.0616 1.87988 64.6621 5.27936 64.6621 9.47283C64.6621 13.6663 68.0616 17.0658 72.2551 17.0658Z" fill="#0B3B95"/>
<path d="M72.2556 14.2809C74.911 14.2809 77.0637 12.1282 77.0637 9.47276C77.0637 6.81733 74.911 4.66467 72.2556 4.66467C69.6002 4.66467 67.4475 6.81733 67.4475 9.47276C67.4475 12.1282 69.6002 14.2809 72.2556 14.2809Z" fill="white"/>
<path d="M228.852 221.02H100.532C99.6761 221.019 98.8559 220.678 98.2509 220.073C97.646 219.468 97.3057 218.648 97.3047 217.793V64.0354C97.3056 63.1798 97.6459 62.3595 98.2509 61.7546C98.8559 61.1496 99.6761 60.8093 100.532 60.8083H228.852C229.708 60.8093 230.528 61.1496 231.133 61.7546C231.738 62.3596 232.079 63.1798 232.079 64.0354V217.793C232.078 218.648 231.738 219.468 231.133 220.073C230.528 220.678 229.708 221.018 228.852 221.02Z" fill="#E6E6E6"/>
<path d="M169.819 53.2151H89.9032C88.1923 53.2175 86.5521 53.8983 85.3422 55.1081C84.1324 56.3179 83.4516 57.9581 83.4492 59.6691V214.489L84.2085 214.258V59.6691C84.2103 58.1593 84.8109 56.7119 85.8785 55.6444C86.9461 54.5768 88.3935 53.9762 89.9032 53.9744H170.054L169.819 53.2151ZM239.484 53.2151H89.9032C88.1923 53.2175 86.5521 53.8983 85.3422 55.1081C84.1324 56.3179 83.4516 57.9581 83.4492 59.6691V233.548C83.4516 235.259 84.1324 236.899 85.3422 238.109C86.5521 239.318 88.1923 239.999 89.9032 240.002H239.484C241.195 239.999 242.835 239.318 244.045 238.109C245.255 236.899 245.936 235.259 245.938 233.548V59.6691C245.936 57.9581 245.255 56.3179 244.045 55.1081C242.835 53.8983 241.195 53.2175 239.484 53.2151ZM245.179 233.548C245.177 235.057 244.577 236.505 243.509 237.572C242.441 238.64 240.994 239.24 239.484 239.242H89.9032C88.3935 239.24 86.9461 238.64 85.8785 237.572C84.8109 236.505 84.2103 235.057 84.2085 233.548V59.6691C84.2103 58.1593 84.8109 56.7119 85.8785 55.6444C86.9461 54.5768 88.3935 53.9762 89.9032 53.9744H239.484C240.994 53.9762 242.441 54.5768 243.509 55.6444C244.577 56.7119 245.177 58.1593 245.179 59.6691V233.548Z" fill="#3F3D56"/>
<path d="M199.621 69.92H129.766C128.86 69.9189 127.992 69.5586 127.351 68.9181C126.711 68.2775 126.35 67.409 126.349 66.5031V49.7987C126.35 48.8928 126.711 48.0243 127.351 47.3837C127.992 46.7432 128.86 46.3829 129.766 46.3818H199.621C200.527 46.3829 201.396 46.7432 202.036 47.3837C202.677 48.0243 203.037 48.8928 203.038 49.7987V66.5031C203.037 67.409 202.677 68.2775 202.036 68.9181C201.396 69.5586 200.527 69.9189 199.621 69.92Z" fill="#0B3B95"/>
<path d="M164.695 47.5209C168.888 47.5209 172.287 44.1214 172.287 39.9279C172.287 35.7344 168.888 32.335 164.695 32.335C160.501 32.335 157.102 35.7344 157.102 39.9279C157.102 44.1214 160.501 47.5209 164.695 47.5209Z" fill="#0B3B95"/>
<path d="M164.693 44.5526C167.247 44.5526 169.318 42.482 169.318 39.9278C169.318 37.3736 167.247 35.303 164.693 35.303C162.139 35.303 160.068 37.3736 160.068 39.9278C160.068 42.482 162.139 44.5526 164.693 44.5526Z" fill="white"/>
</svg>
