<svg width="292" height="290" viewBox="0 0 292 290" fill="none" xmlns="http://www.w3.org/2000/svg">
<path d="M143.121 265.942C143.039 265.942 142.969 255.554 142.969 242.742C142.969 229.93 143.039 219.542 143.121 219.542C143.203 219.542 143.273 229.93 143.273 242.742C143.273 255.554 143.203 265.942 143.121 265.942Z" fill="#E0E0E0"/>
<path d="M153.202 255.664H148.541V260.901H153.202V255.664Z" fill="#FAFAFA"/>
<path d="M47.5736 209.722C50.6804 208.133 54.3363 207.924 57.7819 208.492C59.6332 208.794 61.5604 209.345 62.8218 210.725C64.0832 212.106 64.3168 214.536 62.8744 215.725C62.01 216.432 60.8128 216.537 59.6916 216.525C56.9935 216.49 54.0034 216.021 51.8484 217.633C50.6162 218.555 49.7986 220.081 48.3444 220.533C46.8903 220.985 45.2843 220.133 44.5251 218.845C43.8227 217.502 43.6679 215.943 44.0929 214.489C44.2649 213.482 44.6684 212.528 45.272 211.702C45.8757 210.875 46.6633 210.197 47.5736 209.722Z" fill="#EBEBEB"/>
<path d="M40.4592 196.086C42.3572 198.778 46.048 197.89 47.7592 196.243C49.4703 194.596 50.1944 192.218 50.8485 189.95C52.3552 184.759 53.8678 179.313 52.7524 174.029C52.4838 172.427 51.7744 170.929 50.7025 169.702C50.1599 169.099 49.4681 168.648 48.6957 168.393C47.9234 168.137 47.0972 168.087 46.2992 168.246C44.4362 168.734 43.2799 170.566 42.4448 172.266C39.9825 177.346 38.6936 182.908 38.6721 188.546C38.6721 191.174 38.97 193.923 40.4592 196.086Z" fill="#EBEBEB"/>
<path d="M35.2503 199.95C37.3118 197.519 37.7031 193.981 36.7862 190.936C35.8694 187.891 33.7962 185.305 31.4076 183.188C28.5983 180.706 25.3294 178.791 21.7833 177.55C20.4089 176.999 18.9306 176.749 17.45 176.819C16.7114 176.861 15.9943 177.082 15.3612 177.462C14.7281 177.842 14.1981 178.37 13.8175 179C12.8014 180.92 13.7766 183.246 14.8278 185.148C16.679 188.495 18.7918 191.693 21.1467 194.712C23.0447 197.137 25.2347 199.532 28.1022 200.628C30.9696 201.724 33.9947 201.597 35.5248 199.607" fill="#EBEBEB"/>
<path d="M40.3311 236.698C40.4325 236.299 40.4913 235.891 40.5063 235.48C40.5939 234.587 40.699 233.467 40.8334 232.139C41.0008 230.496 41.2522 228.862 41.5867 227.244C42.0255 225.265 42.6251 223.326 43.3796 221.444C44.1196 219.574 45.1202 217.817 46.3522 216.224C47.3593 214.928 48.6414 213.869 50.1073 213.121C51.1042 212.633 52.1724 212.304 53.2726 212.146C53.6867 212.13 54.0978 212.07 54.499 211.967C54.0856 211.921 53.6684 211.921 53.255 211.967C52.1126 212.052 50.995 212.341 49.9554 212.819C48.4075 213.544 47.0501 214.617 45.9901 215.951C44.7007 217.565 43.6614 219.362 42.9066 221.281C42.153 223.186 41.5668 225.152 41.1546 227.157C40.8368 228.795 40.6165 230.451 40.4946 232.116C40.3895 233.537 40.3486 234.685 40.3311 235.48C40.2881 235.885 40.2881 236.293 40.3311 236.698Z" fill="#E0E0E0"/>
<path d="M40.5639 234.134C40.5985 233.943 40.6103 233.748 40.5989 233.554C40.5989 233.125 40.5989 232.585 40.5989 231.93C40.5989 230.521 40.5989 228.479 40.669 225.962C40.7975 220.927 41.253 215.522 42.0764 207.872C42.8765 200.685 43.9452 192.328 45.0782 186.893C45.3176 185.658 45.5629 184.544 45.7965 183.57C46.0301 182.595 46.1995 181.748 46.3805 181.07C46.5615 180.391 46.6608 179.91 46.7659 179.492C46.8231 179.304 46.8564 179.109 46.8652 178.912C46.7772 179.081 46.7106 179.26 46.6667 179.446C46.5382 179.858 46.3805 180.368 46.1878 181C45.9951 181.632 45.7615 182.514 45.5162 183.483C45.2709 184.451 44.9906 185.565 44.7278 186.8C43.3249 193.228 42.2702 199.725 41.5683 206.265C40.7274 213.921 40.3478 220.893 40.3127 225.938C40.3127 228.461 40.3127 230.509 40.4003 231.918C40.4412 232.574 40.4763 233.113 40.4996 233.537C40.4968 233.737 40.5183 233.938 40.5639 234.134Z" fill="#E0E0E0"/>
<path d="M40.6007 220.69C40.6452 220.124 40.6452 219.556 40.6007 218.991C40.5365 217.9 40.3846 216.328 40.0751 214.397C39.6931 212.139 39.1823 209.904 38.545 207.704C37.8085 204.996 36.8655 202.347 35.7243 199.781C33.7704 195.053 30.9662 190.717 27.449 186.986C26.8388 186.345 26.1872 185.745 25.4985 185.188C25.2006 184.933 24.9145 184.684 24.6692 184.486L23.945 183.97C23.4905 183.626 23.008 183.319 22.5025 183.054C22.4208 183.164 24.5407 184.405 27.2154 187.23C30.6177 190.996 33.3472 195.311 35.2863 199.99C36.4079 202.539 37.3542 205.161 38.1187 207.837C38.7609 210.017 39.293 212.228 39.713 214.461C40.0634 216.369 40.297 217.941 40.3905 219.008C40.4154 219.573 40.4857 220.136 40.6007 220.69Z" fill="#E0E0E0"/>
<path d="M26.6077 242.358L27.9625 260.82H51.8423L53.1972 242.358H26.6077Z" fill="#EBEBEB"/>
<path d="M56.0414 235.086H24.301V242.359H56.0414V235.086Z" fill="#EBEBEB"/>
<path d="M24.301 260.112V262.125H25.7961H55.5217V260.112H24.301Z" fill="#E0E0E0"/>
<path d="M27.2554 265.454L25.7954 261.904H54.3822L52.6769 265.454H27.2554Z" fill="#E0E0E0"/>
<path d="M52.7527 248.391C52.7229 248.453 52.6857 248.511 52.6418 248.565C52.5483 248.686 52.4257 248.843 52.2855 249.034L50.8956 250.774L50.8314 250.856L50.773 250.774L47.3566 246.082H47.5493L44.1855 250.809L44.0803 250.96L43.9635 250.821L39.9748 246.105H40.2026L39.9865 246.384L36.4183 250.821L36.2956 250.972L36.1905 250.815L32.8208 246.088H33.0194L28.873 250.774L28.8029 250.861L28.7445 250.763L27.448 248.628C27.3078 248.396 27.2027 248.205 27.1151 248.048C27.0711 247.984 27.0358 247.913 27.01 247.84C27.0647 247.895 27.1118 247.958 27.1502 248.025L27.5181 248.576L28.8788 250.705H28.7503L32.8383 245.96L32.9376 245.839L33.0311 245.966L36.4299 250.676H36.208L39.7646 246.227C39.8405 246.134 39.9164 246.042 39.9806 245.955L40.0975 245.81L40.2142 245.949L44.1913 250.676H43.9694L47.3682 245.972L47.4675 245.833L47.561 245.972C48.91 247.88 50.0546 249.498 50.9073 250.716H50.7846L52.233 248.976C52.3907 248.797 52.5191 248.652 52.6184 248.53C52.6597 248.48 52.7046 248.434 52.7527 248.391Z" fill="#F5F5F5"/>
<path d="M53.5288 242.237C53.5288 242.318 47.5428 242.388 40.1669 242.388C32.7909 242.388 26.8049 242.318 26.8049 242.237C26.8049 242.156 32.7851 242.092 40.1669 242.092C47.5486 242.092 53.5288 242.156 53.5288 242.237Z" fill="#F5F5F5"/>
<path d="M271.362 266.423C271.362 266.51 215.227 266.574 146.006 266.574C76.7844 266.574 20.6387 266.51 20.6387 266.423C20.6387 266.336 76.7611 266.272 146.006 266.272C215.251 266.272 271.362 266.342 271.362 266.423Z" fill="#263238"/>
<path d="M87.14 53.5635C89.894 56.9107 91.3853 61.1077 91.3565 65.4303C91.3273 67.8779 90.8718 70.5749 92.3084 72.5643C93.3946 74.0723 95.3802 74.8321 96.2621 76.4677C97.325 78.4339 96.4198 80.9221 97.0738 83.0565C97.9966 86.0841 101.571 87.3543 103.691 89.7149C104.594 90.7587 105.226 92.0067 105.532 93.3495C105.837 94.6923 105.807 96.089 105.443 97.4173C105.056 98.74 104.358 99.9521 103.405 100.953C102.452 101.954 101.273 102.714 99.9646 103.171C98.5678 103.718 97.0097 103.693 95.6314 103.101C94.2006 102.394 93.2954 100.938 92.5946 99.5169C91.1871 96.7213 78.8238 81.6123 78.123 78.5615" fill="#263238"/>
<path d="M78.146 50.002C73.0886 49.19 68.218 52.525 66.0981 57.1534C63.9782 61.7818 63.9081 67.0133 63.7621 72.1173C63.6161 77.2213 63.2423 82.511 60.6318 86.8842C58.9733 89.6623 56.4037 92.1041 56.0007 95.2999C55.6386 98.1651 57.1337 101.054 56.6373 103.901C56.2051 106.384 54.3013 108.541 54.3772 111.053C54.4706 114.08 57.6067 116.36 60.6494 116.441C63.692 116.522 66.5419 114.939 68.9305 113.06C72.8221 109.991 75.9361 106.06 78.0234 101.581" fill="#263238"/>
<path d="M69.824 61.9734C69.6651 60.71 69.7635 59.4277 70.1132 58.2027C70.4628 56.9777 71.0567 55.8349 71.8596 54.8422C72.6625 53.8495 73.658 53.0272 74.7871 52.4239C75.9161 51.8206 77.1557 51.4488 78.4322 51.3304C83.5305 50.8432 88.0682 54.619 88.8332 59.6534C89.5048 64.0672 90.0771 68.5216 90.0596 70.1398C89.9954 75.0176 87.1396 76.9142 85.9716 77.4884C85.5515 77.6382 85.1171 77.7451 84.6751 77.8074V77.8422L85.7614 83.445C86.2578 87.1164 84.1963 90.405 80.5054 90.9212C76.8145 91.4374 73.912 88.636 73.3455 84.9646L69.824 61.9734Z" fill="#FFBE9D"/>
<path d="M87.8291 61.7879C87.7473 61.9039 87.0991 61.5617 86.2698 61.6835C85.4405 61.8053 84.8857 62.3041 84.7806 62.2171C84.6755 62.1301 84.7806 61.9851 85.0376 61.7531C85.3569 61.4442 85.7651 61.2415 86.2056 61.1731C86.6377 61.1069 87.0799 61.1801 87.467 61.3819C87.759 61.5675 87.87 61.7415 87.8291 61.7879Z" fill="#263238"/>
<path d="M80.4346 63.574C80.3528 63.69 79.7046 63.342 78.8695 63.4638C78.0343 63.5856 77.4912 64.0902 77.3861 64.0032C77.281 63.9162 77.3861 63.7654 77.643 63.5392C77.9624 63.2302 78.3706 63.0275 78.811 62.9592C79.2438 62.898 79.6849 62.9731 80.0725 63.1738C80.3586 63.3536 80.4754 63.5218 80.4346 63.574Z" fill="#263238"/>
<path d="M83.4661 67.9996C83.8838 67.8001 84.3253 67.6539 84.7801 67.5646C84.9903 67.5124 85.183 67.4428 85.2006 67.292C85.1816 67.0801 85.1004 66.8784 84.967 66.712L84.0968 65.1692C82.8879 63.0116 81.9827 61.2252 82.0703 61.173C82.1579 61.1208 83.2383 62.8434 84.4063 65.001C84.7042 65.5346 84.9903 66.045 85.2473 66.5264C85.417 66.7623 85.4995 67.0491 85.4809 67.3384C85.4616 67.4176 85.4242 67.4912 85.3715 67.5536C85.3188 67.616 85.2523 67.6654 85.1772 67.698C85.0633 67.7475 84.9436 67.7826 84.821 67.8024C84.3799 67.9266 83.9244 67.9929 83.4661 67.9996Z" fill="#263238"/>
<path d="M84.6293 77.8131C84.6293 77.8131 81.4582 78.5381 77.0898 76.7227C77.0898 76.7227 78.9762 80.7537 84.9271 79.3211L84.6293 77.8131Z" fill="#EB996E"/>
<path d="M80.0086 61.4107C79.9619 61.6485 79.1151 61.6601 78.1574 61.9211C77.1996 62.1821 76.4462 62.5533 76.2886 62.3735C76.2185 62.2865 76.3236 62.0545 76.6097 61.7935C76.9951 61.4662 77.4503 61.2303 77.9411 61.1037C78.4318 60.977 78.9452 60.963 79.4422 61.0627C79.8276 61.1497 80.0086 61.3005 80.0086 61.4107Z" fill="#263238"/>
<path d="M87.1456 59.9606C87.0288 60.1694 86.4273 60.0592 85.7382 60.1462C85.0491 60.2332 84.4826 60.4594 84.3191 60.2796C84.249 60.1926 84.3191 59.9954 84.541 59.7808C84.8472 59.5112 85.2316 59.3447 85.6389 59.3052C86.0412 59.2571 86.4486 59.332 86.8069 59.5198C87.0872 59.6764 87.1982 59.8562 87.1456 59.9606Z" fill="#263238"/>
<path d="M78.6313 64.6414C78.6442 64.7311 78.6748 64.8174 78.7215 64.8953C78.7683 64.9732 78.8301 65.0411 78.9034 65.0951C78.9768 65.149 79.0602 65.188 79.1488 65.2097C79.2375 65.2313 79.3296 65.2353 79.4197 65.2214C79.5074 65.2113 79.5922 65.1841 79.6692 65.1412C79.7462 65.0983 79.8139 65.0407 79.8682 64.9716C79.9226 64.9025 79.9625 64.8234 79.9858 64.7388C80.0091 64.6542 80.0152 64.5659 80.0037 64.479C79.9763 64.2984 79.878 64.1359 79.7302 64.0272C79.5824 63.9185 79.3973 63.8724 79.2153 63.899C79.1273 63.9082 79.0421 63.935 78.9647 63.9776C78.8873 64.0203 78.8194 64.078 78.7649 64.1472C78.7104 64.2165 78.6705 64.2959 78.6476 64.3808C78.6246 64.4657 78.6191 64.5543 78.6313 64.6414Z" fill="#263238"/>
<path d="M85.9946 63.0584C86.022 63.239 86.1204 63.4014 86.2682 63.5101C86.4159 63.6188 86.6011 63.6649 86.783 63.6384C86.8707 63.6283 86.9555 63.6011 87.0325 63.5582C87.1095 63.5153 87.1772 63.4576 87.2315 63.3886C87.2858 63.3195 87.3258 63.2403 87.3491 63.1558C87.3723 63.0712 87.3784 62.9829 87.367 62.896C87.3396 62.7153 87.2413 62.5529 87.0935 62.4442C86.9457 62.3355 86.7606 62.2894 86.5786 62.316C86.4906 62.3252 86.4054 62.352 86.328 62.3946C86.2506 62.4373 86.1827 62.4949 86.1282 62.5642C86.0737 62.6335 86.0338 62.7129 86.0108 62.7978C85.9879 62.8827 85.9824 62.9713 85.9946 63.0584Z" fill="#263238"/>
<path d="M84.774 69.6008C84.5448 69.5299 84.2978 69.541 84.0759 69.6321C83.854 69.7233 83.6712 69.8886 83.5593 70.0996C83.4524 70.2933 83.409 70.5153 83.4352 70.7347C83.4613 70.9541 83.5558 71.1599 83.7053 71.3234C83.8645 71.4787 84.074 71.5727 84.2966 71.5886C84.5191 71.6046 84.7401 71.5414 84.92 71.4104C85.1453 71.2067 85.2815 70.9236 85.2996 70.6216C85.3393 70.3447 85.2726 70.0631 85.1128 69.8328C85.0307 69.7202 84.9136 69.6376 84.7795 69.5977C84.6454 69.5579 84.5019 69.5631 84.3711 69.6124" fill="#EB996E"/>
<path d="M88.185 55.6803C87.7265 53.8427 86.5827 52.2464 84.9846 51.2143C83.6766 50.2759 82.1228 49.734 80.5112 49.6541C78.8896 49.5847 77.3063 50.1562 76.1078 51.2433C75.2574 52.0805 74.771 53.2152 74.753 54.4043L74.8464 53.5923C74.601 54.253 74.601 54.979 74.8464 55.6397C74.9807 55.9935 75.1442 56.3531 75.2844 56.7069C75.7025 57.7293 76.478 58.5675 77.4686 59.0675C77.9171 59.3065 78.4196 59.4282 78.9286 59.4213C79.1834 59.4162 79.434 59.356 79.663 59.2448C79.8919 59.1336 80.0937 58.9741 80.2542 58.7775C80.6168 58.1488 80.7293 57.408 80.5696 56.7011C80.9528 57.3997 81.4996 57.9965 82.1639 58.4411C82.5031 58.6564 82.9065 58.7491 83.3064 58.7036C83.7063 58.6582 84.0783 58.4774 84.3598 58.1917C84.8386 57.6117 84.6518 56.6953 84.3598 55.9761C84.8116 56.6545 85.4445 57.1947 86.1877 57.5363C86.3832 57.6477 86.6 57.7176 86.8241 57.7416C87.0483 57.7655 87.275 57.743 87.49 57.6755C87.6619 57.5908 87.8121 57.4686 87.9295 57.3179C88.0468 57.1672 88.1282 56.992 88.1674 56.8055C88.2541 56.436 88.2601 56.0523 88.185 55.6803Z" fill="#263238"/>
<path d="M83.9626 57.2232C83.9101 57.2232 83.9217 56.533 83.694 55.4832C83.4313 54.0882 82.7251 52.8136 81.6792 51.8466C81.1043 51.3274 80.4108 50.9551 79.6585 50.762C79.0424 50.6118 78.4009 50.596 77.7781 50.7156C77.204 50.8488 76.6556 51.0741 76.1545 51.3826C76.1545 51.3826 76.2538 51.2376 76.5108 51.052C76.8796 50.7958 77.2936 50.6108 77.7313 50.5068C78.3863 50.3545 79.0678 50.3545 79.7228 50.5068C80.5298 50.7069 81.273 51.1058 81.8836 51.6668C82.9787 52.6737 83.6938 54.0225 83.9101 55.489C83.9796 55.9225 84.0147 56.3608 84.0152 56.7998C84.0224 56.9429 84.0046 57.0861 83.9626 57.2232Z" fill="#455A64"/>
<path d="M137.748 124.845L115.293 116C115.293 116 103.794 101.019 104.034 100.729L95.957 109.51L107.695 125.28L134.904 131.614L139.576 130.326C138.548 125.402 137.748 124.845 137.748 124.845Z" fill="#FFBE9D"/>
<path d="M88.8097 82.1053L85.7495 80.9453L72.5394 82.6099V84.9299L72.1598 84.9763C69.3122 85.5776 66.581 86.6313 64.0714 88.0967C61.7207 89.5219 59.8529 91.6128 58.7081 94.1006C57.5633 96.5884 57.1939 99.3594 57.6474 102.057C58.1847 105.375 59.2242 109.406 61.2332 111.738C65.0701 116.198 68.5741 110.688 68.5741 110.688C68.5741 110.688 70.9802 116.14 70.84 118.721C70.7232 120.884 69.7654 125.385 69.4559 126.789C69.4432 126.845 69.4421 126.903 69.4527 126.959C69.4634 127.016 69.4855 127.07 69.5177 127.117C69.55 127.165 69.5917 127.206 69.6403 127.237C69.6889 127.268 69.7434 127.289 69.8005 127.299L97.669 132.42L97.8033 125.652L96.9156 97.8117L95.66 87.0005C95.66 87.0005 95.7009 81.8385 88.8097 82.1053Z" fill="#88B9F4"/>
<path d="M95.2344 85.2021L105.863 100.45L97.3076 110.798L95.2344 85.2021Z" fill="#88B9F4"/>
<path d="M97.5286 117.288C97.4905 116.961 97.4768 116.631 97.4877 116.302C97.4877 115.617 97.4877 114.718 97.4527 113.622C97.401 110.68 97.1885 107.743 96.8161 104.824C96.3781 101.402 95.7065 98.345 95.1985 96.1236L94.5794 93.5136C94.4897 93.1979 94.4233 92.8761 94.3809 92.5508C94.5137 92.8521 94.6192 93.1646 94.6962 93.4846C94.8773 94.0646 95.1225 94.9752 95.4029 96.0772C96.1569 98.9389 96.7303 101.845 97.1198 104.777C97.4953 107.709 97.6786 110.661 97.6688 113.616C97.6688 114.776 97.6396 115.67 97.6045 116.302C97.6075 116.632 97.5821 116.962 97.5286 117.288Z" fill="#263238"/>
<path d="M71.3656 94.1054C71.3656 94.1518 70.5597 94.146 69.2691 94.2098C67.5851 94.3005 65.9102 94.5157 64.2584 94.8536C62.607 95.1978 60.983 95.6611 59.3995 96.2398C58.1848 96.6864 57.4548 97.017 57.4314 96.9706C57.5811 96.8541 57.7462 96.7584 57.922 96.6864C58.2432 96.5124 58.722 96.292 59.3236 96.0426C62.4748 94.7502 65.8426 94.0576 69.2516 94.001C69.9056 94.001 70.4196 94.001 70.7992 94.0358C70.9905 94.0297 71.1816 94.0531 71.3656 94.1054Z" fill="#FAFAFA"/>
<path d="M95.9812 101.082C95.5541 101.236 95.1084 101.334 94.6555 101.372C92.496 101.685 90.3082 101.759 88.1323 101.593C87.6778 101.585 87.2263 101.519 86.7891 101.396C87.2398 101.356 87.6932 101.356 88.1439 101.396C88.9732 101.396 90.1237 101.396 91.391 101.396C92.6583 101.396 93.8029 101.268 94.6322 101.193C95.0776 101.115 95.5291 101.078 95.9812 101.082Z" fill="#FAFAFA"/>
<path d="M100.857 94.1861C100.214 94.9248 99.4423 95.5435 98.5797 96.0131C97.7654 96.5598 96.8568 96.953 95.8992 97.1731C95.8641 97.0919 97.0672 96.5931 98.4221 95.7347C99.7769 94.8763 100.799 94.1165 100.857 94.1861Z" fill="#FAFAFA"/>
<path d="M96.5658 87.1165C94.7233 88.7626 92.3756 89.7435 89.9023 89.9005C89.9023 89.8077 91.5083 89.5641 93.3538 88.7811C95.1992 87.9981 96.5074 87.0411 96.5658 87.1165Z" fill="#FAFAFA"/>
<path d="M97.1441 112.891C96.9723 113.006 96.7882 113.101 96.5951 113.175C96.2272 113.349 95.6957 113.564 95.0183 113.813C93.2583 114.441 91.4414 114.9 89.5929 115.182C87.7446 115.465 85.8727 115.568 84.0041 115.489C83.2857 115.46 82.7076 115.408 82.3105 115.356C82.1025 115.342 81.8968 115.305 81.6973 115.246C81.6973 115.194 82.5849 115.246 84.0333 115.281C87.7463 115.315 91.4404 114.751 94.9716 113.61C96.3031 113.175 97.1265 112.845 97.1441 112.891Z" fill="#FAFAFA"/>
<path d="M97.3602 120.75C97.3602 120.75 97.2785 120.808 97.1091 120.895L96.3616 121.22C95.7192 121.521 94.7673 121.916 93.5759 122.38C92.3846 122.844 90.9421 123.29 89.3186 123.731C85.789 124.675 82.1662 125.233 78.5146 125.396C76.8326 125.46 75.3201 125.454 74.047 125.396C72.7738 125.338 71.7518 125.245 71.0452 125.146L70.2334 125.036C70.1378 125.029 70.0436 125.01 69.9531 124.978C70.0479 124.963 70.1445 124.963 70.2393 124.978L71.0569 125.03C71.7635 125.088 72.8089 125.146 74.0528 125.181C75.2967 125.216 76.8326 125.181 78.5029 125.123C80.1731 125.065 82.0069 124.856 83.9166 124.543C85.8262 124.23 87.625 123.853 89.2485 123.447C90.872 123.041 92.3086 122.583 93.5 122.159C94.6914 121.736 95.6608 121.382 96.3149 121.115L97.0741 120.82C97.1668 120.787 97.2627 120.763 97.3602 120.75Z" fill="#FAFAFA"/>
<path d="M46.1369 244.053L42.9775 258.222L37.2134 268.714C37.1154 268.893 37.0554 269.091 37.0372 269.294C37.019 269.497 37.0429 269.701 37.1075 269.895C37.1721 270.089 37.2759 270.267 37.4127 270.419C37.5494 270.571 37.7161 270.694 37.9025 270.779C38.1188 270.878 38.3558 270.923 38.5936 270.912C38.8314 270.901 39.063 270.834 39.2691 270.715C41.9438 269.184 51.7608 263.483 51.9302 262.433C52.1346 261.221 56.2635 247.707 56.2635 247.707L46.1369 244.053Z" fill="#88B9F4"/>
<g opacity="0.6">
<path d="M37.9026 270.779L52.1697 261.499L52.0179 262.079C51.893 262.597 51.5866 263.053 51.1535 263.367C49.9855 264.196 46.7327 266.423 39.3159 270.727C39.1029 270.851 38.8624 270.92 38.6158 270.929C38.3692 270.938 38.1242 270.887 37.9026 270.779Z" fill="white"/>
</g>
<g opacity="0.6">
<path d="M50.3772 256.227C50.1711 256.312 50.0041 256.47 49.9082 256.67C49.8122 256.871 49.7942 257.099 49.8574 257.312C49.9354 257.519 50.0902 257.688 50.2901 257.785C50.4899 257.882 50.7196 257.9 50.932 257.834C51.1526 257.743 51.3312 257.574 51.4327 257.359C51.5343 257.145 51.5515 256.9 51.481 256.674C51.3775 256.468 51.1989 256.31 50.9817 256.231C50.7645 256.153 50.5253 256.159 50.313 256.25" fill="white"/>
</g>
<path d="M42.6674 265.408C42.4318 264.886 42.1011 264.412 41.6921 264.01C41.221 263.684 40.6919 263.45 40.1328 263.32C40.1328 263.279 40.3372 263.215 40.6818 263.25C41.1301 263.308 41.5521 263.493 41.8965 263.784C42.2435 264.064 42.4995 264.439 42.6323 264.863C42.7316 265.193 42.7024 265.408 42.6674 265.408Z" fill="#263238"/>
<path d="M41.1911 267.05C41.1093 267.097 40.7648 266.528 40.0815 266.14C39.6456 265.939 39.1969 265.766 38.7383 265.624C38.9904 265.541 39.2586 265.52 39.5206 265.562C39.7826 265.603 40.0309 265.706 40.245 265.861C41.0217 266.308 41.2728 267.033 41.1911 267.05Z" fill="#263238"/>
<path d="M45.1441 263.448C44.6474 262.9 44.1085 262.392 43.5322 261.928C42.8973 261.543 42.2335 261.208 41.5466 260.925C42.3365 260.909 43.1064 261.172 43.7191 261.667C44.3947 262.07 44.9007 262.703 45.1441 263.448Z" fill="#263238"/>
<path d="M46.4704 259.22C46.412 259.295 45.7053 258.779 44.7184 258.495C43.7314 258.21 42.8379 258.257 42.832 258.158C43.482 257.991 44.1655 258.001 44.81 258.188C45.4546 258.375 46.0363 258.731 46.4937 259.22H46.4704Z" fill="#263238"/>
<path d="M47.5029 255.085C46.9332 254.735 46.3183 254.464 45.675 254.278C45.0123 254.189 44.3404 254.189 43.6777 254.278C43.6777 254.244 43.8588 254.104 44.2325 253.994C44.7238 253.862 45.2395 253.845 45.7384 253.946C46.2373 254.047 46.7056 254.262 47.1058 254.574C47.4037 254.853 47.5263 255.061 47.5029 255.085Z" fill="#263238"/>
<path d="M45.892 253.495C45.8925 253.311 45.9323 253.129 46.0088 252.962C46.1743 252.483 46.4366 252.043 46.7797 251.668C47.0042 251.372 47.3199 251.156 47.6791 251.054C47.8014 251.034 47.9268 251.051 48.0393 251.102C48.1517 251.154 48.246 251.238 48.3098 251.344C48.4171 251.56 48.44 251.808 48.374 252.04C48.2243 252.505 47.9164 252.904 47.503 253.168C47.0896 253.433 46.5965 253.546 46.1081 253.49C45.6265 253.421 45.1759 253.213 44.8132 252.891C44.4505 252.569 44.1919 252.148 44.07 251.68C44.0419 251.561 44.0394 251.438 44.0625 251.318C44.0857 251.198 44.134 251.084 44.2043 250.984C44.285 250.89 44.3936 250.825 44.5143 250.797C44.6351 250.768 44.7617 250.779 44.8759 250.827C45.206 250.991 45.4877 251.237 45.6935 251.541C46.003 251.943 46.2383 252.397 46.3884 252.881C46.4596 253.053 46.4934 253.239 46.4877 253.426C46.2523 252.8 45.9235 252.214 45.5124 251.686C45.321 251.438 45.0728 251.239 44.7883 251.106C44.7257 251.079 44.6561 251.073 44.5897 251.088C44.5234 251.104 44.464 251.141 44.4204 251.193C44.3795 251.261 44.3533 251.337 44.3433 251.416C44.3332 251.495 44.3396 251.575 44.362 251.651C44.4838 252.045 44.715 252.396 45.0291 252.665C45.3432 252.934 45.7273 253.109 46.1373 253.171C46.5504 253.218 46.9675 253.125 47.3207 252.907C47.6739 252.689 47.9422 252.359 48.082 251.97C48.1386 251.812 48.1386 251.64 48.082 251.483C48.0489 251.423 47.9979 251.376 47.9361 251.346C47.8743 251.317 47.8048 251.308 47.7375 251.32C47.4331 251.403 47.1619 251.578 46.9608 251.819C46.5128 252.315 46.1515 252.881 45.892 253.495Z" fill="#263238"/>
<g opacity="0.3">
<path d="M45.7514 245.59L45.0681 248.838L55.3991 250.543L56.2634 247.707L46.1193 244.053L45.7514 245.59Z" fill="black"/>
</g>
<path d="M92.2737 249.296L91.4211 260.618C91.4211 260.618 102.727 265.258 102.774 267.392L80.582 266.539L81.166 248.838L92.2737 249.296Z" fill="#88B9F4"/>
<g opacity="0.6">
<path d="M84.6165 259.4C84.4012 259.457 84.2144 259.591 84.0917 259.776C83.969 259.961 83.9189 260.184 83.9508 260.403C83.9999 260.619 84.1299 260.808 84.3143 260.932C84.4987 261.055 84.7237 261.105 84.9436 261.07C85.1726 261.01 85.371 260.867 85.5005 260.67C85.6299 260.473 85.6812 260.235 85.6444 260.003C85.5706 259.783 85.4139 259.599 85.2071 259.491C85.0003 259.383 84.7594 259.359 84.5348 259.423" fill="white"/>
</g>
<g opacity="0.6">
<path d="M80.5938 266.539L80.7222 264.753L101.951 266.22C101.951 266.22 102.926 266.684 102.786 267.38L80.5938 266.539Z" fill="white"/>
</g>
<path d="M91.7935 260.519C91.7935 260.629 91.2446 260.658 90.7015 260.983C90.1583 261.308 89.8547 261.749 89.7554 261.702C89.6561 261.656 89.843 261.041 90.5087 260.658C91.1745 260.276 91.8227 260.421 91.7935 260.519Z" fill="#263238"/>
<path d="M94.0838 261.58C94.0838 261.691 93.6283 261.853 93.2428 262.294C92.8574 262.735 92.7348 263.21 92.6238 263.204C92.5128 263.199 92.472 262.584 92.9625 262.044C93.4531 261.505 94.0838 261.464 94.0838 261.58Z" fill="#263238"/>
<path d="M95.298 264.382C95.1987 264.382 95.0703 263.854 95.3681 263.28C95.6659 262.706 96.1857 262.485 96.2266 262.578C96.2675 262.671 95.9463 262.973 95.7068 263.448C95.4674 263.924 95.4031 264.376 95.298 264.382Z" fill="#263238"/>
<path d="M91.6883 257.921C91.6416 258.013 91.1511 257.845 90.5203 257.863C89.8896 257.88 89.4224 258.054 89.3523 257.961C89.2823 257.868 89.7728 257.503 90.5203 257.491C91.2679 257.48 91.7584 257.839 91.6883 257.921Z" fill="#263238"/>
<g opacity="0.3">
<path d="M92.1157 251.54L91.9639 253.559L81.0723 253.037L81.1482 250.705L92.1157 251.54Z" fill="black"/>
</g>
<path d="M91.8349 255.63C91.468 255.718 91.0835 255.702 90.7253 255.583C90.3205 255.5 89.928 255.365 89.5573 255.183C89.3412 255.077 89.1324 254.957 88.9325 254.823C88.8105 254.749 88.7003 254.657 88.6054 254.551C88.541 254.468 88.5061 254.366 88.5061 254.261C88.5061 254.156 88.541 254.054 88.6054 253.971C88.6622 253.897 88.7358 253.839 88.8201 253.799C88.9045 253.76 88.997 253.741 89.0901 253.745C89.2308 253.75 89.3701 253.774 89.5048 253.814C89.7385 253.882 89.9653 253.971 90.1822 254.081C90.551 254.26 90.8883 254.497 91.1809 254.783C91.6773 255.276 91.8349 255.688 91.7999 255.705C91.7649 255.722 91.5137 255.392 91.0057 254.98C90.7074 254.748 90.3818 254.554 90.0362 254.4C89.8302 254.315 89.6196 254.242 89.4055 254.18C89.1719 254.11 88.9733 254.104 88.9091 254.18C88.8449 254.255 88.9091 254.238 88.9091 254.307C88.9791 254.384 89.0598 254.45 89.1485 254.504C89.3359 254.634 89.5309 254.752 89.7325 254.858C90.0693 255.043 90.4233 255.194 90.7896 255.311C91.1452 255.392 91.4946 255.499 91.8349 255.63Z" fill="#263238"/>
<path d="M91.689 255.78C91.4949 255.455 91.4072 255.078 91.4379 254.701C91.4402 254.293 91.5072 253.888 91.6364 253.501C91.7202 253.274 91.8238 253.054 91.9459 252.845C92.0116 252.702 92.1131 252.577 92.2409 252.484C92.3687 252.39 92.5185 252.331 92.6759 252.312C92.7757 252.318 92.8715 252.352 92.9522 252.411C93.0328 252.47 93.095 252.55 93.1315 252.642C93.1822 252.772 93.2137 252.909 93.2249 253.048C93.2633 253.294 93.2633 253.545 93.2249 253.791C93.1468 254.2 92.9683 254.585 92.7051 254.91C92.2496 255.49 91.7941 255.577 91.7824 255.542C91.7707 255.507 92.1328 255.293 92.4891 254.753C92.6935 254.446 92.8271 254.097 92.8803 253.733C92.9099 253.521 92.9099 253.306 92.8803 253.095C92.8511 252.863 92.7694 252.665 92.6818 252.689C92.5942 252.712 92.3781 252.851 92.2788 253.037C92.1648 253.222 92.0653 253.416 91.981 253.617C91.8458 253.967 91.7594 254.334 91.724 254.707C91.6481 255.357 91.7474 255.78 91.689 255.78Z" fill="#263238"/>
<path d="M69.3337 127.194C69.3337 127.194 65.8297 127.351 63.4937 139.252C61.1577 151.154 43.3516 247.591 43.3516 247.591L56.2638 247.706L80.5932 156.02L78.9756 250.56L92.0922 251.558C92.0922 251.558 101.933 146.99 102.02 140.905C102.137 133.319 97.7512 125.646 97.7512 125.646L69.3337 127.194Z" fill="#263238"/>
<path d="M87.0804 126.18C87.1621 126.18 85.8189 132.995 84.0844 141.364C82.35 149.734 80.8783 156.508 80.7965 156.491C80.7148 156.473 82.0521 149.676 83.7866 141.306C85.5211 132.937 87.0161 126.162 87.0804 126.18Z" fill="#455A64"/>
<path d="M89.0909 127.878C89.0909 127.844 89.4413 127.739 89.8443 128.093C89.9587 128.196 90.0493 128.323 90.1098 128.464C90.1703 128.605 90.1993 128.758 90.1947 128.911C90.1801 129.105 90.1103 129.291 89.9934 129.447C89.8766 129.603 89.7176 129.723 89.5348 129.792C89.3565 129.873 89.159 129.902 88.9649 129.876C88.7708 129.851 88.5878 129.771 88.4368 129.647C88.3239 129.542 88.2348 129.414 88.1754 129.272C88.116 129.131 88.0877 128.978 88.0923 128.824C88.0923 128.29 88.4544 128.105 88.4602 128.139C88.3617 128.352 88.31 128.584 88.3084 128.818C88.3162 128.936 88.3476 129.051 88.4008 129.156C88.4539 129.262 88.5277 129.356 88.6179 129.433C88.7331 129.512 88.8665 129.561 89.0057 129.575C89.1448 129.589 89.2854 129.569 89.4145 129.515C89.5436 129.461 89.657 129.376 89.7444 129.268C89.8317 129.159 89.8902 129.03 89.9144 128.893C89.923 128.776 89.9078 128.658 89.8696 128.546C89.8315 128.435 89.7713 128.332 89.6924 128.244C89.4063 127.913 89.0851 127.925 89.0909 127.878Z" fill="#455A64"/>
<path d="M88.5357 132.588C88.5357 132.553 88.8978 132.588 89.1197 133.069C89.1761 133.207 89.2017 133.355 89.1947 133.503C89.1876 133.651 89.1481 133.796 89.0788 133.928C88.9784 134.084 88.837 134.21 88.6698 134.293C88.5025 134.375 88.3158 134.411 88.1297 134.396C87.9436 134.381 87.7651 134.316 87.6133 134.208C87.4616 134.1 87.3423 133.953 87.2684 133.783C87.2218 133.643 87.2065 133.495 87.2236 133.348C87.2408 133.202 87.29 133.061 87.3677 132.936C87.6422 132.501 88.0159 132.513 88.0043 132.547C87.9926 132.582 87.7239 132.663 87.5546 133.035C87.4689 133.243 87.4689 133.476 87.5546 133.684C87.6156 133.799 87.7049 133.897 87.8141 133.969C87.9234 134.04 88.0492 134.084 88.1797 134.094C88.3103 134.104 88.4413 134.082 88.5608 134.028C88.6802 133.975 88.784 133.893 88.8627 133.789C88.9728 133.59 89 133.357 88.9387 133.139C88.7693 132.745 88.5065 132.629 88.5357 132.588Z" fill="#455A64"/>
<path d="M76.1611 127.994C76.1371 128.194 76.086 128.389 76.0092 128.574C75.8268 129.105 75.5982 129.62 75.3259 130.111C74.4349 131.752 73.148 133.148 71.5804 134.173C70.0129 135.199 68.2137 135.822 66.344 135.987C65.7825 136.035 65.2178 136.035 64.6563 135.987C64.4584 135.981 64.2622 135.949 64.0723 135.894C64.0723 135.836 64.9541 135.935 66.3499 135.761C68.169 135.541 69.9121 134.906 71.4422 133.905C72.9723 132.903 74.2478 131.563 75.1683 129.99C75.8516 128.818 76.1085 127.977 76.1611 127.994Z" fill="#455A64"/>
<path d="M101.285 136.457C101.285 136.457 101.133 136.387 100.893 136.225C100.559 135.986 100.246 135.718 99.959 135.425C98.9985 134.459 98.2491 133.307 97.7577 132.04C97.2664 130.774 97.0435 129.42 97.1032 128.064C97.1166 127.656 97.1694 127.25 97.2609 126.852C97.3251 126.568 97.366 126.417 97.3894 126.423C97.4127 126.429 97.3193 127.055 97.3193 128.07C97.3203 130.735 98.3171 133.304 100.117 135.28C100.8 136.028 101.314 136.411 101.285 136.457Z" fill="#455A64"/>
<path d="M146.585 136.793C146.778 136.329 146.725 136.515 143.63 134.473C143.63 134.473 148.068 137.373 147.607 135.993C147.208 135.47 146.72 135.021 146.164 134.665C147.332 135.349 148.01 135.425 148.214 135.146C148.565 134.665 146.024 132.826 144.815 131.997C145.921 132.782 147.08 133.489 148.284 134.114C149.003 134.334 148.658 133.499 148.173 132.89C147.689 132.281 143.928 128.685 142.917 127.612C142.821 127.53 142.744 127.429 142.691 127.315C142.638 127.201 142.611 127.076 142.611 126.951C142.611 126.825 142.638 126.701 142.691 126.587C142.744 126.473 142.821 126.371 142.917 126.29C144.728 125.13 145.522 123.279 145.499 122.67C145.479 122.533 145.415 122.406 145.318 122.307C145.22 122.208 145.094 122.142 144.956 122.119C144.819 122.095 144.677 122.116 144.552 122.178C144.427 122.239 144.325 122.339 144.261 122.462C143.804 123.026 143.271 123.525 142.678 123.946C142.218 124.303 141.701 124.579 141.148 124.764C140.506 124.973 137.346 124.799 136.669 124.457L134.514 131.713C134.514 131.713 142.333 135.343 143.817 136.051C145.639 136.909 146.451 137.147 146.585 136.793Z" fill="#FFBE9D"/>
<path d="M142.222 133.4C142.157 133.487 143.174 134.224 144.488 135.053C145.802 135.883 146.905 136.48 146.958 136.393C147.01 136.306 145.994 135.564 144.686 134.74C143.378 133.916 142.28 133.29 142.222 133.4Z" fill="#EB996E"/>
<path d="M142.957 131.979C142.899 132.066 143.939 132.913 145.293 133.876C146.648 134.838 147.77 135.552 147.828 135.471C147.886 135.389 146.853 134.537 145.492 133.574C144.131 132.611 143.022 131.898 142.957 131.979Z" fill="#EB996E"/>
<path d="M143.735 130.541C143.677 130.622 144.646 131.446 145.902 132.374C147.157 133.302 148.238 133.986 148.284 133.905C148.331 133.824 147.379 133 146.123 132.072C144.868 131.144 143.799 130.46 143.735 130.541Z" fill="#EB996E"/>
<path d="M64.201 104.261L69.9358 104.574C70.3421 106.164 70.8852 107.717 71.5594 109.214C76.1788 101.257 79.7354 90.5905 80.6464 86.3043C80.5179 85.8828 80.3602 85.4072 80.1734 84.8775C80.0334 84.0767 80.0573 83.2561 80.2434 82.4647C80.4011 81.5135 80.6698 80.2259 80.7457 79.6343C80.9968 77.8247 81.2888 77.5347 81.9137 77.7435C82.778 78.0219 81.5574 82.8301 82.2641 82.9345C82.6495 82.9867 83.1109 81.3395 83.251 79.9881C83.3912 78.6367 83.9986 74.4839 84.4482 74.1881C85.1082 73.7821 85.6805 74.4259 85.517 75.7715C85.3534 77.1171 85.1374 81.1945 85.8557 81.2467C86.574 81.2989 87.158 74.4085 87.158 74.4085C87.158 74.4085 87.047 72.9121 87.8763 72.9469C89.3772 73.0107 88.2092 80.2781 88.0807 80.9683C87.9873 81.4439 88.7698 81.5483 88.8399 81.0147C88.91 80.4811 89.2721 74.1185 90.7963 74.1707C91.9643 74.2113 89.8911 80.1563 90.551 81.5367C91.211 82.9171 91.6665 76.8561 92.7878 76.9373C93.2024 76.9721 93.5119 77.0533 92.7469 80.4811C92.0002 83.2068 91.1054 85.8903 90.0663 88.5199C88.3143 98.0319 80.4946 128.459 68.2773 122.891C61.4445 119.776 58.25 104.331 58.25 104.331L64.201 104.261Z" fill="#FFBE9D"/>
<path d="M90.0779 88.5716C90.0879 88.4998 90.1076 88.4296 90.1363 88.3628C90.1888 88.212 90.2531 88.0148 90.3407 87.7828C90.5334 87.2318 90.7962 86.4662 91.1408 85.4628C91.4853 84.4594 91.9 83.2414 92.3088 81.803C92.519 81.0896 92.6942 80.3124 92.8519 79.483C92.9337 79.0654 93.0096 78.6362 93.0621 78.1954C93.0767 77.9772 93.0767 77.7583 93.0621 77.54C93.0621 77.3138 93.0096 77.1282 92.8285 77.1224C92.6475 77.1166 92.519 77.2268 92.3905 77.4182C92.2742 77.623 92.1784 77.8387 92.1044 78.062C91.9409 78.5202 91.8124 79.0074 91.6839 79.5004C91.5554 79.9934 91.4386 80.5096 91.2868 81.0316C91.2206 81.3176 91.1018 81.5889 90.9364 81.832C90.8948 81.8796 90.8399 81.914 90.7787 81.9306C90.7401 81.939 90.7002 81.9387 90.6617 81.9297C90.6233 81.9206 90.5874 81.9031 90.5568 81.8784C90.4897 81.8173 90.4342 81.7446 90.3933 81.6638C90.3316 81.5214 90.2903 81.3711 90.2706 81.2172C90.244 80.0474 90.3617 78.8787 90.621 77.7372C90.7203 77.1572 90.8254 76.5772 90.9013 75.9972C90.9364 75.7014 90.9714 75.4172 90.9773 75.104C90.9831 74.7908 90.9364 74.4602 90.8137 74.408C90.6911 74.3558 90.3933 74.5182 90.2297 74.7618C90.0683 75.0191 89.9407 75.2959 89.8501 75.5854C89.651 76.1913 89.5006 76.8119 89.4005 77.4414C89.2895 78.0794 89.2019 78.729 89.126 79.3902C89.0968 79.7208 89.0617 80.0514 89.0325 80.3878L88.9858 80.8924C88.992 81.0002 88.9743 81.108 88.934 81.2082C88.8936 81.3085 88.8316 81.3987 88.7522 81.4724C88.6522 81.545 88.5315 81.5841 88.4077 81.5841C88.2838 81.5841 88.1631 81.545 88.0631 81.4724C88.0065 81.4353 87.9584 81.3866 87.9222 81.3296C87.8859 81.2726 87.8623 81.2086 87.8528 81.1418C87.844 81.0803 87.844 81.0178 87.8528 80.9562V80.8344L88.0105 79.8194C88.1098 79.135 88.1916 78.4506 88.2558 77.7546C88.32 77.0586 88.3726 76.3568 88.3843 75.655C88.4185 74.9602 88.3476 74.2642 88.1741 73.5902C88.1338 73.4192 88.0293 73.2699 87.8821 73.1726C87.8116 73.1502 87.7358 73.1504 87.6655 73.1733C87.5953 73.1962 87.5341 73.2407 87.4908 73.3002C87.3017 73.6436 87.2242 74.0366 87.2688 74.4254C87.1404 75.7884 86.9944 77.1282 86.7958 78.4448C86.6965 79.1002 86.5856 79.7556 86.422 80.3994C86.3753 80.556 86.3286 80.7184 86.2702 80.8808C86.2147 81.0777 86.0982 81.2522 85.9373 81.3796C85.8662 81.4143 85.7853 81.4241 85.7078 81.4072C85.6304 81.3903 85.561 81.3479 85.511 81.2868C85.4397 81.2124 85.3859 81.1233 85.3533 81.0258C85.2903 80.8649 85.2453 80.6977 85.219 80.527C85.0821 79.2649 85.0704 77.9924 85.184 76.728C85.2703 76.1386 85.3035 75.5427 85.2833 74.9474C85.2643 74.6933 85.1471 74.4564 84.9562 74.2862C84.9114 74.2585 84.8613 74.2402 84.8092 74.2322C84.757 74.2242 84.7037 74.2268 84.6525 74.2398C84.5979 74.2581 84.5451 74.2814 84.4948 74.3094C84.4423 74.3558 84.4481 74.3094 84.4131 74.408C84.2019 74.9296 84.0472 75.4721 83.9517 76.0262C83.8349 76.6062 83.7356 77.134 83.648 77.6792C83.5604 78.2244 83.4787 78.758 83.4086 79.2916C83.3385 79.8252 83.3035 80.3472 83.1984 80.8692C83.1076 81.3792 82.9708 81.88 82.7896 82.3656C82.7415 82.4892 82.6849 82.6094 82.6202 82.7252C82.5385 82.8354 82.4917 82.9746 82.2698 83.0442C82.213 83.0546 82.1544 83.048 82.1014 83.0253C82.0484 83.0026 82.0034 82.9648 81.972 82.9166C81.9311 82.8497 81.8997 82.7775 81.8785 82.702C81.8523 82.5759 81.8367 82.4479 81.8318 82.3192C81.8318 81.3274 81.9661 80.4226 82.0187 79.5468C82.0568 79.1281 82.0568 78.7069 82.0187 78.2882C82.0187 78.1026 81.9311 77.8822 81.826 77.8416C81.7524 77.8058 81.6714 77.7871 81.5895 77.7871C81.5075 77.7871 81.4266 77.8058 81.3529 77.8416C81.1078 78.1031 80.956 78.4373 80.9208 78.7928C80.8332 79.1466 80.7981 79.5062 80.7339 79.8484C80.4886 81.2172 80.2317 82.4004 80.109 83.3632C80.0514 83.7866 80.0514 84.2158 80.109 84.6392C80.1908 84.9872 80.3134 85.3004 80.3777 85.544C80.4419 85.7876 80.5061 85.9616 80.547 86.124C80.5688 86.1862 80.5844 86.2503 80.5937 86.3154C80.5587 86.2593 80.5312 86.1988 80.512 86.1356L80.3134 85.5556C80.2317 85.3062 80.109 85.0278 80.0097 84.645C79.9473 84.2103 79.9473 83.769 80.0097 83.3342C80.1207 82.354 80.3543 81.1824 80.5937 79.8078C80.658 79.4656 80.693 79.106 80.7689 78.7348C80.8108 78.5388 80.8634 78.3451 80.9266 78.1548C80.985 77.9439 81.1124 77.7582 81.2887 77.627C81.3948 77.5712 81.5131 77.542 81.6333 77.542C81.7534 77.542 81.8717 77.5712 81.9778 77.627C82.092 77.6985 82.1858 77.7979 82.2502 77.9157C82.3146 78.0335 82.3475 78.1658 82.3457 78.2998C82.3866 78.7358 82.3866 79.1746 82.3457 79.6106C82.3049 80.4922 82.1647 81.4144 82.188 82.354C82.1923 82.4652 82.206 82.5758 82.2289 82.6846C82.2289 82.7948 82.3107 82.8412 82.299 82.818C82.2873 82.7948 82.41 82.7252 82.4567 82.6324C82.5143 82.5295 82.565 82.4229 82.6085 82.3134C82.7815 81.8433 82.9086 81.3577 82.9881 80.8634C83.0874 80.3588 83.1225 79.8368 83.1925 79.2974C83.2626 78.758 83.3327 78.2244 83.4203 77.6734C83.5079 77.1224 83.6072 76.5714 83.7181 76.0088C83.8131 75.4213 83.9778 74.8469 84.2087 74.2978C84.2554 74.2057 84.3259 74.1276 84.4131 74.0716C84.4907 74.0294 84.573 73.9963 84.6584 73.973C84.7563 73.9452 84.8591 73.9386 84.9599 73.9536C85.0606 73.9686 85.157 74.0049 85.2424 74.06C85.3779 74.1669 85.4898 74.3003 85.5712 74.452C85.6526 74.6036 85.7017 74.7703 85.7154 74.9416C85.7593 75.2572 85.7593 75.5773 85.7154 75.8928C85.6862 76.1886 85.657 76.4728 85.6395 76.7976C85.5257 78.033 85.5374 79.2766 85.6745 80.5096C85.6995 80.6561 85.7387 80.7998 85.7913 80.9388C85.8089 80.995 85.8388 81.0465 85.8789 81.0896C85.8789 81.0896 85.8789 81.0896 85.9081 81.0896C85.9081 81.223 85.9081 81.0896 85.9081 81.1418C85.9081 81.194 85.9081 81.1418 85.9081 81.0954C85.981 80.9985 86.0381 80.8909 86.0775 80.7764C86.132 80.6334 86.1787 80.4826 86.2177 80.324C86.3753 79.7092 86.4805 79.0596 86.5797 78.41C86.7783 77.105 86.9243 75.7652 87.0469 74.408V74.437C86.995 73.959 87.0994 73.477 87.3448 73.0624C87.4384 72.944 87.5669 72.8574 87.7124 72.8148C87.8579 72.7722 88.0131 72.7756 88.1565 72.8246C88.279 72.8921 88.3866 72.9834 88.4729 73.093C88.5592 73.2026 88.6224 73.3283 88.6588 73.4626C88.8458 74.1758 88.9226 74.9131 88.8865 75.6492C88.8865 76.3684 88.8223 77.076 88.758 77.7778C88.6938 78.4796 88.6062 79.1698 88.5069 79.8542C88.4544 80.2022 88.4018 80.5386 88.3493 80.8808C88.3025 81.0954 88.3142 81.1012 88.3493 81.165C88.3898 81.1922 88.4376 81.2067 88.4865 81.2067C88.5354 81.2067 88.5832 81.1922 88.6237 81.165C88.6938 81.1128 88.7055 81.0142 88.723 80.8228L88.7639 80.3182L88.869 79.3148C88.9391 78.6536 89.0325 77.9924 89.1435 77.3486C89.2515 76.702 89.4077 76.0642 89.6107 75.4404C89.7167 75.1252 89.8598 74.8234 90.037 74.5414C90.1335 74.3894 90.2608 74.2591 90.4108 74.1586C90.494 74.0988 90.5905 74.0597 90.6921 74.0445C90.7937 74.0294 90.8975 74.0387 90.9948 74.0716C91.0842 74.1264 91.1598 74.201 91.2155 74.2895C91.2712 74.3781 91.3056 74.4781 91.316 74.582C91.3401 74.7452 91.3498 74.9102 91.3452 75.075C91.3452 75.394 91.3043 75.7014 91.2693 76.0088C91.1875 76.5888 91.0765 77.2036 90.9714 77.7894C90.7206 78.8912 90.5991 80.0181 90.6093 81.1476C90.6258 81.2689 90.6572 81.3877 90.7028 81.5014C90.724 81.5426 90.7494 81.5815 90.7787 81.6174C90.7787 81.6174 90.7787 81.6174 90.7787 81.5768C90.9098 81.3672 91.0064 81.1381 91.0648 80.8982C91.2167 80.3936 91.3393 79.8832 91.4737 79.3844C91.5941 78.8881 91.7403 78.3983 91.9117 77.917C91.9925 77.6786 92.0982 77.4493 92.227 77.2326C92.2967 77.1146 92.3878 77.0103 92.4957 76.9252C92.5544 76.8747 92.6245 76.8389 92.7 76.8208C92.7755 76.8091 92.8523 76.8091 92.9278 76.8208C93.0075 76.8287 93.0836 76.8576 93.1483 76.9045C93.213 76.9514 93.2639 77.0147 93.2957 77.0876C93.3445 77.2095 93.3702 77.3393 93.3717 77.4704C93.3762 77.7051 93.3625 77.9397 93.3308 78.1722C93.2782 78.6246 93.1906 79.0538 93.1088 79.4772C92.9395 80.3066 92.7526 81.0954 92.5248 81.7972C92.0868 83.2356 91.6489 84.4536 91.2926 85.4454C90.9364 86.4372 90.6327 87.1854 90.4283 87.719C90.329 87.9626 90.2472 88.154 90.1888 88.299C90.1627 88.3939 90.1255 88.4854 90.0779 88.5716Z" fill="#EB996E"/>
<path d="M58.1973 104.916C59.3069 108.808 61.4793 114.811 63.8095 121.156C63.883 121.361 64.0158 121.539 64.1914 121.668C64.3669 121.798 64.5771 121.872 64.7954 121.883C65.0137 121.893 65.2302 121.839 65.4175 121.728C65.6049 121.616 65.7546 121.451 65.8477 121.255L71.5592 109.255C71.5592 109.255 70.1809 99.3948 70.2977 99.7486C70.4145 100.102 58.5126 101.025 58.5126 101.025L58.1973 104.916Z" fill="#88B9F4"/>
<path d="M71.0675 102.985C71.0675 103.031 70.3551 103.24 69.2279 103.669C67.7549 104.224 66.3358 104.912 64.9881 105.722C63.6422 106.537 62.3719 107.468 61.1921 108.506C60.2869 109.301 59.7671 109.846 59.7321 109.811C59.6971 109.776 59.8314 109.649 60.0533 109.388C60.3661 109.025 60.6975 108.679 61.0461 108.35C62.1972 107.249 63.4662 106.276 64.8304 105.45C66.195 104.633 67.6438 103.964 69.152 103.454C69.6079 103.298 70.0719 103.167 70.5419 103.06C70.712 103.007 70.8894 102.982 71.0675 102.985Z" fill="#FAFAFA"/>
<path d="M73.3342 105.978C72.9631 105.606 72.6413 105.189 72.3765 104.737C71.6945 103.68 71.1082 102.566 70.6245 101.407C70.1405 100.245 69.7632 99.0413 69.4974 97.8114C69.3613 97.3082 69.2925 96.7895 69.293 96.2686C69.4671 96.7549 69.6057 97.253 69.7076 97.7592C70.0205 98.9602 70.4106 100.14 70.8756 101.291C71.3614 102.437 71.9193 103.551 72.5459 104.626C72.8375 105.06 73.1008 105.511 73.3342 105.978Z" fill="#263238"/>
<path d="M77.1414 52.8384C76.1507 54.4602 75.5364 56.2809 75.3435 58.1682C75.1505 60.0554 75.3837 61.9617 76.026 63.7482C76.61 65.3432 77.5444 66.915 77.375 68.6086C77.2057 70.3022 75.8742 71.9784 76.3414 73.6488C76.6217 74.6406 77.4743 75.3888 77.8072 76.3516C78.1868 77.5116 77.8072 78.7354 77.6028 79.9244C77.1356 82.9636 78.1167 86.0202 78.3562 89.0826C78.5956 92.145 77.7722 95.7352 75.0157 97.0692C74.1806 97.4752 73.0885 97.5912 72.3935 96.9706C71.5058 96.1876 71.7511 94.7724 71.9964 93.6124C74.4142 82.0124 66.9448 70.6908 68.6501 58.9516C68.9246 57.0724 69.9816 53.8824 71.3423 52.5716C72.703 51.2608 76.4815 51.4116 77.7663 52.8036" fill="#263238"/>
<path d="M65.6367 86.4902C65.6367 86.4902 65.993 86.0727 66.5186 85.2491C67.2561 84.0859 67.7728 82.7983 68.0428 81.45C68.219 80.5213 68.2798 79.5747 68.2238 78.6313C68.1217 77.5343 68.0807 76.4325 68.1012 75.3311C68.136 74.7278 68.2479 74.1315 68.4341 73.5563C68.6475 72.9637 68.9174 72.3927 69.24 71.8511C69.8941 70.7549 70.7175 69.7341 71.4767 68.6437C72.2563 67.6131 72.7986 66.4251 73.0652 65.1637C73.1947 63.9754 73.1256 62.7741 72.8608 61.6083C72.6398 60.5247 72.5535 59.4183 72.6038 58.3139C72.6733 57.3491 72.8697 56.3976 73.1878 55.4835C73.6339 54.157 74.3362 52.9296 75.2552 51.8701C75.4993 51.582 75.7648 51.3125 76.0494 51.0639C76.1397 50.9683 76.2417 50.8845 76.3531 50.8145C76.3531 50.8145 75.9618 51.1915 75.3428 51.9745C73.8684 53.7921 73.0063 56.0238 72.8783 58.3545C72.8392 59.4408 72.9353 60.5279 73.1645 61.5909C73.4431 62.788 73.5181 64.0231 73.3864 65.2449C73.1096 66.5415 72.5515 67.7627 71.7512 68.8235C70.9862 69.9313 70.1627 70.9463 69.5203 72.0135C69.2043 72.535 68.9422 73.0868 68.7378 73.6607C68.553 74.2124 68.4411 74.7855 68.4049 75.3659C68.379 76.4552 68.4102 77.5451 68.4983 78.6313C68.5447 79.5937 68.4701 80.5581 68.2764 81.5023C67.9838 82.8689 67.4286 84.1666 66.6412 85.3245C66.428 85.6375 66.1939 85.9359 65.9404 86.2176C65.8495 86.3193 65.7477 86.4107 65.6367 86.4902Z" fill="#455A64"/>
<path d="M60.0996 87.3542C60.1467 87.2189 60.2073 87.0887 60.2806 86.9656C60.4266 86.693 60.6135 86.3334 60.8646 85.881C61.3552 84.9356 62.0852 83.561 62.8035 81.821C63.6822 79.7887 64.1695 77.6109 64.2402 75.4004C64.2405 74.7635 64.1917 74.1275 64.0942 73.498C63.9949 72.8484 63.843 72.193 63.7438 71.5086C63.6223 70.8006 63.6382 70.0762 63.7905 69.3742C63.988 68.6534 64.3941 68.0061 64.9585 67.5124C66.0564 66.5206 67.3821 65.871 68.0712 64.7052C68.6683 63.5492 69.0201 62.2838 69.1049 60.9874C69.2285 59.7989 69.4992 58.6301 69.9108 57.5074C70.8365 55.0972 72.4858 53.0278 74.6354 51.5798C74.978 51.3507 75.335 51.1434 75.7041 50.9592C75.8287 50.885 75.9621 50.8266 76.1012 50.7852C76.1012 50.7852 75.5756 51.0636 74.7054 51.6784C73.479 52.5476 72.4172 53.6256 71.5694 54.8626C70.9814 55.7105 70.5026 56.6282 70.1444 57.5944C69.7509 58.7197 69.496 59.8882 69.3852 61.0744C69.21 62.3098 69.0698 63.6902 68.3223 64.914C67.5748 66.1378 66.2082 66.8338 65.1629 67.814C64.6301 68.2731 64.2461 68.8785 64.0591 69.554C63.9172 70.2181 63.9033 70.903 64.0182 71.5724C64.1117 72.2394 64.2577 72.9006 64.357 73.556C64.458 74.2006 64.5049 74.8524 64.4971 75.5048C64.4178 77.7558 63.9043 79.9708 62.9846 82.0298C62.3872 83.4212 61.7086 84.7768 60.9522 86.0898L60.3332 87.0004C60.2681 87.1262 60.1898 87.2448 60.0996 87.3542Z" fill="#455A64"/>
<path d="M197.142 73.3926C197.142 73.3926 196.984 73.3926 196.68 73.3926C196.237 73.3664 195.792 73.3664 195.349 73.3926C193.633 73.4923 191.948 73.8847 190.367 74.5526C187.861 75.5959 185.68 77.2836 184.048 79.442C183.042 80.7897 182.294 82.3093 181.841 83.9254C180.819 87.775 181.371 91.8697 183.377 95.3166C183.923 96.2709 184.591 97.1519 185.362 97.9382C186.141 98.7712 187.047 99.476 188.049 100.026C189.076 100.6 190.24 100.891 191.418 100.867C192.634 100.853 193.799 100.385 194.683 99.5564C195.11 99.1117 195.445 98.5879 195.669 98.0146C195.892 97.4414 196 96.8301 195.985 96.2156C195.976 94.9389 195.568 93.6965 194.817 92.6602C193.305 90.5432 190.852 89.1222 188.241 88.3566C185.534 87.6015 182.676 87.5616 179.949 88.2406C178.556 88.6003 177.215 89.1302 175.954 89.8182C174.681 90.5315 173.525 91.4331 172.526 92.492C172.287 92.7646 172.012 93.014 171.796 93.3156L171.136 94.1972C170.735 94.8184 170.376 95.4656 170.061 96.1344C169.437 97.4923 169.01 98.9316 168.794 100.409C168.37 103.36 168.774 106.371 169.962 109.109C171.097 111.784 173.075 114.023 175.598 115.489C176.821 116.183 178.187 116.594 179.592 116.69C180.971 116.766 182.341 116.439 183.534 115.75C184.719 115.1 185.654 114.081 186.197 112.85C186.71 111.637 186.745 110.277 186.297 109.039C185.835 107.845 185.08 106.784 184.101 105.954C183.151 105.138 182.055 104.507 180.871 104.092C178.562 103.369 176.091 103.327 173.758 103.97C171.575 104.558 169.57 105.667 167.918 107.201C166.413 108.633 165.267 110.394 164.572 112.345C163.355 115.73 163.411 119.438 164.73 122.785C165.758 125.284 167.412 127.481 169.536 129.165C170.874 130.231 172.364 131.093 173.957 131.723C174.506 131.926 174.932 132.077 175.224 132.158L175.656 132.297C175.656 132.297 175.504 132.268 175.212 132.187C174.781 132.073 174.356 131.935 173.939 131.775C172.325 131.173 170.816 130.324 169.466 129.258C167.306 127.575 165.619 125.367 164.566 122.849C163.225 119.47 163.156 115.724 164.373 112.299C165.07 110.318 166.229 108.53 167.755 107.079C169.43 105.514 171.465 104.379 173.682 103.773C176.064 103.113 178.588 103.153 180.947 103.889C182.166 104.311 183.294 104.959 184.27 105.797C185.288 106.655 186.072 107.754 186.548 108.993C187.028 110.286 187.007 111.71 186.489 112.989C185.913 114.269 184.936 115.329 183.704 116.011C182.466 116.727 181.046 117.07 179.616 116.997C178.176 116.897 176.778 116.473 175.528 115.756C172.947 114.269 170.92 111.992 169.752 109.266C168.539 106.477 168.122 103.411 168.549 100.403C168.772 98.8959 169.208 97.4275 169.845 96.0416C170.166 95.3586 170.533 94.6978 170.943 94.0638L171.621 93.1648C171.837 92.8574 172.117 92.5848 172.362 92.318C173.385 91.239 174.567 90.3199 175.866 89.592C177.156 88.8908 178.53 88.3531 179.954 87.9912C182.734 87.2995 185.647 87.3414 188.405 88.113C191.068 88.9018 193.562 90.346 195.133 92.5384C195.922 93.6179 196.351 94.9161 196.359 96.2504C196.387 97.5635 195.89 98.834 194.975 99.7826C194.041 100.654 192.811 101.144 191.529 101.157C190.303 101.185 189.092 100.882 188.025 100.281C187 99.7197 186.073 98.9969 185.281 98.1412C184.499 97.3373 183.822 96.439 183.266 95.4674C181.224 91.9565 180.669 87.7842 181.724 83.8674C182.191 82.2326 182.957 80.6972 183.984 79.3376C185.646 77.1628 187.864 75.4704 190.408 74.4366C192.002 73.7816 193.701 73.4124 195.425 73.3462C195.872 73.3169 196.321 73.3169 196.768 73.3462L197.142 73.3926Z" fill="#263238"/>
<path d="M216.64 131.428H134.758V194.149H216.64V131.428Z" fill="#88B9F4"/>
<path d="M134.758 131.428L149.883 145.441H230.376L216.64 131.428H134.758Z" fill="#88B9F4"/>
<path d="M134.758 131.427L216.664 131.282H216.728L216.775 131.323L230.37 145.191L230.51 145.336L230.762 145.591H230.399L149.907 145.527H149.872L134.758 131.427L149.942 145.347H149.878L230.37 145.289L230.265 145.544L230.119 145.399L216.529 131.532L216.635 131.578L134.758 131.427Z" fill="#263238"/>
<path d="M159.357 160.352C158.913 160.368 158.494 160.556 158.188 160.876C157.883 161.196 157.717 161.622 157.725 162.063C157.733 162.504 157.915 162.924 158.231 163.233C158.548 163.541 158.974 163.714 159.418 163.714C159.862 163.714 160.288 163.541 160.605 163.233C160.921 162.924 161.103 162.504 161.111 162.063C161.119 161.622 160.953 161.196 160.648 160.876C160.343 160.556 159.923 160.368 159.479 160.352" fill="#263238"/>
<path d="M178.706 160.352C178.264 160.368 177.846 160.556 177.543 160.876C177.239 161.195 177.074 161.619 177.082 162.058C177.091 162.497 177.272 162.916 177.588 163.223C177.903 163.531 178.328 163.703 178.77 163.703C179.212 163.703 179.636 163.531 179.952 163.223C180.267 162.916 180.449 162.497 180.457 162.058C180.466 161.619 180.3 161.195 179.997 160.876C179.693 160.556 179.276 160.368 178.834 160.352" fill="#263238"/>
<path d="M178.815 175.362C178.478 174.081 177.929 172.864 177.192 171.76C176.372 170.58 175.319 169.578 174.096 168.814C172.622 167.842 170.903 167.302 169.134 167.253C167.365 167.205 165.618 167.651 164.093 168.541C162.832 169.24 161.726 170.183 160.84 171.314C160.041 172.377 159.427 173.565 159.023 174.829C159.028 174.734 159.044 174.641 159.07 174.55C159.126 174.289 159.198 174.031 159.286 173.779C159.606 172.847 160.073 171.972 160.67 171.186C161.551 170.002 162.671 169.014 163.958 168.286C165.523 167.358 167.322 166.892 169.144 166.941C170.966 166.99 172.736 167.553 174.248 168.565C175.492 169.358 176.554 170.401 177.367 171.627C177.922 172.445 178.342 173.346 178.611 174.295C178.683 174.552 178.739 174.814 178.78 175.078C178.8 175.171 178.812 175.267 178.815 175.362Z" fill="#263238"/>
<path opacity="0.5" d="M134.945 132.117L149.429 150.352H216.641V145.44H149.884L134.945 132.117Z" fill="black"/>
<path d="M200.494 194.009C200.412 194.009 200.342 183.099 200.342 169.649C200.342 156.199 200.412 145.289 200.494 145.289C200.576 145.289 200.651 156.193 200.651 169.649C200.651 183.105 200.581 194.009 200.494 194.009Z" fill="#263238"/>
<path d="M213.353 179.788H206.135V187.891H213.353V179.788Z" fill="#F5F5F5"/>
<path d="M134.759 131.428L117.951 145.441H134.759V131.428Z" fill="#88B9F4"/>
<g opacity="0.4">
<path d="M134.759 131.428L117.951 145.441H134.759V131.428Z" fill="black"/>
</g>
<path d="M219.059 194.148H124.912V266.266H219.059V194.148Z" fill="#88B9F4"/>
<path opacity="0.3" d="M219.059 194.148H124.912V266.266H219.059V194.148Z" fill="black"/>
<path d="M195.472 265.755C195.39 265.755 195.32 249.683 195.32 229.859C195.32 210.035 195.39 193.957 195.472 193.957C195.554 193.957 195.624 210.029 195.624 229.859C195.624 249.689 195.554 265.755 195.472 265.755Z" fill="#263238"/>
<path d="M211.076 249.852H203.858V257.954H211.076V249.852Z" fill="#F5F5F5"/>
<path d="M164.326 194.34H153.633V209.727H164.326V194.34Z" fill="#263238"/>
<path d="M164.326 250.664H153.633V266.051H164.326V250.664Z" fill="#263238"/>
<path d="M218.241 194.149H217.996H217.289L214.574 194.178L204.57 194.224L171.58 194.299L138.578 194.259L128.58 194.212L125.864 194.183L128.58 194.154L138.578 194.108L171.58 194.062L204.57 194.108L214.574 194.154L217.289 194.183H217.996L218.241 194.149Z" fill="#263238"/>
<path d="M56.8927 69.293L46.6376 66.7874H46.7136C44.0657 68.4601 41.0037 69.3734 37.866 69.4264C36.0084 69.4348 34.16 69.1669 32.3822 68.6318C29.2567 67.6351 26.4839 65.7706 24.3913 63.2587C22.2988 60.7467 20.9741 57.6924 20.5737 54.4566C20.2593 52.0093 20.4908 49.5233 21.2517 47.1749C22.0127 44.8264 23.2845 42.6729 24.9771 40.8672C25.8668 39.8966 26.864 39.0288 27.9496 38.2804C28.4986 37.9382 29.0476 37.5844 29.6199 37.2886L30.49 36.871L30.9222 36.6622L31.3777 36.4998C33.7227 35.597 36.2383 35.2149 38.7478 35.3804C42.111 35.5972 45.3344 36.798 48.0115 38.8314C50.6887 40.8647 52.6999 43.6396 53.7916 46.8064C54.3982 48.5778 54.7175 50.4338 54.7377 52.3048C54.7523 55.4142 53.9015 58.4671 52.2791 61.1266V61.0338C55.129 66.1436 56.5656 68.7246 56.8868 69.293C56.554 68.713 55.0648 66.1784 52.1156 61.1208V61.0744V61.028C53.6797 58.3943 54.4876 55.3854 54.4516 52.328C54.4245 50.4869 54.1011 48.662 53.4938 46.9224C52.4139 43.8204 50.4366 41.1037 47.8095 39.1126C45.1823 37.1214 42.0221 35.9442 38.7244 35.7284C36.2644 35.5691 33.7989 35.9452 31.5004 36.8304L31.0565 36.987L30.6302 37.1958L29.7776 37.6018C29.1936 37.8976 28.6796 38.2398 28.1365 38.5762C27.0718 39.3046 26.0924 40.1489 25.2165 41.0934C23.5549 42.8661 22.306 44.9799 21.5582 47.2851C20.8104 49.5904 20.582 52.0307 20.8891 54.4334C21.4305 58.8351 23.7044 62.845 27.2138 65.5868C28.7828 66.8214 30.5633 67.7646 32.4698 68.3708C34.2156 68.9067 36.0328 69.1785 37.8601 69.177C40.9603 69.144 43.9913 68.263 46.6201 66.6308H46.6552H46.7194L56.8927 69.293Z" fill="#263238"/>
<path d="M36.2078 44.834L36.7275 53.36C36.7483 53.6963 36.8921 54.0135 37.132 54.2517C37.3719 54.4899 37.6912 54.6328 38.0299 54.6534C38.3861 54.6734 38.7366 54.5571 39.0092 54.3284C39.2819 54.0998 39.4559 53.776 39.4957 53.4238L40.4476 44.8804C40.4642 44.7276 40.4479 44.573 40.3997 44.4269C40.3515 44.2808 40.2727 44.1465 40.1683 44.033C40.0639 43.9194 39.9364 43.8292 39.7943 43.7684C39.6522 43.7075 39.4986 43.6773 39.3438 43.6798H37.259C37.1127 43.6842 36.9688 43.7178 36.8359 43.7788C36.703 43.8397 36.5839 43.9267 36.4857 44.0345C36.3876 44.1423 36.3123 44.2687 36.2646 44.4061C36.2168 44.5435 36.1975 44.689 36.2078 44.834Z" fill="#88B9F4"/>
<path d="M40.2949 59.4155C40.1642 59.8049 39.9202 60.1472 39.5937 60.399C39.2673 60.6508 38.8729 60.8008 38.4606 60.8301C38.0483 60.8594 37.6365 60.7667 37.2773 60.5636C36.918 60.3605 36.6274 60.0563 36.4423 59.6892C36.2571 59.3222 36.1856 58.9089 36.2368 58.5015C36.2881 58.0942 36.4598 57.711 36.7302 57.4006C37.0007 57.0901 37.3577 56.8662 37.7562 56.7572C38.1547 56.6482 38.5769 56.6589 38.9692 56.7881C39.2301 56.874 39.4714 57.0101 39.6792 57.1886C39.8871 57.3672 40.0575 57.5848 40.1806 57.8288C40.3037 58.0728 40.3772 58.3386 40.3968 58.6108C40.4164 58.8831 40.3818 59.1565 40.2949 59.4155Z" fill="#88B9F4"/>
</svg>
