<svg width="600" height="800" viewBox="0 0 600 800" fill="none" xmlns="http://www.w3.org/2000/svg">
<g filter="url(#filter0_b_20_22)">
<rect width="600" height="800" rx="16" fill="#3F5D96" fill-opacity="0.1"/>
<rect x="0.5" y="0.5" width="599" height="799" rx="15.5" stroke="url(#paint0_radial_20_22)"/>
</g>
<g clip-path="url(#clip0_20_22)">
<path d="M494.83 375.86C494.83 375.86 494.83 375.77 494.83 375.62V374.96C494.83 374.36 494.83 373.51 494.83 372.43C494.83 370.21 494.83 367.01 494.75 362.99L494.9 363.14L446.25 363.23C446.36 363.12 446 363.48 446.5 362.99V369.51C446.5 371.65 446.5 373.77 446.5 375.84L446.26 375.59L480.93 375.7L491.16 375.77H493.93H494.65C494.736 375.762 494.823 375.762 494.91 375.77H494.69H493.99H491.28L481 376L446.16 376.11H445.92V375.87C445.92 373.8 445.92 371.68 445.92 369.54V363L446.17 362.75L494.82 362.84H495V363C495 367.06 494.94 370.29 494.92 372.53C494.92 373.6 494.92 374.43 494.92 375.03C494.92 375.29 494.92 375.5 494.92 375.66C494.899 375.73 494.868 375.798 494.83 375.86Z" fill="#E0E0E0"/>
<path d="M588.41 241.24C588.401 241.163 588.401 241.086 588.41 241.01C588.41 240.84 588.41 240.62 588.41 240.35C588.41 239.74 588.41 238.9 588.41 237.81C588.41 235.59 588.36 232.4 588.33 228.37L588.48 228.52L539.83 228.62C539.94 228.51 539.58 228.87 540.07 228.37V241.24L539.82 241L574.49 241.11L584.73 241.18H587.5H588.22H588.48C588.404 241.189 588.326 241.189 588.25 241.18H587.56H584.84L574.66 241.25L539.82 241.36H539.58V228.39C540.07 227.9 539.71 228.25 539.83 228.14L588.48 228.24H588.63V228.39C588.63 232.46 588.56 235.68 588.54 237.92C588.54 238.99 588.54 239.83 588.54 240.42C588.54 240.68 588.54 240.89 588.54 241.06C588.502 241.124 588.459 241.184 588.41 241.24Z" fill="#E0E0E0"/>
<path d="M315.55 578.62L304.55 583.35L305.29 518.1C305.63 510.29 302.04 506.96 300.09 504.74C282.38 484.6 255.97 499.21 255.74 519.62L255.08 577.93L244.37 577.81L245.43 516.81C245.51 509.94 250.85 498.02 256.24 493.75C286.04 470.14 316.53 494.53 316.24 520.33L315.55 578.62Z" fill="#F5F5F5"/>
<path d="M315.55 578.621V577.451C315.55 576.681 315.55 575.551 315.55 574.071C315.55 571.071 315.61 566.721 315.65 561.071C315.69 555.421 315.76 548.571 315.83 540.581C315.87 536.581 315.91 532.324 315.95 527.811C315.95 523.291 316.36 518.481 315.43 513.541C314.499 508.367 312.402 503.474 309.3 499.231C308.89 498.681 308.5 498.121 308.07 497.581C307.64 497.041 307.15 496.581 306.69 496.031C305.75 494.988 304.748 494.003 303.69 493.081C303.18 492.591 302.58 492.201 302.02 491.751C301.46 491.301 300.91 490.841 300.28 490.481C299.068 489.673 297.806 488.945 296.5 488.301C293.828 486.957 291 485.949 288.08 485.301L285.82 484.931L284.69 484.741L283.54 484.671L281.22 484.521C280.44 484.521 279.66 484.571 278.88 484.601C272.415 484.894 266.157 486.971 260.8 490.601C255.162 494.418 250.742 499.778 248.07 506.041C246.727 509.271 245.846 512.674 245.45 516.151C245.15 519.651 245.23 523.261 245.16 526.871C245 541.341 244.83 556.321 244.66 571.671C244.66 573.717 244.637 575.757 244.59 577.791L244.34 577.531L255.05 577.651L254.8 577.901C254.927 566.301 255.057 554.967 255.19 543.901C255.25 538.394 255.313 532.964 255.38 527.611C255.38 524.944 255.41 522.294 255.47 519.661C255.527 517.031 255.965 514.424 256.77 511.921C258.411 507.049 261.503 502.795 265.63 499.731C266.119 499.345 266.63 498.987 267.16 498.661L268.76 497.661C269.846 497.086 270.972 496.591 272.13 496.181C273.274 495.764 274.447 495.429 275.64 495.181C276.23 495.051 276.83 495.001 277.42 494.901L278.31 494.781H279.21C281.559 494.65 283.915 494.849 286.21 495.371C288.446 495.907 290.604 496.731 292.63 497.821C298.394 501.02 302.695 506.328 304.63 512.631C305.195 514.585 305.531 516.598 305.63 518.631C305.63 519.131 305.63 519.631 305.68 520.121C305.73 520.611 305.68 521.121 305.68 521.591C305.68 522.591 305.68 523.531 305.68 524.491C305.68 526.401 305.68 528.281 305.61 530.121C305.51 537.481 305.43 544.241 305.35 550.341C305.18 562.531 305.05 572.071 304.96 578.411L304.89 578.341L312.97 578.471H314.97H315.62H313L304.88 578.421H304.81V578.351C304.81 572.011 304.95 562.471 305.06 550.281C305.12 544.181 305.19 537.411 305.26 530.051C305.26 528.211 305.26 526.331 305.32 524.421C305.32 523.421 305.32 522.501 305.32 521.521C305.32 521.041 305.32 520.521 305.32 520.061L305.26 518.591C305.111 514.492 303.894 510.504 301.73 507.021C299.473 503.29 296.277 500.218 292.46 498.111C290.468 497.043 288.347 496.237 286.15 495.711C283.884 495.202 281.558 495.014 279.24 495.151H278.36L277.49 495.281C276.9 495.371 276.31 495.421 275.73 495.551C273.38 496.052 271.11 496.869 268.98 497.981L267.41 498.921C266.891 499.225 266.39 499.558 265.91 499.921C261.853 502.937 258.82 507.126 257.22 511.921C256.432 514.379 256.008 516.939 255.96 519.521C255.96 522.147 255.93 524.797 255.87 527.471C255.81 532.804 255.75 538.234 255.69 543.761C255.57 554.761 255.44 566.131 255.31 577.761V578.011H255.06L244.34 577.891H244.09V577.641C244.09 575.641 244.113 573.601 244.16 571.521C244.34 556.181 244.51 541.201 244.68 526.721C244.75 523.101 244.68 519.531 244.97 515.951C245.378 512.429 246.277 508.983 247.64 505.711C249.034 502.583 250.836 499.654 253 497.001C255.192 494.415 257.717 492.131 260.51 490.211C265.937 486.53 272.279 484.425 278.83 484.131C279.62 484.131 280.41 484.041 281.2 484.061L283.89 484.221L285.37 484.391L287.61 484.761L288.61 484.981C291.387 485.63 294.073 486.618 296.61 487.921C297.935 488.57 299.214 489.309 300.44 490.131C301.07 490.501 301.61 491.001 302.19 491.421C302.77 491.841 303.36 492.271 303.89 492.761C304.949 493.7 305.95 494.702 306.89 495.761L308.29 497.331C308.72 497.881 309.11 498.451 309.52 499.011C312.651 503.301 314.761 508.251 315.69 513.481C316.62 518.481 316.15 523.321 316.18 527.841C316.21 532.361 316.06 536.661 316.01 540.661C315.9 548.661 315.8 555.541 315.72 561.171C315.64 566.801 315.58 571.171 315.53 574.111C315.53 575.571 315.53 576.701 315.47 577.461C315.41 578.221 315.55 578.621 315.55 578.621Z" fill="#E0E0E0"/>
<path d="M232.137 539.721L329.13 540.822C330.122 540.833 331.069 541.238 331.762 541.947C332.456 542.657 332.839 543.612 332.828 544.604L331.977 619.569C331.967 620.471 331.599 621.332 330.954 621.962C330.309 622.592 329.441 622.941 328.539 622.93L231.245 621.827L232.177 539.722L232.137 539.721Z" fill="#E0E0E0"/>
<path d="M232.138 539.511L317.438 540.364C318.515 540.375 319.543 540.813 320.297 541.582C321.051 542.351 321.468 543.388 321.458 544.465L320.728 617.465C320.714 618.791 320.175 620.057 319.228 620.986C318.281 621.914 317.004 622.428 315.678 622.415L231.458 621.573C230.344 621.562 229.28 621.108 228.5 620.313C227.72 619.517 227.288 618.445 227.3 617.331L228.038 543.531C228.048 542.454 228.486 541.426 229.255 540.672C230.024 539.918 231.061 539.501 232.138 539.511Z" fill="#EBEBEB"/>
<path d="M286.849 574.151C286.867 572.617 286.576 571.095 285.994 569.675C285.412 568.256 284.551 566.967 283.462 565.887C282.372 564.807 281.077 563.957 279.652 563.387C278.228 562.817 276.703 562.54 275.169 562.571C272.219 562.659 269.413 563.87 267.326 565.957C265.239 568.045 264.027 570.85 263.939 573.801C263.893 576.303 264.671 578.75 266.153 580.767C267.634 582.784 269.738 584.257 272.139 584.961L264.489 600.681L284.239 601.271L278.399 585.001C280.795 584.356 282.916 582.948 284.441 580.99C285.965 579.033 286.811 576.632 286.849 574.151Z" fill="#E0E0E0"/>
<path d="M320.18 615.09C320.04 615.09 320.18 600.8 320.43 583.18C320.68 565.56 321.04 551.26 321.18 551.26C321.32 551.26 321.18 565.55 320.93 583.18C320.68 600.81 320.32 615.1 320.18 615.09Z" fill="#FAFAFA"/>
<path d="M299.34 543C299.34 543.14 286.77 543.28 271.26 543.31C255.75 543.34 243.17 543.25 243.17 543.11C243.17 542.97 255.74 542.84 271.26 542.81C286.78 542.78 299.34 542.84 299.34 543Z" fill="white"/>
<path d="M263.5 580.06C263.304 579.848 263.145 579.605 263.03 579.34C262.671 578.644 262.383 577.914 262.17 577.16C261.454 574.649 261.521 571.979 262.36 569.507C263.2 567.034 264.773 564.876 266.87 563.32C267.493 562.849 268.163 562.444 268.87 562.11C269.119 561.972 269.389 561.877 269.67 561.83C269.67 561.91 268.58 562.38 267.08 563.6C265.11 565.173 263.632 567.278 262.822 569.666C262.012 572.053 261.904 574.623 262.51 577.07C263 579 263.58 580 263.5 580.06Z" fill="white"/>
<path d="M268 585.54C267.93 585.66 267.26 585.37 266.5 584.9C265.74 584.43 265.19 583.95 265.26 583.83C265.33 583.71 266.01 584 266.77 584.47C267.53 584.94 268 585.42 268 585.54Z" fill="white"/>
<path d="M277.52 487.171C276.882 487.293 276.238 487.376 275.59 487.421C273.843 487.654 272.118 488.026 270.43 488.531C264.821 490.158 259.791 493.349 255.929 497.731C252.067 502.112 249.531 507.502 248.62 513.271C248.319 515.008 248.168 516.768 248.17 518.531C248.17 519.771 248.17 520.471 248.17 520.471C248.116 520.309 248.089 520.141 248.09 519.971C248.09 519.641 247.99 519.161 247.98 518.531C247.909 516.752 248.01 514.97 248.28 513.211C249.114 507.345 251.648 501.851 255.568 497.409C259.488 492.966 264.623 489.769 270.34 488.211C272.05 487.709 273.805 487.374 275.58 487.211C276.2 487.141 276.69 487.151 277.02 487.141C277.187 487.134 277.355 487.144 277.52 487.171Z" fill="white"/>
<path d="M247.639 529.32C247.412 528.337 247.351 527.323 247.459 526.32C247.391 525.31 247.496 524.295 247.769 523.32C248.071 525.313 248.027 527.343 247.639 529.32Z" fill="white"/>
<path d="M309.27 250.771H260.62V263.641H309.27V250.771Z" fill="#F5F5F5"/>
<path d="M288.7 277.2C288.7 277.2 288.7 277.12 288.7 276.97V276.31C288.7 275.7 288.7 274.85 288.7 273.77C288.7 271.55 288.7 268.36 288.62 264.33L288.77 264.48L240.12 264.58C240.23 264.47 239.87 264.82 240.37 264.33V270.85C240.37 272.997 240.37 275.107 240.37 277.18L240.13 276.94L274.8 277.05L285.03 277.12H287.8H288.52C288.606 277.112 288.693 277.112 288.78 277.12H288.56H287.86H285.15L274.97 277.19L240.13 277.3H239.89V277.06C239.89 274.987 239.89 272.877 239.89 270.73V264.21L240.14 263.96L288.79 264.06H288.94V264.21C288.94 268.27 288.88 271.5 288.86 273.74C288.86 274.81 288.86 275.64 288.86 276.24C288.86 276.5 288.86 276.71 288.86 276.87C288.86 277.03 288.71 277.2 288.7 277.2Z" fill="#E0E0E0"/>
<path d="M484.21 473.03H435.56V485.9H484.21V473.03Z" fill="#F5F5F5"/>
<path d="M463.64 499.46C463.633 499.38 463.633 499.3 463.64 499.22V498.56C463.64 497.96 463.64 497.11 463.64 496.03C463.64 493.81 463.59 490.62 463.56 486.59L463.71 486.74L415.06 486.84C415.17 486.73 414.81 487.08 415.3 486.59V499.44L415.06 499.2L449.73 499.31L459.96 499.38H462.73H463.45H463.71H463.48H462.79H460.08L449.9 499.45L415 499.7H414.75V486.61L415 486.36L463.65 486.46H463.8V486.61C463.8 490.67 463.74 493.9 463.72 496.14C463.72 497.21 463.72 498.04 463.72 498.64C463.72 498.9 463.72 499.11 463.72 499.27C463.697 499.335 463.67 499.399 463.64 499.46Z" fill="#E0E0E0"/>
<path d="M165.259 230.61C165.251 230.533 165.251 230.456 165.259 230.38C165.259 230.21 165.259 229.99 165.259 229.72C165.259 229.11 165.259 228.27 165.259 227.18C165.259 224.96 165.259 221.77 165.179 217.74L165.329 217.89L116.609 218C116.719 217.89 116.359 218.25 116.849 217.75V230.61L116.609 230.37L151.279 230.48L161.509 230.55H164.279H164.999H165.259C165.183 230.559 165.106 230.559 165.029 230.55H164.339H161.619L151.449 230.62L116.609 230.73H116.359V217.76L116.609 217.51L165.259 217.61H165.409V217.76C165.409 221.83 165.349 225.05 165.329 227.29C165.329 228.36 165.329 229.2 165.329 229.79C165.329 230.05 165.329 230.26 165.329 230.43C165.311 230.492 165.287 230.552 165.259 230.61Z" fill="#E0E0E0"/>
<path d="M455.36 212.13C455.36 212.13 455.36 212.04 455.36 211.89V211.23C455.36 210.63 455.36 209.78 455.36 208.7C455.36 206.48 455.36 203.28 455.28 199.26L455.43 199.41L406.78 199.5L407.03 199.26V205.8C407.03 207.954 407.03 210.064 407.03 212.13L406.79 211.89L441.46 212L451.69 212.06H454.46H455.19C455.273 212.052 455.357 212.052 455.44 212.06H455.22H454.52H451.81L441.63 212.13L406.79 212.24H406.55V212C406.55 209.93 406.55 207.82 406.55 205.67V199.28L406.8 199.03L455.45 199.13H455.6V199.28C455.6 203.34 455.54 206.57 455.52 208.81C455.52 209.88 455.52 210.71 455.52 211.31V211.94C455.476 212.011 455.422 212.075 455.36 212.13Z" fill="#E0E0E0"/>
<path d="M462 199.26C461.993 199.177 461.993 199.093 462 199.01C462 198.83 462 198.6 462 198.33C462 197.7 462 196.84 462 195.75C462 193.49 461.94 190.31 461.9 186.39L462.08 186.56L432.85 186.63L433.09 186.39V193C433.09 195.15 433.09 197.24 433.09 199.24L432.86 199L453.77 199.11L459.86 199.18H461.5H462.09C461.914 199.194 461.737 199.194 461.56 199.18H459.96L453.96 199.24L432.89 199.35H432.65V199.12C432.65 197.12 432.65 195.03 432.65 192.88V186.41C432.59 186.41 433.12 185.94 432.9 186.16L462.13 186.23H462.31V186.41C462.31 190.41 462.23 193.59 462.21 195.88C462.21 196.95 462.21 197.79 462.21 198.42C462.21 199.05 462 199.27 462 199.26Z" fill="#E0E0E0"/>
<path d="M148.36 519.001C148.356 518.924 148.356 518.847 148.36 518.771C148.36 518.601 148.36 518.381 148.36 518.111C148.36 517.501 148.36 516.661 148.36 515.581C148.36 513.361 148.36 510.161 148.28 506.131L148.43 506.281L99.7798 506.381L100.03 506.131V512.661C100.03 514.807 100.03 516.917 100.03 518.991L99.7898 518.751L134.46 518.861L144.69 518.931H147.46H148.19H148.44C148.44 518.931 148.37 518.931 148.22 518.931H147.52H144.81L134.63 519.001L99.7898 519.111H99.5498V519.001C99.5498 516.931 99.5498 514.821 99.5498 512.671V506.141C100.05 505.651 99.6898 506.011 99.7998 505.901L148.45 505.991H148.6V506.141C148.6 510.211 148.54 513.431 148.52 515.681C148.52 516.751 148.52 517.581 148.52 518.181V518.811C148.37 519.001 148.37 519.001 148.36 519.001Z" fill="#E0E0E0"/>
<path d="M154.999 506.15C154.992 506.07 154.992 505.99 154.999 505.91C154.999 505.72 154.999 505.5 154.999 505.23C154.999 504.59 154.999 503.73 154.999 502.65C154.999 500.39 154.939 497.2 154.899 493.28L155.079 493.46L125.849 493.53C125.629 493.75 126.149 493.23 126.089 493.28V499.9C126.089 502.06 126.089 504.14 126.089 506.14L125.859 505.91L146.769 506.02L152.859 506.09H154.499H155.089C154.913 506.104 154.736 506.104 154.559 506.09H152.959L146.959 506.16L125.889 506.27H125.649V506.03C125.649 504.03 125.649 501.95 125.649 499.79V493.17L125.899 492.92L154.999 493.1H155.179V493.28C155.179 497.28 155.099 500.47 155.079 502.75C155.079 503.82 155.079 504.67 155.079 505.3C155.079 505.93 154.999 506.17 154.999 506.15Z" fill="#E0E0E0"/>
<path d="M301.559 413.19C301.551 413.113 301.551 413.036 301.559 412.96V412.3C301.559 411.69 301.559 410.85 301.559 409.77C301.559 407.54 301.509 404.35 301.479 400.32L301.63 400.47L252.979 400.57C253.089 400.46 252.729 400.82 253.219 400.32V413.17L252.979 412.93L287.649 413.04L297.88 413.11H300.649H301.369H301.63H301.399H300.71H297.99L287.82 413.17L252.979 413.28H252.729V400.18L252.979 399.93L301.63 400.03H301.779V400.18C301.779 404.25 301.719 407.47 301.699 409.72C301.699 410.78 301.699 411.62 301.699 412.21V412.85C301.67 412.969 301.623 413.084 301.559 413.19Z" fill="#E0E0E0"/>
<path d="M308.16 400.32C308.146 400.241 308.146 400.159 308.16 400.08C308.16 399.89 308.16 399.67 308.16 399.39L308.11 396.81C308.11 394.56 308.11 391.37 308.02 387.45L308.2 387.63L278.96 387.7L279.21 387.45V394.07C279.21 396.22 279.21 398.31 279.21 400.31L278.97 400.08L299.88 400.19L305.98 400.25H307.62H308.21C308.031 400.263 307.85 400.263 307.67 400.25H306.08L300.08 400.32L279.01 400.43H278.78V400.19C278.78 398.19 278.78 396.1 278.78 393.95V387.33C278.78 387.38 279.26 386.86 279.03 387.08L308.27 387.15H308.45V387.33C308.45 391.33 308.38 394.52 308.36 396.8C308.36 397.87 308.36 398.72 308.31 399.34C308.26 399.96 308.17 400.33 308.16 400.32Z" fill="#E0E0E0"/>
<path d="M589 622.89C589 623.03 483.695 623.15 353.835 623.15C223.974 623.15 118.64 623 118.64 622.89C118.64 622.78 223.923 622.63 353.835 622.63C483.747 622.63 589 622.75 589 622.89Z" fill="#263238"/>
<path d="M121.42 567.6L103.45 592L133.71 614.52C135.71 611.52 124.34 594.04 124.34 594.04L136.5 578.88L121.42 567.6Z" fill="#455A64"/>
<path d="M116 585.78C115.644 585.65 115.253 585.657 114.902 585.8C114.551 585.942 114.265 586.209 114.1 586.55C113.959 586.903 113.959 587.296 114.098 587.649C114.238 588.002 114.507 588.288 114.85 588.45C115.227 588.583 115.64 588.571 116.009 588.418C116.378 588.265 116.678 587.981 116.85 587.62C116.961 587.237 116.918 586.826 116.732 586.473C116.545 586.121 116.229 585.854 115.85 585.73" fill="white"/>
<path d="M103.41 592.06L105.32 589.44L133.59 612.2C133.59 612.2 134.49 613.8 133.59 614.63L103.41 592.06Z" fill="#263238"/>
<path d="M125 594.26C124.89 594.41 124.1 593.93 123 593.86C121.9 593.79 121.07 594.13 121 593.97C120.93 593.81 121.77 593.12 123.07 593.22C124.37 593.32 125.08 594.15 125 594.26Z" fill="#263238"/>
<path d="M127.15 597.94C127.07 598.11 126.25 597.88 125.28 598.13C124.31 598.38 123.68 598.94 123.53 598.82C123.38 598.7 123.92 597.82 125.13 597.51C126.34 597.2 127.25 597.8 127.15 597.94Z" fill="#263238"/>
<path d="M126.12 603.08C125.96 603.01 126.31 602.08 127.29 601.59C128.27 601.1 129.2 601.26 129.17 601.43C129.14 601.6 128.39 601.71 127.6 602.16C126.81 602.61 126.28 603.17 126.12 603.08Z" fill="#263238"/>
<path d="M127.34 590.5C127.17 590.59 126.65 589.88 125.77 589.32C124.89 588.76 124.05 588.53 124.06 588.32C124.07 588.11 125.06 588.07 126.12 588.75C127.18 589.43 127.5 590.44 127.34 590.5Z" fill="#263238"/>
<path d="M194.58 465.46C195.12 468.52 195.98 494.55 196.53 508.28C197.08 522.01 195.71 528.76 194.14 531.84C192.57 534.92 133.36 578.55 128.85 589L113.85 576.91C113.85 576.91 135.85 537.42 145.23 530.24C154.61 523.06 172.66 516.47 172.66 516.47L167.53 441.28L192.12 439.94L194.58 465.46Z" fill="#263238"/>
<path d="M139.55 591.73L139.29 622L177 622.52C176.83 618.92 157.42 611.41 157.42 611.41L158.42 592L139.55 591.73Z" fill="#455A64"/>
<path d="M145.78 609.66C145.416 609.765 145.104 610.001 144.903 610.322C144.702 610.643 144.626 611.026 144.69 611.4C144.783 611.768 145.012 612.086 145.332 612.291C145.652 612.495 146.037 612.57 146.41 612.5C146.794 612.385 147.123 612.134 147.333 611.792C147.543 611.451 147.621 611.044 147.55 610.65C147.416 610.276 147.142 609.969 146.785 609.793C146.429 609.618 146.018 609.588 145.64 609.71" fill="white"/>
<path d="M139.28 622.11V618.86L175.53 620.74C175.53 620.74 177.19 621.51 176.98 622.69L139.28 622.11Z" fill="#263238"/>
<path d="M158 611.27C158 611.46 157.07 611.53 156.16 612.11C155.25 612.69 154.75 613.45 154.58 613.38C154.41 613.31 154.7 612.24 155.82 611.56C156.94 610.88 158.08 611.1 158 611.27Z" fill="#263238"/>
<path d="M162 613C162 613.18 161.23 613.48 160.6 614.25C159.97 615.02 159.77 615.85 159.6 615.83C159.43 615.81 159.31 614.78 160.12 613.83C160.93 612.88 162 612.79 162 613Z" fill="#263238"/>
<path d="M164.15 617.73C163.98 617.73 163.74 616.84 164.22 615.84C164.7 614.84 165.58 614.45 165.65 614.6C165.72 614.75 165.19 615.29 164.8 616.12C164.41 616.95 164.33 617.71 164.15 617.73Z" fill="#263238"/>
<path d="M157.76 606.82C157.68 606.99 156.84 606.72 155.76 606.82C154.68 606.92 153.9 607.19 153.76 607.03C153.62 606.87 154.45 606.23 155.68 606.18C156.91 606.13 157.85 606.68 157.76 606.82Z" fill="#263238"/>
<path d="M197.3 436.83C197.3 438.6 200.17 483.41 185.52 515.83C185.52 515.83 180.45 525.97 179.52 530.4C178.59 534.83 159.64 608.31 159.64 608.31L137.74 607.51C137.74 607.51 134.24 570.7 137.74 549.39C141.24 528.08 147.74 530.58 147.74 516.82C147.74 503.06 144.47 474.53 144.47 474.53C144.47 474.53 139.69 466.74 138.06 451.63C136.73 439.36 142.51 426.21 142.51 426.21L148.22 416.1L196.53 413.57L197.3 436.83Z" fill="#263238"/>
<path d="M197.3 436.83C197.3 436.83 197.3 436.31 197.3 435.3C197.3 434.29 197.24 432.79 197.2 430.82C197.11 426.87 196.96 421.05 196.78 413.53V413.42H196.66L148.35 415.88H148.25L148.19 415.97C146.42 419.11 144.47 422.54 142.47 426.08C140.982 429.668 139.821 433.383 139 437.18C138.093 441.177 137.686 445.272 137.79 449.37C138.094 453.649 138.763 457.895 139.79 462.06C140.78 466.433 142.337 470.659 144.42 474.63V474.53C145.25 481.99 146.02 489.72 146.67 497.68C146.99 501.68 147.27 505.68 147.47 509.79C147.57 511.79 147.65 513.89 147.66 515.96C147.66 516.96 147.66 518.03 147.6 519.06C147.529 520.093 147.402 521.121 147.22 522.14C146.811 524.193 146.085 526.17 145.07 528C144.07 529.87 143.07 531.72 142.07 533.67C140.259 537.628 138.939 541.792 138.14 546.07C136.4 554.67 136.05 563.61 135.95 572.62C135.95 584.51 136.51 596.19 137.49 607.48V607.72H137.72L159.62 608.52H159.83L159.88 608.31C166.23 583.7 172.15 560.7 177.37 540.02L179.26 532.37C179.59 531.1 179.8 529.84 180.19 528.64C180.58 527.44 181.02 526.25 181.48 525.09C182.42 522.77 183.48 520.52 184.48 518.33L185.26 516.7C185.537 516.168 185.784 515.62 186 515.06C186.45 513.95 186.9 512.86 187.35 511.77C190.46 503.705 192.774 495.355 194.26 486.84C196.402 474.709 197.506 462.418 197.56 450.1C197.62 441.48 197.27 436.8 197.27 436.8C197.27 436.8 197.27 437.09 197.27 437.66C197.27 438.23 197.27 439.1 197.33 440.22C197.39 442.47 197.43 445.79 197.33 450.1C197.237 462.408 196.124 474.687 194 486.81C192.48 495.298 190.135 503.617 187 511.65L185.66 514.92C185.44 515.48 185.19 516.01 184.92 516.55C184.65 517.09 184.39 517.64 184.13 518.19C183.13 520.38 182.07 522.63 181.13 524.96C180.66 526.13 180.21 527.32 179.82 528.54C179.43 529.76 179.2 531.05 178.88 532.29C178.25 534.81 177.62 537.35 176.97 539.94C171.66 560.6 165.75 583.6 159.42 608.21L159.68 608.02L137.78 607.21L138.04 607.45C137.04 596.18 136.46 584.51 136.5 572.64C136.6 563.64 136.95 554.74 138.68 546.2C139.477 541.962 140.783 537.835 142.57 533.91C143.47 531.98 144.57 530.15 145.57 528.25C146.579 526.37 147.294 524.346 147.69 522.25C147.88 521.208 148.01 520.157 148.08 519.1C148.08 518.1 148.18 517 148.14 515.97C148.14 513.89 148.05 511.82 147.95 509.77C147.75 505.67 147.46 501.63 147.13 497.65C146.463 489.65 145.707 481.927 144.86 474.48V474.42C142.776 470.5 141.213 466.325 140.21 462C139.189 457.864 138.52 453.649 138.21 449.4C138.102 445.34 138.499 441.282 139.39 437.32C140.196 433.561 141.33 429.88 142.78 426.32L148.48 416.2L148.32 416.3L196.63 413.69L196.5 413.58C196.74 421.09 196.92 426.91 197.04 430.86C197.11 432.86 197.16 434.32 197.2 435.34C197.24 436.36 197.3 436.83 197.3 436.83Z" fill="#455A64"/>
<path d="M181.59 345.07C181.59 345.07 168.59 342.77 169.8 359.5C170.56 369.5 173.5 386.66 175.13 397.61C175.69 401.4 176.93 408.18 181.94 412.16L217.84 437L229.17 423.45L197.11 392.92L192.11 362.72L181.59 345.07Z" fill="#455A64"/>
<path d="M183.12 284.77C185.181 286.429 186.811 288.56 187.873 290.983C188.935 293.407 189.397 296.05 189.22 298.69C189.02 301.25 188.31 304.16 189.98 306.11C191.65 308.06 194.85 307.99 196.43 309.97C198.28 312.31 196.73 315.79 197.43 318.7C197.787 320.059 198.616 321.247 199.768 322.051C200.921 322.855 202.321 323.223 203.72 323.09C200.438 325.775 196.48 327.505 192.28 328.09L189 324C190.22 325.44 189.89 327.73 188.72 329.2C187.449 330.568 185.81 331.54 184 332C179.692 333.325 175.136 333.638 170.688 332.915C166.239 332.192 162.017 330.451 158.35 327.83" fill="#263238"/>
<path d="M135.09 307.34C135.73 305.34 136.81 303.57 137.24 301.56C138.16 297.23 136.05 292.35 138.15 288.45C139.65 285.68 142.83 284.32 145.85 283.39C148.87 282.46 152.09 281.68 154.34 279.47C155.98 277.85 156.92 275.61 158.56 273.99C160.9 271.67 164.36 270.88 167.64 270.68C171.027 270.353 174.441 270.908 177.55 272.29C179.094 272.995 180.451 274.052 181.51 275.378C182.57 276.703 183.303 278.259 183.65 279.92C183.91 281.54 183.71 283.25 184.23 284.82C184.79 286.54 186.14 287.88 186.98 289.49C187.822 291.219 188.065 293.179 187.672 295.061C187.279 296.943 186.273 298.642 184.81 299.89L161.63 329.83C156.76 331.67 144.96 329.45 141.2 325.83C137.44 322.21 133.48 312.29 135.09 307.34Z" fill="#263238"/>
<path d="M184.2 296.09C183.2 289.29 178.07 281.26 171.32 282.5L150.48 289.5C148.48 289.88 149.9 293.23 150.1 295.3L154.63 342.3C154.63 342.3 151.81 344.3 150.81 343.92C150.753 343.9 150.691 343.898 150.633 343.915C150.575 343.932 150.524 343.967 150.487 344.014C150.449 344.061 150.428 344.119 150.425 344.179C150.422 344.24 150.437 344.299 150.47 344.35C153 348 164.79 363.87 177 359C179.72 357.91 176.71 349.34 177 346.17L176.64 338.06C176.37 333.92 176.24 332.22 176.24 332.26C176.24 332.3 184.86 330.14 185.79 318.61C186.26 312.9 185.26 303.64 184.2 296.09Z" fill="#FFBF9D"/>
<path d="M182.75 306.55C182.781 306.93 182.662 307.308 182.42 307.603C182.177 307.898 181.829 308.087 181.45 308.13C181.265 308.16 181.076 308.152 180.894 308.107C180.712 308.063 180.541 307.982 180.391 307.87C180.241 307.758 180.115 307.617 180.02 307.456C179.925 307.294 179.864 307.115 179.84 306.93C179.809 306.549 179.927 306.171 180.17 305.877C180.412 305.582 180.76 305.393 181.14 305.35C181.324 305.32 181.513 305.328 181.695 305.372C181.877 305.417 182.048 305.498 182.198 305.61C182.348 305.721 182.474 305.862 182.569 306.024C182.664 306.185 182.725 306.364 182.75 306.55Z" fill="#263238"/>
<path d="M168.55 307.44C168.584 307.82 168.468 308.198 168.227 308.493C167.986 308.788 167.639 308.978 167.26 309.02C167.075 309.049 166.887 309.04 166.706 308.995C166.524 308.95 166.354 308.869 166.204 308.757C166.054 308.645 165.928 308.505 165.833 308.344C165.738 308.184 165.676 308.005 165.65 307.82C165.619 307.44 165.737 307.062 165.98 306.767C166.223 306.472 166.571 306.283 166.95 306.24C167.134 306.211 167.323 306.219 167.504 306.263C167.685 306.308 167.856 306.389 168.005 306.501C168.154 306.613 168.279 306.754 168.373 306.915C168.467 307.077 168.527 307.255 168.55 307.44Z" fill="#263238"/>
<path d="M183.27 301.73C183.11 302 181.75 301.14 180.05 301.39C178.35 301.64 177.26 302.8 177.05 302.59C176.84 302.38 177.05 302.03 177.54 301.5C178.155 300.809 178.996 300.36 179.912 300.234C180.829 300.107 181.76 300.312 182.54 300.81C183.1 301.2 183.35 301.61 183.27 301.73Z" fill="#263238"/>
<path d="M168 303C167.8 303.25 166.47 302.28 164.64 302.36C162.81 302.44 161.51 303.47 161.3 303.24C161.09 303.01 161.39 302.7 161.96 302.24C162.708 301.622 163.641 301.27 164.61 301.24C165.575 301.202 166.525 301.487 167.31 302.05C167.88 302.46 168.09 302.88 168 303Z" fill="#263238"/>
<path d="M173.73 313.77C174.537 313.44 175.384 313.218 176.25 313.11C176.64 313.04 177.02 312.93 177.06 312.65C177.065 312.232 176.939 311.823 176.7 311.48C176.25 310.54 175.78 309.55 175.28 308.48C173.28 304.25 171.83 300.77 172 300.69C172.17 300.61 173.92 303.97 175.9 308.19C176.38 309.24 176.84 310.19 177.27 311.19C177.562 311.654 177.679 312.207 177.6 312.75C177.554 312.896 177.475 313.03 177.369 313.141C177.263 313.252 177.134 313.337 176.99 313.39C176.773 313.464 176.548 313.511 176.32 313.53C175.469 313.712 174.599 313.793 173.73 313.77Z" fill="#263238"/>
<path d="M176.239 332.28C170.884 332.772 165.498 331.768 160.679 329.38C160.679 329.38 165.129 337.08 176.439 335.14L176.239 332.28Z" fill="#FF9A6C"/>
<path d="M168.94 318.35C169.118 317.955 169.394 317.611 169.74 317.35C170.164 317.148 170.645 317.102 171.1 317.22C171.775 317.319 172.4 317.635 172.88 318.12C173.115 318.365 173.281 318.668 173.36 318.999C173.44 319.329 173.429 319.675 173.33 320C173.15 320.66 172.17 321 171.5 321.14C170.806 321.241 170.098 321.096 169.5 320.73C169.24 320.612 169.013 320.431 168.838 320.204C168.664 319.978 168.548 319.712 168.5 319.43C168.544 319.036 168.697 318.663 168.94 318.35Z" fill="#FF9A6C"/>
<path d="M169.26 316.14C169.51 316.14 169.65 317.81 171.2 318.91C172.75 320.01 174.55 319.68 174.58 319.91C174.61 320.14 174.21 320.27 173.44 320.35C172.441 320.441 171.442 320.176 170.62 319.6C169.827 319.053 169.282 318.216 169.1 317.27C169 316.58 169.14 316.14 169.26 316.14Z" fill="#263238"/>
<path d="M167.86 296.85C167.73 297.28 166.15 297.2 164.32 297.57C162.49 297.94 161.04 298.57 160.77 298.18C160.65 298.01 160.87 297.59 161.44 297.13C162.204 296.561 163.087 296.175 164.024 296.002C164.96 295.828 165.923 295.872 166.84 296.13C167.54 296.33 167.91 296.64 167.86 296.85Z" fill="#263238"/>
<path d="M182.3 296C182.01 296.38 180.75 296.11 179.3 296.21C177.85 296.31 176.57 296.66 176.25 296.31C176.11 296.14 176.25 295.76 176.8 295.38C177.523 294.904 178.364 294.637 179.23 294.61C180.09 294.549 180.95 294.732 181.71 295.14C182.23 295.44 182.43 295.8 182.3 296Z" fill="#263238"/>
<path d="M145.87 291.14C146.87 289.52 148.81 288.69 150.61 288C158.384 284.998 166.488 282.933 174.75 281.85C175.75 283.54 174.83 285.85 173.28 287.08C171.73 288.31 169.73 288.8 167.88 289.49C166.03 290.18 164.12 291.26 163.35 293.09C162.58 294.92 163.23 297.33 162.51 299.31C161.28 302.73 156.51 303.83 155.32 307.24C154.4 309.83 155.9 312.58 156.32 315.3C156.512 316.68 156.408 318.086 156.014 319.423C155.619 320.759 154.944 321.997 154.034 323.052C153.123 324.107 151.998 324.956 150.734 325.542C149.469 326.128 148.094 326.437 146.7 326.45C146.14 316.656 145.577 306.87 145.01 297.09C144.84 295.05 144.76 292.85 145.87 291.14Z" fill="#263238"/>
<path d="M126.15 315.87C127.7 314.48 129.64 313.28 130.25 311.3C131.15 308.41 128.83 305.02 130.33 302.39C131.69 299.99 135.7 300.12 136.97 297.67C137.97 295.75 136.82 294.06 137.19 292.38C137.56 290.7 139.96 289.23 141.66 289.43L155 308.8C156.24 315.3 157.49 318.8 156.1 322.56C155.181 324.584 154.487 326.703 154.03 328.88C153.73 331.08 154.3 333.57 156.09 334.88C148.09 335.51 140.61 331.33 133.69 327.28L126.4 323C125.602 322.618 124.914 322.04 124.4 321.32C123.31 319.54 124.61 317.25 126.15 315.87Z" fill="#263238"/>
<path d="M133.52 325.31C133.799 325.399 134.088 325.456 134.38 325.48C135.214 325.559 136.056 325.498 136.87 325.3C138.17 324.988 139.366 324.344 140.34 323.43C141.628 322.191 142.435 320.536 142.62 318.76C142.74 317.729 142.652 316.685 142.36 315.69C142.002 314.629 141.504 313.62 140.88 312.69C140.219 311.745 139.703 310.707 139.35 309.61C139.163 309.048 139.104 308.452 139.179 307.866C139.253 307.279 139.459 306.716 139.78 306.22C140.5 305.22 141.85 305.01 143.11 304.51C143.791 304.265 144.383 303.823 144.81 303.24C145.204 302.616 145.396 301.886 145.36 301.15C145.187 299.738 144.883 298.345 144.45 296.99C144.297 296.332 144.297 295.647 144.45 294.99C144.626 294.326 145.034 293.748 145.6 293.36C146.817 292.658 148.196 292.286 149.6 292.28C151.054 292.232 152.472 291.815 153.72 291.07C154.935 290.329 155.922 289.266 156.57 288C157.103 286.783 157.44 285.491 157.57 284.17C157.709 282.946 157.97 281.74 158.35 280.57C158.771 279.505 159.412 278.541 160.23 277.74C161.74 276.307 163.688 275.426 165.76 275.24C167.488 275.092 169.222 275.439 170.76 276.24C171.917 276.832 172.96 277.624 173.84 278.58C174.576 279.414 175.214 280.33 175.74 281.31C175.74 281.31 175.74 281.24 175.67 281.1C175.588 280.901 175.495 280.707 175.39 280.52C175.008 279.794 174.542 279.116 174 278.5C173.121 277.505 172.071 276.676 170.9 276.05C169.346 275.195 167.58 274.803 165.81 274.92C163.639 275.079 161.587 275.979 160 277.47C159.126 278.314 158.444 279.337 158 280.47C157.604 281.662 157.329 282.892 157.18 284.14C157.042 285.417 156.704 286.666 156.18 287.84C155.57 289.02 154.651 290.012 153.52 290.71C152.329 291.408 150.981 291.797 149.6 291.84C148.096 291.836 146.617 292.237 145.32 293C144.671 293.441 144.203 294.101 144 294.86C143.825 295.599 143.825 296.37 144 297.11C144.424 298.439 144.725 299.805 144.9 301.19C144.941 301.833 144.781 302.472 144.44 303.02C144.054 303.527 143.53 303.912 142.93 304.13C142.34 304.38 141.7 304.55 141.08 304.81C140.435 305.053 139.865 305.464 139.43 306C139.077 306.552 138.851 307.175 138.768 307.826C138.685 308.476 138.747 309.136 138.95 309.76C139.325 310.892 139.864 311.964 140.55 312.94C141.159 313.824 141.647 314.786 142 315.8C142.284 316.745 142.379 317.737 142.28 318.72C142.116 320.43 141.359 322.029 140.14 323.24C139.207 324.143 138.057 324.791 136.8 325.12C135.73 325.399 134.615 325.464 133.52 325.31Z" fill="#455A64"/>
<path d="M122.86 311.54C122.729 311.737 122.641 311.958 122.6 312.19C122.467 312.876 122.588 313.587 122.94 314.19C123.184 314.621 123.527 314.988 123.94 315.26C124.455 315.572 125.048 315.731 125.65 315.72C126.382 315.704 127.095 315.488 127.712 315.095C128.329 314.702 128.827 314.147 129.15 313.49C129.531 312.737 129.726 311.904 129.72 311.06C129.696 310.154 129.506 309.259 129.16 308.42C128.53 306.69 127.37 305 127.35 302.98C127.312 302.483 127.375 301.983 127.535 301.511C127.695 301.038 127.948 300.603 128.28 300.23C129.091 299.561 130.133 299.237 131.18 299.33C132.346 299.415 133.517 299.294 134.64 298.97C135.229 298.731 135.726 298.311 136.06 297.77C136.382 297.233 136.583 296.633 136.65 296.01C136.708 294.816 136.61 293.619 136.36 292.45C136.181 291.353 136.246 290.23 136.55 289.16C137.117 287.119 138.445 285.372 140.26 284.28C141.984 283.402 143.897 282.963 145.83 283C147.549 283.004 149.257 282.734 150.89 282.2C152.218 281.713 153.436 280.965 154.47 280C155.263 279.268 155.937 278.418 156.47 277.48C156.939 276.702 157.261 275.845 157.42 274.95C157.123 275.795 156.751 276.611 156.31 277.39C155.05 279.493 153.11 281.102 150.81 281.95C149.191 282.446 147.504 282.689 145.81 282.67C143.82 282.614 141.848 283.054 140.07 283.95C138.161 285.07 136.752 286.876 136.13 289C135.81 290.128 135.739 291.312 135.92 292.47C136.154 293.601 136.252 294.756 136.21 295.91C136.187 296.459 136.013 296.991 135.708 297.447C135.403 297.904 134.978 298.268 134.48 298.5C133.412 298.804 132.298 298.915 131.19 298.83C130.03 298.729 128.877 299.088 127.98 299.83C127.614 300.247 127.336 300.735 127.165 301.262C126.993 301.79 126.93 302.347 126.98 302.9C127.024 303.938 127.272 304.958 127.71 305.9C128.1 306.8 128.53 307.64 128.86 308.48C129.196 309.277 129.386 310.127 129.42 310.99C129.434 311.779 129.263 312.56 128.92 313.27C128.63 313.883 128.177 314.405 127.612 314.779C127.046 315.153 126.388 315.364 125.71 315.39C125.154 315.41 124.604 315.275 124.12 315C123.706 314.759 123.362 314.414 123.12 314C122.77 313.444 122.625 312.782 122.71 312.13C122.76 311.77 122.89 311.55 122.86 311.54Z" fill="#263238"/>
<path d="M207.09 316.31C207.328 316.986 207.328 317.723 207.09 318.4C206.958 318.788 206.74 319.142 206.453 319.434C206.166 319.727 205.816 319.951 205.43 320.09C204.916 320.241 204.369 320.247 203.852 320.106C203.334 319.964 202.866 319.682 202.5 319.29C202.08 318.828 201.836 318.233 201.81 317.61C201.791 316.93 201.896 316.252 202.12 315.61C202.54 314.26 203.41 312.79 203.28 311.02C203.217 310.122 202.967 309.248 202.547 308.452C202.127 307.657 201.546 306.958 200.84 306.4C200.101 305.808 199.256 305.364 198.35 305.09C197.425 304.833 196.47 304.695 195.51 304.68C194.58 304.672 193.652 304.575 192.74 304.39C191.889 304.214 191.127 303.743 190.59 303.06C190.114 302.358 189.847 301.537 189.82 300.69C189.776 299.864 189.843 299.037 190.02 298.23C190.459 296.707 190.701 295.134 190.74 293.55C190.66 292.143 190.162 290.792 189.31 289.67C188.59 288.779 187.708 288.032 186.71 287.47C185.981 287.038 185.283 286.557 184.62 286.03C184.077 285.564 183.634 284.993 183.32 284.35C183.32 284.35 183.32 284.35 183.32 284.49C183.36 284.625 183.413 284.756 183.48 284.88C183.729 285.366 184.069 285.8 184.48 286.16C185.128 286.724 185.82 287.236 186.55 287.69C187.504 288.257 188.345 288.996 189.03 289.87C189.823 290.946 190.275 292.234 190.33 293.57C190.271 295.118 190.019 296.653 189.58 298.14C189.387 298.985 189.309 299.853 189.35 300.72C189.387 301.653 189.685 302.557 190.21 303.33C190.806 304.101 191.657 304.636 192.61 304.84C193.548 305.032 194.502 305.136 195.46 305.15C196.386 305.162 197.306 305.289 198.2 305.53C199.049 305.793 199.842 306.21 200.54 306.76C201.197 307.278 201.74 307.927 202.134 308.665C202.528 309.403 202.765 310.215 202.83 311.05C202.97 312.66 202.17 314.05 201.73 315.5C201.499 316.195 201.397 316.927 201.43 317.66C201.474 318.358 201.76 319.02 202.24 319.53C202.651 319.96 203.174 320.266 203.751 320.413C204.327 320.56 204.934 320.541 205.5 320.36C205.914 320.199 206.286 319.946 206.587 319.621C206.889 319.295 207.112 318.905 207.24 318.48C207.421 317.959 207.449 317.396 207.32 316.86C207.277 316.664 207.199 316.478 207.09 316.31Z" fill="#263238"/>
<path d="M197.53 394.64V383.58C198.77 377.37 198.18 370.01 195.29 364.34C193.193 360.685 190.876 357.162 188.35 353.79L177.35 339.5C171.29 343.91 161.8 340.72 153.66 337.76C153.66 337.76 145.66 342.21 141.88 346.39C137.95 350.79 151.39 405.84 151.39 405.84C145.3 418.02 137.44 428.84 136.25 439.94L199.85 442.39L197.15 413.23L197.53 394.64Z" fill="#455A64"/>
<path d="M196.65 413.54C196.587 413.127 196.57 412.707 196.6 412.29C196.6 411.38 196.6 410.29 196.6 408.9C196.65 405.9 196.71 402.03 196.78 397.72C196.85 393.41 196.98 389.4 197.12 386.54C197.19 385.11 197.26 383.95 197.32 383.15C197.327 382.735 197.381 382.323 197.48 381.92C197.52 382.332 197.52 382.748 197.48 383.16C197.48 384.07 197.48 385.16 197.48 386.55C197.43 389.55 197.36 393.42 197.29 397.73C197.22 402.04 197.1 406.05 196.96 408.91C196.89 410.34 196.82 411.5 196.75 412.3C196.766 412.716 196.732 413.132 196.65 413.54Z" fill="#263238"/>
<path d="M225.7 423.6C225.7 423.6 231.9 423.94 235.7 426.34C239.5 428.74 245.7 432.48 248.25 437.11C249.42 439.24 246.09 439.69 244.44 438.46C242.79 437.23 240.28 434.89 239.03 434.61L237.78 434.32C238.921 436.903 240.193 439.426 241.59 441.88C242.88 443.88 244 447.2 240.12 447.35C240.12 447.35 237.51 450.75 234.87 448.23C234.87 448.23 232.81 451.32 229.49 447.04C229.49 447.04 227.55 449.49 226.75 448.55C225.95 447.61 223.3 446.13 222.53 443.07C221.375 439.508 220.04 436.007 218.53 432.58L225.7 423.6Z" fill="#FFBF9D"/>
<path d="M364.51 337.66C365.2 337.66 393.59 334.66 393.59 334.66C393.59 334.66 396 323.12 395.87 320.12C395.74 317.12 393.72 297.27 393.72 297.27L404.35 292.27C404.35 292.27 418.56 340.19 415.46 344.17C412.36 348.15 406.53 351.72 406.03 351.74C405.53 351.76 378.52 363.74 359.73 357.51C340.94 351.28 364.51 337.66 364.51 337.66Z" fill="#FFBF9D"/>
<path d="M339.63 363.53C343.81 367.68 351.01 371.13 363.03 368.13C386.79 362.19 404.6 357.13 411.68 353.33C418.76 349.53 416 332.55 416.6 331.78C418.39 329.46 416.42 324.48 413.87 323.7C406.6 321.5 393.95 322.37 393.31 323.03C389.58 326.95 392.98 331.71 392.98 331.71L361.65 335.82C357.798 335.639 353.938 335.884 350.14 336.55" fill="#455A64"/>
<path d="M350.14 336.55L350.89 336.39C351.39 336.3 352.13 336.17 353.11 336.05C355.945 335.693 358.805 335.573 361.66 335.69L392.98 331.49L392.83 331.84C391.801 330.326 391.295 328.518 391.39 326.69C391.475 325.745 391.784 324.833 392.29 324.03C392.544 323.627 392.832 323.245 393.15 322.89C393.275 322.797 393.413 322.723 393.56 322.67L393.92 322.58C394.16 322.52 394.39 322.5 394.62 322.45C398.5 322.003 402.414 321.922 406.31 322.21C408.355 322.335 410.388 322.615 412.39 323.05C412.89 323.16 413.39 323.31 413.91 323.44C414.443 323.61 414.932 323.897 415.34 324.28C416.135 325.036 416.741 325.967 417.11 327C417.507 328.034 417.647 329.149 417.52 330.25C417.428 330.823 417.213 331.369 416.89 331.85C416.8 331.95 416.81 332.22 416.8 332.48V333.28C416.87 335.43 416.97 337.62 416.91 339.82C416.926 342.943 416.415 346.047 415.4 349C414.878 350.48 413.983 351.799 412.8 352.83C412.187 353.309 411.515 353.705 410.8 354.01C410.14 354.36 409.44 354.63 408.8 354.95C406.06 356.12 403.31 357.08 400.6 357.95C397.89 358.82 395.23 359.66 392.6 360.43C382.14 363.43 372.6 365.86 364.66 367.85C362.763 368.351 360.84 368.749 358.9 369.04C357.161 369.282 355.405 369.376 353.65 369.32C350.831 369.26 348.05 368.655 345.46 367.54C343.835 366.823 342.321 365.881 340.96 364.74C340.481 364.353 340.032 363.928 339.62 363.47C339.62 363.47 340.08 363.91 341.03 364.66C342.408 365.759 343.929 366.667 345.55 367.36C348.124 368.422 350.876 368.989 353.66 369.03C355.396 369.072 357.132 368.965 358.85 368.71C360.777 368.406 362.686 367.999 364.57 367.49C372.57 365.49 382.03 363.03 392.46 359.97C395.07 359.2 397.73 358.38 400.46 357.48C403.19 356.58 405.9 355.63 408.61 354.48C409.27 354.17 409.96 353.9 410.61 353.55C411.277 353.256 411.906 352.88 412.48 352.43C413.596 351.46 414.441 350.216 414.93 348.82C415.915 345.905 416.405 342.846 416.38 339.77C416.44 337.58 416.38 335.41 416.27 333.25V332.43C416.27 332.29 416.27 332.15 416.27 332C416.262 331.92 416.262 331.84 416.27 331.76C416.292 331.698 416.319 331.638 416.35 331.58L416.4 331.5C416.681 331.09 416.866 330.622 416.94 330.13C417.057 329.113 416.923 328.083 416.55 327.13C416.214 326.175 415.659 325.312 414.93 324.61C414.576 324.278 414.152 324.029 413.69 323.88C413.19 323.75 412.69 323.61 412.2 323.49C410.224 323.062 408.218 322.784 406.2 322.66C402.345 322.365 398.471 322.439 394.63 322.88C394.4 322.88 394.17 322.94 393.95 323L393.63 323.07C393.56 323.097 393.493 323.131 393.43 323.17C393.129 323.498 392.858 323.853 392.62 324.23C392.144 324.966 391.855 325.807 391.78 326.68C391.693 328.399 392.163 330.1 393.12 331.53L393.32 331.84H392.97L361.63 335.84C358.791 335.696 355.946 335.776 353.12 336.08C352.12 336.18 351.39 336.29 350.89 336.36C350.39 336.43 350.14 336.55 350.14 336.55Z" fill="#263238"/>
<path d="M265.313 369.118L252.552 346.191L493.923 211.845C496.704 210.297 499.985 209.918 503.046 210.79C506.107 211.662 508.696 213.714 510.244 216.494L511.338 218.46C512.886 221.241 513.266 224.523 512.394 227.584C511.522 230.645 509.47 233.234 506.689 234.782L265.318 369.127L265.313 369.118Z" fill="#0B3B95"/>
<path d="M467.714 247.862L438.159 194.763C438.016 194.506 437.925 194.223 437.891 193.931C437.857 193.639 437.881 193.343 437.962 193.06C438.043 192.777 438.178 192.513 438.361 192.282C438.544 192.052 438.77 191.86 439.027 191.717L452.588 184.169C452.845 184.026 453.128 183.934 453.42 183.901C453.712 183.867 454.008 183.891 454.291 183.972C454.574 184.052 454.838 184.188 455.069 184.37C455.299 184.553 455.491 184.779 455.634 185.036L485.189 238.136L467.714 247.862Z" fill="#0B3B95"/>
<path d="M409.573 223.136L431.113 261.836C431.983 263.399 433.956 263.961 435.52 263.091L447.333 256.516C448.896 255.646 449.458 253.673 448.588 252.109L427.048 213.41C426.178 211.846 424.205 211.284 422.642 212.154L410.828 218.73C409.265 219.6 408.703 221.573 409.573 223.136Z" fill="#0B3B95"/>
<path d="M428.59 220.876L441.926 244.835L469.065 229.729L455.73 205.771L428.59 220.876Z" fill="#0B3B95"/>
<path d="M490.39 213.86C490.46 213.98 443.09 240.48 384.61 273.04C326.13 305.6 278.61 331.9 278.61 331.77C278.61 331.64 325.9 305.15 384.4 272.58C442.9 240.01 490.32 213.73 490.39 213.86Z" fill="#263238"/>
<path d="M167.56 413.41C185.36 445.41 222.89 458.41 251.39 442.56C279.89 426.71 288.59 387.91 270.79 355.95C252.99 323.99 215.47 310.95 186.96 326.8C158.45 342.65 149.77 381.45 167.56 413.41ZM255.35 364.55C267.82 386.95 261.73 414.12 241.75 425.23C221.77 436.34 195.48 427.23 183.01 404.81C170.54 382.39 176.63 355.24 196.6 344.12C216.57 333 242.88 342.15 255.35 364.55Z" fill="#0B3B95"/>
<path d="M293.182 323.299L306.352 346.96C308.104 350.107 312.074 351.238 315.22 349.486L316.286 348.893C319.433 347.142 320.564 343.172 318.812 340.025L305.642 316.363C303.891 313.217 299.921 312.086 296.774 313.837L295.708 314.431C292.562 316.182 291.431 320.152 293.182 323.299Z" fill="#0B3B95"/>
<path d="M318.475 309.22L331.645 332.882C333.396 336.029 337.367 337.16 340.513 335.408L341.579 334.815C344.726 333.064 345.856 329.093 344.105 325.947L330.935 302.285C329.184 299.139 325.214 298.008 322.067 299.759L321.001 300.353C317.855 302.104 316.724 306.074 318.475 309.22Z" fill="#0B3B95"/>
<path d="M305.36 316C305.49 315.93 308.54 321.3 312.19 328C315.84 334.7 318.689 340.16 318.559 340.23C318.429 340.3 315.379 334.94 311.729 328.23C308.079 321.52 305.23 316 305.36 316Z" fill="#263238"/>
<path d="M293.75 324.25C293.88 324.18 296.86 329.31 300.42 335.69C303.98 342.07 306.75 347.32 306.63 347.39C306.51 347.46 303.52 342.33 300 336C296.48 329.67 293.63 324.32 293.75 324.25Z" fill="#263238"/>
<path d="M330.81 302.07C330.94 302 334.05 307.34 337.76 314C341.47 320.66 344.37 326.13 344.24 326.2C344.11 326.27 341.01 320.92 337.3 314.26C333.59 307.6 330.69 302.14 330.81 302.07Z" fill="#263238"/>
<path d="M318.6 309.44C318.72 309.37 321.77 314.68 325.39 321.3C329.01 327.92 331.86 333.3 331.73 333.41C331.6 333.52 328.57 328.17 324.94 321.55C321.31 314.93 318.47 309.51 318.6 309.44Z" fill="#263238"/>
<path d="M391.13 273.37C392.294 273.507 393.468 273.206 394.422 272.525C395.377 271.844 396.044 270.832 396.293 269.687C396.543 268.541 396.357 267.344 395.773 266.328C395.188 265.311 394.246 264.549 393.13 264.19C393.851 263.451 394.322 262.504 394.475 261.484C394.629 260.463 394.457 259.419 393.985 258.501C393.513 257.583 392.764 256.837 391.844 256.369C390.924 255.9 389.88 255.732 388.86 255.89C388.818 254.874 388.514 253.887 387.977 253.024C387.441 252.161 386.69 251.451 385.798 250.964C384.907 250.477 383.904 250.229 382.888 250.244C381.872 250.259 380.877 250.536 380 251.05C378.856 250.115 377.433 249.589 375.956 249.556C374.479 249.524 373.034 249.986 371.85 250.87C370.855 250.68 369.826 250.816 368.914 251.257C368.003 251.698 367.258 252.421 366.79 253.319C366.322 254.217 366.156 255.242 366.316 256.242C366.476 257.241 366.954 258.163 367.68 258.87" fill="#263238"/>
<path d="M370.84 255.53H371.84C376.882 255.535 381.738 257.437 385.44 260.86C389.143 264.283 391.42 268.974 391.82 274C392.57 283.69 393.27 294.4 393.19 299.6C393 310.4 382.26 312 382.26 312L383.13 324.94L357 324.09L354.83 277.19C353.91 266 359.64 256.15 370.84 255.53Z" fill="#FFBF9D"/>
<path d="M382.35 312C377.351 311.987 372.461 310.539 368.26 307.83C368.26 307.83 371.72 315.98 382.46 315.04L382.35 312Z" fill="#FF9A6C"/>
<path d="M385.91 284.15C385.912 284.55 385.758 284.936 385.479 285.224C385.201 285.512 384.82 285.679 384.42 285.69C384.224 285.703 384.028 285.678 383.843 285.615C383.658 285.553 383.486 285.454 383.34 285.324C383.193 285.195 383.073 285.038 382.987 284.862C382.901 284.686 382.851 284.495 382.84 284.3C382.839 283.899 382.994 283.513 383.272 283.224C383.55 282.935 383.929 282.765 384.33 282.75C384.526 282.736 384.722 282.762 384.908 282.825C385.094 282.888 385.266 282.988 385.413 283.118C385.56 283.249 385.68 283.407 385.765 283.584C385.85 283.761 385.899 283.953 385.91 284.15Z" fill="#263238"/>
<path d="M389.49 279.29C389.3 279.49 388.13 278.63 386.49 278.63C384.85 278.63 383.62 279.45 383.44 279.25C383.26 279.05 383.55 278.8 384.08 278.41C384.797 277.917 385.65 277.659 386.52 277.67C387.38 277.667 388.218 277.94 388.91 278.45C389.41 278.84 389.58 279.21 389.49 279.29Z" fill="#263238"/>
<path d="M371 283.43C371.008 283.837 370.855 284.23 370.574 284.524C370.293 284.819 369.907 284.99 369.5 285C369.305 285.014 369.109 284.988 368.923 284.926C368.738 284.863 368.567 284.764 368.42 284.635C368.273 284.505 368.153 284.348 368.067 284.172C367.981 283.997 367.931 283.805 367.92 283.61C367.917 283.208 368.071 282.822 368.35 282.532C368.628 282.242 369.009 282.073 369.41 282.06C369.604 282.045 369.8 282.069 369.985 282.129C370.171 282.19 370.342 282.287 370.49 282.414C370.638 282.542 370.759 282.697 370.846 282.871C370.934 283.046 370.986 283.235 371 283.43Z" fill="#263238"/>
<path d="M373.23 279.55C373.04 279.75 371.87 278.89 370.23 278.89C368.59 278.89 367.36 279.71 367.18 279.51C367 279.31 367.29 279.06 367.82 278.67C368.537 278.177 369.39 277.919 370.26 277.93C371.12 277.927 371.958 278.2 372.65 278.71C373.15 279.1 373.32 279.46 373.23 279.55Z" fill="#263238"/>
<path d="M379.189 291.84C380.062 291.566 380.966 291.405 381.879 291.36C382.299 291.36 382.699 291.24 382.779 290.95C382.815 290.515 382.717 290.079 382.499 289.7L381.259 286.48C379.539 281.89 378.259 278.12 378.479 278.06C378.699 278 380.209 281.65 381.929 286.23C382.339 287.36 382.739 288.44 383.119 289.47C383.379 289.983 383.453 290.569 383.329 291.13C383.267 291.279 383.171 291.41 383.05 291.516C382.929 291.622 382.785 291.699 382.629 291.74C382.399 291.809 382.16 291.842 381.919 291.84C381.013 291.954 380.096 291.954 379.189 291.84Z" fill="#263238"/>
<path d="M374.68 273.19C374.46 273.61 373.05 273.19 371.3 273.09C369.55 272.99 368.09 273.32 367.93 272.88C367.86 272.67 368.17 272.3 368.8 271.96C369.613 271.559 370.515 271.373 371.42 271.42C372.318 271.452 373.191 271.721 373.95 272.2C374.52 272.59 374.78 273 374.68 273.19Z" fill="#263238"/>
<path d="M389.59 272.48C389.24 272.85 387.87 272.48 386.23 272.48C384.59 272.48 383.23 272.73 382.88 272.33C382.74 272.14 382.96 271.76 383.57 271.41C384.411 270.97 385.352 270.759 386.3 270.8C387.243 270.813 388.165 271.079 388.97 271.57C389.55 271.91 389.74 272.29 389.59 272.48Z" fill="#263238"/>
<path d="M390.8 269.1C390.8 269.1 387.98 262.35 384.73 260.77C380.8 258.85 379.1 263.16 375.35 262.1C371.6 261.04 367.85 259.21 364.01 262.1C359.81 265.26 361.77 267.49 361.49 272.27C360.39 291.63 356.83 297.09 355.86 287.97C355.75 286.97 352.98 286.17 352.58 281.97C352.06 276.5 351.87 269.85 353.11 265.97C354.11 262.7 356.02 260.44 359.37 257.97C364.67 254.05 371.93 253.97 376.86 254.5C381.79 255.03 391.27 260.66 390.8 269.1Z" fill="#263238"/>
<path d="M356.54 287.67C356.529 287.274 356.438 286.886 356.272 286.527C356.106 286.168 355.87 285.847 355.576 285.582C355.282 285.318 354.938 285.115 354.564 284.988C354.19 284.86 353.794 284.81 353.4 284.84C351.4 285.03 349.15 286.16 349.27 290.31C349.48 297.67 356.83 295.94 356.84 295.72C356.85 295.5 356.66 290.75 356.54 287.67Z" fill="#FFBF9D"/>
<path d="M355.15 293C355.15 293 355.03 293.1 354.81 293.2C354.511 293.337 354.172 293.355 353.86 293.25C353.374 292.963 352.975 292.551 352.702 292.057C352.429 291.562 352.294 291.004 352.31 290.44C352.272 289.812 352.374 289.184 352.61 288.6C352.674 288.37 352.793 288.158 352.956 287.984C353.12 287.81 353.324 287.678 353.55 287.6C353.697 287.556 353.855 287.564 353.995 287.625C354.136 287.685 354.251 287.793 354.32 287.93C354.42 288.13 354.38 288.28 354.42 288.29C354.46 288.3 354.57 288.16 354.5 287.86C354.461 287.678 354.353 287.517 354.2 287.41C354.099 287.336 353.984 287.283 353.862 287.253C353.74 287.224 353.614 287.22 353.49 287.24C353.189 287.308 352.91 287.452 352.681 287.659C352.451 287.865 352.279 288.128 352.18 288.42C351.883 289.064 351.749 289.772 351.79 290.48C351.88 291.96 352.68 293.33 353.79 293.61C353.988 293.662 354.196 293.669 354.397 293.629C354.598 293.589 354.787 293.504 354.95 293.38C355.15 293.18 355.18 293 355.15 293Z" fill="#FF9A6C"/>
<path d="M356.73 273.41C357.631 274.144 358.699 274.642 359.84 274.86C360.413 274.95 360.999 274.829 361.49 274.52C361.981 274.211 362.343 273.735 362.51 273.18C362.6 272.67 362.51 272.07 362.81 271.68C363.11 271.29 363.96 271.36 364.57 271.43C366.71 271.66 369.22 269.3 369.77 267.22C370.048 267.619 370.468 267.897 370.943 267.997C371.419 268.097 371.915 268.012 372.33 267.76C373.011 267.344 373.613 266.813 374.11 266.19C374.4 265.793 374.782 265.472 375.222 265.255C375.663 265.037 376.149 264.929 376.64 264.94C377.158 265.119 377.695 265.236 378.24 265.29C379.24 265.21 379.68 264.08 379.83 263.12C379.98 262.16 380.1 261.05 380.92 260.53C381.762 260.2 382.692 260.175 383.55 260.46C384.44 260.6 385.55 260.39 385.82 259.52C385.857 259.287 385.847 259.05 385.79 258.821C385.733 258.593 385.632 258.378 385.49 258.19C384.895 257.298 384.017 256.633 382.997 256.302C381.977 255.972 380.875 255.996 379.87 256.37C379.516 255.139 378.804 254.042 377.824 253.217C376.845 252.393 375.641 251.878 374.368 251.74C373.095 251.602 371.81 251.845 370.676 252.44C369.542 253.035 368.61 253.954 368 255.08C367.222 254.366 366.282 253.852 365.261 253.58C364.241 253.309 363.169 253.288 362.139 253.52C361.109 253.752 360.15 254.229 359.344 254.912C358.538 255.594 357.909 256.462 357.51 257.44C356.61 257.2 355.659 257.23 354.776 257.526C353.892 257.822 353.116 258.372 352.542 259.106C351.969 259.84 351.624 260.727 351.551 261.656C351.478 262.585 351.679 263.515 352.13 264.33C351.445 264.668 350.857 265.175 350.422 265.803C349.986 266.431 349.717 267.159 349.64 267.92C349.64 269.44 351.09 270.92 352.56 270.56C352.256 271.159 352.192 271.852 352.382 272.496C352.572 273.141 353.001 273.688 353.582 274.026C354.163 274.364 354.851 274.467 355.506 274.313C356.16 274.159 356.731 273.761 357.1 273.2" fill="#263238"/>
<path d="M380.41 258.53C380.41 258.53 380.41 258.53 380.41 258.67C380.41 258.81 380.41 258.89 380.36 259.06C380.257 259.559 380.075 260.039 379.82 260.48C379.414 261.172 378.857 261.764 378.19 262.21C377.309 262.811 376.256 263.11 375.19 263.06L375.31 262.9C375.526 263.561 375.473 264.28 375.16 264.9C374.83 265.558 374.405 266.165 373.9 266.7C373.655 267.013 373.377 267.298 373.07 267.55C372.526 267.908 371.873 268.061 371.226 267.983C370.58 267.904 369.983 267.598 369.54 267.12L369.81 267.04C369.707 267.805 369.444 268.538 369.04 269.195C368.635 269.851 368.097 270.415 367.46 270.85C366.761 271.37 365.911 271.648 365.04 271.64C364.223 271.596 363.419 271.417 362.66 271.11L362.86 271.02C362.475 271.911 361.873 272.691 361.11 273.29C360.762 273.589 360.351 273.806 359.908 273.925C359.465 274.044 359.001 274.063 358.55 273.98C357.777 273.812 357.07 273.422 356.515 272.857C355.961 272.292 355.584 271.577 355.43 270.8L355.6 270.88C354.822 271.283 353.93 271.41 353.07 271.24C352.43 271.118 351.827 270.848 351.31 270.45C350.989 270.198 350.712 269.894 350.49 269.55C350.409 269.431 350.349 269.299 350.31 269.16C350.59 269.62 350.953 270.024 351.38 270.35C351.89 270.719 352.479 270.962 353.1 271.06C353.917 271.215 354.762 271.081 355.49 270.68L355.63 270.6V270.76C355.782 271.483 356.14 272.146 356.663 272.668C357.185 273.19 357.848 273.549 358.57 273.7C358.983 273.772 359.406 273.751 359.809 273.639C360.212 273.526 360.585 273.325 360.9 273.05C361.617 272.481 362.18 271.742 362.54 270.9L362.6 270.77H362.74C363.464 271.061 364.231 271.23 365.01 271.27C365.816 271.277 366.603 271.021 367.25 270.54C367.849 270.129 368.356 269.597 368.739 268.979C369.121 268.361 369.37 267.67 369.47 266.95V266.6L369.7 266.87C369.96 267.158 370.287 267.377 370.651 267.509C371.015 267.642 371.406 267.683 371.79 267.63C372.149 267.583 372.491 267.453 372.79 267.25C373.08 267.018 373.341 266.753 373.57 266.46C374.065 265.95 374.483 265.371 374.81 264.74C374.958 264.46 375.048 264.152 375.075 263.836C375.103 263.521 375.067 263.202 374.97 262.9L374.91 262.72H375.1C376.122 262.784 377.136 262.514 377.99 261.95C378.646 261.528 379.2 260.964 379.61 260.3C379.979 259.762 380.25 259.163 380.41 258.53Z" fill="#455A64"/>
<path d="M379.17 297.33C379.11 297.06 377.32 297.5 375.66 296.28C374 295.06 373.73 293.1 373.48 293.15C373.23 293.2 373.23 293.67 373.41 294.48C373.657 295.537 374.27 296.473 375.14 297.12C375.972 297.74 377.012 298.013 378.04 297.88C378.81 297.76 379.21 297.45 379.17 297.33Z" fill="#263238"/>
<path d="M434.63 577.12L441.73 601.31C441.73 601.31 468.73 602.21 470.46 606.56L424 622L411.38 584.75L434.63 577.12Z" fill="#455A64"/>
<path d="M426.71 604.08C426.309 604.365 426.027 604.787 425.918 605.267C425.81 605.747 425.881 606.25 426.12 606.68C426.389 607.091 426.805 607.383 427.283 607.497C427.761 607.61 428.265 607.536 428.69 607.29C429.115 606.987 429.413 606.537 429.525 606.027C429.638 605.517 429.558 604.984 429.3 604.53C428.974 604.129 428.506 603.87 427.993 603.806C427.481 603.743 426.963 603.88 426.55 604.19" fill="#E0E0E0"/>
<path d="M467.84 604.81C467.84 604.81 470.21 605.02 470.46 606.56L424 622L422.88 618.19L467.8 604.79" fill="#263238"/>
<path d="M442.4 600.82C442.47 601.05 441.4 601.53 440.5 602.63C439.6 603.73 439.35 604.88 439.11 604.86C438.87 604.84 438.78 603.42 439.86 602.11C440.94 600.8 442.38 600.6 442.4 600.82Z" fill="white"/>
<path d="M447.939 601.21C448.069 601.42 447.219 602.13 446.759 603.34C446.299 604.55 446.429 605.65 446.199 605.71C445.969 605.77 445.399 604.54 445.989 603.04C446.579 601.54 447.869 601 447.939 601.21Z" fill="white"/>
<path d="M452.65 606.12C452.46 606.24 451.77 605.21 451.94 603.78C452.11 602.35 453 601.49 453.16 601.65C453.32 601.81 452.88 602.65 452.76 603.87C452.64 605.09 452.87 606 452.65 606.12Z" fill="white"/>
<path d="M440.17 595.49C440.17 595.73 439 595.76 437.75 596.27C436.5 596.78 435.63 597.52 435.45 597.37C435.27 597.22 435.96 596.09 437.45 595.5C438.94 594.91 440.23 595.27 440.17 595.49Z" fill="white"/>
<path d="M326.29 577.33L316.18 600.43C316.18 600.43 336.27 618.43 334.82 622.91L289.32 604.91L303.59 568.27L326.29 577.33Z" fill="#455A64"/>
<path d="M302.89 592.9C302.401 592.861 301.914 593.004 301.523 593.301C301.132 593.598 300.864 594.028 300.77 594.51C300.714 594.998 300.846 595.489 301.14 595.883C301.433 596.277 301.866 596.544 302.35 596.63C302.869 596.669 303.385 596.515 303.798 596.197C304.211 595.88 304.493 595.422 304.59 594.91C304.59 593.91 303.68 592.77 302.7 592.91" fill="#E0E0E0"/>
<path d="M333.93 619.89C333.93 619.89 335.61 621.58 334.82 622.89L289.32 604.89L290.91 601.26L333.91 619.86" fill="#263238"/>
<path d="M317 600.49C316.91 600.71 315.76 600.37 314.38 600.65C313 600.93 312.05 601.65 311.88 601.47C311.71 601.29 312.55 600.15 314.22 599.84C315.89 599.53 317.14 600.3 317 600.49Z" fill="white"/>
<path d="M321 604.35C321 604.58 319.86 604.58 318.73 605.22C317.6 605.86 317 606.77 316.73 606.68C316.46 606.59 316.87 605.27 318.28 604.5C319.69 603.73 321.08 604.14 321 604.35Z" fill="white"/>
<path d="M321.46 611.13C321.24 611.13 321.37 609.87 322.46 608.88C323.55 607.89 324.74 607.81 324.76 608.03C324.78 608.25 323.88 608.65 323.03 609.48C322.18 610.31 321.69 611.2 321.46 611.13Z" fill="white"/>
<path d="M318.73 595C318.56 595.16 317.66 594.46 316.37 594C315.08 593.54 313.95 593.6 313.91 593.37C313.87 593.14 315.12 592.71 316.63 593.21C318.14 593.71 318.91 594.84 318.73 595Z" fill="white"/>
<path d="M343.32 450.43L327.38 515.09C327.38 515.09 298.63 563.49 293.76 587.71L320.06 598.05C320.06 598.05 339.19 551.4 344.8 542.84C347.324 539.004 350.225 535.429 353.46 532.17C355.563 530.083 357.071 527.474 357.83 524.61L369.9 478.48L343.32 450.43Z" fill="#263238"/>
<path d="M336.53 440.09C336.53 440.09 338.75 457.41 355.42 465.09L390.54 522.29C390.54 522.29 393.29 540.89 398.54 556.56C403.79 572.23 414.4 602.43 414.4 602.43L443.29 591.63L424.88 528.69L421.88 506.86L393.22 433.86L368.6 419.1L336.53 440.09Z" fill="#263238"/>
<path d="M336.53 440.09L337.06 439.73L338.65 438.67L344.89 434.55L368.55 419L368.63 418.95L368.71 419L393.35 433.73V433.79L422.07 506.72V506.77C423.02 513.67 424.07 521.06 425.07 528.6C430.07 545.6 435.37 563.79 440.85 582.53C441.737 585.55 442.617 588.55 443.49 591.53L443.56 591.76L443.33 591.84L414.44 602.64L414.19 602.73L414.11 602.48C409.11 587.97 404.27 574 399.7 560.75C398.55 557.44 397.42 554.16 396.48 550.88C395.54 547.6 394.69 544.34 393.92 541.12C392.4 534.68 391.18 528.39 390.22 522.29V522.37L355.3 465.15L355.36 465.2C351.136 463.225 347.385 460.368 344.36 456.82C342.142 454.216 340.323 451.298 338.96 448.16C338.117 446.224 337.448 444.216 336.96 442.16C336.79 441.48 336.69 440.95 336.63 440.59C336.57 440.23 336.56 440.05 336.56 440.05C336.56 440.05 336.56 440.23 336.67 440.58C336.78 440.93 336.84 441.46 337.03 442.15C337.546 444.179 338.235 446.159 339.09 448.07C340.47 451.176 342.296 454.063 344.51 456.64C347.546 460.151 351.297 462.974 355.51 464.92L390.7 522.08V522.13C391.7 528.21 392.9 534.49 394.42 540.92C395.19 544.13 396.03 547.38 396.98 550.65C397.93 553.92 399.05 557.18 400.2 560.49C404.79 573.74 409.62 587.71 414.64 602.21L414.31 602.06L443.2 591.26L443.04 591.57C442.173 588.59 441.293 585.59 440.4 582.57L424.64 528.63C423.64 521.09 422.58 513.7 421.64 506.8V506.86L393.03 433.86L393.11 433.95L368.51 419.16H368.66L345 434.64L338.7 438.7L337.08 439.75L336.53 440.09Z" fill="#455A64"/>
<path d="M352 316.52C352 316.52 343.58 323 339.49 330.24C334.59 338.91 334.06 351.76 333.91 371.72C333.76 390.18 336.52 395.31 335.46 402.27C333.37 415.86 331.82 461.47 331.82 461.47C331.82 461.47 358.82 451.1 364.06 446.47L369.33 441.89L403.12 453.06L396.3 411.54L391.62 359.79L385.62 332.34L384.62 321.57L355.6 309.91L352 316.52Z" fill="#455A64"/>
<path d="M383.53 321C383.88 321.07 382.7 323.44 380.62 326.92L380.53 327.06L380.37 327C377.44 325.86 373.56 324.43 369.32 322.88C364.54 321.14 360.22 319.52 357.13 318.26C355.58 317.63 354.34 317.1 353.49 316.71C353.039 316.536 352.604 316.322 352.19 316.07C352.665 316.176 353.127 316.33 353.57 316.53L357.26 317.92L369.5 322.39C373.74 323.94 377.61 325.39 380.5 326.63L380.26 326.71C382.44 323.3 383.73 321.05 383.53 321Z" fill="#263238"/>
<path d="M418.45 299.44C418.45 299.44 416.31 296.11 414.29 293.04C412.27 289.97 409.21 288.46 408.72 286.86C408.23 285.26 405.54 278.13 405.11 276.36C404.736 274.645 404.561 272.894 404.59 271.14C404.59 271.14 406.8 270.2 407.86 273.36C408.5 275.26 410.54 281.71 410.98 282.03C411.42 282.35 411.98 281.88 411.98 281.88C411.071 279.465 410.287 277.005 409.63 274.51C409.53 273.34 409.94 265.58 409.94 265.58C410.488 265.469 411.058 265.559 411.546 265.832C412.034 266.105 412.407 266.544 412.6 267.07C413.65 269.07 413.69 274.07 413.69 274.07L415.28 279.65L414.72 274.13L415.52 263.98C416.297 264.09 417.021 264.438 417.593 264.975C418.166 265.511 418.559 266.211 418.72 266.98C419.39 269.72 418.5 273.54 418.95 274.35C419.4 275.16 419.89 280.06 419.89 280.06C419.89 280.06 420.44 268.16 421.71 267.82C422.98 267.48 424.02 268.74 423.84 271.14C423.66 273.54 423.61 278.62 424.27 280.86C424.93 283.1 431.7 291.86 431.15 295.7C430.812 298.02 430.602 300.357 430.52 302.7H418.92L418.45 299.44Z" fill="#FFBF9D"/>
<path d="M377.76 329.41C378.41 329.66 406.12 336.52 406.12 336.52C406.12 336.52 412.31 326.52 413.22 323.62C414.13 320.72 419 301.4 419 301.4L430.71 300.3C430.71 300.3 427.71 350.19 423.47 352.88C419.23 355.57 412.47 356.93 412.03 356.78C411.59 356.63 382.08 358.68 366.53 346.43C350.98 334.18 377.76 329.41 377.76 329.41Z" fill="#FFBF9D"/>
<g opacity="0.3">
<path d="M357.899 355.82C360.874 359.187 364.842 361.519 369.229 362.48C376.579 364.1 392.229 366.97 392.229 366.97L391.469 359.29L357.469 355.65" fill="black"/>
</g>
<path d="M345.56 345.26C348.08 350.58 353.68 356.26 365.99 357.55C390.36 360.07 408.81 361.41 416.78 360.21C424.75 359.01 427.92 342.14 428.78 341.62C431.26 340.06 431.1 334.7 428.96 333.1C422.88 328.55 410.69 325.1 409.87 325.47C405.02 327.88 406.6 333.52 406.6 333.52L375.7 326.7C372.141 325.219 368.428 324.139 364.63 323.48" fill="#455A64"/>
<path d="M364.63 323.48C364.63 323.48 364.89 323.48 365.39 323.58C365.89 323.68 366.64 323.8 367.6 324.01C370.386 324.642 373.116 325.505 375.76 326.59L406.64 333.31L406.38 333.59C405.922 331.818 406.063 329.944 406.78 328.26C407.175 327.398 407.771 326.643 408.52 326.06C408.899 325.764 409.304 325.503 409.73 325.28C409.876 325.236 410.027 325.213 410.18 325.21H410.55C410.8 325.21 411.02 325.29 411.26 325.33C415.059 326.228 418.766 327.484 422.33 329.08C424.208 329.898 426.023 330.854 427.76 331.94C428.19 332.22 428.62 332.53 429.05 332.83C429.494 333.168 429.857 333.602 430.11 334.1C430.597 335.082 430.851 336.163 430.85 337.26C430.875 338.369 430.628 339.468 430.13 340.46C429.853 340.971 429.463 341.413 428.99 341.75C428.87 341.81 428.79 342.07 428.69 342.31L428.43 343.06C427.77 345.06 427.11 347.2 426.31 349.26C425.262 352.214 423.727 354.972 421.77 357.42C421.06 358.35 420.155 359.114 419.118 359.656C418.082 360.199 416.938 360.507 415.77 360.56C415.02 360.67 414.27 360.69 413.53 360.75C410.53 360.93 407.65 360.89 404.8 360.81C401.95 360.73 399.16 360.58 396.45 360.41C385.58 359.71 375.83 358.72 367.65 357.87C365.695 357.699 363.752 357.418 361.83 357.03C360.123 356.665 358.451 356.156 356.83 355.51C354.203 354.49 351.796 352.976 349.74 351.05C348.456 349.821 347.351 348.417 346.46 346.88C346.14 346.352 345.863 345.801 345.63 345.23C345.63 345.23 345.91 345.8 346.55 346.83C347.474 348.329 348.594 349.697 349.88 350.9C351.934 352.784 354.331 354.257 356.94 355.24C358.563 355.866 360.235 356.358 361.94 356.71C363.857 357.078 365.793 357.341 367.74 357.5C375.92 358.31 385.67 359.26 396.52 359.94C399.24 360.1 402.02 360.24 404.86 360.31C407.7 360.38 410.61 360.42 413.55 360.25C414.28 360.18 415.03 360.16 415.76 360.05C416.488 360.011 417.208 359.873 417.9 359.64C419.281 359.107 420.501 358.225 421.44 357.08C423.355 354.679 424.856 351.975 425.88 349.08C426.68 347.08 427.33 344.97 427.99 342.91L428.27 342.13C428.27 342.01 428.37 341.88 428.43 341.74C428.466 341.663 428.51 341.589 428.56 341.52C428.598 341.472 428.641 341.428 428.69 341.39L428.76 341.33C429.175 341.043 429.517 340.663 429.76 340.22C430.227 339.291 430.454 338.259 430.42 337.22C430.422 336.208 430.193 335.209 429.75 334.3C429.531 333.87 429.221 333.495 428.84 333.2C428.41 332.91 428 332.6 427.57 332.33C425.857 331.252 424.066 330.306 422.21 329.5C418.686 327.911 415.019 326.659 411.26 325.76C411.03 325.76 410.8 325.66 410.58 325.64H410.25H410.03C409.636 325.85 409.261 326.094 408.91 326.37C408.213 326.895 407.654 327.581 407.28 328.37C406.617 329.952 406.48 331.704 406.89 333.37L406.98 333.72L406.63 333.64L375.8 326.74C373.18 325.638 370.479 324.742 367.72 324.06C366.72 323.83 366.03 323.67 365.53 323.57C365.03 323.47 364.63 323.48 364.63 323.48Z" fill="#263238"/>
<path d="M416.78 343.17C416.07 342.993 415.394 342.699 414.78 342.3C413.247 341.444 411.835 340.388 410.58 339.16C409.32 337.936 408.218 336.558 407.3 335.06C406.883 334.446 406.563 333.771 406.35 333.06C407.721 335.08 409.256 336.983 410.94 338.75C412.751 340.395 414.706 341.874 416.78 343.17Z" fill="#263238"/>
<path d="M199.22 425.53C199.22 425.53 205.42 425.86 209.22 428.27C213.02 430.68 219.22 434.4 221.77 439.04C222.94 441.17 219.61 441.62 217.97 440.38C216.33 439.14 213.8 436.82 212.55 436.53L211.3 436.25C212.439 438.831 213.711 441.351 215.11 443.8C216.4 445.8 217.52 449.12 213.65 449.28C213.65 449.28 211.03 452.68 208.39 450.16C208.39 450.16 206.33 453.24 203.01 448.97C203.01 448.97 201.08 451.41 200.27 450.48C199.46 449.55 196.82 448.06 196.05 445C194.901 441.436 193.565 437.935 192.05 434.51L199.22 425.53Z" fill="#FFBF9D"/>
<path d="M146.46 344C143.281 345.024 140.538 347.083 138.67 349.85C136.29 353.51 135.56 359.85 136.24 364.57C137.68 374.52 142.24 391.31 144.81 402.09C145.69 405.81 147.5 412.47 152.81 416L190.7 438.72L200.83 423.72L166.29 395.57L159.46 356.99L146.46 344Z" fill="#455A64"/>
<path d="M139.91 381.92C139.962 382.046 140.002 382.177 140.03 382.31L140.35 383.48C140.62 384.54 141 386.06 141.5 388.01C142.5 392.01 143.92 397.69 145.69 404.76C146.718 408.611 148.894 412.057 151.93 414.64C153.664 416.028 155.518 417.26 157.47 418.32L163.56 422L190.85 438.48L190.5 438.56L194.15 433.15L200.63 423.52L200.68 423.87L166.45 395.68H166.39V395.61C164.13 386.1 162.49 378.31 161.45 372.89C160.94 370.18 160.58 368.07 160.35 366.63C160.25 365.93 160.17 365.38 160.11 364.99C160.05 364.6 160.04 364.43 160.04 364.43C160.094 364.611 160.138 364.794 160.17 364.98C160.24 365.37 160.34 365.91 160.46 366.61C160.73 368.04 161.12 370.15 161.68 372.85C162.77 378.25 164.47 386.02 166.78 395.52L166.71 395.41L201 423.47L201.18 423.62L201.05 423.81L194.57 433.44L190.92 438.85L190.79 439.05L190.57 438.93L163.32 422.4L157.24 418.71C155.275 417.639 153.408 416.397 151.66 415C148.572 412.355 146.369 408.826 145.35 404.89C143.64 397.8 142.27 392.07 141.35 388.1C140.9 386.1 140.54 384.61 140.29 383.55L140 382.32C139.961 382.189 139.931 382.055 139.91 381.92Z" fill="#263238"/>
<path d="M140.53 349.33C140.765 349.176 141.026 349.064 141.3 349C142.026 348.776 142.768 348.609 143.52 348.5C146.028 348.114 148.595 348.461 150.91 349.5C153.148 350.667 155.048 352.389 156.43 354.5C156.849 355.139 157.185 355.827 157.43 356.55C157.537 356.808 157.598 357.082 157.61 357.36C157.178 356.442 156.68 355.557 156.12 354.71C154.697 352.74 152.834 351.127 150.68 350C148.446 349.01 145.989 348.631 143.56 348.9C141.69 349.05 140.56 349.42 140.53 349.33Z" fill="#263238"/>
</g>
<defs>
<filter id="filter0_b_20_22" x="-26" y="-26" width="652" height="852" filterUnits="userSpaceOnUse" color-interpolation-filters="sRGB">
<feFlood flood-opacity="0" result="BackgroundImageFix"/>
<feGaussianBlur in="BackgroundImageFix" stdDeviation="13"/>
<feComposite in2="SourceAlpha" operator="in" result="effect1_backgroundBlur_20_22"/>
<feBlend mode="normal" in="SourceGraphic" in2="effect1_backgroundBlur_20_22" result="shape"/>
</filter>
<radialGradient id="paint0_radial_20_22" cx="0" cy="0" r="1" gradientUnits="userSpaceOnUse" gradientTransform="translate(104 4.1576e-05) rotate(62.2626) scale(922.821 717.888)">
<stop stop-color="white"/>
<stop offset="0.638542" stop-color="#E4E4E4" stop-opacity="0.750969"/>
<stop offset="1" stop-color="white" stop-opacity="0.61"/>
</radialGradient>
<clipPath id="clip0_20_22">
<rect width="479" height="500" fill="white" transform="translate(61 154)"/>
</clipPath>
</defs>
</svg>
