<svg width="600" height="800" viewBox="0 0 600 800" fill="none" xmlns="http://www.w3.org/2000/svg">
<g filter="url(#filter0_b_12_353)">
<rect width="600" height="800" rx="16" fill="#3F5D96" fill-opacity="0.1"/>
<rect x="0.5" y="0.5" width="599" height="799" rx="15.5" stroke="url(#paint0_radial_12_353)"/>
</g>
<path d="M101.943 639.188C101.995 639.969 102.172 640.688 102.474 641.344C102.776 641.99 103.177 642.552 103.677 643.031C104.177 643.51 104.765 643.885 105.443 644.156C106.13 644.417 106.88 644.547 107.693 644.547C108.422 644.547 109.12 644.469 109.786 644.312C110.453 644.146 111.041 643.891 111.552 643.547C112.062 643.193 112.469 642.74 112.771 642.188C113.073 641.625 113.224 640.948 113.224 640.156C113.224 639.51 113.057 638.964 112.724 638.516C112.401 638.057 111.969 637.667 111.427 637.344C110.896 637.01 110.286 636.724 109.599 636.484C108.922 636.245 108.234 636.021 107.536 635.812C106.953 635.646 106.364 635.464 105.771 635.266C105.187 635.068 104.62 634.844 104.068 634.594C103.526 634.344 103.015 634.057 102.536 633.734C102.068 633.411 101.656 633.031 101.302 632.594C100.958 632.156 100.682 631.661 100.474 631.109C100.276 630.547 100.177 629.901 100.177 629.172C100.177 628.266 100.354 627.469 100.708 626.781C101.062 626.083 101.557 625.5 102.193 625.031C102.838 624.562 103.604 624.208 104.489 623.969C105.385 623.719 106.364 623.594 107.427 623.594C108.375 623.594 109.213 623.688 109.943 623.875C110.672 624.062 111.307 624.318 111.849 624.641C112.39 624.964 112.849 625.344 113.224 625.781C113.599 626.208 113.906 626.661 114.146 627.141C114.385 627.62 114.562 628.115 114.677 628.625C114.791 629.135 114.864 629.625 114.896 630.094H112.521C112.458 629.365 112.281 628.724 111.989 628.172C111.708 627.62 111.338 627.156 110.88 626.781C110.432 626.406 109.911 626.125 109.318 625.938C108.724 625.75 108.094 625.656 107.427 625.656C106.812 625.656 106.208 625.719 105.614 625.844C105.031 625.969 104.505 626.172 104.036 626.453C103.578 626.724 103.203 627.083 102.911 627.531C102.63 627.979 102.489 628.526 102.489 629.172C102.489 629.839 102.651 630.406 102.974 630.875C103.297 631.333 103.729 631.729 104.271 632.062C104.812 632.396 105.427 632.682 106.114 632.922C106.812 633.161 107.531 633.396 108.271 633.625C108.854 633.802 109.437 633.99 110.021 634.188C110.614 634.385 111.182 634.609 111.724 634.859C112.265 635.109 112.765 635.396 113.224 635.719C113.693 636.031 114.099 636.401 114.443 636.828C114.786 637.245 115.052 637.729 115.239 638.281C115.437 638.823 115.536 639.448 115.536 640.156C115.536 641.219 115.338 642.156 114.943 642.969C114.557 643.771 114.015 644.443 113.318 644.984C112.62 645.526 111.791 645.932 110.833 646.203C109.875 646.484 108.828 646.625 107.693 646.625C106.672 646.625 105.677 646.448 104.708 646.094C103.739 645.75 102.875 645.26 102.114 644.625C101.364 643.979 100.755 643.198 100.286 642.281C99.8279 641.365 99.5831 640.333 99.5519 639.188H101.943ZM123.138 625.688V630.094H125.95V632.062H123.138V642.484C123.138 642.828 123.179 643.12 123.263 643.359C123.356 643.589 123.476 643.776 123.622 643.922C123.778 644.057 123.96 644.156 124.169 644.219C124.377 644.271 124.601 644.297 124.841 644.297C125.132 644.297 125.434 644.271 125.747 644.219C126.059 644.156 126.33 644.099 126.559 644.047V645.938C126.289 646.021 125.934 646.104 125.497 646.188C125.07 646.271 124.627 646.312 124.169 646.312C123.773 646.312 123.372 646.255 122.966 646.141C122.57 646.036 122.21 645.865 121.888 645.625C121.575 645.385 121.32 645.078 121.122 644.703C120.924 644.318 120.825 643.849 120.825 643.297V632.062H118.388V630.094H120.825V625.688H123.138ZM142.926 646.125C142.78 646.177 142.588 646.219 142.348 646.25C142.119 646.292 141.926 646.312 141.77 646.312C141.124 646.312 140.577 646.068 140.129 645.578C139.692 645.078 139.447 644.318 139.395 643.297C138.895 643.943 138.4 644.464 137.911 644.859C137.431 645.255 136.952 645.562 136.473 645.781C135.994 645.99 135.51 646.13 135.02 646.203C134.541 646.276 134.051 646.312 133.551 646.312C132.905 646.312 132.301 646.208 131.739 646C131.176 645.792 130.681 645.495 130.254 645.109C129.838 644.724 129.51 644.26 129.27 643.719C129.03 643.177 128.911 642.573 128.911 641.906C128.911 641.24 129.056 640.672 129.348 640.203C129.64 639.724 130.025 639.312 130.504 638.969C130.994 638.625 131.541 638.339 132.145 638.109C132.76 637.87 133.385 637.661 134.02 637.484C134.666 637.297 135.296 637.12 135.911 636.953C136.525 636.786 137.072 636.604 137.551 636.406C138.041 636.198 138.431 635.964 138.723 635.703C139.015 635.432 139.161 635.099 139.161 634.703C139.161 634.245 139.072 633.839 138.895 633.484C138.718 633.13 138.468 632.833 138.145 632.594C137.822 632.344 137.431 632.156 136.973 632.031C136.515 631.906 136.01 631.844 135.458 631.844C134.989 631.844 134.546 631.906 134.129 632.031C133.713 632.146 133.338 632.318 133.004 632.547C132.671 632.776 132.395 633.057 132.176 633.391C131.958 633.724 131.817 634.109 131.754 634.547H129.333C129.385 633.776 129.593 633.094 129.958 632.5C130.322 631.906 130.786 631.411 131.348 631.016C131.911 630.609 132.546 630.302 133.254 630.094C133.973 629.885 134.708 629.781 135.458 629.781C136.27 629.781 137.036 629.88 137.754 630.078C138.484 630.276 139.124 630.578 139.676 630.984C140.228 631.391 140.666 631.906 140.989 632.531C141.312 633.146 141.473 633.87 141.473 634.703V642.938C141.473 643.344 141.572 643.672 141.77 643.922C141.978 644.161 142.234 644.281 142.536 644.281C142.671 644.281 142.801 644.26 142.926 644.219V646.125ZM139.161 637.156C138.838 637.5 138.416 637.786 137.895 638.016C137.385 638.234 136.833 638.432 136.239 638.609C135.655 638.786 135.067 638.958 134.473 639.125C133.879 639.292 133.338 639.49 132.848 639.719C132.369 639.948 131.978 640.229 131.676 640.562C131.374 640.885 131.223 641.297 131.223 641.797C131.223 642.245 131.301 642.625 131.458 642.938C131.614 643.25 131.817 643.51 132.067 643.719C132.317 643.917 132.603 644.062 132.926 644.156C133.249 644.25 133.577 644.297 133.911 644.297C134.869 644.297 135.806 644.005 136.723 643.422C137.65 642.839 138.463 641.943 139.161 640.734V637.156ZM146.481 630.094H148.793L148.699 632.734C149.189 631.87 149.762 631.208 150.418 630.75C151.085 630.292 151.861 630.062 152.746 630.062C152.819 630.062 152.918 630.068 153.043 630.078C153.179 630.089 153.314 630.104 153.449 630.125C153.595 630.135 153.731 630.156 153.856 630.188C153.991 630.208 154.095 630.234 154.168 630.266V632.625C153.929 632.542 153.658 632.479 153.356 632.438C153.054 632.385 152.83 632.359 152.684 632.359C152.069 632.359 151.522 632.474 151.043 632.703C150.564 632.932 150.158 633.245 149.824 633.641C149.491 634.026 149.236 634.474 149.059 634.984C148.882 635.484 148.793 636.01 148.793 636.562V646H146.481V630.094ZM160.223 625.688V630.094H163.035V632.062H160.223V642.484C160.223 642.828 160.264 643.12 160.348 643.359C160.441 643.589 160.561 643.776 160.707 643.922C160.863 644.057 161.045 644.156 161.254 644.219C161.462 644.271 161.686 644.297 161.926 644.297C162.217 644.297 162.519 644.271 162.832 644.219C163.144 644.156 163.415 644.099 163.644 644.047V645.938C163.374 646.021 163.019 646.104 162.582 646.188C162.155 646.271 161.712 646.312 161.254 646.312C160.858 646.312 160.457 646.255 160.051 646.141C159.655 646.036 159.295 645.865 158.973 645.625C158.66 645.385 158.405 645.078 158.207 644.703C158.009 644.318 157.91 643.849 157.91 643.297V632.062H155.473V630.094H157.91V625.688H160.223ZM179.894 643.125L184.3 630.094H186.722L179.988 649.453C179.769 650.068 179.514 650.589 179.222 651.016C178.941 651.453 178.639 651.802 178.316 652.062C178.003 652.333 177.68 652.526 177.347 652.641C177.014 652.766 176.691 652.828 176.378 652.828C176.097 652.828 175.821 652.807 175.55 652.766C175.279 652.734 174.993 652.661 174.691 652.547V650.531C174.836 650.594 175.04 650.661 175.3 650.734C175.56 650.807 175.816 650.844 176.066 650.844C176.336 650.844 176.581 650.745 176.8 650.547C177.029 650.359 177.248 650.073 177.456 649.688C177.665 649.302 177.873 648.818 178.081 648.234C178.3 647.651 178.534 646.969 178.784 646.188L172.925 630.094H175.456L179.894 643.125ZM188.229 638.094C188.229 636.969 188.38 635.906 188.682 634.906C188.995 633.896 189.448 633.016 190.042 632.266C190.646 631.505 191.386 630.901 192.261 630.453C193.146 630.005 194.156 629.781 195.292 629.781C196.438 629.781 197.453 630.005 198.339 630.453C199.224 630.901 199.969 631.505 200.573 632.266C201.188 633.016 201.651 633.896 201.964 634.906C202.287 635.906 202.448 636.969 202.448 638.094C202.448 639.208 202.287 640.266 201.964 641.266C201.651 642.255 201.188 643.125 200.573 643.875C199.969 644.625 199.224 645.219 198.339 645.656C197.453 646.094 196.438 646.312 195.292 646.312C194.156 646.312 193.146 646.094 192.261 645.656C191.386 645.219 190.646 644.625 190.042 643.875C189.448 643.125 188.995 642.255 188.682 641.266C188.38 640.266 188.229 639.208 188.229 638.094ZM190.542 638.094C190.542 638.927 190.651 639.719 190.87 640.469C191.089 641.208 191.401 641.865 191.807 642.438C192.214 643 192.709 643.448 193.292 643.781C193.886 644.115 194.552 644.281 195.292 644.281C196.031 644.281 196.698 644.115 197.292 643.781C197.896 643.448 198.406 643 198.823 642.438C199.25 641.865 199.573 641.208 199.792 640.469C200.021 639.719 200.136 638.927 200.136 638.094C200.136 637.26 200.021 636.469 199.792 635.719C199.573 634.958 199.25 634.292 198.823 633.719C198.406 633.146 197.896 632.693 197.292 632.359C196.698 632.016 196.031 631.844 195.292 631.844C194.552 631.844 193.886 632.016 193.292 632.359C192.709 632.693 192.214 633.146 191.807 633.719C191.401 634.292 191.089 634.958 190.87 635.719C190.651 636.469 190.542 637.26 190.542 638.094ZM218.94 646H216.628V643.156C216.221 643.688 215.794 644.135 215.346 644.5C214.909 644.865 214.456 645.161 213.987 645.391C213.518 645.609 213.039 645.766 212.549 645.859C212.07 645.953 211.581 646 211.081 646C210.351 646 209.695 645.891 209.112 645.672C208.539 645.453 208.049 645.141 207.643 644.734C207.237 644.328 206.924 643.839 206.706 643.266C206.497 642.682 206.393 642.031 206.393 641.312V630.094H208.706V641.016C208.706 641.557 208.768 642.016 208.893 642.391C209.029 642.766 209.216 643.073 209.456 643.312C209.706 643.542 210.008 643.708 210.362 643.812C210.716 643.917 211.117 643.969 211.565 643.969C212.263 643.969 212.919 643.833 213.534 643.562C214.148 643.281 214.685 642.927 215.143 642.5C215.601 642.062 215.961 641.578 216.221 641.047C216.492 640.516 216.628 639.995 216.628 639.484V630.094H218.94V646ZM223.963 630.094H226.276L226.182 632.734C226.671 631.87 227.244 631.208 227.901 630.75C228.567 630.292 229.343 630.062 230.229 630.062C230.302 630.062 230.401 630.068 230.526 630.078C230.661 630.089 230.796 630.104 230.932 630.125C231.078 630.135 231.213 630.156 231.338 630.188C231.474 630.208 231.578 630.234 231.651 630.266V632.625C231.411 632.542 231.14 632.479 230.838 632.438C230.536 632.385 230.312 632.359 230.166 632.359C229.552 632.359 229.005 632.474 228.526 632.703C228.046 632.932 227.64 633.245 227.307 633.641C226.974 634.026 226.718 634.474 226.541 634.984C226.364 635.484 226.276 636.01 226.276 636.562V646H223.963V630.094ZM244.759 624.094V626.797H242.447V624.094H244.759ZM244.759 630.094V648.328C244.759 649.151 244.65 649.844 244.431 650.406C244.223 650.979 243.936 651.443 243.572 651.797C243.218 652.161 242.806 652.422 242.338 652.578C241.869 652.745 241.379 652.828 240.869 652.828C240.66 652.828 240.426 652.807 240.166 652.766C239.905 652.734 239.671 652.661 239.463 652.547V650.531C239.692 650.646 239.89 650.714 240.056 650.734C240.233 650.766 240.369 650.781 240.463 650.781C241.056 650.781 241.535 650.557 241.9 650.109C242.265 649.672 242.447 649.052 242.447 648.25V630.094H244.759ZM248.892 638.094C248.892 636.969 249.043 635.906 249.345 634.906C249.658 633.896 250.111 633.016 250.704 632.266C251.309 631.505 252.048 630.901 252.923 630.453C253.809 630.005 254.819 629.781 255.954 629.781C257.1 629.781 258.116 630.005 259.001 630.453C259.887 630.901 260.631 631.505 261.236 632.266C261.85 633.016 262.314 633.896 262.626 634.906C262.949 635.906 263.111 636.969 263.111 638.094C263.111 639.208 262.949 640.266 262.626 641.266C262.314 642.255 261.85 643.125 261.236 643.875C260.631 644.625 259.887 645.219 259.001 645.656C258.116 646.094 257.1 646.312 255.954 646.312C254.819 646.312 253.809 646.094 252.923 645.656C252.048 645.219 251.309 644.625 250.704 643.875C250.111 643.125 249.658 642.255 249.345 641.266C249.043 640.266 248.892 639.208 248.892 638.094ZM251.204 638.094C251.204 638.927 251.314 639.719 251.533 640.469C251.751 641.208 252.064 641.865 252.47 642.438C252.876 643 253.371 643.448 253.954 643.781C254.548 644.115 255.215 644.281 255.954 644.281C256.694 644.281 257.361 644.115 257.954 643.781C258.559 643.448 259.069 643 259.486 642.438C259.913 641.865 260.236 641.208 260.454 640.469C260.684 639.719 260.798 638.927 260.798 638.094C260.798 637.26 260.684 636.469 260.454 635.719C260.236 634.958 259.913 634.292 259.486 633.719C259.069 633.146 258.559 632.693 257.954 632.359C257.361 632.016 256.694 631.844 255.954 631.844C255.215 631.844 254.548 632.016 253.954 632.359C253.371 632.693 252.876 633.146 252.47 633.719C252.064 634.292 251.751 634.958 251.533 635.719C251.314 636.469 251.204 637.26 251.204 638.094ZM279.603 646H277.29V643.156C276.884 643.688 276.457 644.135 276.009 644.5C275.571 644.865 275.118 645.161 274.649 645.391C274.181 645.609 273.701 645.766 273.212 645.859C272.733 645.953 272.243 646 271.743 646C271.014 646 270.358 645.891 269.774 645.672C269.201 645.453 268.712 645.141 268.306 644.734C267.899 644.328 267.587 643.839 267.368 643.266C267.16 642.682 267.056 642.031 267.056 641.312V630.094H269.368V641.016C269.368 641.557 269.431 642.016 269.556 642.391C269.691 642.766 269.879 643.073 270.118 643.312C270.368 643.542 270.67 643.708 271.024 643.812C271.379 643.917 271.78 643.969 272.228 643.969C272.925 643.969 273.582 643.833 274.196 643.562C274.811 643.281 275.347 642.927 275.806 642.5C276.264 642.062 276.623 641.578 276.884 641.047C277.155 640.516 277.29 639.995 277.29 639.484V630.094H279.603V646ZM284.626 630.094H286.938L286.844 632.734C287.334 631.87 287.907 631.208 288.563 630.75C289.23 630.292 290.006 630.062 290.891 630.062C290.964 630.062 291.063 630.068 291.188 630.078C291.324 630.089 291.459 630.104 291.594 630.125C291.74 630.135 291.876 630.156 292.001 630.188C292.136 630.208 292.24 630.234 292.313 630.266V632.625C292.074 632.542 291.803 632.479 291.501 632.438C291.199 632.385 290.975 632.359 290.829 632.359C290.214 632.359 289.667 632.474 289.188 632.703C288.709 632.932 288.303 633.245 287.969 633.641C287.636 634.026 287.381 634.474 287.204 634.984C287.027 635.484 286.938 636.01 286.938 636.562V646H284.626V630.094ZM295.321 630.094H297.633V632.438C298.446 631.5 299.321 630.823 300.258 630.406C301.196 629.99 302.159 629.781 303.149 629.781C303.888 629.781 304.55 629.891 305.133 630.109C305.716 630.328 306.211 630.641 306.618 631.047C307.024 631.453 307.331 631.948 307.539 632.531C307.758 633.104 307.868 633.75 307.868 634.469V646H305.555V634.766C305.555 634.224 305.487 633.771 305.352 633.406C305.227 633.031 305.039 632.729 304.789 632.5C304.55 632.271 304.253 632.104 303.899 632C303.545 631.896 303.149 631.844 302.711 631.844C302.003 631.844 301.341 631.969 300.727 632.219C300.112 632.469 299.576 632.802 299.118 633.219C298.659 633.625 298.295 634.099 298.024 634.641C297.763 635.172 297.633 635.724 297.633 636.297V646H295.321V630.094ZM314.25 638.438C314.26 639.167 314.385 639.885 314.625 640.594C314.875 641.292 315.208 641.917 315.625 642.469C316.052 643.01 316.552 643.453 317.125 643.797C317.698 644.13 318.318 644.297 318.984 644.297C321.234 644.297 322.729 643.25 323.469 641.156H325.578C325.401 641.969 325.104 642.698 324.688 643.344C324.271 643.979 323.766 644.521 323.172 644.969C322.578 645.406 321.922 645.74 321.203 645.969C320.484 646.198 319.745 646.312 318.984 646.312C317.891 646.312 316.901 646.078 316.016 645.609C315.141 645.141 314.391 644.516 313.766 643.734C313.141 642.953 312.661 642.052 312.328 641.031C311.995 640 311.828 638.922 311.828 637.797C311.828 636.745 311.995 635.734 312.328 634.766C312.661 633.797 313.135 632.943 313.75 632.203C314.375 631.464 315.125 630.875 316 630.438C316.885 630 317.875 629.781 318.969 629.781C320.031 629.781 320.984 629.979 321.828 630.375C322.682 630.771 323.411 631.318 324.016 632.016C324.62 632.714 325.083 633.531 325.406 634.469C325.729 635.406 325.891 636.422 325.891 637.516V638.438H314.25ZM323.5 636.656C323.479 635.99 323.354 635.365 323.125 634.781C322.906 634.198 322.594 633.688 322.188 633.25C321.792 632.812 321.307 632.469 320.734 632.219C320.161 631.969 319.521 631.844 318.812 631.844C318.167 631.844 317.568 631.979 317.016 632.25C316.464 632.521 315.984 632.88 315.578 633.328C315.172 633.776 314.849 634.292 314.609 634.875C314.38 635.448 314.26 636.042 314.25 636.656H323.5ZM334.539 643.125L338.945 630.094H341.367L334.633 649.453C334.414 650.068 334.159 650.589 333.867 651.016C333.586 651.453 333.284 651.802 332.961 652.062C332.648 652.333 332.325 652.526 331.992 652.641C331.659 652.766 331.336 652.828 331.023 652.828C330.742 652.828 330.466 652.807 330.195 652.766C329.924 652.734 329.638 652.661 329.336 652.547V650.531C329.481 650.594 329.685 650.661 329.945 650.734C330.205 650.807 330.461 650.844 330.711 650.844C330.981 650.844 331.226 650.745 331.445 650.547C331.674 650.359 331.893 650.073 332.101 649.688C332.31 649.302 332.518 648.818 332.726 648.234C332.945 647.651 333.179 646.969 333.429 646.188L327.57 630.094H330.101L334.539 643.125ZM352.101 624.094H354.413V632.344C354.684 631.969 354.991 631.625 355.335 631.312C355.689 631 356.059 630.729 356.444 630.5C356.84 630.271 357.241 630.094 357.648 629.969C358.054 629.844 358.444 629.781 358.819 629.781C359.892 629.781 360.83 630.01 361.632 630.469C362.444 630.917 363.116 631.526 363.648 632.297C364.189 633.068 364.595 633.964 364.866 634.984C365.137 635.995 365.273 637.062 365.273 638.188C365.273 639.312 365.132 640.37 364.851 641.359C364.58 642.349 364.168 643.214 363.616 643.953C363.075 644.682 362.398 645.26 361.585 645.688C360.773 646.104 359.83 646.312 358.757 646.312C357.934 646.312 357.132 646.089 356.351 645.641C355.58 645.182 354.934 644.505 354.413 643.609V646H352.101V624.094ZM354.413 638.188C354.413 639.031 354.507 639.823 354.694 640.562C354.882 641.292 355.158 641.932 355.523 642.484C355.887 643.036 356.33 643.474 356.851 643.797C357.382 644.109 357.986 644.266 358.663 644.266C359.351 644.266 359.96 644.109 360.491 643.797C361.023 643.474 361.47 643.042 361.835 642.5C362.21 641.948 362.491 641.307 362.679 640.578C362.866 639.839 362.96 639.047 362.96 638.203C362.96 637.359 362.866 636.557 362.679 635.797C362.491 635.026 362.21 634.349 361.835 633.766C361.47 633.182 361.023 632.719 360.491 632.375C359.96 632.021 359.351 631.844 358.663 631.844C358.007 631.844 357.413 632.01 356.882 632.344C356.361 632.667 355.913 633.104 355.538 633.656C355.174 634.198 354.892 634.818 354.694 635.516C354.507 636.214 354.413 636.938 354.413 637.688V638.188ZM374.311 643.125L378.717 630.094H381.139L374.405 649.453C374.186 650.068 373.931 650.589 373.639 651.016C373.358 651.453 373.056 651.802 372.733 652.062C372.421 652.333 372.098 652.526 371.764 652.641C371.431 652.766 371.108 652.828 370.796 652.828C370.514 652.828 370.238 652.807 369.967 652.766C369.697 652.734 369.41 652.661 369.108 652.547V650.531C369.254 650.594 369.457 650.661 369.717 650.734C369.978 650.807 370.233 650.844 370.483 650.844C370.754 650.844 370.999 650.745 371.217 650.547C371.447 650.359 371.665 650.073 371.874 649.688C372.082 649.302 372.29 648.818 372.499 648.234C372.717 647.651 372.952 646.969 373.202 646.188L367.342 630.094H369.874L374.311 643.125ZM390.811 638.094C390.811 636.969 390.962 635.906 391.264 634.906C391.576 633.896 392.029 633.016 392.623 632.266C393.227 631.505 393.967 630.901 394.842 630.453C395.727 630.005 396.738 629.781 397.873 629.781C399.019 629.781 400.035 630.005 400.92 630.453C401.805 630.901 402.55 631.505 403.154 632.266C403.769 633.016 404.233 633.896 404.545 634.906C404.868 635.906 405.029 636.969 405.029 638.094C405.029 639.208 404.868 640.266 404.545 641.266C404.233 642.255 403.769 643.125 403.154 643.875C402.55 644.625 401.805 645.219 400.92 645.656C400.035 646.094 399.019 646.312 397.873 646.312C396.738 646.312 395.727 646.094 394.842 645.656C393.967 645.219 393.227 644.625 392.623 643.875C392.029 643.125 391.576 642.255 391.264 641.266C390.962 640.266 390.811 639.208 390.811 638.094ZM393.123 638.094C393.123 638.927 393.233 639.719 393.451 640.469C393.67 641.208 393.983 641.865 394.389 642.438C394.795 643 395.29 643.448 395.873 643.781C396.467 644.115 397.134 644.281 397.873 644.281C398.613 644.281 399.279 644.115 399.873 643.781C400.477 643.448 400.988 643 401.404 642.438C401.831 641.865 402.154 641.208 402.373 640.469C402.602 639.719 402.717 638.927 402.717 638.094C402.717 637.26 402.602 636.469 402.373 635.719C402.154 634.958 401.831 634.292 401.404 633.719C400.988 633.146 400.477 632.693 399.873 632.359C399.279 632.016 398.613 631.844 397.873 631.844C397.134 631.844 396.467 632.016 395.873 632.359C395.29 632.693 394.795 633.146 394.389 633.719C393.983 634.292 393.67 634.958 393.451 635.719C393.233 636.469 393.123 637.26 393.123 638.094ZM408.974 630.094H411.287V632.438C412.099 631.5 412.974 630.823 413.912 630.406C414.849 629.99 415.813 629.781 416.802 629.781C417.542 629.781 418.204 629.891 418.787 630.109C419.37 630.328 419.865 630.641 420.271 631.047C420.677 631.453 420.985 631.948 421.193 632.531C421.412 633.104 421.521 633.75 421.521 634.469V646H419.209V634.766C419.209 634.224 419.141 633.771 419.006 633.406C418.881 633.031 418.693 632.729 418.443 632.5C418.204 632.271 417.907 632.104 417.552 632C417.198 631.896 416.802 631.844 416.365 631.844C415.657 631.844 414.995 631.969 414.381 632.219C413.766 632.469 413.23 632.802 412.771 633.219C412.313 633.625 411.948 634.099 411.677 634.641C411.417 635.172 411.287 635.724 411.287 636.297V646H408.974V630.094ZM427.904 638.438C427.914 639.167 428.039 639.885 428.279 640.594C428.529 641.292 428.862 641.917 429.279 642.469C429.706 643.01 430.206 643.453 430.779 643.797C431.352 644.13 431.971 644.297 432.638 644.297C434.888 644.297 436.383 643.25 437.122 641.156H439.232C439.055 641.969 438.758 642.698 438.341 643.344C437.925 643.979 437.419 644.521 436.826 644.969C436.232 645.406 435.576 645.74 434.857 645.969C434.138 646.198 433.399 646.312 432.638 646.312C431.544 646.312 430.555 646.078 429.669 645.609C428.794 645.141 428.044 644.516 427.419 643.734C426.794 642.953 426.315 642.052 425.982 641.031C425.649 640 425.482 638.922 425.482 637.797C425.482 636.745 425.649 635.734 425.982 634.766C426.315 633.797 426.789 632.943 427.404 632.203C428.029 631.464 428.779 630.875 429.654 630.438C430.539 630 431.529 629.781 432.622 629.781C433.685 629.781 434.638 629.979 435.482 630.375C436.336 630.771 437.065 631.318 437.669 632.016C438.274 632.714 438.737 633.531 439.06 634.469C439.383 635.406 439.544 636.422 439.544 637.516V638.438H427.904ZM437.154 636.656C437.133 635.99 437.008 635.365 436.779 634.781C436.56 634.198 436.247 633.688 435.841 633.25C435.445 632.812 434.961 632.469 434.388 632.219C433.815 631.969 433.175 631.844 432.466 631.844C431.82 631.844 431.221 631.979 430.669 632.25C430.117 632.521 429.638 632.88 429.232 633.328C428.826 633.776 428.503 634.292 428.263 634.875C428.034 635.448 427.914 636.042 427.904 636.656H437.154ZM460.747 634.875C460.424 633.771 459.95 632.99 459.325 632.531C458.7 632.073 457.877 631.844 456.856 631.844C456.138 631.844 455.497 632.005 454.934 632.328C454.372 632.651 453.898 633.083 453.513 633.625C453.138 634.167 452.846 634.792 452.638 635.5C452.44 636.208 452.341 636.948 452.341 637.719C452.341 638.521 452.44 639.318 452.638 640.109C452.846 640.891 453.143 641.589 453.528 642.203C453.914 642.818 454.382 643.318 454.934 643.703C455.486 644.078 456.111 644.266 456.809 644.266C457.372 644.266 457.872 644.167 458.309 643.969C458.757 643.76 459.138 643.484 459.45 643.141C459.773 642.797 460.039 642.396 460.247 641.938C460.455 641.479 460.606 640.99 460.7 640.469H463.247C463.132 641.375 462.898 642.193 462.544 642.922C462.2 643.641 461.747 644.255 461.184 644.766C460.632 645.266 459.976 645.651 459.216 645.922C458.466 646.182 457.632 646.312 456.716 646.312C455.945 646.312 455.242 646.193 454.606 645.953C453.971 645.714 453.403 645.391 452.903 644.984C452.414 644.568 451.986 644.083 451.622 643.531C451.257 642.969 450.955 642.37 450.716 641.734C450.486 641.099 450.315 640.443 450.2 639.766C450.085 639.078 450.028 638.396 450.028 637.719C450.028 636.625 450.19 635.599 450.513 634.641C450.835 633.672 451.294 632.828 451.888 632.109C452.492 631.391 453.216 630.823 454.059 630.406C454.903 629.99 455.851 629.781 456.903 629.781C457.82 629.781 458.632 629.911 459.341 630.172C460.059 630.422 460.679 630.776 461.2 631.234C461.721 631.682 462.148 632.219 462.481 632.844C462.815 633.469 463.054 634.146 463.2 634.875H460.747ZM469.442 624.094V646H467.129V624.094H469.442ZM476.793 624.094V626.797H474.481V624.094H476.793ZM476.793 630.094V646H474.481V630.094H476.793ZM491.488 634.875C491.165 633.771 490.691 632.99 490.066 632.531C489.441 632.073 488.618 631.844 487.598 631.844C486.879 631.844 486.238 632.005 485.676 632.328C485.113 632.651 484.639 633.083 484.254 633.625C483.879 634.167 483.587 634.792 483.379 635.5C483.181 636.208 483.082 636.948 483.082 637.719C483.082 638.521 483.181 639.318 483.379 640.109C483.587 640.891 483.884 641.589 484.269 642.203C484.655 642.818 485.124 643.318 485.676 643.703C486.228 644.078 486.853 644.266 487.551 644.266C488.113 644.266 488.613 644.167 489.051 643.969C489.499 643.76 489.879 643.484 490.191 643.141C490.514 642.797 490.78 642.396 490.988 641.938C491.196 641.479 491.348 640.99 491.441 640.469H493.988C493.874 641.375 493.639 642.193 493.285 642.922C492.941 643.641 492.488 644.255 491.926 644.766C491.374 645.266 490.717 645.651 489.957 645.922C489.207 646.182 488.374 646.312 487.457 646.312C486.686 646.312 485.983 646.193 485.348 645.953C484.712 645.714 484.144 645.391 483.644 644.984C483.155 644.568 482.728 644.083 482.363 643.531C481.999 642.969 481.696 642.37 481.457 641.734C481.228 641.099 481.056 640.443 480.941 639.766C480.827 639.078 480.769 638.396 480.769 637.719C480.769 636.625 480.931 635.599 481.254 634.641C481.577 633.672 482.035 632.828 482.629 632.109C483.233 631.391 483.957 630.823 484.801 630.406C485.644 629.99 486.592 629.781 487.644 629.781C488.561 629.781 489.374 629.911 490.082 630.172C490.801 630.422 491.42 630.776 491.941 631.234C492.462 631.682 492.889 632.219 493.223 632.844C493.556 633.469 493.795 634.146 493.941 634.875H491.488ZM504.683 635.859L510.543 646H507.839L503.043 637.516L500.183 640.391V646H497.871V624.094H500.183V637.312L507.589 630.094H510.433L504.683 635.859ZM516.566 642.969V646.781C516.566 647.729 516.326 648.516 515.847 649.141C515.368 649.766 514.743 650.229 513.972 650.531L513.206 649.453C513.54 649.318 513.805 649.167 514.003 649C514.211 648.833 514.368 648.641 514.472 648.422C514.586 648.203 514.659 647.958 514.691 647.688C514.722 647.417 514.738 647.115 514.738 646.781V646H513.581V642.969H516.566ZM188.663 669.203V671.312H176.444V678.688H187.944V680.797H176.444V688.891H189.21V691H174.132V669.203H188.663ZM200.546 683.047L205.967 691H203.155L199.155 685.047L195.139 691H192.327L197.78 683.047L192.358 675.094H195.139L199.155 680.984L203.155 675.094H205.967L200.546 683.047ZM209.069 675.094H211.381V677.562C211.642 677.125 211.954 676.734 212.319 676.391C212.683 676.047 213.074 675.755 213.491 675.516C213.907 675.276 214.334 675.094 214.772 674.969C215.209 674.844 215.631 674.781 216.038 674.781C217.1 674.781 218.043 675 218.866 675.438C219.699 675.875 220.402 676.469 220.975 677.219C221.548 677.958 221.98 678.828 222.272 679.828C222.574 680.828 222.725 681.891 222.725 683.016C222.725 684.141 222.579 685.208 222.288 686.219C221.996 687.219 221.569 688.099 221.006 688.859C220.444 689.609 219.751 690.208 218.928 690.656C218.105 691.094 217.163 691.312 216.1 691.312C215.694 691.312 215.272 691.255 214.834 691.141C214.407 691.026 213.98 690.859 213.553 690.641C213.136 690.422 212.741 690.151 212.366 689.828C211.991 689.495 211.663 689.115 211.381 688.688V697.422H209.069V675.094ZM211.381 683.422C211.392 684.234 211.511 685 211.741 685.719C211.98 686.427 212.298 687.047 212.694 687.578C213.09 688.099 213.564 688.516 214.116 688.828C214.668 689.13 215.272 689.281 215.928 689.281C216.616 689.281 217.235 689.115 217.788 688.781C218.34 688.438 218.808 687.984 219.194 687.422C219.59 686.849 219.892 686.182 220.1 685.422C220.308 684.661 220.413 683.859 220.413 683.016C220.413 682.172 220.308 681.375 220.1 680.625C219.892 679.875 219.59 679.219 219.194 678.656C218.808 678.083 218.34 677.635 217.788 677.312C217.235 676.979 216.616 676.812 215.928 676.812C215.251 676.812 214.631 676.974 214.069 677.297C213.517 677.62 213.043 678.062 212.647 678.625C212.251 679.188 211.939 679.844 211.709 680.594C211.491 681.333 211.381 682.125 211.381 682.969V683.422ZM228.983 669.094V691H226.67V669.094H228.983ZM232.959 683.094C232.959 681.969 233.11 680.906 233.412 679.906C233.724 678.896 234.178 678.016 234.771 677.266C235.375 676.505 236.115 675.901 236.99 675.453C237.875 675.005 238.886 674.781 240.021 674.781C241.167 674.781 242.183 675.005 243.068 675.453C243.954 675.901 244.698 676.505 245.303 677.266C245.917 678.016 246.381 678.896 246.693 679.906C247.016 680.906 247.178 681.969 247.178 683.094C247.178 684.208 247.016 685.266 246.693 686.266C246.381 687.255 245.917 688.125 245.303 688.875C244.698 689.625 243.954 690.219 243.068 690.656C242.183 691.094 241.167 691.312 240.021 691.312C238.886 691.312 237.875 691.094 236.99 690.656C236.115 690.219 235.375 689.625 234.771 688.875C234.178 688.125 233.724 687.255 233.412 686.266C233.11 685.266 232.959 684.208 232.959 683.094ZM235.271 683.094C235.271 683.927 235.381 684.719 235.599 685.469C235.818 686.208 236.131 686.865 236.537 687.438C236.943 688 237.438 688.448 238.021 688.781C238.615 689.115 239.282 689.281 240.021 689.281C240.761 689.281 241.428 689.115 242.021 688.781C242.625 688.448 243.136 688 243.553 687.438C243.98 686.865 244.303 686.208 244.521 685.469C244.75 684.719 244.865 683.927 244.865 683.094C244.865 682.26 244.75 681.469 244.521 680.719C244.303 679.958 243.98 679.292 243.553 678.719C243.136 678.146 242.625 677.693 242.021 677.359C241.428 677.016 240.761 676.844 240.021 676.844C239.282 676.844 238.615 677.016 238.021 677.359C237.438 677.693 236.943 678.146 236.537 678.719C236.131 679.292 235.818 679.958 235.599 680.719C235.381 681.469 235.271 682.26 235.271 683.094ZM251.122 675.094H253.435L253.341 677.734C253.831 676.87 254.404 676.208 255.06 675.75C255.727 675.292 256.503 675.062 257.388 675.062C257.461 675.062 257.56 675.068 257.685 675.078C257.82 675.089 257.956 675.104 258.091 675.125C258.237 675.135 258.372 675.156 258.497 675.188C258.633 675.208 258.737 675.234 258.81 675.266V677.625C258.57 677.542 258.3 677.479 257.997 677.438C257.695 677.385 257.471 677.359 257.326 677.359C256.711 677.359 256.164 677.474 255.685 677.703C255.206 677.932 254.8 678.245 254.466 678.641C254.133 679.026 253.878 679.474 253.701 679.984C253.524 680.484 253.435 681.01 253.435 681.562V691H251.122V675.094ZM263.177 683.438C263.187 684.167 263.312 684.885 263.552 685.594C263.802 686.292 264.135 686.917 264.552 687.469C264.979 688.01 265.479 688.453 266.052 688.797C266.625 689.13 267.245 689.297 267.911 689.297C270.161 689.297 271.656 688.25 272.396 686.156H274.505C274.328 686.969 274.031 687.698 273.614 688.344C273.198 688.979 272.693 689.521 272.099 689.969C271.505 690.406 270.849 690.74 270.13 690.969C269.411 691.198 268.672 691.312 267.911 691.312C266.818 691.312 265.828 691.078 264.943 690.609C264.068 690.141 263.318 689.516 262.693 688.734C262.068 687.953 261.588 687.052 261.255 686.031C260.922 685 260.755 683.922 260.755 682.797C260.755 681.745 260.922 680.734 261.255 679.766C261.588 678.797 262.062 677.943 262.677 677.203C263.302 676.464 264.052 675.875 264.927 675.438C265.812 675 266.802 674.781 267.896 674.781C268.958 674.781 269.911 674.979 270.755 675.375C271.609 675.771 272.338 676.318 272.943 677.016C273.547 677.714 274.01 678.531 274.333 679.469C274.656 680.406 274.818 681.422 274.818 682.516V683.438H263.177ZM272.427 681.656C272.406 680.99 272.281 680.365 272.052 679.781C271.833 679.198 271.521 678.688 271.114 678.25C270.719 677.812 270.234 677.469 269.661 677.219C269.088 676.969 268.448 676.844 267.739 676.844C267.094 676.844 266.495 676.979 265.943 677.25C265.39 677.521 264.911 677.88 264.505 678.328C264.099 678.776 263.776 679.292 263.536 679.875C263.307 680.448 263.187 681.042 263.177 681.656H272.427ZM291.473 688.125L295.879 675.094H298.301L291.567 694.453C291.348 695.068 291.093 695.589 290.801 696.016C290.52 696.453 290.218 696.802 289.895 697.062C289.583 697.333 289.26 697.526 288.926 697.641C288.593 697.766 288.27 697.828 287.958 697.828C287.676 697.828 287.4 697.807 287.129 697.766C286.859 697.734 286.572 697.661 286.27 697.547V695.531C286.416 695.594 286.619 695.661 286.879 695.734C287.14 695.807 287.395 695.844 287.645 695.844C287.916 695.844 288.161 695.745 288.379 695.547C288.609 695.359 288.827 695.073 289.036 694.688C289.244 694.302 289.452 693.818 289.661 693.234C289.879 692.651 290.114 691.969 290.364 691.188L284.504 675.094H287.036L291.473 688.125ZM299.809 683.094C299.809 681.969 299.96 680.906 300.262 679.906C300.574 678.896 301.027 678.016 301.621 677.266C302.225 676.505 302.965 675.901 303.84 675.453C304.725 675.005 305.736 674.781 306.871 674.781C308.017 674.781 309.033 675.005 309.918 675.453C310.804 675.901 311.548 676.505 312.152 677.266C312.767 678.016 313.231 678.896 313.543 679.906C313.866 680.906 314.027 681.969 314.027 683.094C314.027 684.208 313.866 685.266 313.543 686.266C313.231 687.255 312.767 688.125 312.152 688.875C311.548 689.625 310.804 690.219 309.918 690.656C309.033 691.094 308.017 691.312 306.871 691.312C305.736 691.312 304.725 691.094 303.84 690.656C302.965 690.219 302.225 689.625 301.621 688.875C301.027 688.125 300.574 687.255 300.262 686.266C299.96 685.266 299.809 684.208 299.809 683.094ZM302.121 683.094C302.121 683.927 302.231 684.719 302.449 685.469C302.668 686.208 302.981 686.865 303.387 687.438C303.793 688 304.288 688.448 304.871 688.781C305.465 689.115 306.132 689.281 306.871 689.281C307.611 689.281 308.277 689.115 308.871 688.781C309.475 688.448 309.986 688 310.402 687.438C310.83 686.865 311.152 686.208 311.371 685.469C311.6 684.719 311.715 683.927 311.715 683.094C311.715 682.26 311.6 681.469 311.371 680.719C311.152 679.958 310.83 679.292 310.402 678.719C309.986 678.146 309.475 677.693 308.871 677.359C308.277 677.016 307.611 676.844 306.871 676.844C306.132 676.844 305.465 677.016 304.871 677.359C304.288 677.693 303.793 678.146 303.387 678.719C302.981 679.292 302.668 679.958 302.449 680.719C302.231 681.469 302.121 682.26 302.121 683.094ZM330.519 691H328.207V688.156C327.801 688.688 327.374 689.135 326.926 689.5C326.488 689.865 326.035 690.161 325.566 690.391C325.098 690.609 324.618 690.766 324.129 690.859C323.65 690.953 323.16 691 322.66 691C321.931 691 321.275 690.891 320.691 690.672C320.118 690.453 319.629 690.141 319.223 689.734C318.816 689.328 318.504 688.839 318.285 688.266C318.077 687.682 317.973 687.031 317.973 686.312V675.094H320.285V686.016C320.285 686.557 320.348 687.016 320.473 687.391C320.608 687.766 320.795 688.073 321.035 688.312C321.285 688.542 321.587 688.708 321.941 688.812C322.295 688.917 322.696 688.969 323.144 688.969C323.842 688.969 324.499 688.833 325.113 688.562C325.728 688.281 326.264 687.927 326.723 687.5C327.181 687.062 327.54 686.578 327.801 686.047C328.071 685.516 328.207 684.995 328.207 684.484V675.094H330.519V691ZM335.543 675.094H337.855L337.761 677.734C338.251 676.87 338.824 676.208 339.48 675.75C340.147 675.292 340.923 675.062 341.808 675.062C341.881 675.062 341.98 675.068 342.105 675.078C342.24 675.089 342.376 675.104 342.511 675.125C342.657 675.135 342.793 675.156 342.918 675.188C343.053 675.208 343.157 675.234 343.23 675.266V677.625C342.99 677.542 342.72 677.479 342.418 677.438C342.115 677.385 341.891 677.359 341.746 677.359C341.131 677.359 340.584 677.474 340.105 677.703C339.626 677.932 339.22 678.245 338.886 678.641C338.553 679.026 338.298 679.474 338.121 679.984C337.944 680.484 337.855 681.01 337.855 681.562V691H335.543V675.094ZM363.526 679.875C363.203 678.771 362.729 677.99 362.104 677.531C361.479 677.073 360.656 676.844 359.636 676.844C358.917 676.844 358.276 677.005 357.714 677.328C357.151 677.651 356.677 678.083 356.292 678.625C355.917 679.167 355.625 679.792 355.417 680.5C355.219 681.208 355.12 681.948 355.12 682.719C355.12 683.521 355.219 684.318 355.417 685.109C355.625 685.891 355.922 686.589 356.307 687.203C356.693 687.818 357.162 688.318 357.714 688.703C358.266 689.078 358.891 689.266 359.589 689.266C360.151 689.266 360.651 689.167 361.089 688.969C361.537 688.76 361.917 688.484 362.229 688.141C362.552 687.797 362.818 687.396 363.026 686.938C363.235 686.479 363.386 685.99 363.479 685.469H366.026C365.912 686.375 365.677 687.193 365.323 687.922C364.979 688.641 364.526 689.255 363.964 689.766C363.412 690.266 362.755 690.651 361.995 690.922C361.245 691.182 360.412 691.312 359.495 691.312C358.724 691.312 358.021 691.193 357.386 690.953C356.75 690.714 356.182 690.391 355.682 689.984C355.193 689.568 354.766 689.083 354.401 688.531C354.037 687.969 353.735 687.37 353.495 686.734C353.266 686.099 353.094 685.443 352.979 684.766C352.865 684.078 352.807 683.396 352.807 682.719C352.807 681.625 352.969 680.599 353.292 679.641C353.615 678.672 354.073 677.828 354.667 677.109C355.271 676.391 355.995 675.823 356.839 675.406C357.682 674.99 358.63 674.781 359.682 674.781C360.599 674.781 361.412 674.911 362.12 675.172C362.839 675.422 363.459 675.776 363.979 676.234C364.5 676.682 364.927 677.219 365.261 677.844C365.594 678.469 365.834 679.146 365.979 679.875H363.526ZM382.768 691.125C382.622 691.177 382.43 691.219 382.19 691.25C381.961 691.292 381.768 691.312 381.612 691.312C380.966 691.312 380.419 691.068 379.971 690.578C379.534 690.078 379.289 689.318 379.237 688.297C378.737 688.943 378.242 689.464 377.753 689.859C377.273 690.255 376.794 690.562 376.315 690.781C375.836 690.99 375.351 691.13 374.862 691.203C374.383 691.276 373.893 691.312 373.393 691.312C372.747 691.312 372.143 691.208 371.581 691C371.018 690.792 370.523 690.495 370.096 690.109C369.68 689.724 369.351 689.26 369.112 688.719C368.872 688.177 368.753 687.573 368.753 686.906C368.753 686.24 368.898 685.672 369.19 685.203C369.482 684.724 369.867 684.312 370.346 683.969C370.836 683.625 371.383 683.339 371.987 683.109C372.601 682.87 373.226 682.661 373.862 682.484C374.508 682.297 375.138 682.12 375.753 681.953C376.367 681.786 376.914 681.604 377.393 681.406C377.883 681.198 378.273 680.964 378.565 680.703C378.857 680.432 379.003 680.099 379.003 679.703C379.003 679.245 378.914 678.839 378.737 678.484C378.56 678.13 378.31 677.833 377.987 677.594C377.664 677.344 377.273 677.156 376.815 677.031C376.357 676.906 375.851 676.844 375.299 676.844C374.831 676.844 374.388 676.906 373.971 677.031C373.555 677.146 373.18 677.318 372.846 677.547C372.513 677.776 372.237 678.057 372.018 678.391C371.799 678.724 371.659 679.109 371.596 679.547H369.174C369.226 678.776 369.435 678.094 369.799 677.5C370.164 676.906 370.628 676.411 371.19 676.016C371.753 675.609 372.388 675.302 373.096 675.094C373.815 674.885 374.549 674.781 375.299 674.781C376.112 674.781 376.878 674.88 377.596 675.078C378.325 675.276 378.966 675.578 379.518 675.984C380.07 676.391 380.508 676.906 380.831 677.531C381.154 678.146 381.315 678.87 381.315 679.703V687.938C381.315 688.344 381.414 688.672 381.612 688.922C381.82 689.161 382.075 689.281 382.378 689.281C382.513 689.281 382.643 689.26 382.768 689.219V691.125ZM379.003 682.156C378.68 682.5 378.258 682.786 377.737 683.016C377.226 683.234 376.674 683.432 376.081 683.609C375.497 683.786 374.909 683.958 374.315 684.125C373.721 684.292 373.18 684.49 372.69 684.719C372.211 684.948 371.82 685.229 371.518 685.562C371.216 685.885 371.065 686.297 371.065 686.797C371.065 687.245 371.143 687.625 371.299 687.938C371.456 688.25 371.659 688.51 371.909 688.719C372.159 688.917 372.445 689.062 372.768 689.156C373.091 689.25 373.419 689.297 373.753 689.297C374.711 689.297 375.648 689.005 376.565 688.422C377.492 687.839 378.305 686.943 379.003 685.734V682.156ZM386.323 675.094H388.635L388.541 677.734C389.031 676.87 389.604 676.208 390.26 675.75C390.927 675.292 391.703 675.062 392.588 675.062C392.661 675.062 392.76 675.068 392.885 675.078C393.02 675.089 393.156 675.104 393.291 675.125C393.437 675.135 393.573 675.156 393.698 675.188C393.833 675.208 393.937 675.234 394.01 675.266V677.625C393.77 677.542 393.5 677.479 393.198 677.438C392.895 677.385 392.671 677.359 392.526 677.359C391.911 677.359 391.364 677.474 390.885 677.703C390.406 677.932 390 678.245 389.666 678.641C389.333 679.026 389.078 679.474 388.901 679.984C388.724 680.484 388.635 681.01 388.635 681.562V691H386.323V675.094ZM398.377 683.438C398.387 684.167 398.512 684.885 398.752 685.594C399.002 686.292 399.335 686.917 399.752 687.469C400.179 688.01 400.679 688.453 401.252 688.797C401.825 689.13 402.445 689.297 403.111 689.297C405.361 689.297 406.856 688.25 407.596 686.156H409.705C409.528 686.969 409.231 687.698 408.814 688.344C408.398 688.979 407.893 689.521 407.299 689.969C406.705 690.406 406.049 690.74 405.33 690.969C404.611 691.198 403.872 691.312 403.111 691.312C402.018 691.312 401.028 691.078 400.143 690.609C399.268 690.141 398.518 689.516 397.893 688.734C397.268 687.953 396.788 687.052 396.455 686.031C396.122 685 395.955 683.922 395.955 682.797C395.955 681.745 396.122 680.734 396.455 679.766C396.788 678.797 397.262 677.943 397.877 677.203C398.502 676.464 399.252 675.875 400.127 675.438C401.012 675 402.002 674.781 403.096 674.781C404.158 674.781 405.111 674.979 405.955 675.375C406.809 675.771 407.538 676.318 408.143 677.016C408.747 677.714 409.21 678.531 409.533 679.469C409.856 680.406 410.018 681.422 410.018 682.516V683.438H398.377ZM407.627 681.656C407.606 680.99 407.481 680.365 407.252 679.781C407.033 679.198 406.721 678.688 406.314 678.25C405.919 677.812 405.434 677.469 404.861 677.219C404.288 676.969 403.648 676.844 402.939 676.844C402.294 676.844 401.695 676.979 401.143 677.25C400.59 677.521 400.111 677.88 399.705 678.328C399.299 678.776 398.976 679.292 398.736 679.875C398.507 680.448 398.387 681.042 398.377 681.656H407.627ZM415.291 683.438C415.301 684.167 415.426 684.885 415.666 685.594C415.916 686.292 416.249 686.917 416.666 687.469C417.093 688.01 417.593 688.453 418.166 688.797C418.739 689.13 419.358 689.297 420.025 689.297C422.275 689.297 423.77 688.25 424.509 686.156H426.619C426.442 686.969 426.145 687.698 425.728 688.344C425.311 688.979 424.806 689.521 424.213 689.969C423.619 690.406 422.963 690.74 422.244 690.969C421.525 691.198 420.785 691.312 420.025 691.312C418.931 691.312 417.942 691.078 417.056 690.609C416.181 690.141 415.431 689.516 414.806 688.734C414.181 687.953 413.702 687.052 413.369 686.031C413.035 685 412.869 683.922 412.869 682.797C412.869 681.745 413.035 680.734 413.369 679.766C413.702 678.797 414.176 677.943 414.791 677.203C415.416 676.464 416.166 675.875 417.041 675.438C417.926 675 418.916 674.781 420.009 674.781C421.072 674.781 422.025 674.979 422.869 675.375C423.723 675.771 424.452 676.318 425.056 677.016C425.66 677.714 426.124 678.531 426.447 679.469C426.77 680.406 426.931 681.422 426.931 682.516V683.438H415.291ZM424.541 681.656C424.52 680.99 424.395 680.365 424.166 679.781C423.947 679.198 423.634 678.688 423.228 678.25C422.832 677.812 422.348 677.469 421.775 677.219C421.202 676.969 420.561 676.844 419.853 676.844C419.207 676.844 418.608 676.979 418.056 677.25C417.504 677.521 417.025 677.88 416.619 678.328C416.213 678.776 415.89 679.292 415.65 679.875C415.421 680.448 415.301 681.042 415.291 681.656H424.541ZM430.845 675.094H433.158L433.064 677.734C433.553 676.87 434.126 676.208 434.783 675.75C435.449 675.292 436.225 675.062 437.111 675.062C437.184 675.062 437.283 675.068 437.408 675.078C437.543 675.089 437.678 675.104 437.814 675.125C437.96 675.135 438.095 675.156 438.22 675.188C438.355 675.208 438.46 675.234 438.533 675.266V677.625C438.293 677.542 438.022 677.479 437.72 677.438C437.418 677.385 437.194 677.359 437.048 677.359C436.434 677.359 435.887 677.474 435.408 677.703C434.928 677.932 434.522 678.245 434.189 678.641C433.855 679.026 433.6 679.474 433.423 679.984C433.246 680.484 433.158 681.01 433.158 681.562V691H430.845V675.094ZM443.774 669.094V678.078L443.149 685.469H441.696L441.087 678.125V669.094H443.774ZM443.774 687.969V691H441.087V687.969H443.774Z" fill="white"/>
<path d="M560 502.4H60V502.65H560V502.4Z" fill="white"/>
<path d="M509.9 518.49H488.22V518.74H509.9V518.49Z" fill="#EBEBEB"/>
<path d="M404.67 513.31H370.56V513.56H404.67V513.31Z" fill="#EBEBEB"/>
<path d="M501.12 509.21H456.59V509.46H501.12V509.21Z" fill="#EBEBEB"/>
<path d="M233.02 514.25H221.88V514.5H233.02V514.25Z" fill="#EBEBEB"/>
<path d="M212.97 514.25H174.58V514.5H212.97V514.25Z" fill="#EBEBEB"/>
<path d="M154.01 510.03H126.31V510.28H154.01V510.03Z" fill="#EBEBEB"/>
<path d="M297 457.8H103.91C102.397 457.797 100.948 457.195 99.8788 456.124C98.8102 455.053 98.21 453.603 98.21 452.09V180.66C98.2231 179.156 98.8292 177.718 99.8964 176.658C100.964 175.598 102.406 175.003 103.91 175H297C298.514 175 299.967 175.602 301.038 176.672C302.108 177.743 302.71 179.196 302.71 180.71V452.09C302.71 453.604 302.108 455.057 301.038 456.128C299.967 457.198 298.514 457.8 297 457.8ZM103.91 175.2C102.464 175.203 101.077 175.779 100.056 176.803C99.0338 177.826 98.46 179.214 98.46 180.66V452.09C98.46 453.536 99.0338 454.924 100.056 455.947C101.077 456.971 102.464 457.547 103.91 457.55H297C298.447 457.547 299.834 456.971 300.858 455.948C301.881 454.924 302.457 453.537 302.46 452.09V180.66C302.457 179.213 301.881 177.825 300.858 176.802C299.834 175.779 298.447 175.203 297 175.2H103.91Z" fill="white"/>
<path d="M513.31 457.8H320.21C318.696 457.797 317.246 457.195 316.175 456.125C315.105 455.054 314.503 453.604 314.5 452.09V180.66C314.516 179.155 315.124 177.717 316.193 176.658C317.262 175.598 318.705 175.003 320.21 175H513.31C514.812 175.005 516.252 175.602 517.317 176.662C518.382 177.721 518.987 179.158 519 180.66V452.09C519 453.601 518.401 455.05 517.335 456.121C516.268 457.191 514.821 457.795 513.31 457.8ZM320.21 175.2C318.763 175.203 317.375 175.779 316.352 176.802C315.329 177.825 314.753 179.213 314.75 180.66V452.09C314.753 453.537 315.329 454.924 316.352 455.948C317.375 456.971 318.763 457.547 320.21 457.55H513.31C514.757 457.547 516.145 456.971 517.168 455.948C518.191 454.924 518.767 453.537 518.77 452.09V180.66C518.767 179.213 518.191 177.825 517.168 176.802C516.145 175.779 514.757 175.203 513.31 175.2H320.21Z" fill="white"/>
<path d="M193.98 435.86H209.19V376.93H193.98V435.86Z" fill="#E6E6E6"/>
<path d="M240.48 433.14H241.64C241.64 430.75 241.64 424.7 241.76 410.83C241.97 385.68 242.37 384.15 242.37 384.15L239.61 395.76C237.86 408.61 240.12 421.53 240.48 433.14Z" fill="#E6E6E6"/>
<path d="M238.19 394C234.19 389.27 225.74 387.89 217.06 386.71C213.65 386.25 226.01 394.04 232.06 399.57C236.76 403.87 239.76 405.06 241.06 409.34C241.72 404 241.61 398.11 238.19 394Z" fill="#E6E6E6"/>
<path d="M243.46 402.48C247.46 397.75 255.91 396.38 264.59 395.2C268 394.74 255.59 402.53 249.59 408.06C244.89 412.36 241.89 413.55 240.59 417.83C239.93 412.49 240 406.56 243.46 402.48Z" fill="#E6E6E6"/>
<path d="M241.76 383C244.76 377.34 252.22 372 260.63 370C263.93 369.21 252.98 380.44 248.82 387.69C245.59 393.31 241.31 399.93 240.64 404.69C239.64 395.31 238.78 388.69 241.76 383Z" fill="#E6E6E6"/>
<path d="M241.4 435.85C237.86 435.85 234.93 434.08 234.72 431.8L234.13 427.92H248.68L248.08 431.8C247.88 434.08 245 435.85 241.4 435.85Z" fill="#F0F0F0"/>
<path d="M249.62 429.41H233.19L232.72 425.08H250.09L249.62 429.41Z" fill="#F0F0F0"/>
<path d="M229.54 346.72H389.75V200.59L229.54 200.59L229.54 346.72Z" fill="#E6E6E6"/>
<path d="M225.94 346.72H388.18V200.59L225.94 200.59L225.94 346.72Z" fill="#F5F5F5"/>
<path d="M381.7 340.18V207.14H232.4V340.18H381.7Z" fill="#FAFAFA"/>
<path d="M363.39 340.18L304.63 207.14H284.67L343.43 340.18H363.39Z" fill="white"/>
<path d="M337.77 340.18L279.01 207.14H265.27L324.03 340.18H337.77Z" fill="white"/>
<path d="M287.84 340.17V207.13H280.12V340.17H287.84Z" fill="#E6E6E6"/>
<path d="M339.16 340.17V207.13H331.44V340.17H339.16Z" fill="#E6E6E6"/>
<path d="M286.45 344.33V202.27H276.69V344.33H286.45Z" fill="#F5F5F5"/>
<path d="M337.77 344.33V202.27H328.01V344.33H337.77Z" fill="#F5F5F5"/>
<path d="M233.1 340.18V207.14H232.41V340.18H233.1Z" fill="#E6E6E6"/>
<path d="M223.22 192.17H396.78C397.002 192.173 397.214 192.262 397.371 192.419C397.528 192.576 397.617 192.788 397.62 193.01C397.617 193.231 397.528 193.442 397.37 193.597C397.213 193.753 397.001 193.84 396.78 193.84H223.22C222.999 193.84 222.787 193.753 222.63 193.597C222.472 193.442 222.383 193.231 222.38 193.01C222.383 192.788 222.472 192.576 222.629 192.419C222.786 192.262 222.998 192.173 223.22 192.17Z" fill="#E6E6E6"/>
<path d="M389.75 197.68C390.048 197.677 390.333 197.557 390.543 197.346C390.752 197.134 390.87 196.848 390.87 196.55V194.13C390.871 193.982 390.843 193.835 390.788 193.698C390.732 193.561 390.65 193.437 390.546 193.332C390.441 193.227 390.317 193.143 390.181 193.086C390.044 193.029 389.898 193 389.75 193C389.452 193 389.166 193.118 388.954 193.327C388.743 193.537 388.623 193.822 388.62 194.12V196.54C388.62 196.841 388.739 197.129 388.95 197.343C389.162 197.556 389.449 197.677 389.75 197.68Z" fill="#E6E6E6"/>
<path d="M235.8 197.68C236.099 197.677 236.385 197.557 236.596 197.346C236.807 197.135 236.927 196.849 236.93 196.55V194.13C236.93 193.83 236.811 193.543 236.599 193.331C236.387 193.119 236.099 193 235.8 193C235.503 193 235.218 193.118 235.008 193.328C234.798 193.538 234.68 193.823 234.68 194.12V196.54C234.678 196.688 234.706 196.836 234.762 196.973C234.817 197.111 234.9 197.236 235.004 197.342C235.108 197.448 235.231 197.532 235.368 197.59C235.505 197.648 235.651 197.679 235.8 197.68Z" fill="#E6E6E6"/>
<path opacity="0.6" d="M223.48 307.44H385.61V193H223.48V307.44Z" fill="#E0E0E0"/>
<path d="M352.89 502.4H357.93V419.76H352.89V502.4Z" fill="#E6E6E6"/>
<path d="M310 547.56C417.083 547.56 503.89 542.492 503.89 536.24C503.89 529.988 417.083 524.92 310 524.92C202.918 524.92 116.11 529.988 116.11 536.24C116.11 542.492 202.918 547.56 310 547.56Z" fill="#174890"/>
<path d="M320.41 485.5H192.84C190.788 485.471 188.824 484.667 187.34 483.25C185.856 481.833 184.963 479.908 184.84 477.86L173.4 256.31C173.336 255.324 173.477 254.337 173.813 253.408C174.149 252.48 174.674 251.631 175.354 250.914C176.033 250.198 176.854 249.63 177.763 249.245C178.673 248.861 179.652 248.668 180.64 248.68H308.21C310.26 248.707 312.225 249.508 313.709 250.923C315.193 252.339 316.086 254.263 316.21 256.31L327.63 477.86C327.693 478.844 327.553 479.831 327.218 480.759C326.883 481.686 326.36 482.535 325.683 483.252C325.005 483.969 324.188 484.538 323.28 484.925C322.373 485.312 321.396 485.507 320.41 485.5Z" fill="#4B70B5"/>
<path opacity="0.8" d="M320.41 485.5H192.84C190.788 485.471 188.824 484.667 187.34 483.25C185.856 481.833 184.963 479.908 184.84 477.86L173.4 256.31C173.336 255.324 173.477 254.337 173.813 253.408C174.149 252.48 174.674 251.631 175.354 250.914C176.033 250.198 176.854 249.63 177.763 249.245C178.673 248.861 179.652 248.668 180.64 248.68H308.21C310.26 248.707 312.225 249.508 313.709 250.923C315.193 252.339 316.086 254.263 316.21 256.31L327.63 477.86C327.693 478.844 327.553 479.831 327.218 480.759C326.883 481.686 326.36 482.535 325.683 483.252C325.005 483.969 324.188 484.538 323.28 484.925C322.373 485.312 321.396 485.507 320.41 485.5Z" fill="white"/>
<path d="M295.62 241.46H281.51V242.46H295.62V241.46Z" fill="#4B70B5"/>
<path d="M276.619 241.46H271.449V242.46H276.619V241.46Z" fill="#4B70B5"/>
<path d="M325.899 471.44H203.899C201.935 471.421 200.05 470.658 198.625 469.306C197.2 467.953 196.341 466.111 196.219 464.15L185.299 252.25C185.239 251.307 185.373 250.361 185.695 249.473C186.017 248.584 186.519 247.772 187.17 247.086C187.821 246.401 188.606 245.857 189.477 245.49C190.347 245.122 191.284 244.938 192.229 244.95H314.229C316.194 244.971 318.077 245.737 319.5 247.091C320.923 248.445 321.781 250.289 321.899 252.25L332.819 464.15C332.88 465.092 332.745 466.036 332.424 466.923C332.103 467.81 331.601 468.622 330.952 469.306C330.302 469.991 329.518 470.534 328.648 470.901C327.779 471.268 326.843 471.451 325.899 471.44Z" fill="#4B70B5"/>
<path d="M325.9 466.57H203.9C203.185 466.546 202.503 466.259 201.985 465.765C201.467 465.271 201.148 464.604 201.09 463.89L190.16 252C190.135 251.719 190.171 251.435 190.264 251.167C190.357 250.9 190.505 250.656 190.7 250.45C190.895 250.245 191.131 250.084 191.393 249.977C191.655 249.87 191.937 249.82 192.22 249.83H314.22C314.934 249.857 315.613 250.145 316.129 250.639C316.645 251.133 316.962 251.799 317.02 252.51L328 464.4C328.024 464.681 327.989 464.964 327.896 465.23C327.803 465.496 327.655 465.74 327.461 465.945C327.268 466.15 327.033 466.311 326.772 466.419C326.512 466.527 326.232 466.578 325.95 466.57H325.9ZM192.22 250.08C191.971 250.072 191.724 250.116 191.493 250.209C191.262 250.302 191.054 250.442 190.88 250.62C190.713 250.805 190.585 251.022 190.505 251.257C190.424 251.493 190.392 251.742 190.41 251.99L201.33 463.88C201.386 464.529 201.677 465.136 202.148 465.585C202.62 466.034 203.239 466.296 203.89 466.32H325.89C326.137 466.33 326.384 466.287 326.613 466.194C326.843 466.101 327.049 465.96 327.22 465.78C327.391 465.598 327.521 465.382 327.602 465.146C327.684 464.91 327.713 464.659 327.69 464.41L316.78 252.52C316.727 251.872 316.438 251.266 315.968 250.817C315.498 250.367 314.88 250.105 314.23 250.08H192.22Z" fill="white"/>
<path opacity="0.3" d="M283.226 327.056C297.102 312.817 296.198 289.431 281.208 274.823C266.217 260.214 242.816 259.915 228.939 274.154C215.063 288.393 215.967 311.779 230.958 326.388C245.948 340.996 269.35 341.295 283.226 327.056Z" fill="white"/>
<path d="M286 300.61C286.28 305.524 285.291 310.428 283.13 314.85C280.79 319.593 277.158 323.579 272.651 326.348C268.145 329.117 262.948 330.556 257.66 330.5C252.179 330.451 246.805 328.984 242.059 326.241C237.314 323.499 233.359 319.574 230.58 314.85C227.99 310.53 226.5 305.64 226.24 300.61C225.993 296.752 226.546 292.885 227.862 289.251C229.179 285.616 231.232 282.293 233.892 279.488C236.552 276.683 239.762 274.458 243.322 272.951C246.882 271.444 250.714 270.688 254.58 270.73C262.625 270.814 270.339 273.943 276.169 279.488C281.999 285.032 285.512 292.58 286 300.61Z" fill="white"/>
<path d="M283.1 314.85C280.76 319.593 277.127 323.579 272.621 326.348C268.115 329.116 262.918 330.556 257.63 330.5C252.149 330.451 246.774 328.983 242.029 326.241C237.283 323.498 233.329 319.574 230.55 314.85C238.149 309.602 247.174 306.81 256.41 306.85C265.892 306.886 275.161 309.664 283.1 314.85Z" fill="#4B70B5"/>
<path d="M265.347 299.915C270.346 294.785 270.018 286.358 264.615 281.093C259.212 275.827 250.78 275.718 245.78 280.848C240.781 285.978 241.109 294.405 246.512 299.67C251.915 304.935 260.347 305.045 265.347 299.915Z" fill="#4B70B5"/>
<path d="M308.41 389H212.88C212.048 388.992 211.25 388.668 210.647 388.095C210.044 387.521 209.68 386.741 209.63 385.91L208.91 371.91C208.885 371.512 208.943 371.113 209.079 370.738C209.216 370.363 209.428 370.02 209.703 369.731C209.978 369.442 210.31 369.213 210.678 369.058C211.045 368.903 211.441 368.825 211.84 368.83H307.37C308.2 368.839 308.997 369.161 309.6 369.732C310.202 370.303 310.567 371.082 310.62 371.91L311.34 385.91C311.366 386.309 311.31 386.709 311.174 387.086C311.038 387.462 310.826 387.806 310.551 388.096C310.275 388.386 309.943 388.616 309.575 388.772C309.206 388.928 308.81 389.005 308.41 389Z" fill="white"/>
<path opacity="0.3" d="M279.16 361.1H239.26C238.425 361.094 237.623 360.77 237.017 360.195C236.412 359.619 236.048 358.834 236 358L235.85 355C235.824 354.601 235.88 354.201 236.016 353.825C236.152 353.449 236.364 353.105 236.639 352.815C236.915 352.525 237.247 352.294 237.615 352.139C237.984 351.983 238.38 351.905 238.78 351.91H278.67C279.502 351.919 280.3 352.243 280.903 352.816C281.506 353.389 281.869 354.17 281.92 355L282.08 358C282.105 358.399 282.047 358.798 281.912 359.173C281.776 359.548 281.565 359.892 281.291 360.183C281.017 360.473 280.687 360.704 280.321 360.862C279.954 361.02 279.559 361.101 279.16 361.1Z" fill="black"/>
<path opacity="0.3" d="M294 456.31H234.23C232.814 456.292 231.458 455.74 230.432 454.765C229.407 453.789 228.788 452.462 228.7 451.05L228.35 444.15C228.314 443.471 228.417 442.793 228.653 442.156C228.888 441.519 229.251 440.937 229.719 440.445C230.187 439.953 230.75 439.561 231.374 439.294C231.998 439.026 232.67 438.889 233.35 438.89H293.1C294.515 438.907 295.871 439.459 296.897 440.434C297.922 441.41 298.541 442.737 298.63 444.15L298.98 451.05C299.015 451.726 298.912 452.403 298.678 453.038C298.444 453.674 298.083 454.255 297.617 454.747C297.151 455.239 296.591 455.631 295.969 455.9C295.347 456.168 294.677 456.308 294 456.31Z" fill="black"/>
<path d="M310.159 422.86H214.619C213.788 422.849 212.991 422.525 212.389 421.952C211.786 421.379 211.422 420.6 211.369 419.77L210.649 405.77C210.624 405.371 210.682 404.972 210.818 404.596C210.955 404.221 211.167 403.877 211.442 403.587C211.717 403.298 212.048 403.067 212.416 402.911C212.784 402.755 213.18 402.676 213.579 402.68H309.109C309.941 402.688 310.739 403.012 311.342 403.585C311.945 404.159 312.309 404.939 312.359 405.77L313.089 419.77C313.112 420.168 313.054 420.567 312.917 420.942C312.78 421.317 312.568 421.659 312.293 421.949C312.018 422.239 311.687 422.469 311.32 422.625C310.953 422.782 310.558 422.862 310.159 422.86Z" fill="white"/>
<path d="M224.999 378.91C225.027 379.352 224.963 379.795 224.812 380.211C224.66 380.627 224.425 381.008 224.12 381.329C223.815 381.65 223.447 381.904 223.039 382.077C222.631 382.249 222.192 382.335 221.749 382.33C220.829 382.319 219.948 381.961 219.282 381.326C218.616 380.692 218.215 379.829 218.159 378.91C218.13 378.469 218.193 378.026 218.343 377.61C218.493 377.194 218.728 376.814 219.032 376.493C219.336 376.171 219.704 375.917 220.111 375.744C220.518 375.572 220.957 375.485 221.399 375.49C222.32 375.501 223.203 375.86 223.87 376.494C224.538 377.128 224.941 377.991 224.999 378.91Z" fill="#263238"/>
<path d="M235.529 378.91C235.558 379.352 235.496 379.794 235.345 380.211C235.195 380.627 234.961 381.007 234.656 381.328C234.352 381.649 233.985 381.904 233.578 382.077C233.17 382.249 232.732 382.336 232.289 382.33C231.369 382.322 230.486 381.964 229.819 381.329C229.153 380.694 228.752 379.829 228.699 378.91C228.67 378.469 228.733 378.026 228.883 377.61C229.033 377.194 229.268 376.814 229.572 376.493C229.876 376.171 230.244 375.917 230.651 375.744C231.058 375.572 231.497 375.485 231.939 375.49C232.86 375.499 233.743 375.857 234.409 376.492C235.076 377.127 235.476 377.991 235.529 378.91Z" fill="#263238"/>
<path d="M246 378.91C246.029 379.352 245.966 379.794 245.816 380.211C245.666 380.627 245.431 381.007 245.127 381.328C244.823 381.649 244.455 381.904 244.048 382.077C243.64 382.249 243.202 382.336 242.76 382.33C241.839 382.32 240.956 381.961 240.288 381.327C239.621 380.693 239.218 379.829 239.16 378.91C239.132 378.469 239.196 378.026 239.347 377.61C239.499 377.193 239.734 376.813 240.039 376.492C240.344 376.171 240.712 375.917 241.12 375.744C241.528 375.572 241.967 375.485 242.41 375.49C243.329 375.501 244.211 375.86 244.877 376.495C245.543 377.129 245.944 377.992 246 378.91Z" fill="#263238"/>
<path d="M256.549 378.91C256.577 379.351 256.513 379.793 256.362 380.209C256.212 380.624 255.977 381.004 255.673 381.325C255.369 381.646 255.002 381.901 254.596 382.074C254.189 382.247 253.751 382.334 253.309 382.33C252.389 382.32 251.506 381.961 250.838 381.327C250.171 380.693 249.767 379.829 249.709 378.91C249.682 378.469 249.745 378.027 249.896 377.612C250.047 377.196 250.282 376.817 250.586 376.496C250.889 376.175 251.256 375.92 251.663 375.747C252.07 375.574 252.507 375.487 252.949 375.49C253.87 375.501 254.753 375.86 255.421 376.494C256.088 377.128 256.491 377.991 256.549 378.91Z" fill="#263238"/>
<path d="M226.769 412.75C226.798 413.192 226.735 413.634 226.585 414.05C226.435 414.466 226.201 414.847 225.896 415.168C225.592 415.489 225.225 415.744 224.817 415.917C224.41 416.089 223.971 416.175 223.529 416.17C222.608 416.16 221.726 415.801 221.058 415.167C220.39 414.533 219.987 413.669 219.929 412.75C219.902 412.308 219.965 411.866 220.117 411.449C220.268 411.033 220.504 410.653 220.809 410.332C221.114 410.011 221.482 409.756 221.889 409.584C222.297 409.412 222.736 409.325 223.179 409.33C224.099 409.341 224.98 409.7 225.646 410.335C226.312 410.969 226.714 411.832 226.769 412.75Z" fill="#263238"/>
<path d="M237.28 412.75C237.307 413.191 237.243 413.633 237.093 414.049C236.942 414.464 236.707 414.844 236.403 415.165C236.099 415.486 235.733 415.741 235.326 415.914C234.919 416.087 234.481 416.174 234.039 416.17C233.119 416.16 232.236 415.801 231.568 415.167C230.901 414.533 230.497 413.669 230.44 412.75C230.411 412.309 230.473 411.866 230.623 411.45C230.774 411.034 231.008 410.654 231.312 410.332C231.617 410.011 231.984 409.757 232.391 409.584C232.799 409.412 233.237 409.325 233.679 409.33C234.6 409.341 235.483 409.7 236.151 410.334C236.818 410.968 237.222 411.831 237.28 412.75Z" fill="#263238"/>
<path d="M247.789 412.75C247.817 413.192 247.753 413.635 247.602 414.051C247.45 414.467 247.215 414.848 246.91 415.169C246.605 415.49 246.237 415.744 245.829 415.917C245.421 416.089 244.982 416.175 244.539 416.17C243.619 416.162 242.736 415.804 242.069 415.169C241.403 414.534 241.002 413.669 240.949 412.75C240.92 412.309 240.983 411.866 241.133 411.45C241.283 411.034 241.518 410.654 241.822 410.332C242.126 410.011 242.494 409.757 242.901 409.584C243.308 409.412 243.747 409.325 244.189 409.33C245.11 409.341 245.993 409.7 246.66 410.334C247.328 410.968 247.731 411.831 247.789 412.75Z" fill="#263238"/>
<path d="M258.29 412.75C258.319 413.192 258.256 413.634 258.106 414.05C257.956 414.466 257.721 414.847 257.417 415.168C257.113 415.489 256.745 415.744 256.338 415.917C255.931 416.089 255.492 416.175 255.05 416.17C254.129 416.16 253.246 415.801 252.578 415.167C251.911 414.533 251.508 413.669 251.45 412.75C251.422 412.308 251.486 411.866 251.637 411.449C251.789 411.033 252.024 410.653 252.329 410.332C252.634 410.011 253.002 409.756 253.41 409.584C253.818 409.412 254.257 409.325 254.7 409.33C255.62 409.339 256.503 409.697 257.169 410.332C257.836 410.967 258.236 411.831 258.29 412.75Z" fill="#263238"/>
<path d="M268.8 412.75C268.829 413.191 268.766 413.634 268.616 414.05C268.466 414.466 268.231 414.847 267.927 415.168C267.623 415.489 267.255 415.744 266.848 415.916C266.441 416.089 266.002 416.175 265.56 416.17C264.639 416.159 263.756 415.801 263.088 415.166C262.421 414.532 262.018 413.669 261.96 412.75C261.932 412.309 261.996 411.867 262.146 411.451C262.297 411.036 262.532 410.656 262.836 410.335C263.14 410.014 263.506 409.76 263.913 409.587C264.32 409.414 264.758 409.326 265.2 409.33C266.12 409.341 267.003 409.699 267.671 410.333C268.338 410.968 268.742 411.831 268.8 412.75Z" fill="#263238"/>
<path d="M279.31 412.75C279.337 413.192 279.273 413.635 279.122 414.051C278.971 414.467 278.735 414.848 278.43 415.169C278.125 415.49 277.757 415.744 277.349 415.917C276.942 416.089 276.503 416.175 276.06 416.17C275.14 416.159 274.258 415.801 273.592 415.166C272.926 414.532 272.525 413.668 272.47 412.75C272.441 412.309 272.503 411.866 272.654 411.45C272.804 411.034 273.038 410.654 273.343 410.332C273.647 410.011 274.014 409.757 274.421 409.584C274.829 409.412 275.267 409.325 275.71 409.33C276.631 409.341 277.513 409.7 278.181 410.334C278.849 410.968 279.252 411.831 279.31 412.75Z" fill="#263238"/>
<path d="M393 296.62C393.25 297 393.38 297.2 393.54 297.47L393.99 298.21C394.28 298.71 394.54 299.21 394.79 299.7C395.29 300.7 395.79 301.7 396.19 302.7C397.029 304.686 397.75 306.72 398.35 308.79C399.561 312.88 400.358 317.081 400.73 321.33L400.8 322.12C400.809 322.28 400.809 322.44 400.8 322.6V323.13C400.817 323.826 400.777 324.521 400.68 325.21C400.489 326.487 400.153 327.738 399.68 328.94C398.802 331.086 397.638 333.105 396.22 334.94C393.576 338.327 390.437 341.296 386.91 343.75L384.15 340.52C386.662 337.684 388.886 334.605 390.79 331.33C391.647 329.844 392.319 328.259 392.79 326.61C392.981 325.912 393.092 325.194 393.12 324.47C393.151 324.161 393.151 323.849 393.12 323.54V323.33C393.13 323.237 393.13 323.143 393.12 323.05L393 322.35C392.357 318.623 391.448 314.947 390.28 311.35C389.7 309.56 388.99 307.83 388.28 306.14C387.93 305.29 387.53 304.46 387.13 303.66L386.51 302.48L386.2 301.93L385.94 301.49L393 296.62Z" fill="#803E3C"/>
<path d="M383.7 343.77L387.32 351.42L390.19 344.95C390.19 344.95 387.64 339.35 384.19 339.87L383.7 343.77Z" fill="#7F3E3B"/>
<path d="M389.91 351.8L392.79 347.08L390.19 344.95L387.32 351.42L389.91 351.8Z" fill="#7F3E3B"/>
<path d="M373.63 528.22C374.378 528.202 375.123 528.101 375.85 527.92C375.887 527.909 375.92 527.888 375.946 527.86C375.972 527.832 375.991 527.798 376 527.76C376.006 527.722 376.001 527.682 375.985 527.647C375.969 527.611 375.943 527.581 375.91 527.56C375.62 527.37 373.08 525.73 372.1 526.17C371.991 526.221 371.898 526.3 371.829 526.398C371.761 526.496 371.72 526.611 371.71 526.73C371.679 526.911 371.694 527.097 371.751 527.271C371.809 527.445 371.908 527.603 372.04 527.73C372.493 528.08 373.058 528.255 373.63 528.22ZM375.28 527.63C373.83 527.93 372.73 527.88 372.28 527.49C372.188 527.399 372.121 527.286 372.084 527.162C372.047 527.038 372.042 526.907 372.07 526.78C372.07 526.61 372.17 526.56 372.24 526.53C372.78 526.29 374.25 527 375.28 527.63Z" fill="#0B3B95"/>
<path d="M375.8 527.92H375.9C375.93 527.901 375.955 527.874 375.972 527.843C375.99 527.812 375.999 527.776 376 527.74C376 527.64 376 525.23 375.08 524.42C374.967 524.319 374.833 524.243 374.688 524.198C374.543 524.153 374.39 524.141 374.24 524.16C374.082 524.162 373.93 524.217 373.808 524.317C373.686 524.417 373.602 524.556 373.57 524.71C373.38 525.66 374.9 527.46 375.7 527.92H375.8ZM374.37 524.53C374.451 524.528 374.531 524.542 374.607 524.571C374.682 524.6 374.751 524.644 374.81 524.7C375.337 525.478 375.61 526.401 375.59 527.34C374.79 526.7 373.84 525.34 373.96 524.77C373.96 524.68 374.03 524.56 374.28 524.53H374.37Z" fill="#0B3B95"/>
<path d="M364.19 524.14C364.213 524.111 364.228 524.076 364.234 524.039C364.239 524.002 364.234 523.964 364.22 523.929C364.206 523.894 364.182 523.864 364.152 523.841C364.122 523.819 364.087 523.805 364.05 523.8C363.64 523.8 360.05 523.63 359.23 524.51V524.57C359.162 524.657 359.118 524.76 359.102 524.868C359.086 524.977 359.099 525.088 359.14 525.19C359.193 525.362 359.287 525.518 359.415 525.645C359.542 525.773 359.698 525.867 359.87 525.92C361.03 526.28 363.08 524.97 364.2 524.16L364.19 524.14ZM359.53 524.77C359.98 524.29 361.96 524.16 363.44 524.18C361.89 525.24 360.6 525.74 359.95 525.54C359.836 525.506 359.733 525.444 359.65 525.36C359.566 525.277 359.504 525.174 359.47 525.06C359.449 525.022 359.439 524.979 359.439 524.935C359.439 524.892 359.449 524.849 359.47 524.81L359.53 524.77Z" fill="#0B3B95"/>
<path d="M364.19 524.14C364.205 524.109 364.212 524.075 364.212 524.04C364.212 524.005 364.205 523.971 364.19 523.94C364.14 523.86 363.02 521.94 361.7 521.54C361.51 521.484 361.311 521.468 361.115 521.492C360.919 521.516 360.73 521.58 360.56 521.68C360.08 521.96 360.05 522.29 360.11 522.5C360.37 523.43 362.92 524.25 364.02 524.24C364.054 524.239 364.088 524.23 364.118 524.212C364.148 524.195 364.172 524.17 364.19 524.14ZM360.6 522.14C360.656 522.085 360.72 522.037 360.79 522C360.913 521.921 361.052 521.871 361.197 521.852C361.342 521.833 361.49 521.846 361.63 521.89C362.5 522.12 363.31 523.24 363.68 523.79C362.49 523.66 360.68 522.93 360.53 522.37C360.517 522.327 360.517 522.282 360.529 522.24C360.542 522.197 360.566 522.159 360.6 522.13V522.14Z" fill="#0B3B95"/>
<path d="M375.2 267.33C374.2 272.33 372.04 283.14 375.51 286.46C375.51 286.46 374.15 291.46 364.92 291.46C354.76 291.46 360.07 286.46 360.07 286.46C365.61 285.14 365.47 281.02 364.5 277.16L375.2 267.33Z" fill="#7F3E3B"/>
<path d="M358.28 255.61C358.336 255.619 358.394 255.619 358.45 255.61C358.497 255.586 358.54 255.554 358.575 255.514C358.609 255.474 358.636 255.427 358.653 255.377C358.669 255.327 358.676 255.274 358.672 255.221C358.668 255.168 358.654 255.117 358.63 255.07C358.361 254.499 357.959 254.002 357.458 253.619C356.957 253.236 356.371 252.979 355.75 252.87C355.646 252.861 355.542 252.892 355.46 252.957C355.379 253.022 355.325 253.116 355.31 253.22C355.299 253.324 355.329 253.429 355.394 253.511C355.46 253.594 355.555 253.647 355.66 253.66C356.15 253.754 356.611 253.963 357.004 254.271C357.397 254.579 357.711 254.976 357.92 255.43C357.959 255.489 358.012 255.537 358.076 255.568C358.139 255.6 358.209 255.614 358.28 255.61Z" fill="#263238"/>
<path d="M355.25 260C354.463 261.46 353.48 262.805 352.33 264C352.641 264.285 353.011 264.499 353.413 264.627C353.816 264.754 354.241 264.793 354.66 264.74L355.25 260Z" fill="#630F0F"/>
<path d="M356 258.87C355.92 259.54 355.49 260.04 355.06 259.99C354.63 259.94 354.33 259.35 354.41 258.68C354.49 258.01 354.92 257.51 355.41 257.56C355.9 257.61 356.07 258.2 356 258.87Z" fill="#263238"/>
<path d="M355.54 257.62L354 257C354 257 354.65 258.32 355.54 257.62Z" fill="#263238"/>
<path d="M373.02 522.24L364.86 524.14L359.9 505.38L368.06 503.48L373.02 522.24Z" fill="#7F3E3B"/>
<path d="M385.54 527.72H377.17L377.82 508.33H386.2L385.54 527.72Z" fill="#7F3E3B"/>
<path d="M376.5 526.75H385.91C386.074 526.749 386.232 526.807 386.355 526.913C386.478 527.02 386.558 527.168 386.58 527.33L387.65 534.77C387.672 534.958 387.653 535.149 387.595 535.329C387.537 535.509 387.442 535.675 387.315 535.816C387.189 535.957 387.034 536.069 386.86 536.146C386.687 536.222 386.5 536.261 386.31 536.26C383.03 536.21 381.45 536.01 377.31 536.01C374.76 536.01 371.04 536.28 367.53 536.28C364.02 536.28 363.82 532.8 365.29 532.49C371.85 531.07 372.89 529.13 375.1 527.27C375.491 526.936 375.987 526.752 376.5 526.75Z" fill="#263238"/>
<path d="M364.14 522.89L372.69 518.96C372.835 518.891 373.001 518.877 373.156 518.921C373.31 518.965 373.444 519.064 373.53 519.2L377.62 525.52C377.716 525.682 377.776 525.863 377.797 526.051C377.819 526.238 377.801 526.428 377.744 526.608C377.688 526.788 377.594 526.954 377.469 527.096C377.345 527.237 377.192 527.351 377.02 527.43C374.02 528.75 372.5 529.24 368.74 530.97C366.43 532.03 361.74 534.47 358.56 535.97C355.38 537.47 353.74 534.36 354.94 533.46C360.31 529.46 361.85 526.59 363.08 523.98C363.288 523.499 363.665 523.111 364.14 522.89Z" fill="#263238"/>
<path opacity="0.2" d="M359.9 505.38L362.56 515.44L370.62 513.15L368.07 503.48L359.9 505.38Z" fill="black"/>
<path opacity="0.2" d="M386.2 508.33H377.82L377.49 518.33H385.87L386.2 508.33Z" fill="black"/>
<path d="M390 288.36C393.48 289.13 397.2 301.64 397.2 301.64L387.36 312.11C387.36 312.11 379.19 300.35 380.86 296.03C382.55 291.52 385.85 287.46 390 288.36Z" fill="#263238"/>
<path opacity="0.4" d="M384.44 296.33C382.68 294.72 381.49 295.2 380.68 296.48C379.88 300.2 384.62 307.99 386.53 310.94C387.41 307.42 388.42 300 384.44 296.33Z" fill="black"/>
<path d="M345.91 288.61C345.91 288.61 341.91 290.01 349.91 339.16H383.91C383.34 325.32 383.32 316.78 389.91 288.36C385.146 287.377 380.316 286.742 375.46 286.46C370.32 286.09 365.16 286.09 360.02 286.46C353.43 287.07 345.91 288.61 345.91 288.61Z" fill="#263238"/>
<path opacity="0.4" d="M345.6 307.47C345.82 309.86 346.11 312.55 346.49 315.59C349.28 313.08 351.56 305.94 350.72 301.78C348.727 303.398 347 305.318 345.6 307.47Z" fill="black"/>
<path d="M349.24 300.001C347.405 304.618 345.339 309.141 343.05 313.551C340.787 318.12 338.109 322.471 335.05 326.551L334.41 327.34L334.09 327.73C333.98 327.86 333.89 327.981 333.72 328.161C333.118 328.817 332.448 329.407 331.72 329.921C330.433 330.811 329.026 331.511 327.54 332.001C324.948 332.828 322.258 333.306 319.54 333.421C314.449 333.623 309.354 333.169 304.38 332.071L304.93 327.87C307.23 327.87 309.64 327.87 311.93 327.68C314.23 327.567 316.521 327.314 318.79 326.921C320.897 326.592 322.958 326.014 324.93 325.201C325.726 324.86 326.47 324.409 327.14 323.861C327.395 323.646 327.627 323.405 327.83 323.141C327.83 323.141 327.95 322.98 328.03 322.87L328.26 322.54L328.73 321.881C331.239 318.005 333.474 313.958 335.42 309.771C337.42 305.521 339.42 301.111 341.25 296.771L349.24 300.001Z" fill="#803E3C"/>
<path d="M345.91 288.61C341.74 289.61 336.62 301.05 336.62 301.05L345.26 313.75C345.26 313.75 356.77 299.26 355.4 294.84C354 290.23 351 287.37 345.91 288.61Z" fill="#263238"/>
<path d="M307.33 328.51L300.12 325.18L299.4 332.35C299.4 332.35 305.4 334.12 308.4 332.35L307.33 328.51Z" fill="#7F3E3B"/>
<path d="M295.81 324.46L295.12 329.92L299.4 332.35L300.12 325.18L295.81 324.46Z" fill="#7F3E3B"/>
<path d="M378.82 259.36C377.29 267.53 376.82 271.03 372.14 274.74C365.14 280.32 355.39 276.66 354.45 268.2C353.59 260.58 356.23 248.5 364.7 246.2C366.566 245.685 368.532 245.657 370.412 246.118C372.292 246.579 374.022 247.514 375.438 248.834C376.854 250.153 377.908 251.814 378.5 253.656C379.092 255.499 379.202 257.463 378.82 259.36Z" fill="#7F3E3B"/>
<path d="M360.87 261.08C360.4 265.25 360.22 276.08 369.38 276.42C380.59 276.83 383.95 267.25 382.95 263.42C388.79 258.67 389.63 250.5 383.07 244.25C376.51 238 362.07 241.49 358.07 247.58C353 255.13 360.87 261.08 360.87 261.08Z" fill="#263238"/>
<path d="M372.1 246.68C371.56 242.28 371.98 239.25 376.1 239.25C380.22 239.25 385.84 240.74 387.9 244.95C389.96 249.16 390.13 255.75 384.38 255.08C378.63 254.41 372.75 251.94 372.1 246.68Z" fill="#0B3B95"/>
<path d="M378.48 245.62C377.48 240.38 382.17 225.62 393.56 224.62C398.84 224.17 401.28 229.85 398.56 230.79C403.56 230.73 406.76 237.34 402.1 238.33C405.78 240.69 404.87 245.53 399.62 247.91C395.71 249.71 379.83 252.88 378.48 245.62Z" fill="#263238"/>
<path d="M390.65 251.25C386.98 251.25 383.15 250.71 380.77 249.12C380.104 248.719 379.544 248.165 379.136 247.504C378.727 246.843 378.482 246.095 378.42 245.32C378.417 245.254 378.439 245.19 378.482 245.14C378.524 245.09 378.585 245.058 378.65 245.05C378.683 245.046 378.717 245.049 378.749 245.058C378.781 245.068 378.81 245.084 378.836 245.105C378.861 245.127 378.882 245.154 378.896 245.184C378.911 245.214 378.919 245.247 378.92 245.28C378.98 245.979 379.204 246.654 379.575 247.25C379.945 247.846 380.45 248.346 381.05 248.71C385.58 251.71 396.05 250.71 399.31 249.71C402.13 248.79 404.04 247 404.42 244.94C404.538 244.184 404.445 243.41 404.15 242.704C403.855 241.998 403.371 241.387 402.75 240.94C402.726 240.918 402.707 240.89 402.694 240.86C402.681 240.83 402.674 240.798 402.674 240.765C402.674 240.732 402.681 240.7 402.694 240.67C402.707 240.64 402.726 240.612 402.75 240.59C402.797 240.544 402.859 240.519 402.925 240.519C402.99 240.519 403.053 240.544 403.1 240.59C403.798 241.099 404.341 241.793 404.667 242.593C404.994 243.393 405.092 244.268 404.95 245.12C404.54 247.37 402.51 249.29 399.51 250.27C396.615 251 393.634 251.329 390.65 251.25Z" fill="#263238"/>
<path d="M358.32 260C357.389 261.306 357.005 262.924 357.25 264.51C357.58 266.61 359.62 266.75 361.1 265.41C362.58 264.07 363.87 261.65 362.78 259.91C362.538 259.534 362.203 259.226 361.809 259.016C361.414 258.806 360.972 258.7 360.525 258.71C360.078 258.719 359.64 258.842 359.254 259.068C358.868 259.293 358.547 259.614 358.32 260Z" fill="#7F3E3B"/>
<path d="M358.891 339.16C358.891 339.16 363.75 396.65 368.8 429.05C372.87 455.22 376.09 516.39 376.09 516.39H387.51C387.51 516.39 391.57 457.05 389.51 431.17C384.28 365.67 395.95 360.33 383.94 339.17L358.891 339.16Z" fill="#0B3B95"/>
<path opacity="0.4" d="M373.27 360.89C368.745 365.64 365.092 371.151 362.48 377.17C363.81 390.09 365.39 404.43 367.07 416.99C373.964 399.143 376.1 379.811 373.27 360.89Z" fill="black"/>
<path d="M350.9 338.8C350.9 338.8 340.35 401.59 338.69 429.89C342.83 456.06 359.77 511.38 359.77 511.38L370.16 507.61C370.16 507.61 364.41 447.29 358.16 430.78C372.23 383.41 382.57 371.43 379.56 339.16C372.35 339.16 350.9 338.8 350.9 338.8Z" fill="#0B3B95"/>
<path d="M358.38 514.14L372.42 510.33L371.62 504.73L356.59 508.8L358.38 514.14Z" fill="#263238"/>
<path d="M374.52 516.62H389.07L389.83 511.52L374.44 511L374.52 516.62Z" fill="#263238"/>
<path d="M384.44 337.16L385.97 340.21C386.09 340.45 385.81 340.69 385.42 340.69H349.74C349.44 340.69 349.18 340.54 349.16 340.34L348.85 337.34C348.85 337.13 349.1 336.95 349.43 336.95H383.88C383.984 336.936 384.089 336.948 384.187 336.984C384.285 337.021 384.372 337.081 384.44 337.16Z" fill="#0B3B95"/>
<path opacity="0.5" d="M384.44 337.16L385.97 340.21C386.09 340.45 385.81 340.69 385.42 340.69H349.74C349.44 340.69 349.18 340.54 349.16 340.34L348.85 337.34C348.85 337.13 349.1 336.95 349.43 336.95H383.88C383.984 336.936 384.089 336.948 384.187 336.984C384.285 337.021 384.372 337.081 384.44 337.16Z" fill="black"/>
<path d="M379.81 341H380.73C380.92 341 381.06 340.9 381.05 340.79L380.61 336.79C380.61 336.67 380.44 336.58 380.26 336.58H379.33C379.15 336.58 379.01 336.67 379.02 336.79L379.45 340.79C379.47 340.92 379.63 341 379.81 341Z" fill="#0B3B95"/>
<path d="M367.43 311.88C367.32 311.878 367.213 311.842 367.125 311.775C367.037 311.709 366.972 311.616 366.94 311.51C363.68 299.45 356.94 289.51 353.67 288.01C353.416 287.854 353.111 287.804 352.82 287.87C352.76 287.902 352.693 287.921 352.625 287.926C352.557 287.932 352.489 287.923 352.424 287.901C352.36 287.878 352.3 287.843 352.25 287.797C352.2 287.751 352.159 287.695 352.131 287.633C352.103 287.571 352.088 287.504 352.087 287.435C352.086 287.367 352.099 287.299 352.125 287.236C352.151 287.173 352.19 287.116 352.239 287.069C352.288 287.021 352.346 286.984 352.41 286.96C352.683 286.86 352.975 286.82 353.265 286.844C353.556 286.869 353.837 286.956 354.09 287.1C357.55 288.74 364.39 298.54 367.81 310.87C370.26 310.87 374.04 310.54 374.96 310.46C376.1 309.1 384.48 298.62 381.35 287.15C381.332 287.087 381.327 287.021 381.335 286.956C381.342 286.891 381.363 286.828 381.396 286.771C381.429 286.714 381.472 286.664 381.525 286.625C381.577 286.585 381.636 286.556 381.7 286.54C381.827 286.506 381.963 286.524 382.077 286.59C382.191 286.655 382.275 286.763 382.31 286.89C385.8 299.65 375.68 311.16 375.57 311.27C375.531 311.319 375.482 311.359 375.427 311.388C375.372 311.417 375.312 311.435 375.25 311.44C375.2 311.44 370.21 311.88 367.43 311.88Z" fill="#0B3B95"/>
<path d="M384 318.94C378.55 308.73 376.32 308.01 375.35 304.73C376.085 302.896 377.134 301.204 378.45 299.73C377.79 299.54 376.37 299.26 375.45 299.09C375.55 298.64 375.66 298.2 375.76 297.77C374.759 297.658 373.746 297.706 372.76 297.91V296.91C371.489 296.634 370.185 296.55 368.89 296.66C369.003 297.134 369.113 297.614 369.22 298.1C368.22 298.29 366.7 298.6 365.97 298.81C367.388 300.417 368.43 302.32 369.02 304.38C366.08 309.43 354.66 341.89 373.24 344.38C391.82 346.87 389.44 329.16 384 318.94Z" fill="#0B3B95"/>
<path opacity="0.4" d="M384 318.94C378.55 308.73 376.32 308.01 375.35 304.73C376.085 302.896 377.134 301.204 378.45 299.73C377.79 299.54 376.37 299.26 375.45 299.09C375.55 298.64 375.66 298.2 375.76 297.77C374.759 297.658 373.746 297.706 372.76 297.91V296.91C371.489 296.634 370.185 296.55 368.89 296.66C369.003 297.134 369.113 297.614 369.22 298.1C368.22 298.29 366.7 298.6 365.97 298.81C367.388 300.417 368.43 302.32 369.02 304.38C366.08 309.43 354.66 341.89 373.24 344.38C391.82 346.87 389.44 329.16 384 318.94Z" fill="white"/>
<path d="M368.26 303.41C368.145 303.925 368.094 304.452 368.11 304.98C368.11 305.35 369.11 305.6 370.22 305.71C371.33 305.82 375.99 306 375.84 305.48C375.69 304.96 376.07 304.25 376.09 303.81C376.11 303.37 374.24 303.35 372.67 303.41C371.1 303.47 368.57 302.85 368.26 303.41Z" fill="#0B3B95"/>
<path d="M357.45 341H358.37C358.55 341 358.69 340.9 358.68 340.79L358.25 336.79C358.25 336.67 358.08 336.58 357.89 336.58H357C356.82 336.58 356.68 336.67 356.69 336.79L357.12 340.79C357.1 340.92 357.26 341 357.45 341Z" fill="#0B3B95"/>
<defs>
<filter id="filter0_b_12_353" x="-26" y="-26" width="652" height="852" filterUnits="userSpaceOnUse" color-interpolation-filters="sRGB">
<feFlood flood-opacity="0" result="BackgroundImageFix"/>
<feGaussianBlur in="BackgroundImageFix" stdDeviation="13"/>
<feComposite in2="SourceAlpha" operator="in" result="effect1_backgroundBlur_12_353"/>
<feBlend mode="normal" in="SourceGraphic" in2="effect1_backgroundBlur_12_353" result="shape"/>
</filter>
<radialGradient id="paint0_radial_12_353" cx="0" cy="0" r="1" gradientUnits="userSpaceOnUse" gradientTransform="translate(104 4.1576e-05) rotate(62.2626) scale(922.821 717.888)">
<stop stop-color="white"/>
<stop offset="0.638542" stop-color="#E4E4E4" stop-opacity="0.750969"/>
<stop offset="1" stop-color="white" stop-opacity="0.61"/>
</radialGradient>
</defs>
</svg>
