<svg width="146" height="145" viewBox="0 0 146 145" fill="none" xmlns="http://www.w3.org/2000/svg">
<circle opacity="0.06" cx="73" cy="72.5" r="72.5" fill="#0B3B95"/>
<g clip-path="url(#clip0_13_6633)">
<path d="M104.831 111.919H78.6459L78.6409 111.77L77.3906 75.6943H106.086L104.831 111.919ZM78.9397 111.612H104.537L105.771 76.0011H77.7054L78.9397 111.612Z" fill="#3F3D56"/>
<path d="M84.8921 82.3779H82.9004V107.243H84.8921V82.3779Z" fill="#292D32"/>
<path d="M92.734 82.3779H90.7424V107.243H92.734V82.3779Z" fill="#292D32"/>
<path d="M100.576 82.3779H98.584V107.243H100.576V82.3779Z" fill="#292D32"/>
<path d="M122.726 86.2877L122.597 86.2057L90.0723 65.4689L92.8936 60.9648L93.0222 61.0468L125.547 81.7835L122.726 86.2877ZM90.4919 65.3735L122.631 85.8643L125.127 81.8791L92.9883 61.388L90.4919 65.3735Z" fill="#3F3D56"/>
<path d="M114.873 63.7973C113.928 63.1936 112.83 62.8763 111.712 62.8829C110.593 62.8895 109.499 63.2199 108.561 63.8346C107.623 64.4494 106.879 65.3229 106.418 66.3514C105.957 67.3799 105.798 68.5203 105.96 69.6371L107.511 70.6259C107.121 69.7129 107.031 68.698 107.255 67.7298C107.478 66.7615 108.003 65.8909 108.752 65.2453C109.501 64.5997 110.436 64.213 111.419 64.1419C112.401 64.0709 113.381 64.3191 114.214 64.8503C115.047 65.3815 115.689 66.1678 116.047 67.094C116.405 68.0202 116.46 69.0377 116.203 69.9974C115.946 70.9572 115.392 71.8088 114.62 72.4277C113.849 73.0465 112.902 73.4 111.917 73.4363L113.468 74.4251C114.538 74.0939 115.491 73.46 116.214 72.5987C116.937 71.7374 117.4 70.6849 117.548 69.566C117.696 68.4471 117.523 67.3089 117.049 66.2864C116.575 65.2639 115.82 64.4 114.875 63.7973H114.873Z" fill="#292D32"/>
<path d="M123.827 111.693H28.4941V112H123.827V111.693Z" fill="#3F3D56"/>
<path d="M45.9852 109.613H43.7708L42.7168 100.996H45.9858L45.9852 109.613Z" fill="#FEB8B8"/>
<path d="M39.5 111.687H46.4593V108.975H42.1515C41.4483 108.975 40.7739 109.256 40.2766 109.758C39.7794 110.26 39.5 110.94 39.5 111.65V111.687Z" fill="#2F2E41"/>
<path d="M45.207 96.2608L46.7345 97.8784L53.6453 92.7047L51.3911 90.3174L45.207 96.2608Z" fill="#FEB8B8"/>
<path d="M48.3077 98.6192L45.3354 95.4727L43.3887 97.3444L48.1906 102.428L48.2176 102.402C48.4697 102.159 48.672 101.869 48.813 101.548C48.9539 101.227 49.0308 100.881 49.0392 100.529C49.0475 100.178 48.9872 99.8286 48.8617 99.5009C48.7362 99.1732 48.548 98.8735 48.3077 98.6192Z" fill="#2F2E41"/>
<path d="M29.7932 72.6532C29.6531 72.4258 29.5641 72.1701 29.5325 71.9041C29.5008 71.6382 29.5274 71.3685 29.6102 71.1141C29.6931 70.8596 29.8302 70.6266 30.0119 70.4313C30.1937 70.2361 30.4156 70.0835 30.6622 69.9841L39.3561 47.6299L42.7449 49.677L33.0872 71.122C33.2252 71.5511 33.2024 72.0163 33.0231 72.4295C32.8438 72.8427 32.5205 73.1752 32.1144 73.364C31.7084 73.5527 31.2478 73.5846 30.82 73.4536C30.3921 73.3226 30.0268 73.0379 29.7932 72.6532Z" fill="#FEB8B8"/>
<path d="M62.7927 74.2547C62.5278 74.2356 62.2703 74.1581 62.0383 74.0277C61.8063 73.8973 61.6055 73.7171 61.4499 73.4999C61.2944 73.2827 61.188 73.0338 61.1382 72.7706C61.0884 72.5074 61.0964 72.2364 61.1617 71.9767L48.3359 51.7483L51.9685 50.1836L63.4991 70.6658C63.9249 70.8046 64.2854 71.0964 64.512 71.4857C64.7386 71.875 64.8157 72.3347 64.7286 72.7775C64.6414 73.2204 64.3961 73.6155 64.0393 73.8879C63.6824 74.1603 63.2388 74.2911 62.7927 74.2553V74.2547Z" fill="#FEB8B8"/>
<path d="M39.4414 70.4146L41.7116 104.456L47.1369 103.973L48.2539 78.8581L51.2857 89.6441L57.828 90.127L55.2384 68.8047L39.4414 70.4146Z" fill="#2F2E41"/>
<path d="M52.243 88.0342L51.2851 89.6441L44.584 94.3126L49.371 96.8885C49.371 96.8885 58.626 91.7369 57.8282 90.127L52.243 88.0342Z" fill="#2F2E41"/>
<path d="M34.6914 56.6421L36.58 51.2732C37.0002 50.0786 37.651 48.9799 38.4948 48.0408C39.3386 47.1016 40.3587 46.3406 41.496 45.8018C44.0521 44.8517 46.8323 44.6982 49.476 45.3611L50.1632 45.5332C51.9959 45.9813 53.7129 46.818 55.2002 47.9876C56.364 48.9132 57.411 50.0851 57.5042 51.3458C57.5047 51.3484 57.5054 51.3511 57.5065 51.3536C57.8288 52.7789 57.9883 60.1842 57.9883 60.1842H55.145L55.5948 70.1654L55.5585 70.0931C55.5585 70.0931 39.1593 73.2241 39.1593 71.6142V61.3108L38.8231 57.5802L34.6914 56.6421Z" fill="#3164C2"/>
<path d="M49.9977 43.9648C52.5075 43.9648 54.5422 41.912 54.5422 39.3798C54.5422 36.8477 52.5075 34.7949 49.9977 34.7949C47.4878 34.7949 45.4531 36.8477 45.4531 39.3798C45.4531 41.912 47.4878 43.9648 49.9977 43.9648Z" fill="#FEB8B8"/>
<path d="M50.678 37.3241L54.2067 37.4667C54.6506 37.4654 55.1354 37.4496 55.4735 37.1599C55.9829 36.7229 55.8976 35.8982 55.6248 35.2822C54.8646 33.5669 53.1688 32.9524 51.3067 33.0028C49.4446 33.0533 47.4933 33.6901 46.4906 35.2731C45.4878 36.8562 45.2169 38.8553 45.5946 40.6948C46.0312 39.7595 46.7034 38.956 47.544 38.3646C48.3847 37.7732 49.3643 37.4147 50.3853 37.3247L50.678 37.3241Z" fill="#2F2E41"/>
<path d="M71.6339 82.1708L58.8617 73.1398C58.7431 73.0556 58.6623 72.9273 58.6372 72.7831C58.6121 72.639 58.6446 72.4906 58.7276 72.3706L68.7523 57.94C68.8358 57.8203 68.9629 57.7388 69.1058 57.7134C69.2487 57.6881 69.3958 57.7209 69.5148 57.8047L82.2869 66.8357C82.4056 66.9199 82.4863 67.0482 82.5115 67.1924C82.5366 67.3365 82.5041 67.4849 82.421 67.6049L72.3967 82.0351C72.3132 82.155 72.186 82.2366 72.0431 82.262C71.9001 82.2874 71.753 82.2546 71.6339 82.1708Z" fill="#1BB57E"/>
<path d="M74.5058 72.3719L67.0114 67.0727C66.9247 67.0114 66.8508 66.9335 66.794 66.8434C66.7372 66.7534 66.6985 66.6529 66.6802 66.5477C66.6618 66.4425 66.6642 66.3348 66.6871 66.2305C66.7101 66.1263 66.7532 66.0276 66.8139 65.9402C66.8747 65.8527 66.9519 65.7782 67.0412 65.7209C67.1305 65.6636 67.2301 65.6245 67.3343 65.606C67.4385 65.5875 67.5454 65.5899 67.6487 65.6131C67.752 65.6363 67.8498 65.6797 67.9365 65.741L75.431 71.0402C75.606 71.164 75.7251 71.3528 75.7622 71.5652C75.7992 71.7776 75.7511 71.9962 75.6284 72.1728C75.5057 72.3494 75.3185 72.4695 75.108 72.5069C74.8975 72.5443 74.6809 72.4957 74.5058 72.3719Z" fill="white"/>
<path d="M72.7857 74.8479L65.2912 69.5487C65.2045 69.4875 65.1305 69.4096 65.0736 69.3195C65.0167 69.2294 64.9779 69.1288 64.9595 69.0236C64.9411 68.9184 64.9435 68.8106 64.9664 68.7063C64.9893 68.602 65.0324 68.5033 65.0932 68.4158C65.154 68.3283 65.2313 68.2537 65.3206 68.1964C65.41 68.139 65.5096 68.1 65.6139 68.0816C65.7182 68.0631 65.8251 68.0656 65.9285 68.0888C66.0319 68.112 66.1297 68.1556 66.2163 68.217L73.7108 73.5162C73.8857 73.6401 74.0046 73.8289 74.0415 74.0412C74.0784 74.2535 74.0303 74.4718 73.9077 74.6483C73.7851 74.8248 73.598 74.945 73.3876 74.9824C73.1773 75.0198 72.9608 74.9715 72.7857 74.8479Z" fill="white"/>
<path d="M71.0469 77.3505L63.5524 72.0512C63.4657 71.9899 63.3918 71.912 63.335 71.822C63.2782 71.7319 63.2395 71.6314 63.2212 71.5262C63.2028 71.4211 63.2052 71.3133 63.2282 71.209C63.2511 71.1048 63.2942 71.0061 63.3549 70.9187C63.4157 70.8313 63.4929 70.7568 63.5822 70.6994C63.6715 70.6421 63.7711 70.6031 63.8753 70.5846C63.9796 70.5661 64.0864 70.5685 64.1897 70.5916C64.293 70.6148 64.3908 70.6582 64.4775 70.7195L71.972 76.0187C72.147 76.1425 72.2662 76.3314 72.3032 76.5438C72.3402 76.7561 72.2921 76.9747 72.1694 77.1513C72.0467 77.3279 71.8595 77.4481 71.649 77.4854C71.4385 77.5228 71.2219 77.4742 71.0469 77.3505Z" fill="white"/>
<path d="M74.4851 67.4733L71.5822 65.4208C71.4955 65.3595 71.4215 65.2816 71.3646 65.1915C71.3077 65.1015 71.2689 65.0009 71.2505 64.8957C71.2321 64.7905 71.2345 64.6827 71.2574 64.5784C71.2804 64.4741 71.3235 64.3753 71.3842 64.2878C71.445 64.2004 71.5223 64.1258 71.6116 64.0685C71.701 64.0111 71.8007 63.9721 71.905 63.9536C72.0093 63.9352 72.1162 63.9376 72.2195 63.9609C72.3229 63.9841 72.4207 64.0277 72.5074 64.0891L75.4102 66.1416C75.5852 66.2654 75.7044 66.4542 75.7414 66.6666C75.7784 66.879 75.7303 67.0975 75.6076 67.2741C75.4849 67.4507 75.2978 67.5709 75.0872 67.6083C74.8767 67.6456 74.6601 67.5971 74.4851 67.4733Z" fill="white"/>
</g>
<defs>
<clipPath id="clip0_13_6633">
<rect width="104" height="79" fill="white" transform="translate(21.5 33)"/>
</clipPath>
</defs>
</svg>
